<svg width="24" height="21" viewBox="0 0 24 21" fill="none" xmlns="http://www.w3.org/2000/svg">
<path d="M11.548 14.8333C11.548 11.5422 14.6128 8.7515 18.513 8.7515C19.4183 8.7515 20.3237 8.96617 21.1602 9.25317C21.1602 4.5305 16.4935 0.666504 10.8515 0.666504C5.07065 0.666504 0.333984 4.67284 0.333984 9.46667C0.333984 12.5432 2.28465 15.405 5.21065 16.8365V20.0565C5.21065 20.4147 5.48832 20.6282 5.90598 20.4147L10.085 18.268H11.1303C11.618 18.268 12.1057 18.268 12.5233 18.1245C11.8268 17.1223 11.548 15.9778 11.548 14.8333ZM18.513 10.54C15.5882 10.54 13.2198 12.4008 13.2198 14.8333C13.2198 17.2658 15.5882 19.269 18.443 19.269H18.7918L19.4883 19.556L20.6025 20.2712C20.9513 20.2712 21.299 20.2712 21.299 19.8418V18.5538C22.692 17.8387 23.6673 16.4072 23.6673 14.8333C23.6673 12.4008 21.369 10.54 18.443 10.54H18.513Z" fill="url(#paint0_linear_421_3464)"/>
<defs>
<linearGradient id="paint0_linear_421_3464" x1="3.30567e-07" y1="11" x2="24" y2="11" gradientUnits="userSpaceOnUse">
<stop stop-color="#E54D60"/>
<stop offset="1" stop-color="#A342FF"/>
</linearGradient>
</defs>
</svg>
