<svg width="24" height="21" viewBox="0 0 24 21" fill="none" xmlns="http://www.w3.org/2000/svg">
<path d="M19.484 7.51717V1.49134C19.4837 1.27247 19.3965 1.06267 19.2417 0.908021C19.0868 0.753368 18.8769 0.666504 18.658 0.666504H12.0547C11.9463 0.666504 11.8391 0.687839 11.739 0.729291C11.6389 0.770742 11.548 0.831499 11.4714 0.908092C11.3948 0.984685 11.3341 1.07561 11.2926 1.17569C11.2512 1.27576 11.2298 1.38302 11.2298 1.49134V7.369C12.0981 6.84056 13.0638 6.4922 14.0695 6.34467C15.9567 6.05769 17.8847 6.47503 19.484 7.51717ZM20.8035 16.3488L23.2803 18.1805C23.5542 18.3623 23.7446 18.6454 23.8097 18.9676C23.8748 19.2898 23.8092 19.6246 23.6274 19.8984C23.4456 20.1723 23.1625 20.3627 22.8403 20.4278C22.5182 20.4928 22.1833 20.4273 21.9095 20.2455L21.8103 20.1708L19.3347 18.3298H19.2857C18.6807 18.9093 17.9588 19.3528 17.1684 19.6305C16.378 19.9081 15.5374 20.0136 14.7029 19.9398C13.8684 19.866 13.0594 19.6146 12.33 19.2025C11.6006 18.7904 10.9677 18.2271 10.4739 17.5504C9.98001 16.8737 9.63654 16.0993 9.46649 15.279C9.29644 14.4587 9.30375 13.6115 9.48793 12.7942C9.6721 11.977 10.0289 11.2085 10.5344 10.5405C11.0398 9.8724 11.6823 9.32012 12.4187 8.92067H12.3522C12.9746 8.56689 13.6575 8.3319 14.3658 8.22767C15.6626 8.03098 16.9878 8.275 18.1295 8.92067H18.0548C18.8516 9.35344 19.5366 9.96593 20.0554 10.7096C20.5743 11.4532 20.9127 12.3075 21.0438 13.2047V13.1627C21.2052 14.211 21.0794 15.2835 20.6798 16.266L20.8035 16.3488ZM13.9318 16.8202C14.4837 17.0803 15.0997 17.1725 15.7028 17.0838H15.6783C16.0837 17.0284 16.474 16.8927 16.8263 16.6847C17.1787 16.4767 17.486 16.2006 17.7304 15.8724C17.9748 15.5443 18.1514 15.1707 18.2498 14.7736C18.3481 14.3764 18.3663 13.9636 18.3033 13.5593C18.2222 13.0329 18.0063 12.5365 17.6766 12.1182C17.3469 11.6999 16.9145 11.3741 16.4216 11.1723C15.9287 10.9706 15.3919 10.8998 14.8635 10.9669C14.3352 11.034 13.8331 11.2366 13.4063 11.5551C12.9794 11.8736 12.6422 12.2972 12.4274 12.7846C12.2126 13.272 12.1276 13.8066 12.1807 14.3366C12.2337 14.8666 12.4229 15.3738 12.73 15.809C13.037 16.2442 13.4515 16.5925 13.933 16.8202H13.9318ZM1.326 11.3963H7.92933C7.51815 12.5366 7.37871 13.7571 7.5221 14.9608C7.66549 16.1645 8.08777 17.3181 8.75533 18.3298V18.8245C8.75549 18.933 8.73423 19.0405 8.69277 19.1408C8.65132 19.2411 8.59048 19.3322 8.51375 19.4089C8.43701 19.4856 8.3459 19.5465 8.24561 19.5879C8.14533 19.6294 8.03785 19.6507 7.92933 19.6505H1.326C1.10693 19.6505 0.896836 19.5635 0.741931 19.4086C0.587026 19.2537 0.500001 19.0436 0.500001 18.8245V12.2212C0.500001 12.0024 0.586903 11.7926 0.741589 11.6379C0.896275 11.4832 1.10724 11.3963 1.326 11.3963ZM1.326 0.666504H7.92933C8.38433 0.666504 8.75533 1.03634 8.75533 1.49134V8.09467C8.75533 8.54967 8.3855 8.92067 7.92933 8.92067H1.326C1.21749 8.92082 1.11001 8.89956 1.00972 8.85811C0.909438 8.81665 0.81832 8.75582 0.741588 8.67908C0.664856 8.60235 0.604019 8.51123 0.562563 8.41095C0.521107 8.31066 0.499847 8.20318 0.500001 8.09467V1.49134C0.500001 1.03634 0.871001 0.666504 1.326 0.666504Z" fill="#7C8591"/>
</svg>
