<svg width="28" height="25" viewBox="0 0 28 25" fill="none" xmlns="http://www.w3.org/2000/svg">
<path d="M13.985 0.972283C6.42204 0.972283 0.290039 5.18833 0.290039 10.3888C0.290039 13.364 2.30304 16.0144 5.43704 17.7393C4.99104 19.2697 4.10104 20.9626 2.38104 22.461C2.38104 22.461 6.39704 22.1859 9.23304 19.2108C9.39604 19.2521 9.56504 19.2832 9.73004 19.3204C9.56932 18.8403 9.48587 18.3362 9.48304 17.8282C9.48304 14.3195 13.259 11.5719 18.083 11.5719C21.546 11.5719 24.461 12.9948 25.833 15.094C27.001 13.7083 27.68 12.1023 27.68 10.3857C27.68 5.18626 21.548 0.970215 13.985 0.970215V0.972283ZM25.68 17.8303C25.68 14.9451 22.28 12.6049 18.08 12.6049C13.885 12.6049 10.482 14.9461 10.482 17.8313C10.482 20.7164 13.885 23.0566 18.082 23.0566C19.01 23.0566 19.895 22.9367 20.718 22.7257C22.291 24.3782 24.518 24.5302 24.518 24.5302C23.565 23.6988 23.072 22.7588 22.824 21.9098C24.562 20.9532 25.68 19.4817 25.68 17.8303Z" fill="#808080"/>
</svg>
