<svg width="28" height="28" viewBox="0 0 28 28" fill="none" xmlns="http://www.w3.org/2000/svg">
<path d="M13.548 18.8333C13.548 15.5422 16.6128 12.7515 20.513 12.7515C21.4183 12.7515 22.3237 12.9662 23.1602 13.2532C23.1602 8.5305 18.4935 4.6665 12.8515 4.6665C7.07065 4.6665 2.33398 8.67284 2.33398 13.4667C2.33398 16.5432 4.28465 19.405 7.21065 20.8365V24.0565C7.21065 24.4147 7.48832 24.6282 7.90598 24.4147L12.085 22.268H13.1303C13.618 22.268 14.1057 22.268 14.5233 22.1245C13.8268 21.1223 13.548 19.9778 13.548 18.8333ZM20.513 14.54C17.5882 14.54 15.2198 16.4008 15.2198 18.8333C15.2198 21.2658 17.5881 23.269 20.443 23.269H20.7918L21.4883 23.556L22.6025 24.2712C22.9513 24.2712 23.299 24.2712 23.299 23.8418V22.5538C24.692 21.8387 25.6673 20.4072 25.6673 18.8333C25.6673 16.4008 23.369 14.54 20.443 14.54H20.513Z" fill="#7C8591"/>
</svg>
