<svg width="24" height="24" viewBox="0 0 24 24" fill="none" xmlns="http://www.w3.org/2000/svg">
<path d="M8.99129 10.6704C8.89313 10.6605 8.77532 10.6605 8.66734 10.6704C6.33095 10.5918 4.47559 8.67755 4.47559 6.32153C4.47559 3.91642 6.4193 1.96289 8.83422 1.96289C11.2393 1.96289 13.1929 3.91642 13.1929 6.32153C13.183 8.67755 11.3277 10.5918 8.99129 10.6704Z" fill="#808080" stroke="#808080" stroke-linecap="round" stroke-linejoin="round"/>
<path d="M16.1091 3.92578C18.0135 3.92578 19.5449 5.46701 19.5449 7.36164C19.5449 9.21701 18.0724 10.7288 16.2367 10.7975C16.1581 10.7877 16.0698 10.7877 15.9814 10.7975" fill="#808080"/>
<path d="M16.1091 3.92578C18.0135 3.92578 19.5449 5.46701 19.5449 7.36164C19.5449 9.21701 18.0724 10.7288 16.2367 10.7975C16.1581 10.7877 16.0698 10.7877 15.9814 10.7975" stroke="#808080" stroke-linecap="round" stroke-linejoin="round"/>
<path d="M4.0835 14.2932C1.70784 15.8835 1.70784 18.4751 4.0835 20.0556C6.78311 21.8619 11.2105 21.8619 13.9101 20.0556C16.2857 18.4653 16.2857 15.8736 13.9101 14.2932C11.2203 12.4967 6.79292 12.4967 4.0835 14.2932Z" fill="#808080" stroke="#808080" stroke-linecap="round" stroke-linejoin="round"/>
<path d="M18.0029 19.6327C18.7097 19.4855 19.3773 19.2008 19.927 18.7787C21.4584 17.6301 21.4584 15.7355 19.927 14.5869C19.3871 14.1746 18.7294 13.8997 18.0324 13.7427" fill="#808080"/>
<path d="M18.0029 19.6327C18.7097 19.4855 19.3773 19.2008 19.927 18.7787C21.4584 17.6301 21.4584 15.7355 19.927 14.5869C19.3871 14.1746 18.7294 13.8997 18.0324 13.7427" stroke="#808080" stroke-linecap="round" stroke-linejoin="round"/>
</svg>
