<svg width="36" height="24" viewBox="0 0 36 24" fill="none" xmlns="http://www.w3.org/2000/svg">
<path d="M17.67 0V0C18.0366 1.04525 18.2198 1.56787 18.4237 2.04201C20.3205 6.45335 24.2146 9.68996 28.8984 10.7481C29.4018 10.8619 29.9491 10.9465 31.0438 11.1157L35.34 11.78L31.0438 12.4443C29.9491 12.6135 29.4018 12.6981 28.8984 12.8119C24.2146 13.87 20.3205 17.1067 18.4237 21.518C18.2198 21.9921 18.0366 22.5148 17.67 23.56V23.56V23.56C17.3034 22.5148 17.1202 21.9921 16.9163 21.518C15.0195 17.1067 11.1254 13.87 6.44162 12.8119C5.93821 12.6981 5.39088 12.6135 4.29623 12.4443L0 11.78L4.29622 11.1157C5.39088 10.9465 5.93821 10.8619 6.44163 10.7481C11.1254 9.68996 15.0195 6.45335 16.9163 2.042C17.1202 1.56787 17.3034 1.04525 17.67 0V0Z" fill="#808080"/>
</svg>
