<svg width="35" height="34" viewBox="0 0 35 34" fill="none" xmlns="http://www.w3.org/2000/svg">
<rect x="0.5" width="34" height="34" rx="8.81482" fill="#0B69C7"/>
<path d="M21.6885 7H13.3085C9.66854 7 7.49854 9.17 7.49854 12.81V21.18C7.49854 24.83 9.66854 27 13.3085 27H21.6785C25.3185 27 27.4885 24.83 27.4885 21.19V12.81C27.4985 9.17 25.3285 7 21.6885 7ZM23.4985 17.75H18.2485V23C18.2485 23.41 17.9085 23.75 17.4985 23.75C17.0885 23.75 16.7485 23.41 16.7485 23V17.75H11.4985C11.0885 17.75 10.7485 17.41 10.7485 17C10.7485 16.59 11.0885 16.25 11.4985 16.25H16.7485V11C16.7485 10.59 17.0885 10.25 17.4985 10.25C17.9085 10.25 18.2485 10.59 18.2485 11V16.25H23.4985C23.9085 16.25 24.2485 16.59 24.2485 17C24.2485 17.41 23.9085 17.75 23.4985 17.75Z" fill="white"/>
</svg>
