<svg width="104" height="29" viewBox="0 0 104 29" fill="none" xmlns="http://www.w3.org/2000/svg">
<rect x="0.5" y="0.5" width="103" height="28" rx="14" fill="white"/>
<rect x="0.5" y="0.5" width="103" height="28" rx="14" stroke="#DEDEDE"/>
<path d="M22.5 21.1L17.0667 15.6667C16.425 15.025 16.425 13.975 17.0667 13.3334L22.5 7.90002" stroke="black" stroke-width="1.5" stroke-miterlimit="10" stroke-linecap="round" stroke-linejoin="round"/>
<path d="M37.042 19V10.901H34.143V9.9H41.033V10.901H38.134V19H37.042ZM44.13 19.156C43.4974 19.156 42.9384 19.013 42.453 18.727C41.9677 18.4323 41.5864 18.0293 41.309 17.518C41.0404 17.0067 40.906 16.4173 40.906 15.75C40.906 15.0827 41.0404 14.4933 41.309 13.982C41.5864 13.4707 41.9634 13.072 42.44 12.786C42.9254 12.4913 43.48 12.344 44.104 12.344C44.7107 12.344 45.235 12.4957 45.677 12.799C46.119 13.0937 46.4614 13.5097 46.704 14.047C46.9467 14.5843 47.068 15.217 47.068 15.945H41.699L41.959 15.724C41.959 16.244 42.05 16.6903 42.232 17.063C42.4227 17.4357 42.687 17.7217 43.025 17.921C43.363 18.1117 43.7487 18.207 44.182 18.207C44.6414 18.207 45.027 18.0987 45.339 17.882C45.6597 17.6653 45.9067 17.3793 46.08 17.024L46.977 17.479C46.8124 17.817 46.5914 18.1117 46.314 18.363C46.0454 18.6143 45.7247 18.8093 45.352 18.948C44.988 19.0867 44.5807 19.156 44.13 19.156ZM42.024 15.282L41.751 15.074H46.236L45.963 15.295C45.963 14.879 45.8807 14.5193 45.716 14.216C45.5514 13.9127 45.3304 13.6787 45.053 13.514C44.7757 13.3493 44.455 13.267 44.091 13.267C43.7357 13.267 43.3977 13.3493 43.077 13.514C42.765 13.6787 42.5094 13.9127 42.31 14.216C42.1194 14.5107 42.024 14.866 42.024 15.282ZM48.3797 19V12.5H49.3547L49.4067 13.41C49.6061 13.0633 49.8617 12.799 50.1737 12.617C50.4857 12.435 50.8497 12.344 51.2657 12.344C51.7857 12.344 52.2277 12.4653 52.5917 12.708C52.9644 12.9507 53.2331 13.319 53.3977 13.813C53.5797 13.3363 53.8441 12.9723 54.1907 12.721C54.5461 12.4697 54.9664 12.344 55.4517 12.344C56.1797 12.344 56.7517 12.5867 57.1677 13.072C57.5924 13.5573 57.8004 14.294 57.7917 15.282V19H56.7517V15.672C56.7517 15.0307 56.6824 14.541 56.5437 14.203C56.4137 13.865 56.2361 13.6353 56.0107 13.514C55.7854 13.384 55.5254 13.319 55.2307 13.319C54.7194 13.319 54.3207 13.5227 54.0347 13.93C53.7487 14.3287 53.6057 14.8963 53.6057 15.633V19H52.5657V15.672C52.5657 15.0307 52.4964 14.541 52.3577 14.203C52.2277 13.865 52.0457 13.6353 51.8117 13.514C51.5864 13.384 51.3264 13.319 51.0317 13.319C50.5291 13.319 50.1347 13.5227 49.8487 13.93C49.5627 14.3287 49.4197 14.8963 49.4197 15.633V19H48.3797ZM59.5023 21.6V12.5H60.4773L60.5423 13.696V21.6H59.5023ZM62.7393 19.156C62.1933 19.156 61.7123 19.013 61.2963 18.727C60.889 18.441 60.5727 18.0423 60.3473 17.531C60.122 17.011 60.0093 16.4173 60.0093 15.75C60.0093 15.074 60.122 14.4803 60.3473 13.969C60.5727 13.4577 60.889 13.059 61.2963 12.773C61.7123 12.487 62.1933 12.344 62.7393 12.344C63.32 12.344 63.8313 12.487 64.2733 12.773C64.7153 13.059 65.0577 13.4577 65.3003 13.969C65.5517 14.4803 65.6773 15.074 65.6773 15.75C65.6773 16.4173 65.5517 17.011 65.3003 17.531C65.0577 18.0423 64.7153 18.441 64.2733 18.727C63.8313 19.013 63.32 19.156 62.7393 19.156ZM62.5053 18.207C62.9127 18.207 63.2723 18.103 63.5843 17.895C63.905 17.687 64.1563 17.3967 64.3383 17.024C64.529 16.6513 64.6243 16.2267 64.6243 15.75C64.6243 15.2733 64.5333 14.8487 64.3513 14.476C64.178 14.1033 63.931 13.813 63.6103 13.605C63.2897 13.397 62.9257 13.293 62.5183 13.293C62.137 13.293 61.7947 13.397 61.4913 13.605C61.1967 13.813 60.9627 14.1033 60.7893 14.476C60.6247 14.8487 60.5423 15.2733 60.5423 15.75C60.5423 16.2267 60.6247 16.6513 60.7893 17.024C60.9627 17.3967 61.1967 17.687 61.4913 17.895C61.786 18.103 62.124 18.207 62.5053 18.207ZM67.118 19V9.9H68.158V19H67.118ZM73.9785 19L73.9265 17.934V15.568C73.9265 15.0567 73.8701 14.6363 73.7575 14.307C73.6448 13.969 73.4671 13.7133 73.2245 13.54C72.9818 13.3667 72.6655 13.28 72.2755 13.28C71.9201 13.28 71.6125 13.3537 71.3525 13.501C71.1011 13.6397 70.8931 13.865 70.7285 14.177L69.7925 13.813C69.9571 13.5097 70.1565 13.2497 70.3905 13.033C70.6245 12.8077 70.8975 12.6387 71.2095 12.526C71.5215 12.4047 71.8768 12.344 72.2755 12.344C72.8821 12.344 73.3805 12.4653 73.7705 12.708C74.1691 12.942 74.4681 13.293 74.6675 13.761C74.8668 14.2203 74.9621 14.7923 74.9535 15.477L74.9405 19H73.9785ZM72.0285 19.156C71.2658 19.156 70.6678 18.9827 70.2345 18.636C69.8098 18.2807 69.5975 17.791 69.5975 17.167C69.5975 16.5083 69.8141 16.0057 70.2475 15.659C70.6895 15.3037 71.3048 15.126 72.0935 15.126H73.9525V15.997H72.3275C71.7208 15.997 71.2875 16.0967 71.0275 16.296C70.7761 16.4953 70.6505 16.7813 70.6505 17.154C70.6505 17.492 70.7761 17.7607 71.0275 17.96C71.2788 18.1507 71.6298 18.246 72.0805 18.246C72.4531 18.246 72.7781 18.168 73.0555 18.012C73.3328 17.8473 73.5451 17.6177 73.6925 17.323C73.8485 17.0197 73.9265 16.6643 73.9265 16.257H74.3685C74.3685 17.141 74.1691 17.8473 73.7705 18.376C73.3718 18.896 72.7911 19.156 72.0285 19.156ZM79.0454 19.156C78.4127 19.156 77.9231 18.9913 77.5764 18.662C77.2297 18.3327 77.0564 17.869 77.0564 17.271V10.472H78.0964V17.167C78.0964 17.4963 78.1831 17.752 78.3564 17.934C78.5384 18.1073 78.7897 18.194 79.1104 18.194C79.2144 18.194 79.3141 18.181 79.4094 18.155C79.5134 18.1203 79.6477 18.0423 79.8124 17.921L80.2154 18.766C79.9901 18.9133 79.7864 19.013 79.6044 19.065C79.4224 19.1257 79.2361 19.156 79.0454 19.156ZM75.9254 13.423V12.5H80.0464V13.423H75.9254ZM84.3234 19.156C83.6907 19.156 83.1317 19.013 82.6464 18.727C82.1611 18.4323 81.7797 18.0293 81.5024 17.518C81.2337 17.0067 81.0994 16.4173 81.0994 15.75C81.0994 15.0827 81.2337 14.4933 81.5024 13.982C81.7797 13.4707 82.1567 13.072 82.6334 12.786C83.1187 12.4913 83.6734 12.344 84.2974 12.344C84.9041 12.344 85.4284 12.4957 85.8704 12.799C86.3124 13.0937 86.6547 13.5097 86.8974 14.047C87.1401 14.5843 87.2614 15.217 87.2614 15.945H81.8924L82.1524 15.724C82.1524 16.244 82.2434 16.6903 82.4254 17.063C82.6161 17.4357 82.8804 17.7217 83.2184 17.921C83.5564 18.1117 83.9421 18.207 84.3754 18.207C84.8347 18.207 85.2204 18.0987 85.5324 17.882C85.8531 17.6653 86.1001 17.3793 86.2734 17.024L87.1704 17.479C87.0057 17.817 86.7847 18.1117 86.5074 18.363C86.2387 18.6143 85.9181 18.8093 85.5454 18.948C85.1814 19.0867 84.7741 19.156 84.3234 19.156ZM82.2174 15.282L81.9444 15.074H86.4294L86.1564 15.295C86.1564 14.879 86.0741 14.5193 85.9094 14.216C85.7447 13.9127 85.5237 13.6787 85.2464 13.514C84.9691 13.3493 84.6484 13.267 84.2844 13.267C83.9291 13.267 83.5911 13.3493 83.2704 13.514C82.9584 13.6787 82.7027 13.9127 82.5034 14.216C82.3127 14.5107 82.2174 14.866 82.2174 15.282ZM90.8481 19.156C90.3714 19.156 89.9554 19.0867 89.6001 18.948C89.2448 18.8007 88.9458 18.61 88.7031 18.376C88.4691 18.142 88.3001 17.8863 88.1961 17.609L89.1061 17.232C89.2534 17.5267 89.4744 17.765 89.7691 17.947C90.0638 18.129 90.3888 18.22 90.7441 18.22C91.1514 18.22 91.4938 18.142 91.7711 17.986C92.0484 17.8213 92.1871 17.5917 92.1871 17.297C92.1871 17.0283 92.0831 16.8117 91.8751 16.647C91.6758 16.4823 91.3768 16.348 90.9781 16.244L90.3541 16.075C89.7648 15.919 89.3054 15.685 88.9761 15.373C88.6468 15.0523 88.4821 14.6927 88.4821 14.294C88.4821 13.6787 88.6814 13.202 89.0801 12.864C89.4874 12.5173 90.0898 12.344 90.8871 12.344C91.2684 12.344 91.6151 12.4003 91.9271 12.513C92.2391 12.6257 92.5078 12.786 92.7331 12.994C92.9584 13.1933 93.1231 13.4317 93.2271 13.709L92.3171 14.112C92.2044 13.8173 92.0181 13.605 91.7581 13.475C91.4981 13.345 91.1818 13.28 90.8091 13.28C90.4104 13.28 90.0984 13.3667 89.8731 13.54C89.6478 13.7047 89.5351 13.9387 89.5351 14.242C89.5351 14.4153 89.6261 14.58 89.8081 14.736C89.9988 14.8833 90.2761 15.0047 90.6401 15.1L91.2901 15.269C91.7148 15.373 92.0701 15.529 92.3561 15.737C92.6421 15.9363 92.8588 16.166 93.0061 16.426C93.1534 16.686 93.2271 16.9633 93.2271 17.258C93.2271 17.648 93.1231 17.986 92.9151 18.272C92.7071 18.558 92.4254 18.779 92.0701 18.935C91.7148 19.0823 91.3074 19.156 90.8481 19.156Z" fill="black"/>
</svg>
