<svg width="24" height="24" viewBox="0 0 24 24" fill="none" xmlns="http://www.w3.org/2000/svg">
<g clip-path="url(#clip0_280_844)">
<mask id="mask0_280_844" style="mask-type:luminance" maskUnits="userSpaceOnUse" x="0" y="0" width="24" height="24">
<path d="M16 0H8C3.58172 0 0 3.58172 0 8V16C0 20.4183 3.58172 24 8 24H16C20.4183 24 24 20.4183 24 16V8C24 3.58172 20.4183 0 16 0Z" fill="white"/>
</mask>
<g mask="url(#mask0_280_844)">
<path d="M20 0H4C1.79086 0 0 1.79086 0 4V20C0 22.2091 1.79086 24 4 24H20C22.2091 24 24 22.2091 24 20V4C24 1.79086 22.2091 0 20 0Z" fill="#E0E2D9"/>
<mask id="mask1_280_844" style="mask-type:luminance" maskUnits="userSpaceOnUse" x="6" y="6" width="12" height="12">
<path d="M18 6H6V18H18V6Z" fill="white"/>
</mask>
<g mask="url(#mask1_280_844)">
<path fill-rule="evenodd" clip-rule="evenodd" d="M11.8971 7.66062L11.5807 8.02693L11.0131 7.53668L11.3387 7.15971L11.3573 7.13966C12.0872 6.40988 13.077 5.99993 14.1091 6C15.1412 6.00007 16.131 6.41016 16.8607 7.14005C17.5905 7.86994 18.0004 8.85984 18.0003 9.89197C18.0002 10.9241 17.5902 11.914 16.8603 12.6438L16.8411 12.6617L16.4656 12.988L15.9737 12.4219L16.339 12.1044C16.9226 11.5161 17.2502 10.7209 17.2503 9.89192C17.2504 9.05868 16.9194 8.25955 16.3303 7.67033C15.7412 7.08111 14.9422 6.75006 14.109 6.75C13.2803 6.74994 12.4853 7.07736 11.8971 7.66062ZM14.6375 9.89175L14.3724 10.157L10.1529 14.3767L9.88771 14.6419L9.35737 14.1116L9.62252 13.8464L13.842 9.62661L14.1072 9.36144L14.6375 9.89175ZM8.02992 11.5793L7.66952 11.8978C7.37933 12.1866 7.14877 12.5297 6.991 12.9076C6.83191 13.2887 6.75 13.6975 6.75 14.1104C6.75 14.5233 6.83191 14.9322 6.991 15.3132C7.0648 15.49 7.15453 15.6592 7.25885 15.8187L7.14941 16.8636C6.78528 16.5035 6.49619 16.0747 6.29889 15.6022C6.10159 15.1296 6 14.6225 6 14.1104C6 13.5983 6.10159 13.0913 6.29889 12.6187C6.49619 12.1461 6.78528 11.7173 7.14942 11.3573L7.16479 11.3429L7.53329 11.0173L8.02992 11.5793ZM7.25885 15.8187L7.14941 16.8636C7.88682 17.5928 8.88206 18.0018 9.91914 18.0018C10.9562 18.0018 11.9514 17.5928 12.6889 16.8636L12.7261 16.8206L13.0053 16.4451L12.4034 15.9976L12.1417 16.3497C11.5467 16.9279 10.7495 17.2518 9.91914 17.2518C9.07953 17.2518 8.2738 16.9207 7.67678 16.3303C7.5194 16.1746 7.37938 16.0031 7.25885 15.8187Z" fill="black"/>
</g>
</g>
</g>
<defs>
<clipPath id="clip0_280_844">
<rect width="24" height="24" fill="white"/>
</clipPath>
</defs>
</svg>
