<svg width="24" height="24" viewBox="0 0 24 24" fill="none" xmlns="http://www.w3.org/2000/svg">
<g clip-path="url(#clip0_280_831)">
<mask id="mask0_280_831" style="mask-type:luminance" maskUnits="userSpaceOnUse" x="0" y="0" width="24" height="24">
<path d="M16 0H8C3.58172 0 0 3.58172 0 8V16C0 20.4183 3.58172 24 8 24H16C20.4183 24 24 20.4183 24 16V8C24 3.58172 20.4183 0 16 0Z" fill="white"/>
</mask>
<g mask="url(#mask0_280_831)">
<path d="M20 0H4C1.79086 0 0 1.79086 0 4V20C0 22.2091 1.79086 24 4 24H20C22.2091 24 24 22.2091 24 20V4C24 1.79086 22.2091 0 20 0Z" fill="#FF0000"/>
<path d="M17.7499 9.11153C17.6125 8.5961 17.2059 8.18948 16.6885 8.05013C15.7531 7.80005 12 7.80005 12 7.80005C12 7.80005 8.24881 7.80005 7.31149 8.05013C6.79605 8.18758 6.38944 8.59419 6.25008 9.11153C6 10.047 6 11.9999 6 11.9999C6 11.9999 6 13.9528 6.25008 14.8882C6.38753 15.4037 6.79415 15.8103 7.31149 15.9496C8.24881 16.1997 12 16.1997 12 16.1997C12 16.1997 15.7531 16.1997 16.6885 15.9496C17.2039 15.8122 17.6106 15.4056 17.7499 14.8882C18 13.9528 18 11.9999 18 11.9999C18 11.9999 18 10.047 17.7499 9.11153Z" fill="white"/>
<path d="M10.8008 13.8001L13.9182 11.9999L10.8008 10.1997V13.8001Z" fill="#FF0000"/>
</g>
</g>
<defs>
<clipPath id="clip0_280_831">
<rect width="24" height="24" fill="white"/>
</clipPath>
</defs>
</svg>
