<svg width="85" height="27" viewBox="0 0 85 27" fill="none" xmlns="http://www.w3.org/2000/svg">
<mask id="mask0_573_2867" style="mask-type:alpha" maskUnits="userSpaceOnUse" x="0" y="0" width="85" height="27">
<path d="M20.8237 17.3244V9.36218C20.8237 8.96173 20.4992 8.63716 20.0985 8.63716H18.4856C18.0849 8.63716 17.7604 8.96173 17.7604 9.36218V17.3244C17.7604 22.5738 20.4831 26.0052 24.7947 26.0052C26.2101 26.0052 27.4934 25.4524 28.4168 24.5612C28.8775 24.1168 29.6445 24.4405 29.6445 25.081C29.6445 25.4814 29.9691 25.806 30.3695 25.806H31.9826C32.3831 25.806 32.7079 25.4814 32.7079 25.081V9.36218C32.7079 8.96173 32.3831 8.63716 31.9826 8.63716H30.3695C29.9691 8.63716 29.6445 8.96173 29.6445 9.36218V17.2985C29.6445 20.5884 27.8293 22.9404 25.3055 22.9404C22.5827 22.9404 20.8237 20.7586 20.8237 17.3244ZM81.7411 17.4309V25.4001C81.7411 25.7469 82.0224 26.0283 82.3691 26.0283H84.1691C84.516 26.0283 84.7973 25.7469 84.7973 25.4001V17.4309C84.7973 12.147 82.0839 8.69071 77.7139 8.69071C76.2121 8.69071 74.8586 9.30761 73.9206 10.2899C73.5244 10.7043 72.8296 10.4402 72.8296 9.86689V0.628054C72.8296 0.281163 72.5483 0 72.2014 0H70.4016C70.0547 0 69.7736 0.281163 69.7736 0.628054V25.4001C69.7736 25.7469 70.0547 26.0283 70.4016 26.0283H72.2014C72.5483 26.0283 72.8296 25.7469 72.8296 25.4001V17.4595C72.8296 14.1464 74.6862 11.7472 77.1996 11.7472C79.9703 11.7472 81.7411 13.975 81.7411 17.4309ZM63.8906 17.4309V25.4001C63.8906 25.7469 64.1718 26.0283 64.5187 26.0283H66.3187C66.6655 26.0283 66.9469 25.7469 66.9469 25.4001V17.4309C66.9469 12.147 64.2335 8.69071 59.8635 8.69071C58.3619 8.69071 57.0082 9.30761 56.07 10.2899C55.674 10.7043 54.9792 10.4402 54.9792 9.86689V0.628054C54.9792 0.281163 54.698 0 54.351 0H52.5512C52.2043 0 51.9231 0.281163 51.9231 0.628054V25.4001C51.9231 25.7469 52.2043 26.0283 52.5512 26.0283H54.351C54.698 26.0283 54.9792 25.7469 54.9792 25.4001V17.4595C54.9792 14.1464 56.8358 11.7472 59.3492 11.7472C62.1199 11.7472 63.8906 13.975 63.8906 17.4309ZM11.9677 17.4309V25.4001C11.9677 25.7469 12.2489 26.0283 12.5958 26.0283H14.3957C14.7426 26.0283 15.0238 25.7469 15.0238 25.4001V17.4309C15.0238 12.147 12.3105 8.69071 7.94053 8.69071C6.43876 8.69071 5.08528 9.30761 4.14706 10.2899C3.75108 10.7043 3.05608 10.4402 3.05608 9.86689V0.628054C3.05608 0.281163 2.77492 0 2.42803 0H0.628256C0.281366 0 0 0.281163 0 0.628054V25.4001C0 25.7469 0.281366 26.0283 0.628256 26.0283H2.42803C2.77492 26.0283 3.05608 25.7469 3.05608 25.4001V17.4595C3.05608 14.1464 4.91285 11.7472 7.42628 11.7472C10.1969 11.7472 11.9677 13.975 11.9677 17.4309ZM38.9545 13.7829L38.962 13.733C38.9673 13.6989 38.973 13.662 38.974 13.6545C39.1397 12.3081 40.5494 11.2928 42.2508 11.2928L42.3187 11.2932C43.8126 11.2932 44.876 11.9131 45.5692 13.1881C45.6434 13.3244 45.8146 13.3756 45.9511 13.3009C46.0879 13.2267 46.1384 13.0554 46.0641 12.9189C45.2742 11.4664 44.014 10.7301 42.3212 10.7301L42.2532 10.7295C40.2327 10.7295 38.6186 11.9308 38.4151 13.5831L38.4054 13.6464C38.4005 13.6782 38.396 13.7078 38.3954 13.7119C38.3774 13.8649 38.4859 14.003 38.6389 14.0233C38.6512 14.0247 38.6634 14.0255 38.6754 14.0255C38.8135 14.0255 38.9342 13.9231 38.9545 13.7829ZM46.7086 20.6499C46.7086 18.0716 44.9766 17.4354 42.5293 16.8183L42.2376 16.7422C41.5574 16.5615 40.419 16.2592 39.683 15.565C39.5698 15.4585 39.3915 15.464 39.2848 15.5768C39.1781 15.69 39.1833 15.8683 39.2963 15.975C40.1362 16.7672 41.3612 17.0923 42.093 17.2865L42.3916 17.3644C44.9431 18.0081 46.1453 18.542 46.1453 20.6499C46.1453 22.2854 44.5717 23.4275 42.3187 23.4275C40.6445 23.4275 39.2059 22.5941 38.5638 21.2526C38.4967 21.1122 38.3285 21.0526 38.1881 21.1199C38.0477 21.1871 37.9885 21.3552 38.0556 21.4956C38.7922 23.0347 40.4257 23.9908 42.3187 23.9908C44.9034 23.9908 46.7086 22.617 46.7086 20.6499ZM44.5545 13.2788C44.6699 13.1747 44.6792 12.9966 44.5751 12.881C44.0686 12.3189 43.4509 12.0322 42.6311 11.9791C42.4776 11.9699 42.3419 12.0864 42.3317 12.2418C42.3216 12.3972 42.4394 12.531 42.5946 12.5412C43.2584 12.5842 43.7548 12.812 44.1567 13.2581C44.212 13.32 44.2889 13.3512 44.366 13.3512C44.4331 13.3512 44.5005 13.3275 44.5545 13.2788ZM47.4052 22.6643C47.7747 22.0537 47.9619 21.3788 47.9619 20.6578C47.9619 17.0625 44.9768 16.3093 42.7973 15.7596L42.575 15.7019C41.3511 15.3757 40.2526 14.9936 40.2524 13.9192C40.2571 13.7168 40.3041 13.5305 40.3924 13.365C40.4656 13.2279 40.4137 13.0573 40.2764 12.9838C40.1388 12.911 39.9686 12.9625 39.8954 13.1001C39.7653 13.3435 39.696 13.6149 39.6891 13.9127C39.6891 15.5159 41.4049 15.973 42.4299 16.2462L42.6593 16.3057C44.8807 16.8662 47.3985 17.5013 47.3985 20.6578C47.3985 21.2743 47.2387 21.8514 46.9233 22.3728C46.8427 22.5059 46.8853 22.6789 47.0184 22.7594C47.0638 22.787 47.1141 22.8002 47.164 22.8002C47.2592 22.8002 47.3523 22.7519 47.4052 22.6643ZM45.6063 24.3178C45.7436 24.2446 45.7951 24.0738 45.7217 23.9366C45.6483 23.7995 45.4779 23.7478 45.3405 23.8212C44.4871 24.2778 43.4422 24.5194 42.3187 24.5194C40.1299 24.5194 38.1433 23.35 37.3749 21.6098C37.3365 21.5232 37.3118 21.4327 37.301 21.3412C37.2828 21.1865 37.1424 21.0751 36.9884 21.0944C36.8338 21.1124 36.7233 21.2524 36.7415 21.4068C36.7588 21.5542 36.7985 21.6991 36.8596 21.8372C37.7165 23.7784 39.9104 25.0826 42.3187 25.0826C43.5347 25.0826 44.6715 24.8183 45.6063 24.3178ZM45.0375 21.9592C45.4008 21.6015 45.5929 21.1605 45.5929 20.6842C45.5929 20.2927 45.5008 19.935 45.3188 19.6216C45.2221 19.4546 45.0975 19.2962 44.9488 19.1508C44.8374 19.0422 44.6591 19.0441 44.5504 19.1552C44.4417 19.2666 44.4437 19.4449 44.5549 19.5536C44.6672 19.6634 44.7604 19.7815 44.8316 19.904C44.9648 20.1338 45.0296 20.389 45.0296 20.6842C45.0296 21.0108 44.8991 21.3047 44.6423 21.5577C44.1698 22.0229 43.3284 22.2929 42.3958 22.2772C41.8424 22.2693 41.3142 22.1381 40.8679 21.8981C40.5439 21.7238 40.3346 21.4768 40.196 21.3132C40.1694 21.282 40.1455 21.2538 40.124 21.2297C40.0208 21.1132 39.8428 21.1031 39.7262 21.2065C39.6102 21.31 39.5998 21.4879 39.7033 21.6041C39.7219 21.6254 39.743 21.6502 39.7662 21.6776C39.9222 21.8616 40.183 22.1693 40.6009 22.3941C41.1263 22.6769 41.7442 22.8312 42.3873 22.8406C42.4139 22.841 42.4401 22.8412 42.4664 22.8412C43.5172 22.8412 44.4739 22.5142 45.0375 21.9592ZM42.6234 18.3156C42.6616 18.1649 42.5701 18.0115 42.4192 17.9736C42.2147 17.922 41.9954 17.8713 41.7674 17.8233C38.929 17.2252 37.6633 16.0324 37.6633 13.9551C37.6633 11.6752 39.5438 10.143 42.3429 10.143C44.0183 10.143 46.1307 11.0808 46.8094 13.1396C46.8579 13.2873 47.0176 13.3678 47.1651 13.3192C47.3127 13.2703 47.3931 13.1112 47.3444 12.9633C46.578 10.6386 44.2145 9.57984 42.3429 9.57984C39.2069 9.57984 37.0998 11.3382 37.0998 13.9551C37.0998 17.0568 39.6974 17.963 41.6511 18.3744C41.8718 18.4211 42.0838 18.47 42.2814 18.5197C42.3045 18.5256 42.3277 18.5284 42.3506 18.5284C42.4766 18.5284 42.5912 18.4434 42.6234 18.3156ZM49.0539 20.6578C49.0539 18.9396 48.6553 17.8117 47.7611 17.0007C47.646 16.8962 47.4677 16.9051 47.3633 17.0199C47.2588 17.1352 47.2675 17.3133 47.3827 17.4179C48.1591 18.1223 48.4905 19.0913 48.4905 20.6578C48.4905 23.5279 45.895 25.6112 42.3187 25.6112C39.8873 25.6112 37.544 24.2807 36.4875 22.3006L36.4579 22.2458C36.3766 22.0977 36.2074 21.7894 36.0705 21.3356C36.0254 21.1865 35.8682 21.1019 35.7195 21.1473C35.5704 21.1923 35.4862 21.3494 35.5311 21.4983C35.685 22.0087 35.8735 22.3521 35.9642 22.5168L35.9903 22.5655C37.1422 24.7241 39.6852 26.1746 42.3187 26.1746C46.2214 26.1746 49.0539 23.8547 49.0539 20.6578ZM41.673 19.3459C41.7148 19.196 41.6274 19.0408 41.4775 18.9988C40.1366 18.6239 37.3465 17.8439 36.604 15.3194C36.5602 15.1703 36.4034 15.0844 36.2543 15.1289C36.105 15.1727 36.0195 15.3293 36.0636 15.4786C36.8943 18.3024 39.9997 19.1706 41.3257 19.5415C41.3511 19.5486 41.3767 19.552 41.4018 19.552C41.525 19.552 41.6381 19.4705 41.673 19.3459ZM36.4731 13.1721C36.8616 10.6946 39.1574 9.05018 42.2055 9.05018C42.2496 9.05018 42.2942 9.05058 42.3386 9.05119C42.4989 9.04957 42.6222 8.92948 42.6247 8.77388C42.6271 8.61849 42.5029 8.49049 42.3473 8.48805C38.9411 8.43085 36.3561 10.2821 35.9165 13.0847C35.8924 13.2386 35.9974 13.3827 36.151 13.4066C36.166 13.4092 36.1806 13.4102 36.1952 13.4102C36.3315 13.4102 36.4512 13.311 36.4731 13.1721ZM48.3003 13.283C48.1516 13.283 48.0272 13.1666 48.0191 13.0163C47.9769 12.6485 47.188 10.4091 44.7234 9.4776C44.578 9.42243 44.5046 9.25994 44.5595 9.11428C44.6145 8.96903 44.777 8.8956 44.9227 8.95037C47.7828 10.0318 48.563 12.6315 48.5818 12.9865C48.5901 13.1417 48.4709 13.2743 48.3155 13.2826C48.3104 13.283 48.3053 13.283 48.3003 13.283Z" fill="white"/>
</mask>
<g mask="url(#mask0_573_2867)">
<path fill-rule="evenodd" clip-rule="evenodd" d="M20.8233 17.3244V9.36218C20.8233 8.96173 20.4987 8.63716 20.098 8.63716H18.4851C18.0844 8.63716 17.7599 8.96173 17.7599 9.36218V17.3244C17.7599 22.5738 20.4827 26.0052 24.7942 26.0052C26.2096 26.0052 27.4929 25.4524 28.4163 24.5612C28.877 24.1168 29.644 24.4405 29.644 25.081C29.644 25.4814 29.9686 25.806 30.369 25.806H31.9822C32.3826 25.806 32.7074 25.4814 32.7074 25.081V9.36218C32.7074 8.96173 32.3826 8.63716 31.9822 8.63716H30.369C29.9686 8.63716 29.644 8.96173 29.644 9.36218V17.2985C29.644 20.5884 27.8288 22.9404 25.305 22.9404C22.5822 22.9404 20.8233 20.7586 20.8233 17.3244ZM81.7406 17.4309V25.4001C81.7406 25.7469 82.0219 26.0283 82.3686 26.0283H84.1686C84.5155 26.0283 84.7969 25.7469 84.7969 25.4001V17.4309C84.7969 12.147 82.0834 8.69071 77.7134 8.69071C76.2116 8.69071 74.8581 9.30761 73.9201 10.2899C73.5239 10.7043 72.8292 10.4402 72.8292 9.86689V0.628053C72.8292 0.281163 72.5478 0 72.2009 0H70.4011C70.0542 0 69.7731 0.281163 69.7731 0.628053V25.4001C69.7731 25.7469 70.0542 26.0283 70.4011 26.0283H72.2009C72.5478 26.0283 72.8292 25.7469 72.8292 25.4001V17.4595C72.8292 14.1464 74.6857 11.7472 77.1992 11.7472C79.9698 11.7472 81.7406 13.975 81.7406 17.4309ZM63.8901 17.4309V25.4001C63.8901 25.7469 64.1713 26.0283 64.5182 26.0283H66.3182C66.6651 26.0283 66.9464 25.7469 66.9464 25.4001V17.4309C66.9464 12.147 64.233 8.69071 59.863 8.69071C58.3614 8.69071 57.0077 9.30761 56.0695 10.2899C55.6735 10.7043 54.9787 10.4402 54.9787 9.86689V0.628053C54.9787 0.281163 54.6976 0 54.3505 0H52.5507C52.2038 0 51.9226 0.281163 51.9226 0.628053V25.4001C51.9226 25.7469 52.2038 26.0283 52.5507 26.0283H54.3505C54.6976 26.0283 54.9787 25.7469 54.9787 25.4001V17.4595C54.9787 14.1464 56.8353 11.7472 59.3487 11.7472C62.1194 11.7472 63.8901 13.975 63.8901 17.4309ZM11.9672 17.4309V25.4001C11.9672 25.7469 12.2484 26.0283 12.5953 26.0283H14.3952C14.7421 26.0283 15.0233 25.7469 15.0233 25.4001V17.4309C15.0233 12.147 12.31 8.69071 7.94004 8.69071C6.43828 8.69071 5.0848 9.30761 4.14657 10.2899C3.75059 10.7043 3.05559 10.4402 3.05559 9.86689V0.628053C3.05559 0.281163 2.77443 0 2.42754 0H0.627768C0.280878 0 -0.000488281 0.281163 -0.000488281 0.628053V25.4001C-0.000488281 25.7469 0.280878 26.0283 0.627768 26.0283H2.42754C2.77443 26.0283 3.05559 25.7469 3.05559 25.4001V17.4595C3.05559 14.1464 4.91237 11.7472 7.4258 11.7472C10.1965 11.7472 11.9672 13.975 11.9672 17.4309ZM38.954 13.7829L38.9615 13.733C38.9668 13.6989 38.9725 13.662 38.9735 13.6545C39.1392 12.3081 40.5489 11.2928 42.2503 11.2928L42.3183 11.2932C43.8121 11.2932 44.8755 11.9131 45.5687 13.1881C45.6429 13.3244 45.8141 13.3756 45.9507 13.3009C46.0874 13.2267 46.1379 13.0554 46.0637 12.9189C45.2737 11.4664 44.0136 10.7301 42.3207 10.7301L42.2527 10.7295C40.2322 10.7295 38.6181 11.9308 38.4146 13.5831L38.4049 13.6464C38.4 13.6782 38.3956 13.7078 38.3949 13.7119C38.3769 13.8649 38.4854 14.003 38.6384 14.0233C38.6508 14.0247 38.6629 14.0255 38.6749 14.0255C38.813 14.0255 38.9337 13.9231 38.954 13.7829ZM46.7081 20.6499C46.7081 18.0716 44.9761 17.4354 42.5288 16.8183L42.2371 16.7422C41.5569 16.5615 40.4185 16.2592 39.6825 15.565C39.5693 15.4585 39.391 15.464 39.2843 15.5768C39.1776 15.69 39.1829 15.8683 39.2958 15.975C40.1357 16.7672 41.3608 17.0923 42.0925 17.2865L42.3911 17.3644C44.9426 18.0081 46.1448 18.542 46.1448 20.6499C46.1448 22.2854 44.5712 23.4275 42.3183 23.4275C40.6441 23.4275 39.2054 22.5941 38.5633 21.2526C38.4962 21.1122 38.328 21.0526 38.1876 21.1199C38.0472 21.1871 37.988 21.3552 38.0552 21.4956C38.7917 23.0347 40.4252 23.9908 42.3183 23.9908C44.9029 23.9908 46.7081 22.617 46.7081 20.6499ZM44.554 13.2788C44.6694 13.1747 44.6787 12.9966 44.5747 12.881C44.0681 12.3189 43.4504 12.0322 42.6307 11.9791C42.4771 11.9699 42.3414 12.0864 42.3312 12.2418C42.3211 12.3972 42.439 12.531 42.5941 12.5412C43.2579 12.5842 43.7543 12.812 44.1562 13.2581C44.2115 13.32 44.2884 13.3512 44.3655 13.3512C44.4327 13.3512 44.5 13.3275 44.554 13.2788ZM47.4048 22.6643C47.7742 22.0537 47.9614 21.3788 47.9614 20.6578C47.9614 17.0625 44.9763 16.3093 42.7968 15.7596L42.5745 15.7019C41.3506 15.3757 40.2521 14.9936 40.2519 13.9192C40.2566 13.7168 40.3037 13.5305 40.3919 13.365C40.4651 13.2279 40.4132 13.0573 40.2759 12.9838C40.1383 12.911 39.9681 12.9625 39.8949 13.1001C39.7649 13.3435 39.6955 13.6149 39.6886 13.9127C39.6886 15.5159 41.4044 15.973 42.4294 16.2462L42.6589 16.3057C44.8802 16.8662 47.3981 17.5013 47.3981 20.6578C47.3981 21.2743 47.2382 21.8514 46.9228 22.3728C46.8422 22.5059 46.8848 22.6789 47.0179 22.7594C47.0633 22.787 47.1137 22.8002 47.1636 22.8002C47.2587 22.8002 47.3518 22.7519 47.4048 22.6643ZM45.6058 24.3178C45.7431 24.2446 45.7947 24.0738 45.7212 23.9366C45.6478 23.7995 45.4774 23.7478 45.34 23.8212C44.4866 24.2778 43.4417 24.5194 42.3183 24.5194C40.1294 24.5194 38.1428 23.35 37.3744 21.6098C37.336 21.5232 37.3113 21.4327 37.3005 21.3412C37.2823 21.1865 37.1419 21.0751 36.9879 21.0944C36.8333 21.1124 36.7228 21.2524 36.741 21.4068C36.7583 21.5542 36.798 21.6991 36.8591 21.8372C37.716 23.7784 39.9099 25.0826 42.3183 25.0826C43.5342 25.0826 44.671 24.8183 45.6058 24.3178ZM45.037 21.9592C45.4003 21.6015 45.5924 21.1605 45.5924 20.6842C45.5924 20.2927 45.5003 19.935 45.3183 19.6216C45.2216 19.4546 45.097 19.2962 44.9483 19.1508C44.837 19.0422 44.6586 19.0441 44.5499 19.1552C44.4412 19.2666 44.4432 19.4449 44.5544 19.5536C44.6668 19.6634 44.7599 19.7815 44.8311 19.904C44.9644 20.1338 45.0291 20.389 45.0291 20.6842C45.0291 21.0108 44.8986 21.3047 44.6418 21.5577C44.1693 22.0229 43.3279 22.2929 42.3953 22.2772C41.8419 22.2693 41.3137 22.1381 40.8674 21.8981C40.5434 21.7238 40.3341 21.4768 40.1955 21.3132C40.169 21.282 40.145 21.2538 40.1235 21.2297C40.0203 21.1132 39.8424 21.1031 39.7257 21.2065C39.6097 21.31 39.5993 21.4879 39.7028 21.6041C39.7214 21.6254 39.7425 21.6502 39.7657 21.6776C39.9217 21.8616 40.1825 22.1693 40.6004 22.3941C41.1258 22.6769 41.7438 22.8312 42.3868 22.8406C42.4134 22.841 42.4396 22.8412 42.4659 22.8412C43.5167 22.8412 44.4734 22.5142 45.037 21.9592ZM42.623 18.3156C42.6611 18.1649 42.5696 18.0115 42.4187 17.9736C42.2142 17.922 41.9949 17.8713 41.7669 17.8233C38.9285 17.2252 37.6628 16.0324 37.6628 13.9551C37.6628 11.6752 39.5433 10.143 42.3424 10.143C44.0178 10.143 46.1302 11.0808 46.809 13.1396C46.8574 13.2873 47.0171 13.3678 47.1646 13.3192C47.3123 13.2703 47.3926 13.1112 47.3439 12.9633C46.5775 10.6386 44.214 9.57984 42.3424 9.57984C39.2064 9.57984 37.0993 11.3382 37.0993 13.9551C37.0993 17.0568 39.6969 17.963 41.6506 18.3744C41.8714 18.4211 42.0833 18.47 42.2809 18.5197C42.3041 18.5256 42.3272 18.5284 42.3501 18.5284C42.4761 18.5284 42.5907 18.4434 42.623 18.3156ZM49.0534 20.6578C49.0534 18.9396 48.6548 17.8117 47.7606 17.0007C47.6455 16.8962 47.4672 16.9051 47.3628 17.0199C47.2583 17.1352 47.267 17.3133 47.3822 17.4179C48.1586 18.1223 48.4901 19.0913 48.4901 20.6578C48.4901 23.5279 45.8945 25.6112 42.3183 25.6112C39.8868 25.6112 37.5435 24.2807 36.4871 22.3006L36.4574 22.2458C36.3761 22.0977 36.2069 21.7894 36.07 21.3356C36.0249 21.1865 35.8677 21.1019 35.719 21.1473C35.5699 21.1923 35.4857 21.3494 35.5306 21.4983C35.6845 22.0087 35.873 22.3521 35.9637 22.5168L35.9898 22.5655C37.1417 24.7241 39.6847 26.1746 42.3183 26.1746C46.2209 26.1746 49.0534 23.8547 49.0534 20.6578ZM41.6725 19.3459C41.7143 19.196 41.6269 19.0408 41.477 18.9988C40.1361 18.6239 37.346 17.8439 36.6035 15.3194C36.5597 15.1703 36.4029 15.0844 36.2538 15.1289C36.1045 15.1727 36.0191 15.3293 36.0631 15.4786C36.8938 18.3024 39.9992 19.1706 41.3253 19.5415C41.3506 19.5486 41.3762 19.552 41.4013 19.552C41.5245 19.552 41.6377 19.4705 41.6725 19.3459ZM36.4727 13.1721C36.8611 10.6946 39.1569 9.05018 42.2051 9.05018C42.2491 9.05018 42.2937 9.05058 42.3381 9.05119C42.4984 9.04957 42.6217 8.92948 42.6242 8.77388C42.6266 8.61849 42.5024 8.49049 42.3469 8.48805C38.9406 8.43085 36.3556 10.2821 35.916 13.0847C35.8919 13.2386 35.9969 13.3827 36.1505 13.4066C36.1655 13.4092 36.1801 13.4102 36.1947 13.4102C36.3311 13.4102 36.4507 13.311 36.4727 13.1721ZM48.2998 13.283C48.1511 13.283 48.0267 13.1666 48.0186 13.0163C47.9764 12.6485 47.1875 10.4091 44.723 9.4776C44.5775 9.42243 44.5041 9.25994 44.559 9.11428C44.614 8.96903 44.7765 8.8956 44.9222 8.95037C47.7823 10.0318 48.5625 12.6315 48.5813 12.9865C48.5897 13.1417 48.4704 13.2743 48.315 13.2826C48.3099 13.283 48.3048 13.283 48.2998 13.283Z" fill="white"/>
</g>
</svg>
