<svg width="180" height="237" viewBox="0 0 180 237" fill="none" xmlns="http://www.w3.org/2000/svg">
<path fill-rule="evenodd" clip-rule="evenodd" d="M45.5872 70.7835L45.6868 70.1165C45.7568 69.661 45.8322 69.1676 45.8457 69.0673C48.0449 51.0727 66.7504 37.5029 89.3268 37.5029L90.2286 37.5083C110.051 37.5083 124.162 45.7939 133.36 62.8341C134.345 64.6561 136.617 65.3393 138.429 64.3416C140.243 63.3493 140.913 61.061 139.928 59.2363C129.446 39.8238 112.724 29.9819 90.2609 29.9819L89.3591 29.9738C62.5484 29.9738 41.1296 46.0298 38.4296 68.1129L38.3004 68.9588C38.2358 69.3845 38.1766 69.7803 38.1685 69.8346C37.9289 71.8788 39.3691 73.7252 41.3987 73.9963C41.5629 74.0153 41.7245 74.0261 41.8833 74.0261C43.7164 74.0261 45.318 72.657 45.5872 70.7835ZM148.48 162.562C148.48 128.102 125.497 119.599 93.0227 111.352L89.1519 110.335C80.1262 107.919 65.0196 103.88 55.2536 94.6018C53.7516 93.1784 51.3854 93.2516 49.9695 94.759C48.5536 96.2719 48.6236 98.6551 50.123 100.081C61.2672 110.669 77.5232 115.015 87.2326 117.609L91.195 118.651C125.053 127.253 141.005 134.389 141.005 162.562C141.005 184.42 120.124 199.684 90.2286 199.684C68.0129 199.684 48.9224 188.546 40.4028 170.617C39.5118 168.741 37.2802 167.944 35.4174 168.844C33.5547 169.741 32.7687 171.989 33.6597 173.865C43.4338 194.435 65.1084 207.213 90.2286 207.213C124.525 207.213 148.48 188.853 148.48 162.562ZM119.895 64.0461C121.427 62.6552 121.551 60.2747 120.17 58.7293C113.448 51.2164 105.252 47.3854 94.3741 46.6751C92.3363 46.5531 90.5355 48.1093 90.4009 50.1861C90.2663 52.263 91.8302 54.0524 93.8895 54.1879C102.697 54.7627 109.284 57.8075 114.617 63.7695C115.352 64.5964 116.372 65.014 117.395 65.014C118.286 65.014 119.179 64.6968 119.895 64.0461ZM157.724 189.485C162.625 181.324 165.11 172.303 165.11 162.668C165.11 114.616 125.5 104.549 96.5786 97.2019L93.6284 96.4319C77.3885 92.0722 62.8122 86.9642 62.8096 72.6055C62.8715 69.8996 63.496 67.4107 64.667 65.1983C65.6387 63.3655 64.9496 61.0854 63.1272 60.1039C61.3021 59.1305 59.0436 59.8192 58.0719 61.6574C56.3464 64.9109 55.4259 68.5386 55.3344 72.5187C55.3344 93.9457 78.1018 100.054 91.7037 103.706L94.7482 104.501C124.224 111.992 157.635 120.481 157.635 162.668C157.635 170.907 155.514 178.621 151.328 185.589C150.259 187.367 150.824 189.68 152.59 190.756C153.193 191.125 153.861 191.301 154.523 191.301C155.786 191.301 157.021 190.656 157.724 189.485ZM133.852 211.584C135.675 210.605 136.359 208.322 135.384 206.49C134.41 204.657 132.149 203.965 130.326 204.947C119.002 211.05 105.136 214.279 90.2286 214.279C61.1837 214.279 34.8226 198.649 24.6259 175.392C24.1172 174.234 23.7887 173.025 23.6461 171.802C23.4038 169.733 21.541 168.245 19.4979 168.502C17.4468 168.744 15.9797 170.614 16.222 172.678C16.4508 174.649 16.9784 176.584 17.7886 178.431C29.1589 204.375 58.2712 221.805 90.2286 221.805C106.363 221.805 121.448 218.273 133.852 211.584ZM126.305 180.06C131.126 175.28 133.675 169.386 133.675 163.02C133.675 157.787 132.453 153.007 130.038 148.819C128.754 146.587 127.101 144.47 125.128 142.526C123.65 141.075 121.284 141.1 119.841 142.585C118.399 144.074 118.426 146.457 119.901 147.91C121.392 149.377 122.628 150.955 123.572 152.593C125.341 155.664 126.2 159.075 126.2 163.02C126.2 167.385 124.469 171.314 121.061 174.695C114.792 180.912 103.626 184.52 91.2515 184.312C83.9082 184.206 76.8987 182.452 70.9766 179.244C66.6778 176.915 63.8998 173.613 62.0613 171.428C61.7086 171.01 61.391 170.633 61.1057 170.311C59.7355 168.754 57.3747 168.619 55.8269 170.002C54.2872 171.384 54.1499 173.762 55.5228 175.316C55.7704 175.6 56.0504 175.931 56.3573 176.297C58.4273 178.756 61.889 182.869 67.4342 185.873C74.406 189.653 82.6054 191.716 91.1385 191.841C91.4911 191.846 91.8383 191.849 92.1882 191.849C106.132 191.849 118.827 187.478 126.305 180.06ZM94.2718 131.364C94.7779 129.349 93.5638 127.299 91.5611 126.792C88.8477 126.104 85.9378 125.426 82.9122 124.783C45.2481 116.791 28.4537 100.848 28.4537 73.0853C28.4537 42.6136 53.407 22.1356 90.5489 22.1356C112.781 22.1356 140.811 34.6697 149.818 62.1861C150.461 64.1599 152.58 65.2363 154.537 64.5856C156.496 63.9322 157.562 61.8065 156.916 59.83C146.746 28.7592 115.384 14.6092 90.5489 14.6092C48.9358 14.6092 20.9758 38.1102 20.9758 73.0853C20.9758 114.54 55.4447 126.651 81.3698 132.15C84.2985 132.773 87.1114 133.427 89.7333 134.091C90.0402 134.17 90.3471 134.208 90.6513 134.208C92.3229 134.208 93.8438 133.072 94.2718 131.364ZM179.6 162.668C179.6 139.703 174.311 124.629 162.445 113.789C160.919 112.393 158.553 112.512 157.166 114.047C155.78 115.587 155.896 117.967 157.425 119.366C167.727 128.78 172.125 141.731 172.125 162.668C172.125 201.026 137.683 228.871 90.2286 228.871C57.9643 228.871 26.8709 211.088 12.8518 184.623L12.4588 183.891C11.3794 181.912 9.13437 177.791 7.31738 171.726C6.7198 169.733 4.63366 168.603 2.66055 169.21C0.682051 169.812 -0.435082 171.91 0.159813 173.9C2.20292 180.722 4.70358 185.312 5.90683 187.514L6.25409 188.164C21.5383 217.015 55.2832 236.4 90.2286 236.4C142.014 236.4 179.6 205.394 179.6 162.668ZM81.6605 145.134C82.215 143.13 81.0548 141.056 79.0656 140.495C61.2725 135.485 24.2491 125.06 14.397 91.3185C13.8155 89.3257 11.7347 88.1789 9.75621 88.7726C7.77502 89.3583 6.64176 91.4513 7.22589 93.4468C18.249 131.187 59.4556 142.792 77.0521 147.748C77.3886 147.843 77.7277 147.889 78.0615 147.889C79.6954 147.889 81.1975 146.799 81.6605 145.134ZM12.6607 62.6199C17.8156 29.5075 48.2791 7.5301 88.7266 7.5301C89.3107 7.5301 89.9029 7.53553 90.4924 7.54366C92.6189 7.52197 94.2556 5.91691 94.2883 3.83739C94.3202 1.76057 92.6728 0.0497665 90.6081 0.0172316C45.4095 -0.74734 11.1075 23.9955 5.27429 61.4514C4.95397 63.5092 6.34834 65.4342 8.38605 65.7541C8.58525 65.7894 8.77907 65.8029 8.97288 65.8029C10.7818 65.8029 12.37 64.4771 12.6607 62.6199ZM169.6 64.103C167.627 64.103 165.977 62.5467 165.869 60.5377C165.309 55.6222 154.841 25.6927 122.138 13.2427C120.208 12.5052 119.233 10.3335 119.963 8.38685C120.692 6.4456 122.848 5.46412 124.781 6.19616C162.733 20.6498 173.086 55.3944 173.336 60.1391C173.447 62.2132 171.864 63.9864 169.802 64.0975C169.735 64.103 169.667 64.103 169.6 64.103Z" fill="url(#paint0_linear_310_5175)"/>
<defs>
<linearGradient id="paint0_linear_310_5175" x1="-7.49995" y1="218" x2="205.5" y2="81.0001" gradientUnits="userSpaceOnUse">
<stop stop-color="white"/>
<stop offset="1" stop-color="#9B9B9B"/>
</linearGradient>
</defs>
</svg>
