<svg width="20" height="20" viewBox="0 0 20 20" fill="none" xmlns="http://www.w3.org/2000/svg">
<g clip-path="url(#clip0_277_471)">
<path d="M19.174 9.71058C19.174 8.93171 19.1121 8.36334 18.9782 7.77393H10.2725V11.2894H15.3825C15.2796 12.163 14.7232 13.4787 13.4869 14.3628L13.4695 14.4805L16.2221 16.659L16.4128 16.6784C18.1643 15.0259 19.174 12.5945 19.174 9.71058Z" fill="#4285F4"/>
<path d="M10.2726 18.9729C12.7761 18.9729 14.8779 18.1308 16.413 16.6783L13.487 14.3627C12.7041 14.9205 11.6532 15.31 10.2726 15.31C7.82061 15.31 5.73948 13.6575 4.99762 11.3735L4.88888 11.383L2.02669 13.6459L1.98926 13.7522C3.51404 16.8467 6.64606 18.9729 10.2726 18.9729Z" fill="#34A853"/>
<path d="M4.9974 11.3736C4.80165 10.7842 4.68836 10.1526 4.68836 9.50004C4.68836 8.84742 4.80165 8.21592 4.9871 7.62651L4.98191 7.50098L2.08385 5.20166L1.98903 5.24774C1.3606 6.53185 1 7.97386 1 9.50004C1 11.0262 1.3606 12.4682 1.98903 13.7523L4.9974 11.3736Z" fill="#FBBC05"/>
<path d="M10.2726 3.68991C12.0138 3.68991 13.1882 4.45826 13.8579 5.10036L16.4748 2.49004C14.8676 0.963864 12.7761 0.0270996 10.2726 0.0270996C6.64606 0.0270996 3.51404 2.15321 1.98926 5.24766L4.98732 7.62643C5.73949 5.34242 7.82061 3.68991 10.2726 3.68991Z" fill="#EB4335"/>
</g>
<defs>
<clipPath id="clip0_277_471">
<rect x="1" width="18.1739" height="19" rx="9.08696" fill="white"/>
</clipPath>
</defs>
</svg>
