<svg width="13" height="22" viewBox="0 0 13 22" fill="none" xmlns="http://www.w3.org/2000/svg">
<path id="Vector" d="M1.95493 0C0.879702 0 0 0.879702 0 1.95493V20.0376C0 21.1128 0.879702 21.9925 1.95493 21.9925H11.0451C12.1203 21.9925 13 21.1128 13 20.0376V1.95493C13 0.879702 12.1203 0 11.0451 0H1.95493ZM5.41051 1.88277H7.59018C7.73347 1.88277 7.84962 2.04702 7.84962 2.24942C7.84962 2.45183 7.73347 2.61608 7.59018 2.61608H5.41051C5.26721 2.61608 5.15107 2.45183 5.15107 2.24942C5.15107 2.04702 5.26721 1.88277 5.41051 1.88277ZM1.07385 4.49644H11.9265V17.4964H1.07385V4.49644ZM6.50017 18.5342C7.16854 18.5342 7.71045 19.0761 7.71045 19.7445C7.71045 20.4129 7.16854 20.9548 6.50017 20.9548C5.8318 20.9548 5.28989 20.4129 5.28989 19.7445C5.28989 19.0761 5.8318 18.5342 6.50017 18.5342Z" fill="black"/>
</svg>
