<svg width="28" height="28" viewBox="0 0 28 28" fill="none" xmlns="http://www.w3.org/2000/svg">
<circle cx="14.124" cy="14.166" r="13.5" fill="white"/>
<path d="M17.5039 17.5454C16.8978 17.5443 16.3003 17.4017 15.7591 17.1287L13.8893 16.1912C13.317 15.9076 12.6668 15.8215 12.0404 15.9465L8.39453 16.6756V17.8944C8.3959 18.2863 8.55218 18.6617 8.82929 18.9388C9.10639 19.2159 9.48182 19.3722 9.8737 19.3735H18.3737C18.7656 19.3722 19.141 19.2159 19.4181 18.9388C19.6952 18.6617 19.8515 18.2863 19.8529 17.8944V16.9725L18.7435 17.3423C18.3439 17.4763 17.9253 17.5449 17.5039 17.5454Z" fill="url(#paint0_linear_108_131)"/>
<path d="M17.2493 12.0827C17.537 12.0827 17.7702 11.8495 17.7702 11.5618C17.7702 11.2742 17.537 11.041 17.2493 11.041C16.9617 11.041 16.7285 11.2742 16.7285 11.5618C16.7285 11.8495 16.9617 12.0827 17.2493 12.0827Z" fill="url(#paint1_linear_108_131)"/>
<path d="M14.124 1.66602C11.6518 1.66602 9.23501 2.39913 7.1794 3.77264C5.12379 5.14616 3.52163 7.09839 2.57553 9.38247C1.62944 11.6665 1.3819 14.1799 1.86421 16.6046C2.34653 19.0294 3.53704 21.2567 5.28519 23.0048C7.03335 24.753 9.26064 25.9435 11.6854 26.4258C14.1102 26.9081 16.6235 26.6606 18.9076 25.7145C21.1916 24.7684 23.1439 23.1663 24.5174 21.1106C25.8909 19.055 26.624 16.6383 26.624 14.166C26.624 10.8508 25.3071 7.67138 22.9629 5.32718C20.6187 2.98298 17.4392 1.66602 14.124 1.66602ZM20.8949 17.8952C20.8949 18.2262 20.8297 18.554 20.703 18.8599C20.5763 19.1657 20.3906 19.4436 20.1565 19.6777C19.9224 19.9118 19.6445 20.0974 19.3387 20.2241C19.0329 20.3508 18.7051 20.416 18.374 20.416H9.87403C9.54299 20.416 9.21519 20.3508 8.90935 20.2241C8.6035 20.0974 8.32561 19.9118 8.09153 19.6777C7.85745 19.4436 7.67176 19.1657 7.54508 18.8599C7.4184 18.554 7.35319 18.2262 7.35319 17.8952V10.4368C7.35319 9.76828 7.61878 9.1271 8.09153 8.65435C8.56428 8.1816 9.20546 7.91601 9.87403 7.91601H18.374C18.7051 7.91601 19.0329 7.98122 19.3387 8.1079C19.6445 8.23458 19.9224 8.42027 20.1565 8.65435C20.3906 8.88843 20.5763 9.16632 20.703 9.47217C20.8297 9.77801 20.8949 10.1058 20.8949 10.4368V17.8952Z" fill="url(#paint2_linear_108_131)"/>
<path d="M18.3737 8.95703H9.8737C9.48182 8.9584 9.10639 9.11468 8.82929 9.39179C8.55218 9.66889 8.3959 10.0443 8.39453 10.4362V15.6133L11.8424 14.9258C12.6931 14.755 13.5763 14.8723 14.3529 15.2591L16.207 16.1966C16.5432 16.3659 16.9097 16.4668 17.2851 16.4937C17.6606 16.5205 18.0377 16.4726 18.3945 16.3529L19.8529 15.8737V10.4362C19.8515 10.0443 19.6952 9.66889 19.4181 9.39179C19.141 9.11468 18.7656 8.9584 18.3737 8.95703ZM17.2487 13.1237C16.9397 13.1237 16.6376 13.0321 16.3806 12.8604C16.1237 12.6887 15.9234 12.4446 15.8051 12.1591C15.6869 11.8736 15.6559 11.5595 15.7162 11.2564C15.7765 10.9533 15.9253 10.6749 16.1438 10.4563C16.3624 10.2378 16.6408 10.089 16.9439 10.0287C17.247 9.96843 17.5611 9.99937 17.8466 10.1176C18.1321 10.2359 18.3762 10.4362 18.5479 10.6931C18.7196 10.9501 18.8112 11.2522 18.8112 11.5612C18.8112 11.9756 18.6466 12.373 18.3535 12.6661C18.0605 12.9591 17.6631 13.1237 17.2487 13.1237Z" fill="url(#paint3_linear_108_131)"/>
<defs>
<linearGradient id="paint0_linear_108_131" x1="19.8529" y1="17.1445" x2="8.83865" y2="18.5183" gradientUnits="userSpaceOnUse">
<stop stop-color="#E0055F"/>
<stop offset="1" stop-color="#2020ED"/>
</linearGradient>
<linearGradient id="paint1_linear_108_131" x1="17.7702" y1="11.416" x2="16.7548" y2="11.4545" gradientUnits="userSpaceOnUse">
<stop stop-color="#E0055F"/>
<stop offset="1" stop-color="#2020ED"/>
</linearGradient>
<linearGradient id="paint2_linear_108_131" x1="26.624" y1="10.666" x2="2.25418" y2="11.59" gradientUnits="userSpaceOnUse">
<stop stop-color="#E0055F"/>
<stop offset="1" stop-color="#2020ED"/>
</linearGradient>
<linearGradient id="paint3_linear_108_131" x1="19.8529" y1="11.6728" x2="8.70427" y2="12.3148" gradientUnits="userSpaceOnUse">
<stop stop-color="#E0055F"/>
<stop offset="1" stop-color="#2020ED"/>
</linearGradient>
</defs>
</svg>
