<svg width="27" height="27" viewBox="0 0 27 27" fill="none" xmlns="http://www.w3.org/2000/svg">
<circle cx="13.5" cy="13.5" r="13.5" fill="white"/>
<path d="M16.8809 16.8794C16.2747 16.8783 15.6773 16.7356 15.1361 16.4627L13.2663 15.5252C12.6939 15.2416 12.0438 15.1555 11.4173 15.2804L7.77148 16.0096V17.2284C7.77286 17.6202 7.92914 17.9957 8.20624 18.2728C8.48334 18.5499 8.85877 18.7062 9.25065 18.7075H17.7506C18.1425 18.7062 18.518 18.5499 18.7951 18.2728C19.0722 17.9957 19.2284 17.6202 19.2298 17.2284V16.3065L18.1204 16.6763C17.7209 16.8103 17.3023 16.8789 16.8809 16.8794Z" fill="#1F1F22"/>
<path d="M16.6243 11.4167C16.912 11.4167 17.1452 11.1835 17.1452 10.8958C17.1452 10.6082 16.912 10.375 16.6243 10.375C16.3367 10.375 16.1035 10.6082 16.1035 10.8958C16.1035 11.1835 16.3367 11.4167 16.6243 11.4167Z" fill="#1F1F22"/>
<path d="M13.5 1C11.0277 1 8.61099 1.73311 6.55538 3.10663C4.49976 4.48015 2.89761 6.43238 1.95151 8.71645C1.00542 11.0005 0.757874 13.5139 1.24019 15.9386C1.7225 18.3634 2.91301 20.5907 4.66117 22.3388C6.40933 24.087 8.63661 25.2775 11.0614 25.7598C13.4861 26.2421 15.9995 25.9946 18.2835 25.0485C20.5676 24.1024 22.5199 22.5002 23.8934 20.4446C25.2669 18.389 26 15.9723 26 13.5C26 10.1848 24.683 7.00537 22.3388 4.66116C19.9946 2.31696 16.8152 1 13.5 1ZM20.2708 17.2292C20.2708 17.5602 20.2056 17.888 20.0789 18.1938C19.9523 18.4997 19.7666 18.7776 19.5325 19.0117C19.2984 19.2457 19.0205 19.4314 18.7147 19.5581C18.4088 19.6848 18.081 19.75 17.75 19.75H9.25C8.91896 19.75 8.59116 19.6848 8.28532 19.5581C7.97948 19.4314 7.70159 19.2457 7.46751 19.0117C7.23342 18.7776 7.04774 18.4997 6.92106 18.1938C6.79437 17.888 6.72917 17.5602 6.72917 17.2292V9.77083C6.72917 9.10226 6.99476 8.46108 7.46751 7.98833C7.94025 7.51558 8.58144 7.25 9.25 7.25H17.75C18.081 7.25 18.4088 7.3152 18.7147 7.44189C19.0205 7.56857 19.2984 7.75425 19.5325 7.98833C19.7666 8.22241 19.9523 8.50031 20.0789 8.80615C20.2056 9.11199 20.2708 9.43979 20.2708 9.77083V17.2292Z" fill="#1F1F22"/>
<path d="M17.7506 8.29102H9.25065C8.85877 8.29239 8.48334 8.44867 8.20624 8.72577C7.92914 9.00287 7.77286 9.37831 7.77148 9.77018V14.9473L11.2194 14.2598C12.07 14.089 12.9532 14.2063 13.7298 14.5931L15.584 15.5306C15.9202 15.6999 16.2866 15.8008 16.6621 15.8276C17.0376 15.8545 17.4146 15.8066 17.7715 15.6868L19.2298 15.2077V9.77018C19.2284 9.37831 19.0722 9.00287 18.7951 8.72577C18.518 8.44867 18.1425 8.29239 17.7506 8.29102ZM16.6256 12.4577C16.3166 12.4577 16.0145 12.366 15.7576 12.1944C15.5006 12.0227 15.3003 11.7786 15.1821 11.4931C15.0638 11.2076 15.0329 10.8934 15.0932 10.5904C15.1535 10.2873 15.3023 10.0088 15.5208 9.79033C15.7393 9.57181 16.0177 9.42299 16.3208 9.3627C16.6239 9.30242 16.9381 9.33336 17.2236 9.45162C17.5091 9.56988 17.7531 9.77015 17.9248 10.0271C18.0965 10.2841 18.1881 10.5861 18.1881 10.8952C18.1881 11.3096 18.0235 11.707 17.7305 12C17.4375 12.2931 17.04 12.4577 16.6256 12.4577Z" fill="#1F1F22"/>
</svg>
