<svg width="394" height="394" viewBox="0 0 394 394" fill="none" xmlns="http://www.w3.org/2000/svg">
<path d="M278.57 0H115.43C51.6796 0 0 51.6796 0 115.43V278.57C0 342.32 51.6796 394 115.43 394H278.57C342.32 394 394 342.32 394 278.57V115.43C394 51.6796 342.32 0 278.57 0Z" fill="url(#paint0_linear_1366_4293)"/>
<path fill-rule="evenodd" clip-rule="evenodd" d="M152.841 149.584L152.94 148.917C153.01 148.462 153.086 147.968 153.099 147.868C155.298 129.873 174.004 116.304 196.58 116.304L197.482 116.309C217.305 116.309 231.415 124.595 240.613 141.635C241.598 143.457 243.87 144.14 245.682 143.142C247.496 142.15 248.167 139.862 247.181 138.037C236.699 118.625 219.978 108.783 197.514 108.783L196.613 108.775C169.802 108.775 148.383 124.831 145.683 146.914L145.554 147.76C145.489 148.185 145.43 148.581 145.422 148.635C145.182 150.68 146.623 152.526 148.652 152.797C148.816 152.816 148.978 152.827 149.137 152.827C150.97 152.827 152.571 151.458 152.841 149.584ZM255.733 241.363C255.733 206.903 232.75 198.4 200.276 190.153L196.405 189.136C187.38 186.72 172.273 182.68 162.507 173.403C161.005 171.979 158.639 172.052 157.223 173.56C155.807 175.073 155.877 177.456 157.376 178.882C168.521 189.469 184.777 193.816 194.486 196.41L198.448 197.451C232.306 206.054 248.258 213.19 248.258 241.363C248.258 263.221 227.378 278.485 197.482 278.485C175.266 278.485 156.176 267.347 147.656 249.418C146.765 247.542 144.534 246.745 142.671 247.645C140.808 248.542 140.022 250.79 140.913 252.666C150.687 273.236 172.362 286.014 197.482 286.014C231.779 286.014 255.733 267.654 255.733 241.363ZM227.149 142.847C228.68 141.456 228.804 139.075 227.423 137.53C220.702 130.017 212.505 126.186 201.627 125.476C199.59 125.354 197.789 126.91 197.654 128.987C197.52 131.064 199.084 132.853 201.143 132.989C209.951 133.563 216.538 136.608 221.87 142.57C222.605 143.397 223.625 143.815 224.648 143.815C225.539 143.815 226.433 143.498 227.149 142.847ZM264.977 268.285C269.879 260.125 272.364 251.104 272.364 241.468C272.364 193.417 232.753 183.35 203.832 176.003L200.882 175.233C184.642 170.873 170.066 165.765 170.063 151.406C170.125 148.7 170.749 146.211 171.92 143.999C172.892 142.166 172.203 139.886 170.381 138.905C168.556 137.931 166.297 138.62 165.325 140.458C163.6 143.712 162.679 147.339 162.588 151.319C162.588 172.746 185.355 178.855 198.957 182.507L202.002 183.301C231.477 190.793 264.888 199.281 264.888 241.468C264.888 249.708 262.767 257.421 258.581 264.389C257.513 266.168 258.078 268.481 259.844 269.557C260.447 269.926 261.114 270.102 261.776 270.102C263.039 270.102 264.274 269.457 264.977 268.285ZM241.106 290.385C242.928 289.406 243.612 287.123 242.637 285.29C241.663 283.458 239.402 282.766 237.58 283.748C226.255 289.851 212.389 293.08 197.482 293.08C168.437 293.08 142.076 277.449 131.879 254.192C131.371 253.035 131.042 251.825 130.899 250.603C130.657 248.534 128.794 247.045 126.751 247.303C124.7 247.544 123.233 249.415 123.475 251.478C123.704 253.449 124.232 255.385 125.042 257.232C136.412 283.176 165.525 300.606 197.482 300.606C213.617 300.606 228.702 297.073 241.106 290.385ZM233.558 258.861C238.379 254.081 240.928 248.187 240.928 241.821C240.928 236.588 239.706 231.808 237.292 227.619C236.008 225.388 234.355 223.271 232.382 221.327C230.904 219.876 228.538 219.9 227.095 221.386C225.652 222.875 225.679 225.258 227.154 226.711C228.645 228.178 229.881 229.756 230.826 231.393C232.594 234.465 233.453 237.876 233.453 241.821C233.453 246.186 231.722 250.115 228.314 253.495C222.045 259.712 210.879 263.321 198.505 263.112C191.162 263.007 184.152 261.252 178.23 258.045C173.931 255.716 171.153 252.414 169.315 250.228C168.962 249.811 168.644 249.434 168.359 249.111C166.989 247.555 164.628 247.42 163.08 248.802C161.541 250.185 161.403 252.563 162.776 254.116C163.024 254.401 163.304 254.732 163.611 255.098C165.681 257.557 169.142 261.67 174.688 264.674C181.659 268.453 189.859 270.517 198.392 270.641C198.745 270.647 199.092 270.65 199.442 270.65C213.385 270.65 226.08 266.279 233.558 258.861ZM201.525 210.164C202.031 208.15 200.817 206.1 198.814 205.593C196.101 204.905 193.191 204.227 190.166 203.584C152.501 195.591 135.707 179.649 135.707 151.886C135.707 121.414 160.66 100.936 197.802 100.936C220.034 100.936 248.064 113.47 257.071 140.987C257.715 142.961 259.833 144.037 261.79 143.386C263.75 142.733 264.816 140.607 264.17 138.631C254 107.56 222.637 93.4099 197.802 93.4099C156.189 93.4099 128.229 116.911 128.229 151.886C128.229 193.341 162.698 205.452 188.623 210.951C191.552 211.574 194.365 212.228 196.987 212.892C197.294 212.971 197.601 213.008 197.905 213.008C199.576 213.008 201.097 211.872 201.525 210.164ZM286.854 241.468C286.854 218.504 281.564 203.43 269.699 192.59C268.172 191.194 265.806 191.313 264.42 192.848C263.034 194.388 263.149 196.768 264.678 198.167C274.98 207.581 279.378 220.532 279.378 241.468C279.378 279.827 244.936 307.672 197.482 307.672C165.218 307.672 134.124 289.889 120.105 263.424L119.712 262.692C118.633 260.713 116.388 256.592 114.571 250.527C113.973 248.534 111.887 247.403 109.914 248.011C107.935 248.613 106.818 250.711 107.413 252.701C109.456 259.523 111.957 264.113 113.16 266.314L113.508 266.965C128.792 295.815 162.537 315.201 197.482 315.201C249.268 315.201 286.854 284.195 286.854 241.468ZM188.914 223.935C189.468 221.931 188.308 219.857 186.319 219.296C168.526 214.285 131.503 203.861 121.65 170.119C121.069 168.126 118.988 166.98 117.01 167.573C115.028 168.159 113.895 170.252 114.479 172.248C125.502 209.988 166.709 221.592 184.306 226.548C184.642 226.643 184.981 226.689 185.315 226.689C186.949 226.689 188.451 225.599 188.914 223.935ZM119.914 141.421C125.069 108.308 155.532 86.3309 195.98 86.3309C196.564 86.3309 197.156 86.3363 197.746 86.3444C199.872 86.3228 201.509 84.7177 201.542 82.6382C201.574 80.5614 199.926 78.8505 197.862 78.818C152.663 78.0534 118.361 102.796 112.528 140.252C112.207 142.31 113.602 144.235 115.639 144.555C115.839 144.59 116.032 144.604 116.226 144.604C118.035 144.604 119.623 143.278 119.914 141.421ZM276.853 142.904C274.88 142.904 273.23 141.348 273.123 139.338C272.563 134.423 262.094 104.494 229.391 92.0435C227.461 91.306 226.487 89.1343 227.216 87.1876C227.945 85.2464 230.102 84.2649 232.034 84.9969C269.987 99.4506 280.339 134.195 280.59 138.94C280.7 141.014 279.117 142.787 277.055 142.898C276.988 142.904 276.921 142.904 276.853 142.904Z" fill="url(#paint1_linear_1366_4293)"/>
<defs>
<linearGradient id="paint0_linear_1366_4293" x1="394" y1="141.84" x2="-3.52263e-06" y2="236.4" gradientUnits="userSpaceOnUse">
<stop stop-color="#E0055F"/>
<stop offset="1" stop-color="#2020ED"/>
</linearGradient>
<linearGradient id="paint1_linear_1366_4293" x1="108.517" y1="197.001" x2="286.854" y2="197.001" gradientUnits="userSpaceOnUse">
<stop stop-color="#7A7A7E"/>
<stop offset="1" stop-color="white"/>
</linearGradient>
</defs>
</svg>
