<svg width="27" height="27" viewBox="0 0 27 27" fill="none" xmlns="http://www.w3.org/2000/svg">
<path d="M13.4506 25.4289C20.0664 25.4289 25.4295 20.0658 25.4295 13.45C25.4295 6.83421 20.0664 1.47107 13.4506 1.47107C6.83482 1.47107 1.47168 6.83421 1.47168 13.45C1.47168 20.0658 6.83482 25.4289 13.4506 25.4289Z" fill="#FEDA2C"/>
<path d="M13.4501 22.6843C18.55 22.6843 22.6844 18.55 22.6844 13.45C22.6844 8.35009 18.55 4.21576 13.4501 4.21576C8.35015 4.21576 4.21582 8.35009 4.21582 13.45C4.21582 18.55 8.35015 22.6843 13.4501 22.6843Z" fill="#FCAA17"/>
<path d="M15.0175 9.69672C15.0175 9.54541 15.0301 9.44243 15.0553 9.38779C15.0848 9.32894 15.1415 9.28901 15.2256 9.268L17.3944 8.74471C17.449 8.7279 17.5058 8.71949 17.5646 8.71949C17.6234 8.71949 17.6634 8.7384 17.6844 8.77623C17.7054 8.80986 17.7159 8.88131 17.7159 8.99059L17.6403 9.98043C17.6192 10.2704 17.5961 10.5584 17.5709 10.8442C17.5457 11.13 17.5079 11.3801 17.4574 11.5944L17.3439 12.4897C17.3103 12.7545 17.2788 13.0424 17.2494 13.3534C17.2199 13.6603 17.1884 14.0049 17.1548 14.3874L16.8585 17.4956C16.8543 17.5335 16.8459 17.5713 16.8333 17.6091C16.8206 17.6469 16.7933 17.6743 16.7513 17.6911C16.7219 17.7037 16.6525 17.731 16.5432 17.773C16.4382 17.8151 16.3121 17.8634 16.165 17.918C16.0178 17.9727 15.8602 18.0294 15.6921 18.0883C15.524 18.1513 15.3643 18.2081 15.2129 18.2585C15.0616 18.3089 14.9271 18.351 14.8094 18.3846C14.6918 18.4182 14.6119 18.435 14.5699 18.435C14.511 18.435 14.4585 18.4182 14.4123 18.3846C14.3702 18.3552 14.3492 18.2963 14.3492 18.2081C14.3492 17.6995 14.3786 17.1804 14.4375 16.6508C14.4963 16.117 14.5489 15.5874 14.5951 15.062C14.6035 15.0032 14.6056 14.9485 14.6014 14.8981C14.6014 14.8477 14.6056 14.793 14.614 14.7342H12.3065L12.048 17.4956C12.0438 17.5335 12.0354 17.5713 12.0228 17.6091C12.0144 17.6427 11.987 17.6701 11.9408 17.6911C11.924 17.6995 11.8399 17.731 11.6886 17.7856C11.5415 17.8361 11.3692 17.897 11.1716 17.9685C10.9783 18.0357 10.785 18.103 10.5916 18.1702C10.4025 18.2417 10.2575 18.2963 10.1566 18.3341C10.1061 18.3552 10.0431 18.3762 9.96744 18.3972C9.89599 18.4224 9.82454 18.435 9.75308 18.435C9.69424 18.435 9.6417 18.4182 9.59547 18.3846C9.55343 18.351 9.53242 18.29 9.53242 18.2018C9.53242 18 9.53872 17.7709 9.55133 17.5145C9.56814 17.2539 9.58706 16.9828 9.60807 16.7012C9.62909 16.4154 9.65431 16.1233 9.68373 15.8249C9.71315 15.5265 9.74257 15.2322 9.772 14.9422L9.78461 14.7594C9.44415 14.7594 9.19617 14.751 9.04065 14.7342C8.88934 14.7132 8.81368 14.6627 8.81368 14.5829C8.81368 14.5282 8.84521 14.4568 8.90825 14.3685C8.99232 14.2508 9.08899 14.11 9.19827 13.9461C9.31175 13.778 9.41893 13.614 9.51981 13.4543C9.62489 13.2904 9.71736 13.1454 9.79722 13.0193C9.88128 12.889 9.93592 12.8049 9.96114 12.7671L10.1061 11.2477C10.1061 11.2393 10.1103 11.1762 10.1188 11.0585C10.1272 10.9408 10.1377 10.8021 10.1503 10.6424C10.1629 10.4785 10.1755 10.3104 10.1881 10.138C10.2049 9.96572 10.2196 9.81861 10.2322 9.69672C10.2406 9.54961 10.2512 9.44663 10.2638 9.38779C10.2806 9.32894 10.331 9.28901 10.4151 9.268L12.5587 8.74471C12.6133 8.7279 12.6701 8.71949 12.7289 8.71949C12.7877 8.71949 12.8277 8.7384 12.8487 8.77623C12.8697 8.80986 12.8802 8.88131 12.8802 8.99059C12.8508 9.29322 12.8277 9.56852 12.8109 9.81651C12.794 10.0645 12.7751 10.2957 12.7541 10.51C12.7373 10.7244 12.7184 10.9282 12.6974 11.1216C12.6764 11.3149 12.6469 11.5125 12.6091 11.7142L12.483 12.6914L14.7716 12.6662C14.8094 12.1072 14.8515 11.6323 14.8977 11.2414C14.9439 10.8505 14.9734 10.5415 14.986 10.3146C14.9986 10.1002 15.007 9.9468 15.0112 9.85434C15.0154 9.76187 15.0175 9.70933 15.0175 9.69672Z" fill="white"/>
</svg>
