<svg width="31" height="31" viewBox="0 0 31 31" fill="none" xmlns="http://www.w3.org/2000/svg">
<g clip-path="url(#clip0_328_1408)">
<path d="M29.1405 5.84447C28.6728 5.64963 28.1576 5.59842 27.6607 5.69735C27.1638 5.79628 26.7075 6.04088 26.3501 6.39999L23.04 9.71007L17.1699 3.83999C16.6898 3.36006 16.0388 3.09045 15.36 3.09045C14.6812 3.09045 14.0302 3.36006 13.5501 3.83999L7.68 9.71007L4.36992 6.39999C4.0119 6.04208 3.5558 5.79835 3.05928 5.69961C2.56276 5.60088 2.04812 5.65158 1.5804 5.84529C1.11269 6.03901 0.712916 6.36704 0.431612 6.78793C0.150308 7.20882 0.000108094 7.70367 0 8.20991L0 21.76C0.00203246 23.4568 0.676969 25.0834 1.87676 26.2832C3.07655 27.483 4.70324 28.158 6.4 28.16H24.32C26.0168 28.158 27.6434 27.483 28.8432 26.2832C30.043 25.0834 30.718 23.4568 30.72 21.76V8.20991C30.7201 7.70363 30.5701 7.20868 30.289 6.78764C30.0078 6.3666 29.6082 6.03837 29.1405 5.84447Z" fill="url(#paint0_linear_328_1408)"/>
</g>
<defs>
<linearGradient id="paint0_linear_328_1408" x1="30.72" y1="18.8702" x2="0.106732" y2="17.0626" gradientUnits="userSpaceOnUse">
<stop stop-color="#E54D60"/>
<stop offset="1" stop-color="#A342FF"/>
</linearGradient>
<clipPath id="clip0_328_1408">
<rect width="30.72" height="30.72" fill="white"/>
</clipPath>
</defs>
</svg>
