<svg width="16" height="16" viewBox="0 0 16 16" fill="none" xmlns="http://www.w3.org/2000/svg">
<path d="M7.68 3.03L8.844 1.1691C9.297 0.4419 10.095 0 10.953 0H11.04C12.366 0 13.44 1.0746 13.44 2.4C13.44 2.9403 13.26 3.438 12.96 3.84H13.92C14.715 3.84 15.36 4.485 15.36 5.28V7.2C15.36 7.827 14.958 8.361 14.4 8.559V13.44C14.4 14.499 13.539 15.36 12.48 15.36H2.88C1.8195 15.36 0.96 14.499 0.96 13.44V8.559C0.4008 8.361 0 7.827 0 7.2V5.28C0 4.485 0.6447 3.84 1.44 3.84H2.3997C2.0985 3.438 1.92 2.9403 1.92 2.4C1.92 1.0746 2.9946 0 4.32 0H4.407C5.265 0 6.063 0.4419 6.516 1.1691L7.68 3.03ZM10.953 0.96C10.425 0.96 9.936 1.2312 9.657 1.6779L8.307 3.84H11.04C11.835 3.84 12.48 3.195 12.48 2.4C12.48 1.6047 11.835 0.96 11.04 0.96H10.953ZM7.053 3.84L5.703 1.6779C5.424 1.2312 4.935 0.96 4.407 0.96H4.32C3.525 0.96 2.88 1.6047 2.88 2.4C2.88 3.195 3.525 3.84 4.32 3.84H7.053ZM1.44 4.8C1.1748 4.8 0.96 5.016 0.96 5.28V7.2C0.96 7.464 1.1748 7.68 1.44 7.68H7.2V4.8H1.44ZM8.16 7.68H13.92C14.184 7.68 14.4 7.464 14.4 7.2V5.28C14.4 5.016 14.184 4.8 13.92 4.8H8.16V7.68ZM7.2 8.64H1.92V13.44C1.92 13.971 2.3499 14.4 2.88 14.4H7.2V8.64ZM8.16 14.4H12.48C13.011 14.4 13.44 13.971 13.44 13.44V8.64H8.16V14.4Z" fill="white"/>
</svg>
