<svg width="16" height="16" viewBox="0 0 16 16" fill="none" xmlns="http://www.w3.org/2000/svg">
<path d="M9.01176 8.262L8.41928 7.062C8.27702 6.77934 7.97859 6.6378 7.6807 6.6378C7.38164 6.6378 7.08281 6.7803 6.94182 7.0659L6.34783 8.262L5.02397 8.457C4.71288 8.502 4.45788 8.715 4.36188 9.015C4.26439 9.3186 4.34313 9.6414 4.56813 9.8625L5.5281 10.7925L5.29936 12.1125C5.20747 12.6519 5.64015 13.0788 6.11624 13.0788C6.24269 13.0788 6.37216 13.0487 6.49573 12.9826L7.6798 12.36L8.86477 12.9825C8.98543 13.046 9.11304 13.0751 9.23826 13.0751C9.71225 13.0751 10.1529 12.6584 10.0611 12.1124L9.83239 10.796L10.7924 9.86238C11.0174 9.64113 11.0963 9.31878 10.9986 9.01488C10.9011 8.71488 10.6461 8.50128 10.3347 8.45628L9.01176 8.262ZM8.80177 10.458L9.06585 12.0015L7.67929 11.2719L6.28853 12.021L6.55702 10.4577L5.43565 9.3642L6.98541 9.13692L7.67929 7.73232L8.37317 9.13692L9.92293 9.3642L8.80177 10.458ZM7.6798 4.8C4.76387 4.8 2.39994 7.164 2.39994 10.08C2.39994 12.996 4.76387 15.36 7.6798 15.36C10.5957 15.36 12.9597 12.996 12.9597 10.08C12.9597 7.164 10.5957 4.8 7.6798 4.8ZM7.6798 14.4C5.29786 14.4 3.35991 12.462 3.35991 10.08C3.35991 7.698 5.29786 5.76 7.6798 5.76C10.0617 5.76 11.9997 7.698 11.9997 10.08C11.9997 12.462 10.0617 14.4 7.6798 14.4ZM3.35991 5.76C3.45273 5.76 3.54648 5.73375 3.62897 5.6775C3.84836 5.52936 3.90647 5.2302 3.7574 5.0109L1.01547 0.9591L3.97879 0.9291L5.90085 4.134C6.03773 4.36182 6.33493 4.4376 6.55903 4.299C6.78684 4.16307 6.86082 3.8676 6.72402 3.6408L4.80287 0.4368C4.64088 0.16686 4.34689 0 4.03189 0H0.898173C0.562482 0 0.25787 0.18468 0.102234 0.4827C-0.0524421 0.78 -0.0299517 1.1364 0.158482 1.4052L2.96251 5.5482C3.05392 5.685 3.20691 5.76 3.35991 5.76ZM15.2576 0.4827C15.1016 0.18468 14.7986 0 14.4626 0H11.3277C11.0136 0 10.7184 0.16686 10.5579 0.4359L8.63527 3.6429C8.49839 3.86976 8.57246 4.1652 8.80027 4.3011C9.02619 4.43985 9.32256 4.36392 9.45845 4.1361L11.3277 0.96H14.3426L11.6013 5.01C11.4522 5.22936 11.5104 5.5284 11.7297 5.6766C11.8137 5.733 11.9067 5.76 11.9997 5.76C12.1534 5.76 12.3045 5.68593 12.3972 5.54907L15.1976 1.41207C15.3896 1.1364 15.4136 0.78 15.2576 0.4827Z" fill="white"/>
</svg>
