<svg width="191" height="213" viewBox="0 0 191 213" fill="none" xmlns="http://www.w3.org/2000/svg">
<path d="M23 22C28.5 22 33 17.5 33 12C33 6.5 28.5 2 23 2C17.5 2 13 6.5 13 12C13 17.5 17.5 22 23 22Z" stroke="#292D32" stroke-width="1.5" stroke-linecap="round" stroke-linejoin="round"/>
<path d="M23 8V13" stroke="#292D32" stroke-width="1.5" stroke-linecap="round" stroke-linejoin="round"/>
<path d="M22.9941 16H23.0031" stroke="#292D32" stroke-width="2" stroke-linecap="round" stroke-linejoin="round"/>
<path d="M53.6184 18V7.248H55.4001V18H53.6184ZM46.4299 18V7.248H48.2116V18H46.4299ZM47.8276 13.2998V11.6717H54.3403V13.2998H47.8276ZM61.1601 18.1843C60.3921 18.1843 59.706 18.0154 59.1019 17.6774C58.508 17.3293 58.042 16.8531 57.7041 16.249C57.3662 15.6448 57.1972 14.9485 57.1972 14.16C57.1972 13.3715 57.3611 12.6752 57.6888 12.071C58.0267 11.4669 58.4926 10.9958 59.0865 10.6579C59.6804 10.3098 60.3614 10.1357 61.1294 10.1357C61.8974 10.1357 62.5784 10.3098 63.1723 10.6579C63.7662 10.9958 64.227 11.4669 64.5547 12.071C64.8926 12.6752 65.0616 13.3715 65.0616 14.16C65.0616 14.9485 64.8977 15.6448 64.57 16.249C64.2424 16.8531 63.7816 17.3293 63.1876 17.6774C62.5937 18.0154 61.9179 18.1843 61.1601 18.1843ZM61.1601 16.6022C61.58 16.6022 61.9537 16.4998 62.2814 16.295C62.6091 16.08 62.8651 15.7933 63.0494 15.4349C63.2337 15.0662 63.3259 14.6413 63.3259 14.16C63.3259 13.6787 63.2286 13.2589 63.034 12.9005C62.8497 12.5318 62.5937 12.2451 62.266 12.0403C61.9384 11.8253 61.5595 11.7178 61.1294 11.7178C60.6993 11.7178 60.3204 11.8202 59.9928 12.025C59.6651 12.2298 59.4091 12.5165 59.2248 12.8851C59.0404 13.2538 58.9483 13.6787 58.9483 14.16C58.9483 14.6413 59.0404 15.0662 59.2248 15.4349C59.4193 15.7933 59.6804 16.08 60.0081 16.295C60.346 16.4998 60.73 16.6022 61.1601 16.6022ZM73.379 18L75.9441 10.32H77.6798L75.0686 18H73.379ZM68.2334 18L70.7371 10.32H72.2577L69.7848 18H68.2334ZM68.0798 18L65.4686 10.32H67.2043L69.708 18H68.0798ZM73.3636 18L70.906 10.32H72.4267L74.9304 18H73.3636ZM82.6048 18V10.32H84.3098V18H82.6048ZM83.465 8.8608C83.1885 8.8608 82.9479 8.76352 82.7431 8.56896C82.5485 8.36416 82.4512 8.12352 82.4512 7.84704C82.4512 7.57056 82.5485 7.33504 82.7431 7.14048C82.9479 6.94592 83.1885 6.84864 83.465 6.84864C83.7415 6.84864 83.977 6.94592 84.1716 7.14048C84.3764 7.33504 84.4788 7.57056 84.4788 7.84704C84.4788 8.12352 84.3764 8.36416 84.1716 8.56896C83.977 8.76352 83.7415 8.8608 83.465 8.8608ZM89.394 18.1843C88.585 18.1843 87.9655 17.9846 87.5354 17.5853C87.1156 17.1757 86.9056 16.592 86.9056 15.8342V7.92384H88.6106V15.5117C88.6106 15.8701 88.6925 16.1414 88.8564 16.3258C89.0304 16.5101 89.2813 16.6022 89.609 16.6022C89.7114 16.6022 89.824 16.5818 89.9469 16.5408C90.0698 16.4998 90.208 16.423 90.3616 16.3104L90.9914 17.616C90.7252 17.8003 90.4589 17.9386 90.1927 18.0307C89.9264 18.1331 89.6602 18.1843 89.394 18.1843ZM85.6308 11.7946V10.32H90.6842V11.7946H85.6308ZM103.184 18L105.749 10.32H107.485L104.874 18H103.184ZM98.0384 18L100.542 10.32H102.063L99.5898 18H98.0384ZM97.8848 18L95.2736 10.32H97.0093L99.513 18H97.8848ZM103.169 18L100.711 10.32H102.232L104.735 18H103.169ZM111.92 18.1843C111.152 18.1843 110.466 18.0154 109.862 17.6774C109.268 17.3293 108.802 16.8531 108.464 16.249C108.126 15.6448 107.957 14.9485 107.957 14.16C107.957 13.3715 108.121 12.6752 108.449 12.071C108.787 11.4669 109.253 10.9958 109.847 10.6579C110.44 10.3098 111.121 10.1357 111.889 10.1357C112.657 10.1357 113.338 10.3098 113.932 10.6579C114.526 10.9958 114.987 11.4669 115.315 12.071C115.653 12.6752 115.822 13.3715 115.822 14.16C115.822 14.9485 115.658 15.6448 115.33 16.249C115.002 16.8531 114.542 17.3293 113.948 17.6774C113.354 18.0154 112.678 18.1843 111.92 18.1843ZM111.92 16.6022C112.34 16.6022 112.714 16.4998 113.041 16.295C113.369 16.08 113.625 15.7933 113.809 15.4349C113.994 15.0662 114.086 14.6413 114.086 14.16C114.086 13.6787 113.989 13.2589 113.794 12.9005C113.61 12.5318 113.354 12.2451 113.026 12.0403C112.698 11.8253 112.319 11.7178 111.889 11.7178C111.459 11.7178 111.08 11.8202 110.753 12.025C110.425 12.2298 110.169 12.5165 109.985 12.8851C109.8 13.2538 109.708 13.6787 109.708 14.16C109.708 14.6413 109.8 15.0662 109.985 15.4349C110.179 15.7933 110.44 16.08 110.768 16.295C111.106 16.4998 111.49 16.6022 111.92 16.6022ZM118.449 13.9142C118.449 13.0848 118.608 12.4038 118.925 11.8714C119.243 11.3389 119.652 10.9446 120.154 10.6886C120.666 10.4224 121.198 10.2893 121.751 10.2893V11.9328C121.28 11.9328 120.835 11.9994 120.415 12.1325C120.005 12.2554 119.673 12.4602 119.417 12.7469C119.161 13.0336 119.033 13.4125 119.033 13.8835L118.449 13.9142ZM117.312 18V10.32H119.033V18H117.312ZM124.536 15.8496L123.491 14.6669L127.485 10.32H129.559L124.536 15.8496ZM122.892 18V7.248H124.613V18H122.892ZM127.777 18L125.073 14.0218L126.195 12.8237L129.82 18H127.777ZM133.623 18.1843C133.111 18.1843 132.64 18.1075 132.21 17.9539C131.78 17.8003 131.411 17.5853 131.104 17.3088C130.797 17.0221 130.561 16.6893 130.397 16.3104L131.887 15.6499C132.041 15.9366 132.266 16.1773 132.563 16.3718C132.87 16.5664 133.208 16.6637 133.577 16.6637C133.976 16.6637 134.294 16.5971 134.529 16.464C134.775 16.3206 134.898 16.1261 134.898 15.8803C134.898 15.6448 134.806 15.4656 134.621 15.3427C134.437 15.2096 134.176 15.1021 133.838 15.0202L133.116 14.8205C132.389 14.6362 131.821 14.3443 131.411 13.945C131.001 13.5354 130.797 13.0694 130.797 12.5472C130.797 11.7792 131.042 11.1853 131.534 10.7654C132.036 10.3456 132.752 10.1357 133.684 10.1357C134.155 10.1357 134.585 10.2074 134.975 10.3507C135.374 10.4838 135.717 10.6784 136.004 10.9344C136.29 11.1802 136.49 11.472 136.603 11.8099L135.174 12.455C135.072 12.199 134.877 12.0045 134.591 11.8714C134.304 11.728 133.986 11.6563 133.638 11.6563C133.29 11.6563 133.019 11.7331 132.824 11.8867C132.63 12.0301 132.532 12.2349 132.532 12.5011C132.532 12.6547 132.619 12.7981 132.793 12.9312C132.967 13.0541 133.218 13.1565 133.546 13.2384L134.452 13.4534C134.954 13.5763 135.364 13.7709 135.681 14.0371C135.999 14.2931 136.234 14.585 136.388 14.9126C136.541 15.2301 136.618 15.5526 136.618 15.8803C136.618 16.3411 136.485 16.7456 136.219 17.0938C135.963 17.4419 135.609 17.7133 135.159 17.9078C134.708 18.0922 134.196 18.1843 133.623 18.1843ZM139.61 14.9894L139.564 12.2707L140.563 12.2093C141.146 12.1888 141.628 12.025 142.007 11.7178C142.386 11.4003 142.575 10.9549 142.575 10.3814C142.575 9.86944 142.396 9.4496 142.037 9.12192C141.689 8.79424 141.234 8.6304 140.67 8.6304C140.271 8.6304 139.923 8.72768 139.626 8.92224C139.329 9.1168 139.124 9.35744 139.011 9.64416L137.429 9.18336C137.634 8.54848 138.018 8.03648 138.581 7.64736C139.155 7.25824 139.851 7.06368 140.67 7.06368C141.367 7.06368 141.981 7.20704 142.514 7.49376C143.056 7.77024 143.481 8.15936 143.788 8.66112C144.096 9.15264 144.249 9.72608 144.249 10.3814C144.249 10.9344 144.126 11.431 143.881 11.8714C143.635 12.3117 143.287 12.665 142.836 12.9312C142.396 13.1974 141.884 13.3613 141.3 13.4227L141.269 14.9894H139.61ZM140.44 18.215C140.133 18.215 139.872 18.1126 139.657 17.9078C139.452 17.6928 139.349 17.4368 139.349 17.1398C139.349 16.8326 139.452 16.5766 139.657 16.3718C139.872 16.1568 140.133 16.0493 140.44 16.0493C140.737 16.0493 140.988 16.1568 141.193 16.3718C141.408 16.5766 141.515 16.8326 141.515 17.1398C141.515 17.4368 141.408 17.6928 141.193 17.9078C140.988 18.1126 140.737 18.215 140.44 18.215Z" fill="url(#paint0_linear_314_1248)"/>
<line x1="23.5" y1="57" x2="23.5" y2="185" stroke="#CCCCCC"/>
<path d="M53.302 53V43.2H54.492V53H53.302ZM56.7808 53V46H57.8308L57.9008 47.288V53H56.7808ZM61.6948 53V49.416H62.8148V53H61.6948ZM61.6948 49.416C61.6948 48.7253 61.6154 48.198 61.4568 47.834C61.2981 47.47 61.0788 47.2227 60.7988 47.092C60.5188 46.952 60.2014 46.882 59.8468 46.882C59.2308 46.882 58.7501 47.1013 58.4048 47.54C58.0688 47.9693 57.9008 48.5807 57.9008 49.374H57.3548C57.3548 48.6367 57.4621 48.002 57.6768 47.47C57.8914 46.938 58.2041 46.532 58.6148 46.252C59.0254 45.972 59.5201 45.832 60.0988 45.832C60.6494 45.832 61.1254 45.944 61.5268 46.168C61.9374 46.3827 62.2548 46.728 62.4788 47.204C62.7121 47.68 62.8241 48.3053 62.8148 49.08V49.416H61.6948ZM66.62 53L69.476 46H70.652L67.726 53H66.62ZM66.55 53L63.624 46H64.786L67.642 53H66.55ZM71.8215 53V46H72.9415V53H71.8215ZM72.3955 44.376C72.2088 44.376 72.0455 44.306 71.9055 44.166C71.7655 44.026 71.6955 43.8627 71.6955 43.676C71.6955 43.48 71.7655 43.3167 71.9055 43.186C72.0455 43.046 72.2088 42.976 72.3955 42.976C72.5915 42.976 72.7548 43.046 72.8855 43.186C73.0255 43.3167 73.0955 43.48 73.0955 43.676C73.0955 43.8627 73.0255 44.026 72.8855 44.166C72.7548 44.306 72.5915 44.376 72.3955 44.376ZM77.6374 53.168C76.9561 53.168 76.4287 52.9907 76.0554 52.636C75.6821 52.2813 75.4954 51.782 75.4954 51.138V43.816H76.6154V51.026C76.6154 51.3807 76.7087 51.656 76.8954 51.852C77.0914 52.0387 77.3621 52.132 77.7074 52.132C77.8194 52.132 77.9267 52.118 78.0294 52.09C78.1414 52.0527 78.2861 51.9687 78.4634 51.838L78.8974 52.748C78.6547 52.9067 78.4354 53.014 78.2394 53.07C78.0434 53.1353 77.8427 53.168 77.6374 53.168ZM74.2774 46.994V46H78.7154V46.994H74.2774ZM83.3214 53.168C82.6401 53.168 82.0381 53.014 81.5154 52.706C80.9927 52.3887 80.5821 51.9547 80.2834 51.404C79.9941 50.8533 79.8494 50.2187 79.8494 49.5C79.8494 48.7813 79.9941 48.1467 80.2834 47.596C80.5821 47.0453 80.9881 46.616 81.5014 46.308C82.0241 45.9907 82.6214 45.832 83.2934 45.832C83.9467 45.832 84.5114 45.9953 84.9874 46.322C85.4634 46.6393 85.8321 47.0873 86.0934 47.666C86.3547 48.2447 86.4854 48.926 86.4854 49.71H80.7034L80.9834 49.472C80.9834 50.032 81.0814 50.5127 81.2774 50.914C81.4827 51.3153 81.7674 51.6233 82.1314 51.838C82.4954 52.0433 82.9107 52.146 83.3774 52.146C83.8721 52.146 84.2874 52.0293 84.6234 51.796C84.9687 51.5627 85.2347 51.2547 85.4214 50.872L86.3874 51.362C86.2101 51.726 85.9721 52.0433 85.6734 52.314C85.3841 52.5847 85.0387 52.7947 84.6374 52.944C84.2454 53.0933 83.8067 53.168 83.3214 53.168ZM81.0534 48.996L80.7594 48.772H85.5894L85.2954 49.01C85.2954 48.562 85.2067 48.1747 85.0294 47.848C84.8521 47.5213 84.6141 47.2693 84.3154 47.092C84.0167 46.9147 83.6714 46.826 83.2794 46.826C82.8967 46.826 82.5327 46.9147 82.1874 47.092C81.8514 47.2693 81.5761 47.5213 81.3614 47.848C81.1561 48.1653 81.0534 48.548 81.0534 48.996ZM91.987 55.968C91.8096 55.968 91.6043 55.9307 91.371 55.856C91.1376 55.7907 90.8903 55.702 90.629 55.59L91.049 54.652C91.2636 54.7453 91.4503 54.8153 91.609 54.862C91.777 54.9087 91.9076 54.932 92.001 54.932C92.253 54.932 92.4583 54.862 92.617 54.722C92.785 54.5913 92.925 54.4 93.037 54.148L93.835 52.244L96.425 46H97.629L94.269 53.98C94.0916 54.3907 93.905 54.7453 93.709 55.044C93.5223 55.3427 93.2936 55.5713 93.023 55.73C92.7523 55.8887 92.407 55.968 91.987 55.968ZM93.527 53L90.503 46H91.693L94.297 52.23L94.633 53H93.527ZM101.656 53.168C100.975 53.168 100.368 53.014 99.836 52.706C99.3134 52.3887 98.9027 51.9547 98.604 51.404C98.3054 50.8533 98.156 50.2187 98.156 49.5C98.156 48.7813 98.3007 48.1467 98.59 47.596C98.8887 47.0453 99.2994 46.616 99.822 46.308C100.354 45.9907 100.956 45.832 101.628 45.832C102.319 45.832 102.925 45.9907 103.448 46.308C103.98 46.616 104.391 47.0453 104.68 47.596C104.979 48.1467 105.128 48.7813 105.128 49.5C105.128 50.2187 104.979 50.8533 104.68 51.404C104.391 51.9547 103.985 52.3887 103.462 52.706C102.939 53.014 102.337 53.168 101.656 53.168ZM101.656 52.132C102.123 52.132 102.529 52.02 102.874 51.796C103.219 51.572 103.49 51.264 103.686 50.872C103.891 50.48 103.994 50.0227 103.994 49.5C103.994 48.9773 103.891 48.52 103.686 48.128C103.49 47.736 103.215 47.428 102.86 47.204C102.505 46.98 102.095 46.868 101.628 46.868C101.171 46.868 100.765 46.98 100.41 47.204C100.065 47.428 99.7894 47.736 99.584 48.128C99.388 48.52 99.29 48.9773 99.29 49.5C99.29 50.0133 99.388 50.4707 99.584 50.872C99.7894 51.264 100.069 51.572 100.424 51.796C100.788 52.02 101.199 52.132 101.656 52.132ZM111.485 53L111.415 51.712V46H112.535V53H111.485ZM106.501 49.584V46H107.621V49.584H106.501ZM107.621 49.584C107.621 50.2747 107.7 50.802 107.859 51.166C108.018 51.53 108.237 51.782 108.517 51.922C108.806 52.0527 109.128 52.118 109.483 52.118C110.09 52.118 110.561 51.8987 110.897 51.46C111.242 51.0213 111.415 50.41 111.415 49.626H111.961C111.961 50.3633 111.854 50.998 111.639 51.53C111.424 52.062 111.112 52.468 110.701 52.748C110.3 53.028 109.805 53.168 109.217 53.168C108.676 53.168 108.2 53.0607 107.789 52.846C107.378 52.622 107.061 52.272 106.837 51.796C106.613 51.3107 106.501 50.6853 106.501 49.92V49.584H107.621ZM115.106 49.206C115.106 48.45 115.25 47.8387 115.54 47.372C115.829 46.896 116.198 46.546 116.646 46.322C117.103 46.0887 117.584 45.972 118.088 45.972V47.022C117.677 47.022 117.28 47.092 116.898 47.232C116.524 47.3627 116.216 47.582 115.974 47.89C115.731 48.198 115.61 48.618 115.61 49.15L115.106 49.206ZM114.49 53V46H115.61V53H114.49ZM123.379 53V45.202C123.379 44.474 123.547 43.928 123.883 43.564C124.229 43.1907 124.751 43.004 125.451 43.004C125.638 43.004 125.848 43.0367 126.081 43.102C126.315 43.1673 126.562 43.2607 126.823 43.382L126.403 44.264C126.189 44.18 126.007 44.1147 125.857 44.068C125.708 44.0213 125.582 43.998 125.479 43.998C125.153 43.998 124.905 44.1053 124.737 44.32C124.579 44.5253 124.499 44.8473 124.499 45.286V53H123.379ZM122.091 46.966V46H126.529V46.966H122.091ZM128.463 49.206C128.463 48.45 128.608 47.8387 128.897 47.372C129.187 46.896 129.555 46.546 130.003 46.322C130.461 46.0887 130.941 45.972 131.445 45.972V47.022C131.035 47.022 130.638 47.092 130.255 47.232C129.882 47.3627 129.574 47.582 129.331 47.89C129.089 48.198 128.967 48.618 128.967 49.15L128.463 49.206ZM127.847 53V46H128.967V53H127.847ZM132.648 53V46H133.768V53H132.648ZM133.222 44.376C133.035 44.376 132.872 44.306 132.732 44.166C132.592 44.026 132.522 43.8627 132.522 43.676C132.522 43.48 132.592 43.3167 132.732 43.186C132.872 43.046 133.035 42.976 133.222 42.976C133.418 42.976 133.581 43.046 133.712 43.186C133.852 43.3167 133.922 43.48 133.922 43.676C133.922 43.8627 133.852 44.026 133.712 44.166C133.581 44.306 133.418 44.376 133.222 44.376ZM138.898 53.168C138.216 53.168 137.614 53.014 137.092 52.706C136.569 52.3887 136.158 51.9547 135.86 51.404C135.57 50.8533 135.426 50.2187 135.426 49.5C135.426 48.7813 135.57 48.1467 135.86 47.596C136.158 47.0453 136.564 46.616 137.078 46.308C137.6 45.9907 138.198 45.832 138.87 45.832C139.523 45.832 140.088 45.9953 140.564 46.322C141.04 46.6393 141.408 47.0873 141.67 47.666C141.931 48.2447 142.062 48.926 142.062 49.71H136.28L136.56 49.472C136.56 50.032 136.658 50.5127 136.854 50.914C137.059 51.3153 137.344 51.6233 137.708 51.838C138.072 52.0433 138.487 52.146 138.954 52.146C139.448 52.146 139.864 52.0293 140.2 51.796C140.545 51.5627 140.811 51.2547 140.998 50.872L141.964 51.362C141.786 51.726 141.548 52.0433 141.25 52.314C140.96 52.5847 140.615 52.7947 140.214 52.944C139.822 53.0933 139.383 53.168 138.898 53.168ZM136.63 48.996L136.336 48.772H141.166L140.872 49.01C140.872 48.562 140.783 48.1747 140.606 47.848C140.428 47.5213 140.19 47.2693 139.892 47.092C139.593 46.9147 139.248 46.826 138.856 46.826C138.473 46.826 138.109 46.9147 137.764 47.092C137.428 47.2693 137.152 47.5213 136.938 47.848C136.732 48.1653 136.63 48.548 136.63 48.996ZM143.474 53V46H144.524L144.594 47.288V53H143.474ZM148.388 53V49.416H149.508V53H148.388ZM148.388 49.416C148.388 48.7253 148.309 48.198 148.15 47.834C147.991 47.47 147.772 47.2227 147.492 47.092C147.212 46.952 146.895 46.882 146.54 46.882C145.924 46.882 145.443 47.1013 145.098 47.54C144.762 47.9693 144.594 48.5807 144.594 49.374H144.048C144.048 48.6367 144.155 48.002 144.37 47.47C144.585 46.938 144.897 46.532 145.308 46.252C145.719 45.972 146.213 45.832 146.792 45.832C147.343 45.832 147.819 45.944 148.22 46.168C148.631 46.3827 148.948 46.728 149.172 47.204C149.405 47.68 149.517 48.3053 149.508 49.08V49.416H148.388ZM156.461 53L156.405 51.698V43.2H157.525V53H156.461ZM154.039 53.168C153.413 53.168 152.863 53.014 152.387 52.706C151.911 52.398 151.537 51.9687 151.267 51.418C151.005 50.858 150.875 50.2187 150.875 49.5C150.875 48.772 151.005 48.1327 151.267 47.582C151.537 47.0313 151.911 46.602 152.387 46.294C152.863 45.986 153.413 45.832 154.039 45.832C154.627 45.832 155.14 45.986 155.579 46.294C156.027 46.602 156.372 47.0313 156.615 47.582C156.857 48.1327 156.979 48.772 156.979 49.5C156.979 50.2187 156.857 50.858 156.615 51.418C156.372 51.9687 156.027 52.398 155.579 52.706C155.14 53.014 154.627 53.168 154.039 53.168ZM154.291 52.146C154.701 52.146 155.065 52.034 155.383 51.81C155.7 51.586 155.947 51.2733 156.125 50.872C156.311 50.4707 156.405 50.0133 156.405 49.5C156.405 48.9867 156.311 48.5293 156.125 48.128C155.947 47.7267 155.7 47.414 155.383 47.19C155.065 46.966 154.697 46.854 154.277 46.854C153.838 46.854 153.446 46.966 153.101 47.19C152.765 47.414 152.499 47.7267 152.303 48.128C152.107 48.5293 152.009 48.9867 152.009 49.5C152.009 50.0133 152.107 50.4707 152.303 50.872C152.499 51.2733 152.769 51.586 153.115 51.81C153.46 52.034 153.852 52.146 154.291 52.146ZM161.934 53.168C161.421 53.168 160.973 53.0933 160.59 52.944C160.207 52.7853 159.885 52.58 159.624 52.328C159.372 52.076 159.19 51.8007 159.078 51.502L160.058 51.096C160.217 51.4133 160.455 51.67 160.772 51.866C161.089 52.062 161.439 52.16 161.822 52.16C162.261 52.16 162.629 52.076 162.928 51.908C163.227 51.7307 163.376 51.4833 163.376 51.166C163.376 50.8767 163.264 50.6433 163.04 50.466C162.825 50.2887 162.503 50.144 162.074 50.032L161.402 49.85C160.767 49.682 160.273 49.43 159.918 49.094C159.563 48.7487 159.386 48.3613 159.386 47.932C159.386 47.2693 159.601 46.756 160.03 46.392C160.469 46.0187 161.117 45.832 161.976 45.832C162.387 45.832 162.76 45.8927 163.096 46.014C163.432 46.1353 163.721 46.308 163.964 46.532C164.207 46.7467 164.384 47.0033 164.496 47.302L163.516 47.736C163.395 47.4187 163.194 47.19 162.914 47.05C162.634 46.91 162.293 46.84 161.892 46.84C161.463 46.84 161.127 46.9333 160.884 47.12C160.641 47.2973 160.52 47.5493 160.52 47.876C160.52 48.0627 160.618 48.24 160.814 48.408C161.019 48.5667 161.318 48.6973 161.71 48.8L162.41 48.982C162.867 49.094 163.25 49.262 163.558 49.486C163.866 49.7007 164.099 49.948 164.258 50.228C164.417 50.508 164.496 50.8067 164.496 51.124C164.496 51.544 164.384 51.908 164.16 52.216C163.936 52.524 163.633 52.762 163.25 52.93C162.867 53.0887 162.429 53.168 161.934 53.168Z" fill="black"/>
<path d="M54.5817 69.144C54.2537 69.144 53.9577 69.096 53.6937 69C53.4377 68.904 53.2097 68.78 53.0097 68.628C52.8097 68.468 52.6417 68.292 52.5057 68.1C52.3697 67.9 52.2617 67.7 52.1817 67.5L53.1297 67.02C53.2817 67.332 53.4737 67.584 53.7057 67.776C53.9457 67.968 54.2377 68.064 54.5817 68.064C54.8617 68.064 55.1297 68 55.3857 67.872C55.6417 67.744 55.8537 67.532 56.0217 67.236C56.1897 66.932 56.2737 66.536 56.2737 66.048V60.6H57.4497V66.468C57.4497 66.908 57.3697 67.296 57.2097 67.632C57.0577 67.96 56.8457 68.24 56.5737 68.472C56.3097 68.696 56.0057 68.864 55.6617 68.976C55.3177 69.088 54.9577 69.144 54.5817 69.144ZM63.2743 69L63.2023 67.896V63H64.3303V69H63.2743ZM59.0503 66.072V63H60.1903V66.072H59.0503ZM60.1903 66.072C60.1903 66.608 60.2503 67.02 60.3703 67.308C60.4983 67.596 60.6743 67.796 60.8983 67.908C61.1223 68.02 61.3743 68.08 61.6543 68.088C62.1423 68.088 62.5223 67.916 62.7943 67.572C63.0663 67.228 63.2023 66.744 63.2023 66.12H63.6943C63.6943 66.752 63.5983 67.296 63.4063 67.752C63.2223 68.2 62.9583 68.544 62.6143 68.784C62.2703 69.024 61.8503 69.144 61.3543 69.144C60.8903 69.144 60.4823 69.048 60.1303 68.856C59.7863 68.664 59.5183 68.364 59.3263 67.956C59.1423 67.548 59.0503 67.02 59.0503 66.372V66.072H60.1903ZM68.0689 69.144C67.6449 69.144 67.2649 69.08 66.9289 68.952C66.6009 68.824 66.3209 68.652 66.0889 68.436C65.8649 68.22 65.6969 67.976 65.5849 67.704L66.5689 67.272C66.6969 67.52 66.8889 67.724 67.1449 67.884C67.4009 68.044 67.6849 68.124 67.9969 68.124C68.3409 68.124 68.6249 68.06 68.8489 67.932C69.0729 67.804 69.1849 67.624 69.1849 67.392C69.1849 67.168 69.1009 66.992 68.9329 66.864C68.7649 66.736 68.5209 66.632 68.2009 66.552L67.6369 66.408C67.0769 66.256 66.6409 66.028 66.3289 65.724C66.0249 65.42 65.8729 65.076 65.8729 64.692C65.8729 64.108 66.0609 63.656 66.4369 63.336C66.8129 63.016 67.3689 62.856 68.1049 62.856C68.4649 62.856 68.7929 62.908 69.0889 63.012C69.3929 63.116 69.6489 63.264 69.8569 63.456C70.0729 63.648 70.2249 63.876 70.3129 64.14L69.3529 64.572C69.2569 64.332 69.0929 64.156 68.8609 64.044C68.6289 63.924 68.3569 63.864 68.0449 63.864C67.7249 63.864 67.4729 63.936 67.2889 64.08C67.1049 64.216 67.0129 64.408 67.0129 64.656C67.0129 64.792 67.0889 64.924 67.2409 65.052C67.4009 65.172 67.6329 65.272 67.9369 65.352L68.5849 65.508C68.9769 65.604 69.3009 65.752 69.5569 65.952C69.8129 66.144 70.0049 66.364 70.1329 66.612C70.2609 66.852 70.3249 67.104 70.3249 67.368C70.3249 67.728 70.2249 68.044 70.0249 68.316C69.8329 68.58 69.5649 68.784 69.2209 68.928C68.8849 69.072 68.5009 69.144 68.0689 69.144ZM73.8268 69.144C73.2268 69.144 72.7628 68.992 72.4348 68.688C72.1068 68.376 71.9428 67.932 71.9428 67.356V61.128H73.0828V67.188C73.0828 67.484 73.1548 67.712 73.2988 67.872C73.4508 68.024 73.6668 68.1 73.9468 68.1C74.0268 68.1 74.1148 68.084 74.2108 68.052C74.3068 68.02 74.4228 67.956 74.5588 67.86L74.9908 68.748C74.7828 68.884 74.5828 68.984 74.3908 69.048C74.2068 69.112 74.0188 69.144 73.8268 69.144ZM70.9228 63.984V63H74.7868V63.984H70.9228ZM81.1939 69.144C80.7699 69.144 80.3899 69.08 80.0539 68.952C79.7259 68.824 79.4459 68.652 79.2139 68.436C78.9899 68.22 78.8219 67.976 78.7099 67.704L79.6939 67.272C79.8219 67.52 80.0139 67.724 80.2699 67.884C80.5259 68.044 80.8099 68.124 81.1219 68.124C81.4659 68.124 81.7499 68.06 81.9739 67.932C82.1979 67.804 82.3099 67.624 82.3099 67.392C82.3099 67.168 82.2259 66.992 82.0579 66.864C81.8899 66.736 81.6459 66.632 81.3259 66.552L80.7619 66.408C80.2019 66.256 79.7659 66.028 79.4539 65.724C79.1499 65.42 78.9979 65.076 78.9979 64.692C78.9979 64.108 79.1859 63.656 79.5619 63.336C79.9379 63.016 80.4939 62.856 81.2299 62.856C81.5899 62.856 81.9179 62.908 82.2139 63.012C82.5179 63.116 82.7739 63.264 82.9819 63.456C83.1979 63.648 83.3499 63.876 83.4379 64.14L82.4779 64.572C82.3819 64.332 82.2179 64.156 81.9859 64.044C81.7539 63.924 81.4819 63.864 81.1699 63.864C80.8499 63.864 80.5979 63.936 80.4139 64.08C80.2299 64.216 80.1379 64.408 80.1379 64.656C80.1379 64.792 80.2139 64.924 80.3659 65.052C80.5259 65.172 80.7579 65.272 81.0619 65.352L81.7099 65.508C82.1019 65.604 82.4259 65.752 82.6819 65.952C82.9379 66.144 83.1299 66.364 83.2579 66.612C83.3859 66.852 83.4499 67.104 83.4499 67.368C83.4499 67.728 83.3499 68.044 83.1499 68.316C82.9579 68.58 82.6899 68.784 82.3459 68.928C82.0099 69.072 81.6259 69.144 81.1939 69.144ZM84.6478 69V60.6H85.7758V69H84.6478ZM88.7998 69V65.928H89.9278V69H88.7998ZM88.7998 65.928C88.7998 65.384 88.7358 64.972 88.6078 64.692C88.4798 64.404 88.3038 64.204 88.0798 64.092C87.8638 63.98 87.6158 63.92 87.3358 63.912C86.8398 63.912 86.4558 64.084 86.1838 64.428C85.9118 64.772 85.7758 65.256 85.7758 65.88H85.2958C85.2958 65.248 85.3878 64.708 85.5718 64.26C85.7638 63.804 86.0318 63.456 86.3758 63.216C86.7278 62.976 87.1438 62.856 87.6238 62.856C88.0958 62.856 88.5038 62.952 88.8478 63.144C89.1918 63.336 89.4598 63.636 89.6518 64.044C89.8438 64.444 89.9358 64.972 89.9278 65.628V65.928H88.7998ZM95.0463 69L94.9983 67.956V65.868C94.9983 65.428 94.9463 65.06 94.8423 64.764C94.7463 64.468 94.5943 64.244 94.3863 64.092C94.1863 63.94 93.9183 63.864 93.5823 63.864C93.2703 63.864 92.9983 63.928 92.7663 64.056C92.5423 64.184 92.3543 64.384 92.2023 64.656L91.1943 64.272C91.3383 64 91.5183 63.76 91.7343 63.552C91.9503 63.336 92.2103 63.168 92.5143 63.048C92.8183 62.92 93.1743 62.856 93.5823 62.856C94.1503 62.856 94.6223 62.968 94.9983 63.192C95.3743 63.416 95.6543 63.74 95.8383 64.164C96.0303 64.588 96.1223 65.112 96.1143 65.736L96.1023 69H95.0463ZM93.2823 69.144C92.5703 69.144 92.0143 68.984 91.6143 68.664C91.2223 68.336 91.0263 67.884 91.0263 67.308C91.0263 66.692 91.2303 66.224 91.6383 65.904C92.0543 65.576 92.6303 65.412 93.3663 65.412H95.0343V66.312H93.6783C93.1263 66.312 92.7383 66.4 92.5143 66.576C92.2903 66.744 92.1783 66.98 92.1783 67.284C92.1783 67.564 92.2823 67.784 92.4903 67.944C92.7063 68.096 93.0023 68.172 93.3783 68.172C93.7063 68.172 93.9903 68.104 94.2303 67.968C94.4703 67.824 94.6583 67.624 94.7943 67.368C94.9303 67.112 94.9983 66.82 94.9983 66.492H95.3943C95.3943 67.308 95.2183 67.956 94.8663 68.436C94.5223 68.908 93.9943 69.144 93.2823 69.144ZM98.2458 65.772C98.2458 65.124 98.3698 64.596 98.6178 64.188C98.8658 63.78 99.1858 63.476 99.5778 63.276C99.9698 63.076 100.382 62.976 100.814 62.976V64.056C100.454 64.056 100.11 64.112 99.7818 64.224C99.4618 64.328 99.1978 64.504 98.9898 64.752C98.7898 64.992 98.6898 65.32 98.6898 65.736L98.2458 65.772ZM97.5498 69V63H98.6898V69H97.5498ZM104.385 69.144C103.801 69.144 103.285 69.012 102.837 68.748C102.389 68.476 102.037 68.104 101.781 67.632C101.525 67.16 101.397 66.616 101.397 66C101.397 65.384 101.525 64.84 101.781 64.368C102.037 63.896 102.389 63.528 102.837 63.264C103.293 62.992 103.813 62.856 104.397 62.856C104.949 62.856 105.433 62.996 105.849 63.276C106.265 63.548 106.589 63.94 106.821 64.452C107.061 64.956 107.181 65.552 107.181 66.24H102.333L102.549 66.06C102.549 66.484 102.633 66.852 102.801 67.164C102.969 67.476 103.197 67.716 103.485 67.884C103.773 68.044 104.101 68.124 104.469 68.124C104.869 68.124 105.201 68.032 105.465 67.848C105.737 67.656 105.949 67.416 106.101 67.128L107.085 67.584C106.925 67.896 106.717 68.172 106.461 68.412C106.205 68.644 105.901 68.824 105.549 68.952C105.205 69.08 104.817 69.144 104.385 69.144ZM102.621 65.52L102.393 65.34H106.185L105.969 65.52C105.969 65.168 105.897 64.868 105.753 64.62C105.609 64.364 105.417 64.172 105.177 64.044C104.937 63.908 104.669 63.84 104.373 63.84C104.085 63.84 103.805 63.908 103.533 64.044C103.269 64.172 103.049 64.36 102.873 64.608C102.705 64.856 102.621 65.16 102.621 65.52ZM111.969 71.544C111.793 71.544 111.597 71.512 111.381 71.448C111.173 71.384 110.957 71.3 110.733 71.196L111.153 70.26C111.329 70.34 111.481 70.4 111.609 70.44C111.745 70.48 111.853 70.5 111.933 70.5C112.133 70.5 112.301 70.444 112.437 70.332C112.581 70.22 112.697 70.064 112.785 69.864L113.481 68.22L115.617 63H116.841L113.997 69.744C113.845 70.112 113.685 70.432 113.517 70.704C113.349 70.976 113.141 71.184 112.893 71.328C112.653 71.472 112.345 71.544 111.969 71.544ZM113.169 69L110.541 63H111.753L113.925 68.208L114.273 69H113.169ZM120.277 69.144C119.677 69.144 119.149 69.012 118.693 68.748C118.237 68.476 117.877 68.104 117.613 67.632C117.357 67.16 117.229 66.616 117.229 66C117.229 65.384 117.357 64.84 117.613 64.368C117.869 63.896 118.225 63.528 118.681 63.264C119.137 62.992 119.661 62.856 120.253 62.856C120.845 62.856 121.369 62.992 121.825 63.264C122.281 63.528 122.637 63.896 122.893 64.368C123.149 64.84 123.277 65.384 123.277 66C123.277 66.616 123.149 67.16 122.893 67.632C122.637 68.104 122.281 68.476 121.825 68.748C121.377 69.012 120.861 69.144 120.277 69.144ZM120.277 68.1C120.637 68.1 120.957 68.012 121.237 67.836C121.517 67.652 121.733 67.404 121.885 67.092C122.045 66.78 122.125 66.416 122.125 66C122.125 65.584 122.045 65.22 121.885 64.908C121.733 64.596 121.513 64.352 121.225 64.176C120.937 63.992 120.613 63.9 120.253 63.9C119.885 63.9 119.561 63.992 119.281 64.176C119.001 64.352 118.781 64.596 118.621 64.908C118.461 65.22 118.381 65.584 118.381 66C118.381 66.416 118.461 66.78 118.621 67.092C118.781 67.404 119.005 67.652 119.293 67.836C119.581 68.012 119.909 68.1 120.277 68.1ZM128.606 69L128.534 67.896V63H129.662V69H128.606ZM124.382 66.072V63H125.522V66.072H124.382ZM125.522 66.072C125.522 66.608 125.582 67.02 125.702 67.308C125.83 67.596 126.006 67.796 126.23 67.908C126.454 68.02 126.706 68.08 126.986 68.088C127.474 68.088 127.854 67.916 128.126 67.572C128.398 67.228 128.534 66.744 128.534 66.12H129.026C129.026 66.752 128.93 67.296 128.738 67.752C128.554 68.2 128.29 68.544 127.946 68.784C127.602 69.024 127.182 69.144 126.686 69.144C126.222 69.144 125.814 69.048 125.462 68.856C125.118 68.664 124.85 68.364 124.658 67.956C124.474 67.548 124.382 67.02 124.382 66.372V66.072H125.522ZM131.949 65.772C131.949 65.124 132.073 64.596 132.321 64.188C132.569 63.78 132.889 63.476 133.281 63.276C133.673 63.076 134.085 62.976 134.517 62.976V64.056C134.157 64.056 133.813 64.112 133.485 64.224C133.165 64.328 132.901 64.504 132.693 64.752C132.493 64.992 132.393 65.32 132.393 65.736L131.949 65.772ZM131.253 69V63H132.393V69H131.253ZM138.366 69V60.6H139.506V69H138.366ZM141.157 69V63H142.297V69H141.157ZM141.733 61.728C141.549 61.728 141.389 61.66 141.253 61.524C141.117 61.38 141.049 61.216 141.049 61.032C141.049 60.84 141.117 60.68 141.253 60.552C141.389 60.416 141.549 60.348 141.733 60.348C141.925 60.348 142.085 60.416 142.213 60.552C142.349 60.68 142.417 60.84 142.417 61.032C142.417 61.216 142.349 61.38 142.213 61.524C142.085 61.66 141.925 61.728 141.733 61.728ZM143.968 69V63H145.036L145.108 64.104V69H143.968ZM148.12 69V65.928H149.26V69H148.12ZM148.12 65.928C148.12 65.384 148.056 64.972 147.928 64.692C147.808 64.404 147.636 64.204 147.412 64.092C147.196 63.98 146.944 63.92 146.656 63.912C146.168 63.912 145.788 64.084 145.516 64.428C145.244 64.772 145.108 65.256 145.108 65.88H144.616C144.616 65.248 144.708 64.708 144.892 64.26C145.084 63.804 145.352 63.456 145.696 63.216C146.048 62.976 146.464 62.856 146.944 62.856C147.416 62.856 147.824 62.952 148.168 63.144C148.52 63.336 148.788 63.636 148.972 64.044C149.164 64.444 149.26 64.972 149.26 65.628V65.928H148.12ZM151.798 67.188L151.09 66.408L154.246 63H155.638L151.798 67.188ZM150.694 69V60.6H151.834V69H150.694ZM154.498 69L152.29 65.712L153.034 64.92L155.866 69H154.498Z" fill="#9B9B9B"/>
<g filter="url(#filter0_d_314_1248)">
<circle cx="23" cy="56" r="16" fill="white"/>
</g>
<path d="M23.4159 62V52.2003L23.5849 51.248H25.1363V62H23.4159ZM21.0812 54.3968V52.784C21.3167 52.7942 21.583 52.7277 21.8799 52.5843C22.1871 52.4307 22.4892 52.231 22.7862 51.9853C23.0831 51.7395 23.3494 51.4886 23.5849 51.2326L24.6908 52.3846C24.3324 52.7635 23.9587 53.1117 23.5695 53.4291C23.1804 53.7466 22.7759 53.9923 22.3561 54.1664C21.9465 54.3405 21.5215 54.4173 21.0812 54.3968Z" fill="url(#paint1_linear_314_1248)"/>
<path d="M55.276 117V108.278H52.154V107.2H59.574V108.278H56.452V117H55.276ZM60.7046 117V107.2H61.8246V117H60.7046ZM65.6326 117V113.416H66.7526V117H65.6326ZM65.6326 113.416C65.6326 112.725 65.5486 112.198 65.3806 111.834C65.2219 111.47 65.0026 111.223 64.7226 111.092C64.4426 110.952 64.1253 110.882 63.7706 110.882C63.1546 110.882 62.6739 111.101 62.3286 111.54C61.9926 111.969 61.8246 112.581 61.8246 113.374H61.2786C61.2786 112.637 61.3859 112.002 61.6006 111.47C61.8246 110.938 62.1419 110.532 62.5526 110.252C62.9633 109.972 63.4579 109.832 64.0366 109.832C64.5779 109.832 65.0539 109.944 65.4646 110.168C65.8753 110.383 66.1926 110.728 66.4166 111.204C66.6499 111.68 66.7619 112.305 66.7526 113.08V113.416H65.6326ZM71.5773 117.168C70.8959 117.168 70.2939 117.014 69.7713 116.706C69.2486 116.389 68.8379 115.955 68.5393 115.404C68.2499 114.853 68.1053 114.219 68.1053 113.5C68.1053 112.781 68.2499 112.147 68.5393 111.596C68.8379 111.045 69.2439 110.616 69.7573 110.308C70.2799 109.991 70.8773 109.832 71.5493 109.832C72.2026 109.832 72.7673 109.995 73.2433 110.322C73.7193 110.639 74.0879 111.087 74.3493 111.666C74.6106 112.245 74.7413 112.926 74.7413 113.71H68.9593L69.2393 113.472C69.2393 114.032 69.3373 114.513 69.5333 114.914C69.7386 115.315 70.0233 115.623 70.3873 115.838C70.7513 116.043 71.1666 116.146 71.6333 116.146C72.1279 116.146 72.5433 116.029 72.8793 115.796C73.2246 115.563 73.4906 115.255 73.6773 114.872L74.6433 115.362C74.4659 115.726 74.2279 116.043 73.9293 116.314C73.6399 116.585 73.2946 116.795 72.8933 116.944C72.5013 117.093 72.0626 117.168 71.5773 117.168ZM69.3093 112.996L69.0153 112.772H73.8453L73.5513 113.01C73.5513 112.562 73.4626 112.175 73.2853 111.848C73.1079 111.521 72.8699 111.269 72.5713 111.092C72.2726 110.915 71.9273 110.826 71.5353 110.826C71.1526 110.826 70.7886 110.915 70.4433 111.092C70.1073 111.269 69.8319 111.521 69.6173 111.848C69.4119 112.165 69.3093 112.548 69.3093 112.996ZM76.6061 119.968C76.4288 119.968 76.2234 119.931 75.9901 119.856C75.7568 119.791 75.5094 119.702 75.2481 119.59L75.6681 118.652C75.8828 118.745 76.0694 118.815 76.2281 118.862C76.3961 118.909 76.5268 118.932 76.6201 118.932C76.8721 118.932 77.0774 118.862 77.2361 118.722C77.4041 118.591 77.5441 118.4 77.6561 118.148L78.4541 116.244L81.0441 110H82.2481L78.8881 117.98C78.7108 118.391 78.5241 118.745 78.3281 119.044C78.1414 119.343 77.9128 119.571 77.6421 119.73C77.3714 119.889 77.0261 119.968 76.6061 119.968ZM78.1461 117L75.1221 110H76.3121L78.9161 116.23L79.2521 117H78.1461ZM90.2622 117.168C89.7209 117.168 89.2402 117.112 88.8202 117C88.4002 116.879 88.0362 116.715 87.7282 116.51C87.4202 116.295 87.1682 116.062 86.9722 115.81C86.7762 115.549 86.6316 115.273 86.5382 114.984L87.6722 114.592C87.8122 115.003 88.0922 115.362 88.5122 115.67C88.9416 115.969 89.4642 116.118 90.0802 116.118C90.8362 116.118 91.4289 115.969 91.8582 115.67C92.2876 115.371 92.5022 114.975 92.5022 114.48C92.5022 114.023 92.3109 113.654 91.9282 113.374C91.5456 113.085 91.0416 112.861 90.4162 112.702L89.3382 112.422C88.8996 112.31 88.4936 112.147 88.1202 111.932C87.7562 111.708 87.4622 111.428 87.2382 111.092C87.0236 110.747 86.9162 110.336 86.9162 109.86C86.9162 108.973 87.2009 108.283 87.7702 107.788C88.3489 107.284 89.1796 107.032 90.2622 107.032C90.9062 107.032 91.4616 107.139 91.9282 107.354C92.3949 107.559 92.7729 107.825 93.0622 108.152C93.3609 108.469 93.5709 108.815 93.6922 109.188L92.5722 109.58C92.3949 109.113 92.0962 108.749 91.6762 108.488C91.2562 108.217 90.7476 108.082 90.1502 108.082C89.5249 108.082 89.0256 108.236 88.6522 108.544C88.2882 108.843 88.1062 109.253 88.1062 109.776C88.1062 110.224 88.2509 110.569 88.5402 110.812C88.8296 111.045 89.2076 111.218 89.6742 111.33L90.7522 111.596C91.7042 111.82 92.4322 112.193 92.9362 112.716C93.4496 113.229 93.7062 113.785 93.7062 114.382C93.7062 114.895 93.5756 115.367 93.3142 115.796C93.0529 116.216 92.6656 116.552 92.1522 116.804C91.6482 117.047 91.0182 117.168 90.2622 117.168ZM95.4738 117V110H96.5938V117H95.4738ZM96.0478 108.376C95.8612 108.376 95.6978 108.306 95.5578 108.166C95.4178 108.026 95.3478 107.863 95.3478 107.676C95.3478 107.48 95.4178 107.317 95.5578 107.186C95.6978 107.046 95.8612 106.976 96.0478 106.976C96.2438 106.976 96.4072 107.046 96.5378 107.186C96.6778 107.317 96.7478 107.48 96.7478 107.676C96.7478 107.863 96.6778 108.026 96.5378 108.166C96.4072 108.306 96.2438 108.376 96.0478 108.376ZM101.458 119.968C101.01 119.968 100.599 119.921 100.226 119.828C99.8617 119.744 99.5491 119.646 99.2877 119.534C99.0357 119.431 98.8537 119.343 98.7417 119.268L99.1617 118.358C99.2831 118.423 99.4557 118.503 99.6797 118.596C99.9037 118.699 100.165 118.783 100.464 118.848C100.772 118.923 101.098 118.96 101.444 118.96C101.892 118.96 102.293 118.867 102.648 118.68C103.012 118.503 103.292 118.218 103.488 117.826C103.693 117.443 103.796 116.949 103.796 116.342V110H104.916V116.328C104.916 117.131 104.766 117.803 104.468 118.344C104.169 118.885 103.758 119.291 103.236 119.562C102.713 119.833 102.12 119.968 101.458 119.968ZM101.416 116.944C100.79 116.944 100.24 116.795 99.7637 116.496C99.2877 116.197 98.9144 115.782 98.6437 115.25C98.3824 114.709 98.2517 114.093 98.2517 113.402C98.2517 112.693 98.3824 112.072 98.6437 111.54C98.9144 110.999 99.2877 110.579 99.7637 110.28C100.24 109.981 100.79 109.832 101.416 109.832C102.004 109.832 102.517 109.981 102.956 110.28C103.394 110.579 103.735 110.999 103.978 111.54C104.23 112.072 104.356 112.693 104.356 113.402C104.356 114.102 104.23 114.718 103.978 115.25C103.735 115.782 103.394 116.197 102.956 116.496C102.517 116.795 102.004 116.944 101.416 116.944ZM101.682 115.978C102.092 115.978 102.456 115.866 102.774 115.642C103.091 115.418 103.338 115.115 103.516 114.732C103.693 114.34 103.782 113.887 103.782 113.374C103.782 112.879 103.688 112.441 103.502 112.058C103.324 111.666 103.077 111.363 102.76 111.148C102.452 110.924 102.088 110.812 101.668 110.812C101.229 110.812 100.837 110.924 100.492 111.148C100.156 111.363 99.8897 111.666 99.6937 112.058C99.5071 112.441 99.4137 112.879 99.4137 113.374C99.4137 113.887 99.5117 114.34 99.7077 114.732C99.9037 115.115 100.17 115.418 100.506 115.642C100.851 115.866 101.243 115.978 101.682 115.978ZM106.875 117V110H107.925L107.995 111.288V117H106.875ZM111.789 117V113.416H112.909V117H111.789ZM111.789 113.416C111.789 112.725 111.709 112.198 111.551 111.834C111.392 111.47 111.173 111.223 110.893 111.092C110.613 110.952 110.295 110.882 109.941 110.882C109.325 110.882 108.844 111.101 108.499 111.54C108.163 111.969 107.995 112.581 107.995 113.374H107.449C107.449 112.637 107.556 112.002 107.771 111.47C107.985 110.938 108.298 110.532 108.709 110.252C109.119 109.972 109.614 109.832 110.193 109.832C110.743 109.832 111.219 109.944 111.621 110.168C112.031 110.383 112.349 110.728 112.573 111.204C112.806 111.68 112.918 112.305 112.909 113.08V113.416H111.789ZM122.942 117L122.872 115.712V110H123.992V117H122.942ZM117.958 113.584V110H119.078V113.584H117.958ZM119.078 113.584C119.078 114.275 119.157 114.802 119.316 115.166C119.475 115.53 119.694 115.782 119.974 115.922C120.263 116.053 120.585 116.118 120.94 116.118C121.547 116.118 122.018 115.899 122.354 115.46C122.699 115.021 122.872 114.41 122.872 113.626H123.418C123.418 114.363 123.311 114.998 123.096 115.53C122.881 116.062 122.569 116.468 122.158 116.748C121.757 117.028 121.262 117.168 120.674 117.168C120.133 117.168 119.657 117.061 119.246 116.846C118.835 116.622 118.518 116.272 118.294 115.796C118.07 115.311 117.958 114.685 117.958 113.92V113.584H119.078ZM126.017 119.8V110H127.067L127.137 111.288V119.8H126.017ZM129.503 117.168C128.915 117.168 128.397 117.014 127.949 116.706C127.51 116.398 127.169 115.969 126.927 115.418C126.684 114.858 126.563 114.219 126.563 113.5C126.563 112.772 126.684 112.133 126.927 111.582C127.169 111.031 127.51 110.602 127.949 110.294C128.397 109.986 128.915 109.832 129.503 109.832C130.128 109.832 130.679 109.986 131.155 110.294C131.631 110.602 131.999 111.031 132.261 111.582C132.531 112.133 132.667 112.772 132.667 113.5C132.667 114.219 132.531 114.858 132.261 115.418C131.999 115.969 131.631 116.398 131.155 116.706C130.679 117.014 130.128 117.168 129.503 117.168ZM129.251 116.146C129.689 116.146 130.077 116.034 130.413 115.81C130.758 115.586 131.029 115.273 131.225 114.872C131.43 114.471 131.533 114.013 131.533 113.5C131.533 112.987 131.435 112.529 131.239 112.128C131.052 111.727 130.786 111.414 130.441 111.19C130.095 110.966 129.703 110.854 129.265 110.854C128.854 110.854 128.485 110.966 128.159 111.19C127.841 111.414 127.589 111.727 127.403 112.128C127.225 112.529 127.137 112.987 127.137 113.5C127.137 114.013 127.225 114.471 127.403 114.872C127.589 115.273 127.841 115.586 128.159 115.81C128.476 116.034 128.84 116.146 129.251 116.146ZM141.989 117L141.933 115.852V113.304C141.933 112.753 141.873 112.301 141.751 111.946C141.63 111.582 141.439 111.307 141.177 111.12C140.916 110.933 140.575 110.84 140.155 110.84C139.773 110.84 139.441 110.919 139.161 111.078C138.891 111.227 138.667 111.47 138.489 111.806L137.481 111.414C137.659 111.087 137.873 110.807 138.125 110.574C138.377 110.331 138.671 110.149 139.007 110.028C139.343 109.897 139.726 109.832 140.155 109.832C140.809 109.832 141.345 109.963 141.765 110.224C142.195 110.476 142.517 110.854 142.731 111.358C142.946 111.853 143.049 112.469 143.039 113.206L143.025 117H141.989ZM139.889 117.168C139.068 117.168 138.424 116.981 137.957 116.608C137.5 116.225 137.271 115.698 137.271 115.026C137.271 114.317 137.505 113.775 137.971 113.402C138.447 113.019 139.11 112.828 139.959 112.828H141.961V113.766H140.211C139.558 113.766 139.091 113.873 138.811 114.088C138.541 114.303 138.405 114.611 138.405 115.012C138.405 115.376 138.541 115.665 138.811 115.88C139.082 116.085 139.46 116.188 139.945 116.188C140.347 116.188 140.697 116.104 140.995 115.936C141.294 115.759 141.523 115.511 141.681 115.194C141.849 114.867 141.933 114.485 141.933 114.046H142.409C142.409 114.998 142.195 115.759 141.765 116.328C141.336 116.888 140.711 117.168 139.889 117.168ZM147.446 117.168C146.765 117.168 146.237 116.991 145.864 116.636C145.491 116.281 145.304 115.782 145.304 115.138V107.816H146.424V115.026C146.424 115.381 146.517 115.656 146.704 115.852C146.9 116.039 147.171 116.132 147.516 116.132C147.628 116.132 147.735 116.118 147.838 116.09C147.95 116.053 148.095 115.969 148.272 115.838L148.706 116.748C148.463 116.907 148.244 117.014 148.048 117.07C147.852 117.135 147.651 117.168 147.446 117.168ZM144.086 110.994V110H148.524V110.994H144.086ZM153.564 117V107.2H154.684V117H153.564ZM158.492 117V113.416H159.612V117H158.492ZM158.492 113.416C158.492 112.725 158.408 112.198 158.24 111.834C158.081 111.47 157.862 111.223 157.582 111.092C157.302 110.952 156.985 110.882 156.63 110.882C156.014 110.882 155.533 111.101 155.188 111.54C154.852 111.969 154.684 112.581 154.684 113.374H154.138C154.138 112.637 154.245 112.002 154.46 111.47C154.684 110.938 155.001 110.532 155.412 110.252C155.823 109.972 156.317 109.832 156.896 109.832C157.437 109.832 157.913 109.944 158.324 110.168C158.735 110.383 159.052 110.728 159.276 111.204C159.509 111.68 159.621 112.305 159.612 113.08V113.416H158.492ZM166.173 117L166.103 115.712V110H167.223V117H166.173ZM161.189 113.584V110H162.309V113.584H161.189ZM162.309 113.584C162.309 114.275 162.388 114.802 162.547 115.166C162.705 115.53 162.925 115.782 163.205 115.922C163.494 116.053 163.816 116.118 164.171 116.118C164.777 116.118 165.249 115.899 165.585 115.46C165.93 115.021 166.103 114.41 166.103 113.626H166.649C166.649 114.363 166.541 114.998 166.327 115.53C166.112 116.062 165.799 116.468 165.389 116.748C164.987 117.028 164.493 117.168 163.905 117.168C163.363 117.168 162.887 117.061 162.477 116.846C162.066 116.622 161.749 116.272 161.525 115.796C161.301 115.311 161.189 114.685 161.189 113.92V113.584H162.309ZM171.627 117.168C171.114 117.168 170.666 117.093 170.283 116.944C169.901 116.785 169.579 116.58 169.317 116.328C169.065 116.076 168.883 115.801 168.771 115.502L169.751 115.096C169.91 115.413 170.148 115.67 170.465 115.866C170.783 116.062 171.133 116.16 171.515 116.16C171.954 116.16 172.323 116.076 172.621 115.908C172.92 115.731 173.069 115.483 173.069 115.166C173.069 114.877 172.957 114.643 172.733 114.466C172.519 114.289 172.197 114.144 171.767 114.032L171.095 113.85C170.461 113.682 169.966 113.43 169.611 113.094C169.257 112.749 169.079 112.361 169.079 111.932C169.079 111.269 169.294 110.756 169.723 110.392C170.162 110.019 170.811 109.832 171.669 109.832C172.08 109.832 172.453 109.893 172.789 110.014C173.125 110.135 173.415 110.308 173.657 110.532C173.9 110.747 174.077 111.003 174.189 111.302L173.209 111.736C173.088 111.419 172.887 111.19 172.607 111.05C172.327 110.91 171.987 110.84 171.585 110.84C171.156 110.84 170.82 110.933 170.577 111.12C170.335 111.297 170.213 111.549 170.213 111.876C170.213 112.063 170.311 112.24 170.507 112.408C170.713 112.567 171.011 112.697 171.403 112.8L172.103 112.982C172.561 113.094 172.943 113.262 173.251 113.486C173.559 113.701 173.793 113.948 173.951 114.228C174.11 114.508 174.189 114.807 174.189 115.124C174.189 115.544 174.077 115.908 173.853 116.216C173.629 116.524 173.326 116.762 172.943 116.93C172.561 117.089 172.122 117.168 171.627 117.168ZM175.699 117V107.2H176.819V117H175.699ZM180.627 117V113.416H181.747V117H180.627ZM180.627 113.416C180.627 112.725 180.543 112.198 180.375 111.834C180.216 111.47 179.997 111.223 179.717 111.092C179.437 110.952 179.119 110.882 178.765 110.882C178.149 110.882 177.668 111.101 177.323 111.54C176.987 111.969 176.819 112.581 176.819 113.374H176.273C176.273 112.637 176.38 112.002 176.595 111.47C176.819 110.938 177.136 110.532 177.547 110.252C177.957 109.972 178.452 109.832 179.031 109.832C179.572 109.832 180.048 109.944 180.459 110.168C180.869 110.383 181.187 110.728 181.411 111.204C181.644 111.68 181.756 112.305 181.747 113.08V113.416H180.627ZM183.505 117V107.2H184.625V117H183.505ZM188.433 117V113.416H189.553V117H188.433ZM188.433 113.416C188.433 112.725 188.349 112.198 188.181 111.834C188.023 111.47 187.803 111.223 187.523 111.092C187.243 110.952 186.926 110.882 186.571 110.882C185.955 110.882 185.475 111.101 185.129 111.54C184.793 111.969 184.625 112.581 184.625 113.374H184.079C184.079 112.637 184.187 112.002 184.401 111.47C184.625 110.938 184.943 110.532 185.353 110.252C185.764 109.972 186.259 109.832 186.837 109.832C187.379 109.832 187.855 109.944 188.265 110.168C188.676 110.383 188.993 110.728 189.217 111.204C189.451 111.68 189.563 112.305 189.553 113.08V113.416H188.433Z" fill="black"/>
<path d="M56.272 129.508L55.204 129.1L57.928 124.6H59.296L56.272 129.508ZM55.108 133V128.968H56.296V133H55.108ZM55.132 129.508L52.108 124.6H53.464L56.188 129.1L55.132 129.508ZM62.0899 133.144C61.4899 133.144 60.9619 133.012 60.5059 132.748C60.0499 132.476 59.6899 132.104 59.4259 131.632C59.1699 131.16 59.0419 130.616 59.0419 130C59.0419 129.384 59.1699 128.84 59.4259 128.368C59.6819 127.896 60.0379 127.528 60.4939 127.264C60.9499 126.992 61.4739 126.856 62.0659 126.856C62.6579 126.856 63.1819 126.992 63.6379 127.264C64.0939 127.528 64.4499 127.896 64.7059 128.368C64.9619 128.84 65.0899 129.384 65.0899 130C65.0899 130.616 64.9619 131.16 64.7059 131.632C64.4499 132.104 64.0939 132.476 63.6379 132.748C63.1899 133.012 62.6739 133.144 62.0899 133.144ZM62.0899 132.1C62.4499 132.1 62.7699 132.012 63.0499 131.836C63.3299 131.652 63.5459 131.404 63.6979 131.092C63.8579 130.78 63.9379 130.416 63.9379 130C63.9379 129.584 63.8579 129.22 63.6979 128.908C63.5459 128.596 63.3259 128.352 63.0379 128.176C62.7499 127.992 62.4259 127.9 62.0659 127.9C61.6979 127.9 61.3739 127.992 61.0939 128.176C60.8139 128.352 60.5939 128.596 60.4339 128.908C60.2739 129.22 60.1939 129.584 60.1939 130C60.1939 130.416 60.2739 130.78 60.4339 131.092C60.5939 131.404 60.8179 131.652 61.1059 131.836C61.3939 132.012 61.7219 132.1 62.0899 132.1ZM70.4189 133L70.3469 131.896V127H71.4749V133H70.4189ZM66.1949 130.072V127H67.3349V130.072H66.1949ZM67.3349 130.072C67.3349 130.608 67.3949 131.02 67.5149 131.308C67.6429 131.596 67.8189 131.796 68.0429 131.908C68.2669 132.02 68.5189 132.08 68.7989 132.088C69.2869 132.088 69.6669 131.916 69.9389 131.572C70.2109 131.228 70.3469 130.744 70.3469 130.12H70.8389C70.8389 130.752 70.7429 131.296 70.5509 131.752C70.3669 132.2 70.1029 132.544 69.7589 132.784C69.4149 133.024 68.9949 133.144 68.4989 133.144C68.0349 133.144 67.6269 133.048 67.2749 132.856C66.9309 132.664 66.6629 132.364 66.4709 131.956C66.2869 131.548 66.1949 131.02 66.1949 130.372V130.072H67.3349ZM73.7614 129.772C73.7614 129.124 73.8854 128.596 74.1334 128.188C74.3814 127.78 74.7014 127.476 75.0934 127.276C75.4854 127.076 75.8974 126.976 76.3294 126.976V128.056C75.9694 128.056 75.6254 128.112 75.2974 128.224C74.9774 128.328 74.7134 128.504 74.5054 128.752C74.3054 128.992 74.2054 129.32 74.2054 129.736L73.7614 129.772ZM73.0654 133V127H74.2054V133H73.0654ZM82.9147 133.144C82.3147 133.144 81.7827 133.012 81.3187 132.748C80.8547 132.476 80.4907 132.104 80.2267 131.632C79.9707 131.16 79.8427 130.616 79.8427 130C79.8427 129.384 79.9707 128.84 80.2267 128.368C80.4907 127.896 80.8507 127.528 81.3067 127.264C81.7707 126.992 82.2987 126.856 82.8907 126.856C83.4747 126.856 83.9987 126.992 84.4627 127.264C84.9347 127.536 85.2867 127.924 85.5187 128.428L84.4867 128.86C84.3347 128.564 84.1147 128.332 83.8267 128.164C83.5467 127.996 83.2227 127.912 82.8547 127.912C82.4947 127.912 82.1747 128 81.8947 128.176C81.6147 128.352 81.3947 128.6 81.2347 128.92C81.0747 129.232 80.9947 129.592 80.9947 130C80.9947 130.408 81.0747 130.768 81.2347 131.08C81.3947 131.392 81.6187 131.64 81.9067 131.824C82.1947 132 82.5187 132.088 82.8787 132.088C83.2467 132.088 83.5747 131.996 83.8627 131.812C84.1507 131.62 84.3667 131.364 84.5107 131.044L85.5547 131.464C85.3227 131.992 84.9707 132.404 84.4987 132.7C84.0347 132.996 83.5067 133.144 82.9147 133.144ZM87.3786 129.772C87.3786 129.124 87.5026 128.596 87.7506 128.188C87.9986 127.78 88.3186 127.476 88.7106 127.276C89.1026 127.076 89.5146 126.976 89.9466 126.976V128.056C89.5866 128.056 89.2426 128.112 88.9146 128.224C88.5946 128.328 88.3306 128.504 88.1226 128.752C87.9226 128.992 87.8226 129.32 87.8226 129.736L87.3786 129.772ZM86.6826 133V127H87.8226V133H86.6826ZM93.5182 133.144C92.9342 133.144 92.4182 133.012 91.9702 132.748C91.5222 132.476 91.1702 132.104 90.9142 131.632C90.6582 131.16 90.5302 130.616 90.5302 130C90.5302 129.384 90.6582 128.84 90.9142 128.368C91.1702 127.896 91.5222 127.528 91.9702 127.264C92.4262 126.992 92.9462 126.856 93.5302 126.856C94.0822 126.856 94.5662 126.996 94.9822 127.276C95.3982 127.548 95.7222 127.94 95.9542 128.452C96.1942 128.956 96.3142 129.552 96.3142 130.24H91.4662L91.6822 130.06C91.6822 130.484 91.7662 130.852 91.9342 131.164C92.1022 131.476 92.3302 131.716 92.6182 131.884C92.9062 132.044 93.2342 132.124 93.6022 132.124C94.0022 132.124 94.3342 132.032 94.5982 131.848C94.8702 131.656 95.0822 131.416 95.2342 131.128L96.2182 131.584C96.0582 131.896 95.8502 132.172 95.5942 132.412C95.3382 132.644 95.0342 132.824 94.6822 132.952C94.3382 133.08 93.9502 133.144 93.5182 133.144ZM91.7542 129.52L91.5262 129.34H95.3182L95.1022 129.52C95.1022 129.168 95.0302 128.868 94.8862 128.62C94.7422 128.364 94.5502 128.172 94.3102 128.044C94.0702 127.908 93.8022 127.84 93.5062 127.84C93.2182 127.84 92.9382 127.908 92.6662 128.044C92.4022 128.172 92.1822 128.36 92.0062 128.608C91.8382 128.856 91.7542 129.16 91.7542 129.52ZM101.832 133L101.784 131.884V124.6H102.912V133H101.832ZM99.8164 133.144C99.2724 133.144 98.7964 133.012 98.3884 132.748C97.9884 132.484 97.6724 132.116 97.4404 131.644C97.2164 131.172 97.1044 130.624 97.1044 130C97.1044 129.368 97.2164 128.82 97.4404 128.356C97.6724 127.884 97.9884 127.516 98.3884 127.252C98.7964 126.988 99.2724 126.856 99.8164 126.856C100.32 126.856 100.756 126.988 101.124 127.252C101.5 127.516 101.788 127.884 101.988 128.356C102.188 128.82 102.288 129.368 102.288 130C102.288 130.624 102.188 131.172 101.988 131.644C101.788 132.116 101.5 132.484 101.124 132.748C100.756 133.012 100.32 133.144 99.8164 133.144ZM100.08 132.112C100.416 132.112 100.712 132.024 100.968 131.848C101.224 131.664 101.424 131.416 101.568 131.104C101.712 130.784 101.784 130.416 101.784 130C101.784 129.584 101.712 129.22 101.568 128.908C101.424 128.588 101.224 128.34 100.968 128.164C100.712 127.98 100.412 127.888 100.068 127.888C99.7164 127.888 99.4044 127.98 99.1324 128.164C98.8604 128.34 98.6484 128.588 98.4964 128.908C98.3444 129.22 98.2684 129.584 98.2684 130C98.2684 130.416 98.3444 130.784 98.4964 131.104C98.6564 131.416 98.8724 131.664 99.1444 131.848C99.4164 132.024 99.7284 132.112 100.08 132.112ZM104.567 133V127H105.707V133H104.567ZM105.143 125.728C104.959 125.728 104.799 125.66 104.663 125.524C104.527 125.38 104.459 125.216 104.459 125.032C104.459 124.84 104.527 124.68 104.663 124.552C104.799 124.416 104.959 124.348 105.143 124.348C105.335 124.348 105.495 124.416 105.623 124.552C105.759 124.68 105.827 124.84 105.827 125.032C105.827 125.216 105.759 125.38 105.623 125.524C105.495 125.66 105.335 125.728 105.143 125.728ZM109.694 133.144C109.094 133.144 108.63 132.992 108.302 132.688C107.974 132.376 107.81 131.932 107.81 131.356V125.128H108.95V131.188C108.95 131.484 109.022 131.712 109.166 131.872C109.318 132.024 109.534 132.1 109.814 132.1C109.894 132.1 109.982 132.084 110.078 132.052C110.174 132.02 110.29 131.956 110.426 131.86L110.858 132.748C110.65 132.884 110.45 132.984 110.258 133.048C110.074 133.112 109.886 133.144 109.694 133.144ZM106.79 127.984V127H110.654V127.984H106.79ZM120.409 133L122.437 127H123.577L121.537 133H120.409ZM116.365 133L118.357 127H119.389L117.421 133H116.365ZM116.281 133L114.241 127H115.393L117.373 133H116.281ZM120.409 133L118.441 127H119.485L121.465 133H120.409ZM124.559 133V127H125.699V133H124.559ZM125.135 125.728C124.951 125.728 124.791 125.66 124.655 125.524C124.519 125.38 124.451 125.216 124.451 125.032C124.451 124.84 124.519 124.68 124.655 124.552C124.791 124.416 124.951 124.348 125.135 124.348C125.327 124.348 125.487 124.416 125.615 124.552C125.751 124.68 125.819 124.84 125.819 125.032C125.819 125.216 125.751 125.38 125.615 125.524C125.487 125.66 125.327 125.728 125.135 125.728ZM127.37 133V124.6H128.51V133H127.37ZM130.089 133V124.6H131.229V133H130.089ZM137.885 133.144C137.461 133.144 137.081 133.08 136.745 132.952C136.417 132.824 136.137 132.652 135.905 132.436C135.681 132.22 135.513 131.976 135.401 131.704L136.385 131.272C136.513 131.52 136.705 131.724 136.961 131.884C137.217 132.044 137.501 132.124 137.813 132.124C138.157 132.124 138.441 132.06 138.665 131.932C138.889 131.804 139.001 131.624 139.001 131.392C139.001 131.168 138.917 130.992 138.749 130.864C138.581 130.736 138.337 130.632 138.017 130.552L137.453 130.408C136.893 130.256 136.457 130.028 136.145 129.724C135.841 129.42 135.689 129.076 135.689 128.692C135.689 128.108 135.877 127.656 136.253 127.336C136.629 127.016 137.185 126.856 137.921 126.856C138.281 126.856 138.609 126.908 138.905 127.012C139.209 127.116 139.465 127.264 139.673 127.456C139.889 127.648 140.041 127.876 140.129 128.14L139.169 128.572C139.073 128.332 138.909 128.156 138.677 128.044C138.445 127.924 138.173 127.864 137.861 127.864C137.541 127.864 137.289 127.936 137.105 128.08C136.921 128.216 136.829 128.408 136.829 128.656C136.829 128.792 136.905 128.924 137.057 129.052C137.217 129.172 137.449 129.272 137.753 129.352L138.401 129.508C138.793 129.604 139.117 129.752 139.373 129.952C139.629 130.144 139.821 130.364 139.949 130.612C140.077 130.852 140.141 131.104 140.141 131.368C140.141 131.728 140.041 132.044 139.841 132.316C139.649 132.58 139.381 132.784 139.037 132.928C138.701 133.072 138.317 133.144 137.885 133.144ZM141.339 133V124.6H142.467V133H141.339ZM145.491 133V129.928H146.619V133H145.491ZM145.491 129.928C145.491 129.384 145.427 128.972 145.299 128.692C145.171 128.404 144.995 128.204 144.771 128.092C144.555 127.98 144.307 127.92 144.027 127.912C143.531 127.912 143.147 128.084 142.875 128.428C142.603 128.772 142.467 129.256 142.467 129.88H141.987C141.987 129.248 142.079 128.708 142.263 128.26C142.455 127.804 142.723 127.456 143.067 127.216C143.419 126.976 143.835 126.856 144.315 126.856C144.787 126.856 145.195 126.952 145.539 127.144C145.883 127.336 146.151 127.636 146.343 128.044C146.535 128.444 146.627 128.972 146.619 129.628V129.928H145.491ZM150.766 133.144C150.166 133.144 149.638 133.012 149.182 132.748C148.726 132.476 148.366 132.104 148.102 131.632C147.846 131.16 147.718 130.616 147.718 130C147.718 129.384 147.846 128.84 148.102 128.368C148.358 127.896 148.714 127.528 149.17 127.264C149.626 126.992 150.15 126.856 150.742 126.856C151.334 126.856 151.858 126.992 152.314 127.264C152.77 127.528 153.126 127.896 153.382 128.368C153.638 128.84 153.766 129.384 153.766 130C153.766 130.616 153.638 131.16 153.382 131.632C153.126 132.104 152.77 132.476 152.314 132.748C151.866 133.012 151.35 133.144 150.766 133.144ZM150.766 132.1C151.126 132.1 151.446 132.012 151.726 131.836C152.006 131.652 152.222 131.404 152.374 131.092C152.534 130.78 152.614 130.416 152.614 130C152.614 129.584 152.534 129.22 152.374 128.908C152.222 128.596 152.002 128.352 151.714 128.176C151.426 127.992 151.102 127.9 150.742 127.9C150.374 127.9 150.05 127.992 149.77 128.176C149.49 128.352 149.27 128.596 149.11 128.908C148.95 129.22 148.87 129.584 148.87 130C148.87 130.416 148.95 130.78 149.11 131.092C149.27 131.404 149.494 131.652 149.782 131.836C150.07 132.012 150.398 132.1 150.766 132.1ZM160.323 133L162.351 127H163.491L161.451 133H160.323ZM156.279 133L158.271 127H159.303L157.335 133H156.279ZM156.195 133L154.155 127H155.307L157.287 133H156.195ZM160.323 133L158.355 127H159.399L161.379 133H160.323ZM171.411 133L171.339 131.896V127H172.467V133H171.411ZM167.187 130.072V127H168.327V130.072H167.187ZM168.327 130.072C168.327 130.608 168.387 131.02 168.507 131.308C168.635 131.596 168.811 131.796 169.035 131.908C169.259 132.02 169.511 132.08 169.791 132.088C170.279 132.088 170.659 131.916 170.931 131.572C171.203 131.228 171.339 130.744 171.339 130.12H171.831C171.831 130.752 171.735 131.296 171.543 131.752C171.359 132.2 171.095 132.544 170.751 132.784C170.407 133.024 169.987 133.144 169.491 133.144C169.027 133.144 168.619 133.048 168.267 132.856C167.923 132.664 167.655 132.364 167.463 131.956C167.279 131.548 167.187 131.02 167.187 130.372V130.072H168.327ZM174.118 135.4V127H175.186L175.258 128.104V135.4H174.118ZM177.226 133.144C176.722 133.144 176.282 133.012 175.906 132.748C175.538 132.484 175.254 132.116 175.054 131.644C174.854 131.172 174.754 130.624 174.754 130C174.754 129.368 174.854 128.82 175.054 128.356C175.254 127.884 175.538 127.516 175.906 127.252C176.282 126.988 176.722 126.856 177.226 126.856C177.762 126.856 178.234 126.988 178.642 127.252C179.05 127.516 179.366 127.884 179.59 128.356C179.822 128.82 179.938 129.368 179.938 130C179.938 130.624 179.822 131.172 179.59 131.644C179.366 132.116 179.05 132.484 178.642 132.748C178.234 133.012 177.762 133.144 177.226 133.144ZM176.95 132.112C177.31 132.112 177.626 132.024 177.898 131.848C178.17 131.664 178.382 131.416 178.534 131.104C178.694 130.784 178.774 130.416 178.774 130C178.774 129.584 178.698 129.22 178.546 128.908C178.394 128.588 178.182 128.34 177.91 128.164C177.638 127.98 177.322 127.888 176.962 127.888C176.634 127.888 176.338 127.98 176.074 128.164C175.818 128.34 175.618 128.588 175.474 128.908C175.33 129.228 175.258 129.592 175.258 130C175.258 130.416 175.33 130.784 175.474 131.104C175.618 131.416 175.818 131.664 176.074 131.848C176.33 132.024 176.622 132.112 176.95 132.112Z" fill="#9B9B9B"/>
<g filter="url(#filter1_d_314_1248)">
<circle cx="23" cy="120" r="16" fill="white"/>
</g>
<path d="M19.9419 126V124.633C19.9419 124.316 20.0239 123.988 20.1877 123.65C20.3515 123.302 20.5819 122.954 20.8789 122.605C21.1861 122.257 21.5445 121.93 21.9541 121.622L23.828 120.271C24.0635 120.107 24.2786 119.917 24.4731 119.702C24.6779 119.487 24.8418 119.262 24.9647 119.027C25.0875 118.781 25.149 118.54 25.149 118.305C25.149 118.008 25.0722 117.736 24.9186 117.491C24.7752 117.245 24.5653 117.05 24.2888 116.907C24.0226 116.764 23.6949 116.692 23.3058 116.692C22.9576 116.692 22.6453 116.764 22.3688 116.907C22.1026 117.04 21.8824 117.219 21.7083 117.444C21.5343 117.67 21.4114 117.916 21.3397 118.182L19.5119 117.844C19.6143 117.352 19.8293 116.897 20.157 116.477C20.4949 116.047 20.925 115.704 21.4472 115.448C21.9797 115.192 22.5839 115.064 23.2597 115.064C24.0175 115.064 24.6728 115.202 25.2258 115.478C25.789 115.755 26.2191 116.139 26.516 116.63C26.8232 117.112 26.9768 117.665 26.9768 118.289C26.9768 118.924 26.8027 119.498 26.4546 120.01C26.1167 120.511 25.6405 120.993 25.0261 121.453L23.3058 122.728C22.9679 122.974 22.6914 123.24 22.4763 123.527C22.2613 123.804 22.1128 124.1 22.0309 124.418H27.1151V126H19.9419Z" fill="url(#paint2_linear_314_1248)"/>
<path d="M56.802 176.926L55.78 176.436L58.972 171.2H60.33L56.802 176.926ZM55.64 181V176.296H56.816V181H55.64ZM55.654 176.926L52.126 171.2H53.498L56.676 176.436L55.654 176.926ZM63.6892 181.168C63.0079 181.168 62.4012 181.014 61.8692 180.706C61.3466 180.389 60.9359 179.955 60.6372 179.404C60.3386 178.853 60.1892 178.219 60.1892 177.5C60.1892 176.781 60.3339 176.147 60.6232 175.596C60.9219 175.045 61.3326 174.616 61.8552 174.308C62.3872 173.991 62.9892 173.832 63.6612 173.832C64.3519 173.832 64.9586 173.991 65.4812 174.308C66.0132 174.616 66.4239 175.045 66.7132 175.596C67.0119 176.147 67.1612 176.781 67.1612 177.5C67.1612 178.219 67.0119 178.853 66.7132 179.404C66.4239 179.955 66.0179 180.389 65.4952 180.706C64.9726 181.014 64.3706 181.168 63.6892 181.168ZM63.6892 180.132C64.1559 180.132 64.5619 180.02 64.9072 179.796C65.2526 179.572 65.5232 179.264 65.7192 178.872C65.9246 178.48 66.0272 178.023 66.0272 177.5C66.0272 176.977 65.9246 176.52 65.7192 176.128C65.5232 175.736 65.2479 175.428 64.8932 175.204C64.5386 174.98 64.1279 174.868 63.6612 174.868C63.2039 174.868 62.7979 174.98 62.4432 175.204C62.0979 175.428 61.8226 175.736 61.6172 176.128C61.4212 176.52 61.3232 176.977 61.3232 177.5C61.3232 178.013 61.4212 178.471 61.6172 178.872C61.8226 179.264 62.1026 179.572 62.4572 179.796C62.8212 180.02 63.2319 180.132 63.6892 180.132ZM73.5183 181L73.4483 179.712V174H74.5683V181H73.5183ZM68.5343 177.584V174H69.6543V177.584H68.5343ZM69.6543 177.584C69.6543 178.275 69.7337 178.802 69.8923 179.166C70.051 179.53 70.2703 179.782 70.5503 179.922C70.8397 180.053 71.1617 180.118 71.5163 180.118C72.123 180.118 72.5943 179.899 72.9303 179.46C73.2757 179.021 73.4483 178.41 73.4483 177.626H73.9943C73.9943 178.363 73.887 178.998 73.6723 179.53C73.4577 180.062 73.145 180.468 72.7343 180.748C72.333 181.028 71.8383 181.168 71.2503 181.168C70.709 181.168 70.233 181.061 69.8223 180.846C69.4117 180.622 69.0943 180.272 68.8703 179.796C68.6463 179.311 68.5343 178.685 68.5343 177.92V177.584H69.6543ZM79.982 181V174H81.032L81.088 174.98C81.3026 174.607 81.578 174.322 81.914 174.126C82.25 173.93 82.642 173.832 83.09 173.832C83.65 173.832 84.126 173.963 84.518 174.224C84.9193 174.485 85.2086 174.882 85.386 175.414C85.582 174.901 85.8666 174.509 86.24 174.238C86.6226 173.967 87.0753 173.832 87.598 173.832C88.382 173.832 88.998 174.093 89.446 174.616C89.9033 175.139 90.1273 175.932 90.118 176.996V181H88.998V177.416C88.998 176.725 88.9233 176.198 88.774 175.834C88.634 175.47 88.4426 175.223 88.2 175.092C87.9573 174.952 87.6773 174.882 87.36 174.882C86.8093 174.882 86.38 175.101 86.072 175.54C85.764 175.969 85.61 176.581 85.61 177.374V181H84.49V177.416C84.49 176.725 84.4153 176.198 84.266 175.834C84.126 175.47 83.93 175.223 83.678 175.092C83.4353 174.952 83.1553 174.882 82.838 174.882C82.2966 174.882 81.872 175.101 81.564 175.54C81.256 175.969 81.102 176.581 81.102 177.374V181H79.982ZM96.2022 181L96.1462 179.852V177.304C96.1462 176.753 96.0855 176.301 95.9642 175.946C95.8428 175.582 95.6515 175.307 95.3902 175.12C95.1288 174.933 94.7882 174.84 94.3682 174.84C93.9855 174.84 93.6542 174.919 93.3742 175.078C93.1035 175.227 92.8795 175.47 92.7022 175.806L91.6942 175.414C91.8715 175.087 92.0862 174.807 92.3382 174.574C92.5902 174.331 92.8842 174.149 93.2202 174.028C93.5562 173.897 93.9388 173.832 94.3682 173.832C95.0215 173.832 95.5582 173.963 95.9782 174.224C96.4075 174.476 96.7295 174.854 96.9442 175.358C97.1588 175.853 97.2615 176.469 97.2522 177.206L97.2382 181H96.2022ZM94.1022 181.168C93.2808 181.168 92.6368 180.981 92.1702 180.608C91.7128 180.225 91.4842 179.698 91.4842 179.026C91.4842 178.317 91.7175 177.775 92.1842 177.402C92.6602 177.019 93.3228 176.828 94.1722 176.828H96.1742V177.766H94.4242C93.7708 177.766 93.3042 177.873 93.0242 178.088C92.7535 178.303 92.6182 178.611 92.6182 179.012C92.6182 179.376 92.7535 179.665 93.0242 179.88C93.2948 180.085 93.6728 180.188 94.1582 180.188C94.5595 180.188 94.9095 180.104 95.2082 179.936C95.5068 179.759 95.7355 179.511 95.8942 179.194C96.0622 178.867 96.1462 178.485 96.1462 178.046H96.6222C96.6222 178.998 96.4075 179.759 95.9782 180.328C95.5488 180.888 94.9235 181.168 94.1022 181.168ZM100.119 178.746L99.4049 177.976L103.129 174H104.543L100.119 178.746ZM99.0269 181V171.2H100.147V181H99.0269ZM103.437 181L100.777 176.982L101.505 176.198L104.823 181H103.437ZM108.737 181.168C108.056 181.168 107.454 181.014 106.931 180.706C106.409 180.389 105.998 179.955 105.699 179.404C105.41 178.853 105.265 178.219 105.265 177.5C105.265 176.781 105.41 176.147 105.699 175.596C105.998 175.045 106.404 174.616 106.917 174.308C107.44 173.991 108.037 173.832 108.709 173.832C109.363 173.832 109.927 173.995 110.403 174.322C110.879 174.639 111.248 175.087 111.509 175.666C111.771 176.245 111.901 176.926 111.901 177.71H106.119L106.399 177.472C106.399 178.032 106.497 178.513 106.693 178.914C106.899 179.315 107.183 179.623 107.547 179.838C107.911 180.043 108.327 180.146 108.793 180.146C109.288 180.146 109.703 180.029 110.039 179.796C110.385 179.563 110.651 179.255 110.837 178.872L111.803 179.362C111.626 179.726 111.388 180.043 111.089 180.314C110.8 180.585 110.455 180.795 110.053 180.944C109.661 181.093 109.223 181.168 108.737 181.168ZM106.469 176.996L106.175 176.772H111.005L110.711 177.01C110.711 176.562 110.623 176.175 110.445 175.848C110.268 175.521 110.03 175.269 109.731 175.092C109.433 174.915 109.087 174.826 108.695 174.826C108.313 174.826 107.949 174.915 107.603 175.092C107.267 175.269 106.992 175.521 106.777 175.848C106.572 176.165 106.469 176.548 106.469 176.996ZM119.223 181.168C118.71 181.168 118.262 181.093 117.879 180.944C117.496 180.785 117.174 180.58 116.913 180.328C116.661 180.076 116.479 179.801 116.367 179.502L117.347 179.096C117.506 179.413 117.744 179.67 118.061 179.866C118.378 180.062 118.728 180.16 119.111 180.16C119.55 180.16 119.918 180.076 120.217 179.908C120.516 179.731 120.665 179.483 120.665 179.166C120.665 178.877 120.553 178.643 120.329 178.466C120.114 178.289 119.792 178.144 119.363 178.032L118.691 177.85C118.056 177.682 117.562 177.43 117.207 177.094C116.852 176.749 116.675 176.361 116.675 175.932C116.675 175.269 116.89 174.756 117.319 174.392C117.758 174.019 118.406 173.832 119.265 173.832C119.676 173.832 120.049 173.893 120.385 174.014C120.721 174.135 121.01 174.308 121.253 174.532C121.496 174.747 121.673 175.003 121.785 175.302L120.805 175.736C120.684 175.419 120.483 175.19 120.203 175.05C119.923 174.91 119.582 174.84 119.181 174.84C118.752 174.84 118.416 174.933 118.173 175.12C117.93 175.297 117.809 175.549 117.809 175.876C117.809 176.063 117.907 176.24 118.103 176.408C118.308 176.567 118.607 176.697 118.999 176.8L119.699 176.982C120.156 177.094 120.539 177.262 120.847 177.486C121.155 177.701 121.388 177.948 121.547 178.228C121.706 178.508 121.785 178.807 121.785 179.124C121.785 179.544 121.673 179.908 121.449 180.216C121.225 180.524 120.922 180.762 120.539 180.93C120.156 181.089 119.718 181.168 119.223 181.168ZM127.606 181L127.55 179.852V177.304C127.55 176.753 127.49 176.301 127.368 175.946C127.247 175.582 127.056 175.307 126.794 175.12C126.533 174.933 126.192 174.84 125.772 174.84C125.39 174.84 125.058 174.919 124.778 175.078C124.508 175.227 124.284 175.47 124.106 175.806L123.098 175.414C123.276 175.087 123.49 174.807 123.742 174.574C123.994 174.331 124.288 174.149 124.624 174.028C124.96 173.897 125.343 173.832 125.772 173.832C126.426 173.832 126.962 173.963 127.382 174.224C127.812 174.476 128.134 174.854 128.348 175.358C128.563 175.853 128.666 176.469 128.656 177.206L128.642 181H127.606ZM125.506 181.168C124.685 181.168 124.041 180.981 123.574 180.608C123.117 180.225 122.888 179.698 122.888 179.026C122.888 178.317 123.122 177.775 123.588 177.402C124.064 177.019 124.727 176.828 125.576 176.828H127.578V177.766H125.828C125.175 177.766 124.708 177.873 124.428 178.088C124.158 178.303 124.022 178.611 124.022 179.012C124.022 179.376 124.158 179.665 124.428 179.88C124.699 180.085 125.077 180.188 125.562 180.188C125.964 180.188 126.314 180.104 126.612 179.936C126.911 179.759 127.14 179.511 127.298 179.194C127.466 178.867 127.55 178.485 127.55 178.046H128.026C128.026 178.998 127.812 179.759 127.382 180.328C126.953 180.888 126.328 181.168 125.506 181.168ZM132.464 181L135.32 174H136.496L133.57 181H132.464ZM132.394 181L129.468 174H130.63L133.486 181H132.394ZM137.665 181V174H138.785V181H137.665ZM138.239 172.376C138.053 172.376 137.889 172.306 137.749 172.166C137.609 172.026 137.539 171.863 137.539 171.676C137.539 171.48 137.609 171.317 137.749 171.186C137.889 171.046 138.053 170.976 138.239 170.976C138.435 170.976 138.599 171.046 138.729 171.186C138.869 171.317 138.939 171.48 138.939 171.676C138.939 171.863 138.869 172.026 138.729 172.166C138.599 172.306 138.435 172.376 138.239 172.376ZM140.849 181V174H141.899L141.969 175.288V181H140.849ZM145.763 181V177.416H146.883V181H145.763ZM145.763 177.416C145.763 176.725 145.684 176.198 145.525 175.834C145.366 175.47 145.147 175.223 144.867 175.092C144.587 174.952 144.27 174.882 143.915 174.882C143.299 174.882 142.818 175.101 142.473 175.54C142.137 175.969 141.969 176.581 141.969 177.374H141.423C141.423 176.637 141.53 176.002 141.745 175.47C141.96 174.938 142.272 174.532 142.683 174.252C143.094 173.972 143.588 173.832 144.167 173.832C144.718 173.832 145.194 173.944 145.595 174.168C146.006 174.383 146.323 174.728 146.547 175.204C146.78 175.68 146.892 176.305 146.883 177.08V177.416H145.763ZM151.456 183.968C151.008 183.968 150.597 183.921 150.224 183.828C149.86 183.744 149.547 183.646 149.286 183.534C149.034 183.431 148.852 183.343 148.74 183.268L149.16 182.358C149.281 182.423 149.454 182.503 149.678 182.596C149.902 182.699 150.163 182.783 150.462 182.848C150.77 182.923 151.096 182.96 151.442 182.96C151.89 182.96 152.291 182.867 152.646 182.68C153.01 182.503 153.29 182.218 153.486 181.826C153.691 181.443 153.794 180.949 153.794 180.342V174H154.914V180.328C154.914 181.131 154.764 181.803 154.466 182.344C154.167 182.885 153.756 183.291 153.234 183.562C152.711 183.833 152.118 183.968 151.456 183.968ZM151.414 180.944C150.788 180.944 150.238 180.795 149.762 180.496C149.286 180.197 148.912 179.782 148.642 179.25C148.38 178.709 148.25 178.093 148.25 177.402C148.25 176.693 148.38 176.072 148.642 175.54C148.912 174.999 149.286 174.579 149.762 174.28C150.238 173.981 150.788 173.832 151.414 173.832C152.002 173.832 152.515 173.981 152.954 174.28C153.392 174.579 153.733 174.999 153.976 175.54C154.228 176.072 154.354 176.693 154.354 177.402C154.354 178.102 154.228 178.718 153.976 179.25C153.733 179.782 153.392 180.197 152.954 180.496C152.515 180.795 152.002 180.944 151.414 180.944ZM151.68 179.978C152.09 179.978 152.454 179.866 152.772 179.642C153.089 179.418 153.336 179.115 153.514 178.732C153.691 178.34 153.78 177.887 153.78 177.374C153.78 176.879 153.686 176.441 153.5 176.058C153.322 175.666 153.075 175.363 152.758 175.148C152.45 174.924 152.086 174.812 151.666 174.812C151.227 174.812 150.835 174.924 150.49 175.148C150.154 175.363 149.888 175.666 149.692 176.058C149.505 176.441 149.412 176.879 149.412 177.374C149.412 177.887 149.51 178.34 149.706 178.732C149.902 179.115 150.168 179.418 150.504 179.642C150.849 179.866 151.241 179.978 151.68 179.978ZM159.323 181.168C158.809 181.168 158.361 181.093 157.979 180.944C157.596 180.785 157.274 180.58 157.013 180.328C156.761 180.076 156.579 179.801 156.467 179.502L157.447 179.096C157.605 179.413 157.843 179.67 158.161 179.866C158.478 180.062 158.828 180.16 159.211 180.16C159.649 180.16 160.018 180.076 160.317 179.908C160.615 179.731 160.765 179.483 160.765 179.166C160.765 178.877 160.653 178.643 160.429 178.466C160.214 178.289 159.892 178.144 159.463 178.032L158.791 177.85C158.156 177.682 157.661 177.43 157.307 177.094C156.952 176.749 156.775 176.361 156.775 175.932C156.775 175.269 156.989 174.756 157.419 174.392C157.857 174.019 158.506 173.832 159.365 173.832C159.775 173.832 160.149 173.893 160.485 174.014C160.821 174.135 161.11 174.308 161.353 174.532C161.595 174.747 161.773 175.003 161.885 175.302L160.905 175.736C160.783 175.419 160.583 175.19 160.303 175.05C160.023 174.91 159.682 174.84 159.281 174.84C158.851 174.84 158.515 174.933 158.273 175.12C158.03 175.297 157.909 175.549 157.909 175.876C157.909 176.063 158.007 176.24 158.203 176.408C158.408 176.567 158.707 176.697 159.099 176.8L159.799 176.982C160.256 177.094 160.639 177.262 160.947 177.486C161.255 177.701 161.488 177.948 161.647 178.228C161.805 178.508 161.885 178.807 161.885 179.124C161.885 179.544 161.773 179.908 161.549 180.216C161.325 180.524 161.021 180.762 160.639 180.93C160.256 181.089 159.817 181.168 159.323 181.168Z" fill="black"/>
<path d="M55.276 199.556C54.876 199.556 54.512 199.516 54.184 199.436C53.856 199.364 53.58 199.28 53.356 199.184C53.132 199.088 52.964 199.004 52.852 198.932L53.284 198.008C53.388 198.072 53.536 198.144 53.728 198.224C53.92 198.312 54.144 198.384 54.4 198.44C54.656 198.504 54.94 198.536 55.252 198.536C55.62 198.536 55.948 198.46 56.236 198.308C56.524 198.164 56.748 197.936 56.908 197.624C57.076 197.312 57.16 196.912 57.16 196.424V191H58.3V196.4C58.3 197.088 58.168 197.664 57.904 198.128C57.648 198.6 57.292 198.956 56.836 199.196C56.388 199.436 55.868 199.556 55.276 199.556ZM55.168 196.916C54.624 196.916 54.148 196.792 53.74 196.544C53.34 196.288 53.024 195.936 52.792 195.488C52.568 195.032 52.456 194.508 52.456 193.916C52.456 193.3 52.568 192.764 52.792 192.308C53.024 191.852 53.34 191.496 53.74 191.24C54.148 190.984 54.624 190.856 55.168 190.856C55.664 190.856 56.096 190.984 56.464 191.24C56.84 191.496 57.128 191.856 57.328 192.32C57.536 192.776 57.64 193.312 57.64 193.928C57.64 194.52 57.536 195.044 57.328 195.5C57.128 195.948 56.84 196.296 56.464 196.544C56.096 196.792 55.664 196.916 55.168 196.916ZM55.456 195.956C55.792 195.956 56.084 195.868 56.332 195.692C56.58 195.508 56.776 195.264 56.92 194.96C57.064 194.648 57.136 194.292 57.136 193.892C57.136 193.492 57.064 193.14 56.92 192.836C56.776 192.532 56.576 192.296 56.32 192.128C56.072 191.952 55.78 191.864 55.444 191.864C55.092 191.864 54.78 191.952 54.508 192.128C54.244 192.296 54.036 192.532 53.884 192.836C53.732 193.14 53.656 193.492 53.656 193.892C53.656 194.292 53.732 194.648 53.884 194.96C54.044 195.264 54.256 195.508 54.52 195.692C54.792 195.868 55.104 195.956 55.456 195.956ZM62.5338 197.144C61.9498 197.144 61.4338 197.012 60.9858 196.748C60.5378 196.476 60.1858 196.104 59.9298 195.632C59.6738 195.16 59.5458 194.616 59.5458 194C59.5458 193.384 59.6738 192.84 59.9298 192.368C60.1858 191.896 60.5378 191.528 60.9858 191.264C61.4418 190.992 61.9618 190.856 62.5458 190.856C63.0978 190.856 63.5818 190.996 63.9978 191.276C64.4138 191.548 64.7378 191.94 64.9698 192.452C65.2098 192.956 65.3298 193.552 65.3298 194.24H60.4818L60.6978 194.06C60.6978 194.484 60.7818 194.852 60.9498 195.164C61.1178 195.476 61.3458 195.716 61.6338 195.884C61.9218 196.044 62.2498 196.124 62.6178 196.124C63.0178 196.124 63.3498 196.032 63.6138 195.848C63.8858 195.656 64.0978 195.416 64.2498 195.128L65.2338 195.584C65.0738 195.896 64.8658 196.172 64.6098 196.412C64.3538 196.644 64.0498 196.824 63.6978 196.952C63.3538 197.08 62.9658 197.144 62.5338 197.144ZM60.7698 193.52L60.5418 193.34H64.3338L64.1178 193.52C64.1178 193.168 64.0458 192.868 63.9018 192.62C63.7578 192.364 63.5658 192.172 63.3258 192.044C63.0858 191.908 62.8178 191.84 62.5218 191.84C62.2338 191.84 61.9538 191.908 61.6818 192.044C61.4178 192.172 61.1978 192.36 61.0218 192.608C60.8538 192.856 60.7698 193.16 60.7698 193.52ZM68.7721 197.144C68.1721 197.144 67.7081 196.992 67.3801 196.688C67.0521 196.376 66.8881 195.932 66.8881 195.356V189.128H68.0281V195.188C68.0281 195.484 68.1001 195.712 68.2441 195.872C68.3961 196.024 68.6121 196.1 68.8921 196.1C68.9721 196.1 69.0601 196.084 69.1561 196.052C69.2521 196.02 69.3681 195.956 69.5041 195.86L69.9361 196.748C69.7281 196.884 69.5281 196.984 69.3361 197.048C69.1521 197.112 68.9641 197.144 68.7721 197.144ZM65.8681 191.984V191H69.7321V191.984H65.8681ZM77.4112 197.18C76.7632 197.18 76.1912 197.048 75.6952 196.784C75.2072 196.512 74.8272 196.136 74.5552 195.656C74.2832 195.168 74.1472 194.608 74.1472 193.976V188.6H75.3232V193.976C75.3232 194.392 75.4112 194.76 75.5872 195.08C75.7712 195.4 76.0192 195.648 76.3312 195.824C76.6512 196 77.0192 196.088 77.4352 196.088C77.8512 196.088 78.2192 196 78.5392 195.824C78.8592 195.648 79.1072 195.4 79.2832 195.08C79.4592 194.76 79.5472 194.392 79.5472 193.976V188.6H80.7352V193.976C80.7352 194.608 80.5952 195.168 80.3152 195.656C80.0432 196.136 79.6552 196.512 79.1512 196.784C78.6552 197.048 78.0752 197.18 77.4112 197.18ZM85.4519 197.144C85.0039 197.144 84.5959 197.092 84.2279 196.988C83.8679 196.884 83.5519 196.744 83.2799 196.568C83.0159 196.384 82.7959 196.18 82.6199 195.956C82.4439 195.732 82.3199 195.496 82.2479 195.248L83.3879 194.876C83.5079 195.204 83.7359 195.488 84.0719 195.728C84.4079 195.968 84.8199 196.092 85.3079 196.1C85.8999 196.1 86.3639 195.984 86.6999 195.752C87.0439 195.512 87.2159 195.196 87.2159 194.804C87.2159 194.444 87.0679 194.152 86.7719 193.928C86.4759 193.696 86.0839 193.52 85.5959 193.4L84.6239 193.148C84.2399 193.044 83.8879 192.896 83.5679 192.704C83.2559 192.512 83.0079 192.268 82.8239 191.972C82.6399 191.676 82.5479 191.32 82.5479 190.904C82.5479 190.136 82.7959 189.536 83.2919 189.104C83.7959 188.672 84.5199 188.456 85.4639 188.456C86.0079 188.456 86.4799 188.544 86.8799 188.72C87.2799 188.888 87.6079 189.112 87.8639 189.392C88.1279 189.672 88.3159 189.98 88.4279 190.316L87.2879 190.7C87.1519 190.34 86.9199 190.052 86.5919 189.836C86.2639 189.612 85.8599 189.5 85.3799 189.5C84.8759 189.5 84.4759 189.62 84.1799 189.86C83.8919 190.1 83.7479 190.428 83.7479 190.844C83.7479 191.196 83.8599 191.468 84.0839 191.66C84.3159 191.844 84.6239 191.984 85.0079 192.08L85.9799 192.32C86.7639 192.512 87.3679 192.832 87.7919 193.28C88.2239 193.72 88.4399 194.204 88.4399 194.732C88.4399 195.188 88.3239 195.6 88.0919 195.968C87.8679 196.328 87.5319 196.616 87.0839 196.832C86.6439 197.04 86.0999 197.144 85.4519 197.144ZM92.4875 196.724C91.9515 196.724 91.4795 196.644 91.0715 196.484C90.6715 196.324 90.3475 196.112 90.0995 195.848C89.8515 195.584 89.6835 195.304 89.5955 195.008L90.6395 194.672C90.7515 194.952 90.9555 195.2 91.2515 195.416C91.5475 195.624 91.9155 195.728 92.3555 195.728C92.8675 195.736 93.2715 195.636 93.5675 195.428C93.8715 195.212 94.0235 194.936 94.0235 194.6C94.0235 194.288 93.8915 194.032 93.6275 193.832C93.3635 193.624 93.0195 193.468 92.5955 193.364L91.7315 193.148C91.3795 193.052 91.0595 192.916 90.7715 192.74C90.4915 192.556 90.2715 192.328 90.1115 192.056C89.9515 191.784 89.8715 191.46 89.8715 191.084C89.8715 190.396 90.0955 189.856 90.5435 189.464C90.9995 189.072 91.6515 188.876 92.4995 188.876C92.9875 188.876 93.4115 188.956 93.7715 189.116C94.1315 189.268 94.4275 189.472 94.6595 189.728C94.8915 189.984 95.0555 190.26 95.1515 190.556L94.0955 190.916C93.9835 190.612 93.7795 190.364 93.4835 190.172C93.1875 189.972 92.8315 189.872 92.4155 189.872C91.9755 189.872 91.6275 189.976 91.3715 190.184C91.1235 190.392 90.9995 190.672 90.9995 191.024C90.9995 191.344 91.0995 191.588 91.2995 191.756C91.4995 191.924 91.7595 192.048 92.0795 192.128L92.9675 192.344C93.6715 192.512 94.2155 192.8 94.5995 193.208C94.9835 193.616 95.1755 194.06 95.1755 194.54C95.1755 194.956 95.0715 195.328 94.8635 195.656C94.6555 195.984 94.3515 196.244 93.9515 196.436C93.5595 196.628 93.0715 196.724 92.4875 196.724ZM92.0075 198.236V187.64H93.0035V198.236H92.0075ZM100.09 197V195.068H96.2141V194.144L100.006 188.6H101.23V194.024H102.874V195.068H101.23V197H100.09ZM97.5101 194.024H100.09V190.244L97.5101 194.024ZM107.086 197.144C106.438 197.144 105.862 196.96 105.358 196.592C104.854 196.216 104.458 195.704 104.17 195.056C103.89 194.4 103.75 193.648 103.75 192.8C103.75 191.952 103.89 191.204 104.17 190.556C104.458 189.9 104.85 189.388 105.346 189.02C105.85 188.644 106.43 188.456 107.086 188.456C107.742 188.456 108.318 188.644 108.814 189.02C109.318 189.388 109.714 189.9 110.002 190.556C110.29 191.204 110.434 191.952 110.434 192.8C110.434 193.648 110.29 194.4 110.002 195.056C109.722 195.704 109.33 196.216 108.826 196.592C108.322 196.96 107.742 197.144 107.086 197.144ZM107.086 196.064C107.51 196.064 107.886 195.924 108.214 195.644C108.55 195.364 108.81 194.98 108.994 194.492C109.178 194.004 109.27 193.44 109.27 192.8C109.27 192.16 109.178 191.596 108.994 191.108C108.81 190.612 108.55 190.224 108.214 189.944C107.886 189.664 107.51 189.524 107.086 189.524C106.662 189.524 106.286 189.664 105.958 189.944C105.63 190.224 105.374 190.612 105.19 191.108C105.006 191.596 104.914 192.16 104.914 192.8C104.914 193.44 105.006 194.008 105.19 194.504C105.374 194.992 105.63 195.376 105.958 195.656C106.286 195.928 106.662 196.064 107.086 196.064ZM116.983 197.144C116.383 197.144 115.919 196.992 115.591 196.688C115.263 196.376 115.099 195.932 115.099 195.356V189.128H116.239V195.188C116.239 195.484 116.311 195.712 116.455 195.872C116.607 196.024 116.823 196.1 117.103 196.1C117.183 196.1 117.271 196.084 117.367 196.052C117.463 196.02 117.579 195.956 117.715 195.86L118.147 196.748C117.939 196.884 117.739 196.984 117.547 197.048C117.363 197.112 117.175 197.144 116.983 197.144ZM114.079 191.984V191H117.943V191.984H114.079ZM121.938 197.144C121.338 197.144 120.81 197.012 120.354 196.748C119.898 196.476 119.538 196.104 119.274 195.632C119.018 195.16 118.89 194.616 118.89 194C118.89 193.384 119.018 192.84 119.274 192.368C119.53 191.896 119.886 191.528 120.342 191.264C120.798 190.992 121.322 190.856 121.914 190.856C122.506 190.856 123.03 190.992 123.486 191.264C123.942 191.528 124.298 191.896 124.554 192.368C124.81 192.84 124.938 193.384 124.938 194C124.938 194.616 124.81 195.16 124.554 195.632C124.298 196.104 123.942 196.476 123.486 196.748C123.038 197.012 122.522 197.144 121.938 197.144ZM121.938 196.1C122.298 196.1 122.618 196.012 122.898 195.836C123.178 195.652 123.394 195.404 123.546 195.092C123.706 194.78 123.786 194.416 123.786 194C123.786 193.584 123.706 193.22 123.546 192.908C123.394 192.596 123.174 192.352 122.886 192.176C122.598 191.992 122.274 191.9 121.914 191.9C121.546 191.9 121.222 191.992 120.942 192.176C120.662 192.352 120.442 192.596 120.282 192.908C120.122 193.22 120.042 193.584 120.042 194C120.042 194.416 120.122 194.78 120.282 195.092C120.442 195.404 120.666 195.652 120.954 195.836C121.242 196.012 121.57 196.1 121.938 196.1ZM129.848 199.544C129.672 199.544 129.476 199.512 129.26 199.448C129.052 199.384 128.836 199.3 128.612 199.196L129.032 198.26C129.208 198.34 129.36 198.4 129.488 198.44C129.624 198.48 129.732 198.5 129.812 198.5C130.012 198.5 130.18 198.444 130.316 198.332C130.46 198.22 130.576 198.064 130.664 197.864L131.36 196.22L133.496 191H134.72L131.876 197.744C131.724 198.112 131.564 198.432 131.396 198.704C131.228 198.976 131.02 199.184 130.772 199.328C130.532 199.472 130.224 199.544 129.848 199.544ZM131.048 197L128.42 191H129.632L131.804 196.208L132.152 197H131.048ZM138.156 197.144C137.556 197.144 137.028 197.012 136.572 196.748C136.116 196.476 135.756 196.104 135.492 195.632C135.236 195.16 135.108 194.616 135.108 194C135.108 193.384 135.236 192.84 135.492 192.368C135.748 191.896 136.104 191.528 136.56 191.264C137.016 190.992 137.54 190.856 138.132 190.856C138.724 190.856 139.248 190.992 139.704 191.264C140.16 191.528 140.516 191.896 140.772 192.368C141.028 192.84 141.156 193.384 141.156 194C141.156 194.616 141.028 195.16 140.772 195.632C140.516 196.104 140.16 196.476 139.704 196.748C139.256 197.012 138.74 197.144 138.156 197.144ZM138.156 196.1C138.516 196.1 138.836 196.012 139.116 195.836C139.396 195.652 139.612 195.404 139.764 195.092C139.924 194.78 140.004 194.416 140.004 194C140.004 193.584 139.924 193.22 139.764 192.908C139.612 192.596 139.392 192.352 139.104 192.176C138.816 191.992 138.492 191.9 138.132 191.9C137.764 191.9 137.44 191.992 137.16 192.176C136.88 192.352 136.66 192.596 136.5 192.908C136.34 193.22 136.26 193.584 136.26 194C136.26 194.416 136.34 194.78 136.5 195.092C136.66 195.404 136.884 195.652 137.172 195.836C137.46 196.012 137.788 196.1 138.156 196.1ZM146.485 197L146.413 195.896V191H147.541V197H146.485ZM142.261 194.072V191H143.401V194.072H142.261ZM143.401 194.072C143.401 194.608 143.461 195.02 143.581 195.308C143.709 195.596 143.885 195.796 144.109 195.908C144.333 196.02 144.585 196.08 144.865 196.088C145.353 196.088 145.733 195.916 146.005 195.572C146.277 195.228 146.413 194.744 146.413 194.12H146.905C146.905 194.752 146.809 195.296 146.617 195.752C146.433 196.2 146.169 196.544 145.825 196.784C145.481 197.024 145.061 197.144 144.565 197.144C144.101 197.144 143.693 197.048 143.341 196.856C142.997 196.664 142.729 196.364 142.537 195.956C142.353 195.548 142.261 195.02 142.261 194.372V194.072H143.401ZM149.828 193.772C149.828 193.124 149.952 192.596 150.2 192.188C150.448 191.78 150.768 191.476 151.16 191.276C151.552 191.076 151.964 190.976 152.396 190.976V192.056C152.036 192.056 151.692 192.112 151.364 192.224C151.044 192.328 150.78 192.504 150.572 192.752C150.372 192.992 150.272 193.32 150.272 193.736L149.828 193.772ZM149.132 197V191H150.272V197H149.132ZM161.741 197L163.769 191H164.909L162.869 197H161.741ZM157.697 197L159.689 191H160.721L158.753 197H157.697ZM157.613 197L155.573 191H156.725L158.705 197H157.613ZM161.741 197L159.773 191H160.817L162.797 197H161.741ZM169.351 197L169.303 195.956V193.868C169.303 193.428 169.251 193.06 169.147 192.764C169.051 192.468 168.899 192.244 168.691 192.092C168.491 191.94 168.223 191.864 167.887 191.864C167.575 191.864 167.303 191.928 167.071 192.056C166.847 192.184 166.659 192.384 166.507 192.656L165.499 192.272C165.643 192 165.823 191.76 166.039 191.552C166.255 191.336 166.515 191.168 166.819 191.048C167.123 190.92 167.479 190.856 167.887 190.856C168.455 190.856 168.927 190.968 169.303 191.192C169.679 191.416 169.959 191.74 170.143 192.164C170.335 192.588 170.427 193.112 170.419 193.736L170.407 197H169.351ZM167.587 197.144C166.875 197.144 166.319 196.984 165.919 196.664C165.527 196.336 165.331 195.884 165.331 195.308C165.331 194.692 165.535 194.224 165.943 193.904C166.359 193.576 166.935 193.412 167.671 193.412H169.339V194.312H167.983C167.431 194.312 167.043 194.4 166.819 194.576C166.595 194.744 166.483 194.98 166.483 195.284C166.483 195.564 166.587 195.784 166.795 195.944C167.011 196.096 167.307 196.172 167.683 196.172C168.011 196.172 168.295 196.104 168.535 195.968C168.775 195.824 168.963 195.624 169.099 195.368C169.235 195.112 169.303 194.82 169.303 194.492H169.699C169.699 195.308 169.523 195.956 169.171 196.436C168.827 196.908 168.299 197.144 167.587 197.144ZM171.854 197V188.6H172.995V197H171.854ZM174.573 197V188.6H175.713V197H174.573ZM179.944 197.144C179.36 197.144 178.844 197.012 178.396 196.748C177.948 196.476 177.596 196.104 177.34 195.632C177.084 195.16 176.956 194.616 176.956 194C176.956 193.384 177.084 192.84 177.34 192.368C177.596 191.896 177.948 191.528 178.396 191.264C178.852 190.992 179.372 190.856 179.956 190.856C180.508 190.856 180.992 190.996 181.408 191.276C181.824 191.548 182.148 191.94 182.38 192.452C182.62 192.956 182.74 193.552 182.74 194.24H177.892L178.108 194.06C178.108 194.484 178.192 194.852 178.36 195.164C178.528 195.476 178.756 195.716 179.044 195.884C179.332 196.044 179.66 196.124 180.028 196.124C180.428 196.124 180.76 196.032 181.024 195.848C181.296 195.656 181.508 195.416 181.66 195.128L182.644 195.584C182.484 195.896 182.276 196.172 182.02 196.412C181.764 196.644 181.46 196.824 181.108 196.952C180.764 197.08 180.376 197.144 179.944 197.144ZM178.18 193.52L177.952 193.34H181.744L181.528 193.52C181.528 193.168 181.456 192.868 181.312 192.62C181.168 192.364 180.976 192.172 180.736 192.044C180.496 191.908 180.228 191.84 179.932 191.84C179.644 191.84 179.364 191.908 179.092 192.044C178.828 192.172 178.608 192.36 178.432 192.608C178.264 192.856 178.18 193.16 178.18 193.52ZM186.182 197.144C185.582 197.144 185.118 196.992 184.79 196.688C184.462 196.376 184.298 195.932 184.298 195.356V189.128H185.438V195.188C185.438 195.484 185.51 195.712 185.654 195.872C185.806 196.024 186.022 196.1 186.302 196.1C186.382 196.1 186.47 196.084 186.566 196.052C186.662 196.02 186.778 195.956 186.914 195.86L187.346 196.748C187.138 196.884 186.938 196.984 186.746 197.048C186.562 197.112 186.374 197.144 186.182 197.144ZM183.278 191.984V191H187.142V191.984H183.278Z" fill="#9B9B9B"/>
<g filter="url(#filter2_d_314_1248)">
<circle cx="23" cy="184" r="16" fill="white"/>
</g>
<path d="M23.5094 190.184C22.9257 190.184 22.3932 190.097 21.9119 189.923C21.4306 189.749 21.0262 189.503 20.6985 189.186C20.3708 188.868 20.1353 188.51 19.9919 188.111L21.5894 187.512C21.6713 187.655 21.7839 187.814 21.9273 187.988C22.0706 188.162 22.2601 188.316 22.4956 188.449C22.7311 188.572 23.0332 188.633 23.4018 188.633C23.9855 188.633 24.4463 188.469 24.7842 188.141C25.1324 187.804 25.3065 187.379 25.3065 186.867C25.3065 186.498 25.2092 186.18 25.0146 185.914C24.8303 185.648 24.5385 185.443 24.1391 185.3C23.75 185.156 23.2585 185.085 22.6646 185.085H22.173V183.825H22.6185C23.2431 183.825 23.8217 183.897 24.3542 184.04C24.8969 184.184 25.373 184.399 25.7826 184.685C26.2025 184.962 26.525 185.3 26.7503 185.699C26.9858 186.099 27.1036 186.549 27.1036 187.051C27.1036 187.696 26.9346 188.254 26.5967 188.725C26.269 189.196 25.8338 189.56 25.2911 189.816C24.7484 190.061 24.1545 190.184 23.5094 190.184ZM22.173 184.808V183.61H22.6646C23.453 183.61 24.0521 183.477 24.4617 183.211C24.8713 182.945 25.0761 182.571 25.0761 182.09C25.0761 181.813 25.0044 181.567 24.861 181.352C24.7279 181.127 24.5334 180.948 24.2774 180.815C24.0214 180.682 23.7193 180.615 23.3711 180.615C23.1458 180.615 22.9257 180.651 22.7106 180.723C22.4956 180.794 22.2959 180.907 22.1116 181.06C21.9273 181.214 21.7737 181.414 21.6508 181.66L20.0994 181.091C20.253 180.661 20.4988 180.298 20.8367 180.001C21.1746 179.693 21.5689 179.463 22.0194 179.309C22.47 179.146 22.941 179.064 23.4326 179.064C24.0879 179.064 24.6716 179.187 25.1836 179.432C25.7058 179.678 26.1154 180.021 26.4124 180.461C26.7196 180.892 26.8732 181.388 26.8732 181.951C26.8732 182.422 26.7554 182.837 26.5199 183.196C26.2946 183.554 25.9823 183.856 25.583 184.102C25.1836 184.337 24.7279 184.516 24.2159 184.639C23.7142 184.752 23.1766 184.808 22.6031 184.808H22.173Z" fill="url(#paint3_linear_314_1248)"/>
<defs>
<filter id="filter0_d_314_1248" x="0.6" y="40" width="44.8" height="44.8" filterUnits="userSpaceOnUse" color-interpolation-filters="sRGB">
<feFlood flood-opacity="0" result="BackgroundImageFix"/>
<feColorMatrix in="SourceAlpha" type="matrix" values="0 0 0 0 0 0 0 0 0 0 0 0 0 0 0 0 0 0 127 0" result="hardAlpha"/>
<feOffset dy="6.4"/>
<feGaussianBlur stdDeviation="3.2"/>
<feComposite in2="hardAlpha" operator="out"/>
<feColorMatrix type="matrix" values="0 0 0 0 0 0 0 0 0 0 0 0 0 0 0 0 0 0 0.06 0"/>
<feBlend mode="normal" in2="BackgroundImageFix" result="effect1_dropShadow_314_1248"/>
<feBlend mode="normal" in="SourceGraphic" in2="effect1_dropShadow_314_1248" result="shape"/>
</filter>
<filter id="filter1_d_314_1248" x="0.6" y="104" width="44.8" height="44.8" filterUnits="userSpaceOnUse" color-interpolation-filters="sRGB">
<feFlood flood-opacity="0" result="BackgroundImageFix"/>
<feColorMatrix in="SourceAlpha" type="matrix" values="0 0 0 0 0 0 0 0 0 0 0 0 0 0 0 0 0 0 127 0" result="hardAlpha"/>
<feOffset dy="6.4"/>
<feGaussianBlur stdDeviation="3.2"/>
<feComposite in2="hardAlpha" operator="out"/>
<feColorMatrix type="matrix" values="0 0 0 0 0 0 0 0 0 0 0 0 0 0 0 0 0 0 0.06 0"/>
<feBlend mode="normal" in2="BackgroundImageFix" result="effect1_dropShadow_314_1248"/>
<feBlend mode="normal" in="SourceGraphic" in2="effect1_dropShadow_314_1248" result="shape"/>
</filter>
<filter id="filter2_d_314_1248" x="0.6" y="168" width="44.8" height="44.8" filterUnits="userSpaceOnUse" color-interpolation-filters="sRGB">
<feFlood flood-opacity="0" result="BackgroundImageFix"/>
<feColorMatrix in="SourceAlpha" type="matrix" values="0 0 0 0 0 0 0 0 0 0 0 0 0 0 0 0 0 0 127 0" result="hardAlpha"/>
<feOffset dy="6.4"/>
<feGaussianBlur stdDeviation="3.2"/>
<feComposite in2="hardAlpha" operator="out"/>
<feColorMatrix type="matrix" values="0 0 0 0 0 0 0 0 0 0 0 0 0 0 0 0 0 0 0.06 0"/>
<feBlend mode="normal" in2="BackgroundImageFix" result="effect1_dropShadow_314_1248"/>
<feBlend mode="normal" in="SourceGraphic" in2="effect1_dropShadow_314_1248" result="shape"/>
</filter>
<linearGradient id="paint0_linear_314_1248" x1="145" y1="15.4771" x2="49.2046" y2="-4.59233" gradientUnits="userSpaceOnUse">
<stop stop-color="#E54D60"/>
<stop offset="1" stop-color="#A342FF"/>
</linearGradient>
<linearGradient id="paint1_linear_314_1248" x1="27" y1="57.9238" x2="20.0066" y2="57.7094" gradientUnits="userSpaceOnUse">
<stop stop-color="#E54D60"/>
<stop offset="1" stop-color="#A342FF"/>
</linearGradient>
<linearGradient id="paint2_linear_314_1248" x1="28" y1="121.924" x2="19.014" y2="121.57" gradientUnits="userSpaceOnUse">
<stop stop-color="#E54D60"/>
<stop offset="1" stop-color="#A342FF"/>
</linearGradient>
<linearGradient id="paint3_linear_314_1248" x1="28" y1="185.924" x2="19.014" y2="185.57" gradientUnits="userSpaceOnUse">
<stop stop-color="#E54D60"/>
<stop offset="1" stop-color="#A342FF"/>
</linearGradient>
</defs>
</svg>
