<svg width="16" height="16" viewBox="0 0 16 16" fill="none" xmlns="http://www.w3.org/2000/svg">
<path d="M1.13935 8.13648L6.43389 13.7309C6.67243 13.983 7.05926 13.983 7.29784 13.7309C7.53642 13.4788 7.53642 13.0701 7.29784 12.818L3.04612 8.3254L13.7896 8.3248C14.1269 8.3248 14.4004 8.03578 14.4004 7.67928C14.4004 7.32279 14.1268 7.03377 13.7894 7.03381L3.04624 7.03441L7.2978 2.54196C7.53638 2.28987 7.53638 1.88117 7.2978 1.62908C7.17855 1.50303 7.0222 1.43998 6.86585 1.43998C6.70949 1.43998 6.55314 1.50303 6.43389 1.62908L1.13935 7.22359C1.02478 7.34465 0.96039 7.50882 0.96039 7.68001C0.96039 7.85121 1.02474 8.01542 1.13935 8.13648Z" fill="white" stroke="white" stroke-width="0.48"/>
</svg>
