<svg width="69" height="72" viewBox="0 0 69 72" fill="none" xmlns="http://www.w3.org/2000/svg">
<g filter="url(#filter0_d_419_3520)">
<rect x="6" y="8" width="55.7692" height="55.77" rx="27.8846" fill="#F3485B" shape-rendering="crispEdges"/>
<g clip-path="url(#clip0_419_3520)">
<path d="M37.8813 35.8852L43.421 41.3553C44.6479 42.4904 44.6479 44.1914 43.421 45.4206C42.4764 46.6487 40.5884 46.6487 39.4556 45.4206L33.8845 39.975L28.4086 45.3253C27.2758 46.5546 25.576 46.5546 24.3479 45.3253C23.121 44.3808 23.121 42.4904 24.3479 41.3553L29.7831 35.8852L24.4432 30.3908C23.121 29.2568 23.121 27.5559 24.4432 26.4207C24.6539 26.1147 24.9359 25.8645 25.2648 25.6917C25.5937 25.5188 25.9597 25.4285 26.3312 25.4285C26.7028 25.4285 27.0688 25.5188 27.3977 25.6917C27.7266 25.8645 28.0085 26.1147 28.2192 26.4207L33.8845 31.7269L39.3603 26.4207C40.4931 25.0974 42.1929 25.0974 43.3257 26.4207C44.5538 27.3665 44.5538 29.2557 43.3257 30.3908L37.8813 35.8852Z" fill="black"/>
</g>
</g>
<defs>
<filter id="filter0_d_419_3520" x="0.230769" y="0.639686" width="68.2689" height="70.8226" filterUnits="userSpaceOnUse" color-interpolation-filters="sRGB">
<feFlood flood-opacity="0" result="BackgroundImageFix"/>
<feColorMatrix in="SourceAlpha" type="matrix" values="0 0 0 0 0 0 0 0 0 0 0 0 0 0 0 0 0 0 127 0" result="hardAlpha"/>
<feOffset dy="1.92308"/>
<feGaussianBlur stdDeviation="2.88462"/>
<feComposite in2="hardAlpha" operator="out"/>
<feColorMatrix type="matrix" values="0 0 0 0 0.396078 0 0 0 0 0.431373 0 0 0 0 0.482353 0 0 0 0.12 0"/>
<feBlend mode="normal" in2="BackgroundImageFix" result="effect1_dropShadow_419_3520"/>
<feBlend mode="normal" in="SourceGraphic" in2="effect1_dropShadow_419_3520" result="shape"/>
</filter>
<clipPath id="clip0_419_3520">
<rect width="27.8846" height="20.9135" fill="white" transform="translate(19.9414 25.4282)"/>
</clipPath>
</defs>
</svg>
