<svg width="69" height="72" viewBox="0 0 69 72" fill="none" xmlns="http://www.w3.org/2000/svg">
<g filter="url(#filter0_d_419_3520)">
<rect x="6" y="8" width="55.7692" height="55.36" rx="27.68" fill="#F3485B" shape-rendering="crispEdges"/>
<g clip-path="url(#clip0_419_3520)">
<path d="M37.8813 35.6804L43.421 41.1504C44.6479 42.2856 44.6479 43.9865 43.421 45.2158C42.4764 46.4439 40.5884 46.4439 39.4556 45.2158L33.8845 39.7702L28.4086 45.1205C27.2758 46.3498 25.576 46.3498 24.3479 45.1205C23.121 44.1759 23.121 42.2856 24.3479 41.1504L29.7831 35.6804L24.4432 30.186C23.121 29.052 23.121 27.351 24.4432 26.2159C24.6539 25.9099 24.9359 25.6597 25.2648 25.4868C25.5937 25.314 25.9597 25.2236 26.3312 25.2236C26.7028 25.2236 27.0688 25.314 27.3977 25.4868C27.7266 25.6597 28.0085 25.9099 28.2192 26.2159L33.8845 31.5221L39.3603 26.2159C40.4931 24.8925 42.1929 24.8925 43.3257 26.2159C44.5538 27.1617 44.5538 29.0508 43.3257 30.186L37.8813 35.6804Z" fill="black"/>
</g>
</g>
<defs>
<filter id="filter0_d_419_3520" x="0.230769" y="0.434852" width="68.2689" height="70.6176" filterUnits="userSpaceOnUse" color-interpolation-filters="sRGB">
<feFlood flood-opacity="0" result="BackgroundImageFix"/>
<feColorMatrix in="SourceAlpha" type="matrix" values="0 0 0 0 0 0 0 0 0 0 0 0 0 0 0 0 0 0 127 0" result="hardAlpha"/>
<feOffset dy="1.92308"/>
<feGaussianBlur stdDeviation="2.88462"/>
<feComposite in2="hardAlpha" operator="out"/>
<feColorMatrix type="matrix" values="0 0 0 0 0.396078 0 0 0 0 0.431373 0 0 0 0 0.482353 0 0 0 0.12 0"/>
<feBlend mode="normal" in2="BackgroundImageFix" result="effect1_dropShadow_419_3520"/>
<feBlend mode="normal" in="SourceGraphic" in2="effect1_dropShadow_419_3520" result="shape"/>
</filter>
<clipPath id="clip0_419_3520">
<rect width="27.8846" height="20.9135" fill="white" transform="translate(19.9414 25.2234)"/>
</clipPath>
</defs>
</svg>
