<svg width="95" height="30" viewBox="0 0 95 30" fill="none" xmlns="http://www.w3.org/2000/svg">
<path d="M8.49932 15.0034C4.45036 15.0034 1.15625 11.7092 1.15625 7.66015C1.15625 3.61109 4.45036 0.316895 8.49932 0.316895C12.5484 0.316895 15.8424 3.61109 15.8424 7.66015H13.5228C13.5228 4.89019 11.2693 2.63669 8.49932 2.63669C5.72938 2.63669 3.47599 4.89024 3.47599 7.66015C3.47599 10.4302 5.72938 12.6837 8.49932 12.6837V15.0034Z" fill="url(#paint0_linear_417_3704)"/>
<path d="M8.49995 29.6836C3.81306 29.6836 0 25.8704 0 21.1833C0 19.387 0.553755 17.6695 1.6012 16.2167L3.4828 17.5733C2.72182 18.6287 2.31969 19.877 2.31969 21.1833C2.31969 24.5912 5.09219 27.3637 8.49995 27.3637C11.9078 27.3637 14.6803 24.5912 14.6803 21.1833C14.6803 17.7754 11.9078 15.0029 8.49995 15.0029V12.6831C13.1869 12.6831 17 16.4963 17 21.1833C17 25.8704 13.1869 29.6836 8.49995 29.6836Z" fill="url(#paint1_linear_417_3704)"/>
<path d="M10.4866 23.1705C11.5842 22.0729 11.5842 20.2933 10.4866 19.1957C9.38897 18.098 7.6094 18.098 6.5118 19.1957C5.4142 20.2933 5.4142 22.0729 6.5118 23.1705C7.6094 24.2682 9.38897 24.2682 10.4866 23.1705Z" fill="url(#paint2_linear_417_3704)"/>
<path d="M31.8542 21.7128C30.6484 21.7128 29.5784 21.4409 28.6445 20.8971C27.7105 20.3414 26.9776 19.5848 26.4456 18.6272C25.9136 17.6578 25.6476 16.5465 25.6476 15.2933C25.6476 14.0402 25.9136 12.9348 26.4456 11.9772C26.9776 11.0078 27.7046 10.2512 28.6268 9.70733C29.5607 9.15169 30.6306 8.87386 31.8365 8.87386C32.6877 8.87386 33.4798 9.02755 34.2128 9.33493C34.9457 9.63049 35.5841 10.0502 36.128 10.594C36.6836 11.126 37.1092 11.7408 37.4048 12.4383L35.1526 13.2717C34.9516 12.8343 34.6856 12.456 34.3546 12.1368C34.0236 11.8058 33.6453 11.5516 33.2197 11.3743C32.7941 11.1851 32.333 11.0905 31.8365 11.0905C31.1153 11.0905 30.471 11.2738 29.9036 11.6403C29.3479 11.9949 28.9105 12.4856 28.5913 13.1121C28.2839 13.7387 28.1302 14.4658 28.1302 15.2933C28.1302 16.1209 28.2898 16.8539 28.609 17.4923C28.9282 18.1188 29.3716 18.6154 29.939 18.9819C30.5065 19.3365 31.1567 19.5139 31.8897 19.5139C32.398 19.5139 32.8591 19.4193 33.2729 19.2301C33.6985 19.0292 34.0709 18.7572 34.3901 18.4144C34.7211 18.0716 34.9871 17.6755 35.1881 17.2263L37.4402 18.042C37.1447 18.7632 36.7191 19.4016 36.1634 19.9572C35.6196 20.5128 34.9812 20.9444 34.2482 21.2517C33.5152 21.5591 32.7172 21.7128 31.8542 21.7128ZM43.0548 21.7128C42.1563 21.7128 41.3524 21.5177 40.643 21.1276C39.9455 20.7256 39.3958 20.1759 38.9938 19.4784C38.6037 18.7809 38.4086 17.977 38.4086 17.0667C38.4086 16.1564 38.6037 15.3524 38.9938 14.6549C39.384 13.9574 39.9278 13.4136 40.6253 13.0235C41.3228 12.6215 42.1208 12.4205 43.0193 12.4205C43.9296 12.4205 44.7335 12.6215 45.431 13.0235C46.1285 13.4136 46.6724 13.9574 47.0625 14.6549C47.4526 15.3524 47.6477 16.1564 47.6477 17.0667C47.6477 17.977 47.4526 18.7809 47.0625 19.4784C46.6724 20.1759 46.1285 20.7256 45.431 21.1276C44.7453 21.5177 43.9533 21.7128 43.0548 21.7128ZM43.0548 19.5493C43.4922 19.5493 43.8764 19.4429 44.2074 19.2301C44.5385 19.0173 44.7926 18.7277 44.97 18.3612C45.1591 17.9829 45.2537 17.5514 45.2537 17.0667C45.2537 16.582 45.1591 16.1564 44.97 15.7899C44.7808 15.4116 44.5148 15.116 44.172 14.9032C43.8409 14.6904 43.4567 14.584 43.0193 14.584C42.5937 14.584 42.2095 14.6904 41.8666 14.9032C41.5356 15.116 41.2755 15.4116 41.0864 15.7899C40.8972 16.1564 40.8026 16.582 40.8026 17.0667C40.8026 17.5514 40.8972 17.9829 41.0864 18.3612C41.2755 18.7277 41.5415 19.0173 41.8844 19.2301C42.2272 19.4429 42.6173 19.5493 43.0548 19.5493ZM49.1915 21.5V12.6333H51.3904L51.5323 14.2648V21.5H49.1915ZM55.0612 21.5V16.9603H57.402V21.5H55.0612ZM55.0612 16.9603C55.0612 16.3573 54.9903 15.8904 54.8484 15.5593C54.7184 15.2283 54.5292 14.9919 54.2809 14.85C54.0327 14.6963 53.743 14.6195 53.412 14.6195C52.8091 14.6076 52.3421 14.7909 52.0111 15.1692C51.6919 15.5475 51.5323 16.1091 51.5323 16.8539H50.752C50.752 15.9081 50.888 15.1101 51.1599 14.4599C51.4436 13.7978 51.8337 13.2954 52.3303 12.9525C52.8386 12.5979 53.4297 12.4205 54.1036 12.4205C54.8011 12.4205 55.3981 12.5624 55.8947 12.8461C56.3912 13.1299 56.7695 13.5732 57.0296 14.1761C57.2897 14.7672 57.4138 15.5357 57.402 16.4815V16.9603H55.0612ZM59.2704 21.5V12.6333H61.4693L61.6112 14.2648V21.5H59.2704ZM65.1401 21.5V16.9603H67.4809V21.5H65.1401ZM65.1401 16.9603C65.1401 16.3573 65.0692 15.8904 64.9273 15.5593C64.7973 15.2283 64.6081 14.9919 64.3598 14.85C64.1116 14.6963 63.8219 14.6195 63.4909 14.6195C62.888 14.6076 62.421 14.7909 62.09 15.1692C61.7708 15.5475 61.6112 16.1091 61.6112 16.8539H60.8309C60.8309 15.9081 60.9669 15.1101 61.2388 14.4599C61.5225 13.7978 61.9126 13.2954 62.4092 12.9525C62.9175 12.5979 63.5086 12.4205 64.1825 12.4205C64.88 12.4205 65.477 12.5624 65.9736 12.8461C66.4701 13.1299 66.8484 13.5732 67.1085 14.1761C67.3686 14.7672 67.4927 15.5357 67.4809 16.4815V16.9603H65.1401ZM73.357 21.7128C72.4822 21.7128 71.7078 21.5177 71.0339 21.1276C70.3601 20.7256 69.8281 20.1759 69.4379 19.4784C69.0596 18.7809 68.8705 17.977 68.8705 17.0667C68.8705 16.1564 69.0655 15.3524 69.4557 14.6549C69.8576 13.9574 70.4015 13.4136 71.0871 13.0235C71.7847 12.6215 72.5827 12.4205 73.4811 12.4205C74.2614 12.4205 74.9767 12.6274 75.6269 13.0412C76.2889 13.4432 76.815 14.0402 77.2051 14.8323C77.6071 15.6125 77.8081 16.5642 77.8081 17.6873H71.0871L71.2999 17.4745C71.2999 17.912 71.4063 18.2962 71.6191 18.6272C71.8438 18.9464 72.1275 19.1947 72.4703 19.372C72.825 19.5375 73.2033 19.6203 73.6053 19.6203C74.09 19.6203 74.486 19.5198 74.7934 19.3188C75.1008 19.106 75.3372 18.8341 75.5027 18.5031L77.5953 19.3188C77.347 19.8153 77.0219 20.2468 76.6199 20.6133C76.2298 20.968 75.7628 21.2399 75.219 21.4291C74.6752 21.6182 74.0545 21.7128 73.357 21.7128ZM71.4241 16.1623L71.2113 15.9495H75.485L75.2899 16.1623C75.2899 15.7367 75.1895 15.3997 74.9885 15.1515C74.7875 14.8914 74.5392 14.7022 74.2437 14.584C73.9599 14.4658 73.6821 14.4067 73.4102 14.4067C73.1383 14.4067 72.8487 14.4658 72.5413 14.584C72.2339 14.7022 71.9679 14.8914 71.7433 15.1515C71.5305 15.3997 71.4241 15.7367 71.4241 16.1623ZM83.4422 21.7128C82.52 21.7128 81.6984 21.5177 80.9772 21.1276C80.2561 20.7256 79.6945 20.1759 79.2926 19.4784C78.8906 18.7691 78.6896 17.9652 78.6896 17.0667C78.6896 16.1564 78.8906 15.3524 79.2926 14.6549C79.6945 13.9574 80.2502 13.4136 80.9595 13.0235C81.6688 12.6215 82.4846 12.4205 83.4067 12.4205C84.2934 12.4205 85.1032 12.6392 85.8362 13.0767C86.5691 13.5141 87.1011 14.1466 87.4322 14.9741L85.2332 15.7544C85.0677 15.4116 84.8076 15.1396 84.453 14.9387C84.1101 14.7259 83.7259 14.6195 83.3003 14.6195C82.8629 14.6195 82.4786 14.7259 82.1476 14.9387C81.8166 15.1396 81.5565 15.4234 81.3674 15.7899C81.1782 16.1564 81.0836 16.582 81.0836 17.0667C81.0836 17.5514 81.1782 17.977 81.3674 18.3435C81.5565 18.6981 81.8225 18.9819 82.1654 19.1947C82.5082 19.4075 82.8983 19.5139 83.3358 19.5139C83.7614 19.5139 84.1456 19.4016 84.4884 19.1769C84.8431 18.9523 85.1032 18.6568 85.2687 18.2903L87.4854 19.0705C87.1425 19.9099 86.6046 20.5601 85.8716 21.0212C85.1505 21.4823 84.3406 21.7128 83.4422 21.7128ZM92.5021 21.7128C91.5208 21.7128 90.776 21.4704 90.2677 20.9857C89.7712 20.501 89.5229 19.8094 89.5229 18.9109V9.86693H91.8637V18.3967C91.8637 18.775 91.9464 19.0646 92.112 19.2656C92.2775 19.4548 92.5198 19.5493 92.839 19.5493C92.9572 19.5493 93.0873 19.5257 93.2292 19.4784C93.371 19.4193 93.5188 19.3365 93.6725 19.2301L94.4882 20.9857C94.2045 21.1985 93.8853 21.37 93.5306 21.5C93.1878 21.6419 92.8449 21.7128 92.5021 21.7128ZM88.0865 14.6195V12.6333H94.0804V14.6195H88.0865Z" fill="url(#paint3_linear_417_3704)"/>
<defs>
<linearGradient id="paint0_linear_417_3704" x1="15.8424" y1="9.56118" x2="1.19027" y2="8.85516" gradientUnits="userSpaceOnUse">
<stop stop-color="#E54D60"/>
<stop offset="1" stop-color="#A342FF"/>
</linearGradient>
<linearGradient id="paint1_linear_417_3704" x1="17" y1="23.3839" x2="0.0393777" y2="22.5667" gradientUnits="userSpaceOnUse">
<stop stop-color="#E54D60"/>
<stop offset="1" stop-color="#A342FF"/>
</linearGradient>
<linearGradient id="paint2_linear_417_3704" x1="11.0011" y1="19.7102" x2="6.84433" y2="23.4847" gradientUnits="userSpaceOnUse">
<stop stop-color="#E54D60"/>
<stop offset="1" stop-color="#A342FF"/>
</linearGradient>
<linearGradient id="paint3_linear_417_3704" x1="95" y1="17.7183" x2="26.7605" y2="6.75766" gradientUnits="userSpaceOnUse">
<stop stop-color="#E54D60"/>
<stop offset="1" stop-color="#A342FF"/>
</linearGradient>
</defs>
</svg>
