<svg width="16" height="16" viewBox="0 0 16 16" fill="none" xmlns="http://www.w3.org/2000/svg">
<path d="M15.8548 12.8548L11.0008 8.00081L15.8548 3.14681C15.9478 3.05266 16 2.92565 16 2.79331C16 2.66097 15.9478 2.53396 15.8548 2.43981L13.5618 0.146809C13.5154 0.100276 13.4604 0.0633543 13.3997 0.0381614C13.339 0.0129684 13.274 0 13.2083 0C13.1426 0 13.0776 0.0129684 13.0169 0.0381614C12.9563 0.0633543 12.9012 0.100276 12.8548 0.146809L8.00081 5.00081L3.14681 0.146809C3.05304 0.0530731 2.92589 0.000415419 2.79331 0.000415419C2.66073 0.000415419 2.53357 0.0530731 2.43981 0.146809L0.146809 2.43981C0.100276 2.48617 0.0633543 2.54126 0.0381614 2.60192C0.0129684 2.66258 0 2.72762 0 2.79331C0 2.85899 0.0129684 2.92403 0.0381614 2.9847C0.0633543 3.04536 0.100276 3.10045 0.146809 3.14681L5.00081 8.00081L0.146809 12.8548C0.0530731 12.9486 0.000415419 13.0757 0.000415419 13.2083C0.000415419 13.3409 0.0530731 13.468 0.146809 13.5618L2.43981 15.8548C2.48617 15.9013 2.54126 15.9383 2.60192 15.9635C2.66258 15.9886 2.72762 16.0016 2.79331 16.0016C2.85899 16.0016 2.92403 15.9886 2.9847 15.9635C3.04536 15.9383 3.10045 15.9013 3.14681 15.8548L8.00081 11.0008L12.8548 15.8548C12.9486 15.9485 13.0757 16.0012 13.2083 16.0012C13.3409 16.0012 13.468 15.9485 13.5618 15.8548L15.8548 13.5618C15.9013 13.5154 15.9383 13.4604 15.9635 13.3997C15.9886 13.339 16.0016 13.274 16.0016 13.2083C16.0016 13.1426 15.9886 13.0776 15.9635 13.0169C15.9383 12.9563 15.9013 12.9012 15.8548 12.8548Z" fill="url(#paint0_linear_406_3252)"/>
<defs>
<linearGradient id="paint0_linear_406_3252" x1="8.00081" y1="0" x2="8.00081" y2="16.0016" gradientUnits="userSpaceOnUse">
<stop stop-color="#DB2AAF"/>
<stop offset="1" stop-color="#E0055F"/>
</linearGradient>
</defs>
</svg>
