<svg width="70" height="68" viewBox="0 0 70 68" fill="none" xmlns="http://www.w3.org/2000/svg">
<rect x="6.05694" y="3.63458" width="56.7308" height="56.7308" rx="28.3654" stroke="#FF4458" stroke-width="0.961538"/>
<g filter="url(#filter0_d_419_3519)">
<rect x="6.53711" y="4.11523" width="55.7692" height="55.7692" rx="27.8846" fill="white" fill-opacity="0.01" shape-rendering="crispEdges"/>
<g clip-path="url(#clip0_419_3519)">
<path d="M38.4184 32L43.9581 37.47C45.185 38.6052 45.185 40.3061 43.9581 41.5354C43.0135 42.7635 41.1255 42.7635 39.9927 41.5354L34.4216 36.0897L28.9457 41.4401C27.8129 42.6693 26.1131 42.6693 24.885 41.4401C23.6581 40.4955 23.6581 38.6052 24.885 37.47L30.3202 32L24.9803 26.5056C23.6581 25.3716 23.6581 23.6706 24.9803 22.5355C25.191 22.2295 25.473 21.9793 25.8019 21.8064C26.1308 21.6335 26.4968 21.5432 26.8683 21.5432C27.2399 21.5432 27.6059 21.6335 27.9348 21.8064C28.2637 21.9793 28.5456 22.2295 28.7564 22.5355L34.4216 27.8417L39.8974 22.5355C41.0302 21.2121 42.73 21.2121 43.8628 22.5355C45.0909 23.4812 45.0909 25.3704 43.8628 26.5056L38.4184 32Z" fill="#F3485B"/>
</g>
</g>
<defs>
<filter id="filter0_d_419_3519" x="0.767879" y="0.26908" width="68.2689" height="67.3075" filterUnits="userSpaceOnUse" color-interpolation-filters="sRGB">
<feFlood flood-opacity="0" result="BackgroundImageFix"/>
<feColorMatrix in="SourceAlpha" type="matrix" values="0 0 0 0 0 0 0 0 0 0 0 0 0 0 0 0 0 0 127 0" result="hardAlpha"/>
<feOffset dy="1.92308"/>
<feGaussianBlur stdDeviation="2.88462"/>
<feComposite in2="hardAlpha" operator="out"/>
<feColorMatrix type="matrix" values="0 0 0 0 0.396078 0 0 0 0 0.431373 0 0 0 0 0.482353 0 0 0 0.12 0"/>
<feBlend mode="normal" in2="BackgroundImageFix" result="effect1_dropShadow_419_3519"/>
<feBlend mode="normal" in="SourceGraphic" in2="effect1_dropShadow_419_3519" result="shape"/>
</filter>
<clipPath id="clip0_419_3519">
<rect width="27.8846" height="27.8846" fill="white" transform="translate(20.4785 18.0576)"/>
</clipPath>
</defs>
</svg>
