<svg width="27" height="18" viewBox="0 0 27 18" fill="none" xmlns="http://www.w3.org/2000/svg">
<path d="M21.8206 6.93091C24.6848 6.93091 27 5.37735 27 3.4683C27 1.55356 24.6848 0 21.8206 0C18.9566 0 16.6327 1.55356 16.6327 3.4683C16.6327 3.76677 16.7072 4.05157 16.814 4.3281L10.8422 6.36618C9.71514 5.47857 8.03787 4.91361 6.1588 4.91361C2.7588 4.91361 0 6.75789 0 9.03096C0 11.2972 2.7588 13.1416 6.1588 13.1416C7.88351 13.1416 9.43842 12.6657 10.5542 11.9022L14.4815 13.4621C14.3143 13.8026 14.2011 14.1596 14.2011 14.5374C14.2011 16.4464 16.525 18 19.3891 18C22.2532 18 24.5685 16.4464 24.5685 14.5374C24.5685 12.6227 22.2532 11.0691 19.3891 11.0691C17.9011 11.0691 16.5683 11.494 15.6221 12.1654L11.8091 10.6511C12.1289 10.1536 12.3074 9.60615 12.3074 9.03096C12.3074 8.55488 12.1807 8.09951 11.9588 7.67406L17.8439 5.66567C18.7957 6.43178 20.2142 6.93091 21.8206 6.93091Z" fill="url(#paint0_linear_404_3230)"/>
<defs>
<linearGradient id="paint0_linear_404_3230" x1="13.5" y1="0" x2="13.5" y2="18" gradientUnits="userSpaceOnUse">
<stop stop-color="#A29FF1"/>
<stop offset="1" stop-color="#3E46D2"/>
</linearGradient>
</defs>
</svg>
