<svg width="58" height="56" viewBox="0 0 58 56" fill="none" xmlns="http://www.w3.org/2000/svg">
<rect x="5.90264" y="3.40362" width="45.1923" height="45.1923" rx="22.5962" stroke="#1786FF" stroke-width="0.961538"/>
<g filter="url(#filter0_d_419_3527)">
<rect x="6.38281" y="3.88428" width="44.2308" height="44.2308" rx="22.1154" fill="white" fill-opacity="0.01" shape-rendering="crispEdges"/>
<g clip-path="url(#clip0_419_3527)">
<path d="M38.5157 22.7489L32.4672 22.0191C32.3013 22.0191 32.0359 21.7427 31.9475 21.5658L29.36 15.7605C28.8403 14.6658 28.0662 14.6658 27.635 15.7605L25.0364 21.5658C25.0364 21.7427 24.7821 22.0081 24.5167 22.0081L18.4681 22.7379C17.3513 22.7379 17.0859 23.6557 17.9595 24.5624L22.4489 28.7312C22.6148 28.9081 22.7032 29.284 22.6148 29.461L21.4205 35.8081C21.2436 36.8917 21.8628 37.4446 22.8912 36.7148L28.0773 33.6297H28.9398L34.1258 36.8033C34.9883 37.4446 35.8508 36.8033 35.508 35.7196L34.3802 29.3614C34.3802 29.3614 34.3802 28.9191 34.6345 28.7312L38.958 24.4629C39.8205 23.5562 39.8205 22.6494 38.5268 22.6494V22.7379L38.5157 22.7489Z" fill="#1B86F9"/>
</g>
</g>
<defs>
<filter id="filter0_d_419_3527" x="0.613582" y="0.0381234" width="56.7299" height="55.7694" filterUnits="userSpaceOnUse" color-interpolation-filters="sRGB">
<feFlood flood-opacity="0" result="BackgroundImageFix"/>
<feColorMatrix in="SourceAlpha" type="matrix" values="0 0 0 0 0 0 0 0 0 0 0 0 0 0 0 0 0 0 127 0" result="hardAlpha"/>
<feOffset dy="1.92308"/>
<feGaussianBlur stdDeviation="2.88462"/>
<feComposite in2="hardAlpha" operator="out"/>
<feColorMatrix type="matrix" values="0 0 0 0 0.396078 0 0 0 0 0.431373 0 0 0 0 0.482353 0 0 0 0.12 0"/>
<feBlend mode="normal" in2="BackgroundImageFix" result="effect1_dropShadow_419_3527"/>
<feBlend mode="normal" in="SourceGraphic" in2="effect1_dropShadow_419_3527" result="shape"/>
</filter>
<clipPath id="clip0_419_3527">
<rect width="26.5385" height="26.5385" fill="white" transform="translate(15.2285 12.7305)"/>
</clipPath>
</defs>
</svg>
