<svg width="192" height="74" viewBox="0 0 192 74" fill="none" xmlns="http://www.w3.org/2000/svg">
<path d="M27.5 20C27.5 21.9891 26.7098 23.8968 25.3033 25.3033C23.8968 26.7098 21.9891 27.5 20 27.5C18.0109 27.5 16.1032 26.7098 14.6967 25.3033C13.2902 23.8968 12.5 21.9891 12.5 20C12.5 18.0109 13.2902 16.1032 14.6967 14.6967C16.1032 13.2902 18.0109 12.5 20 12.5C21.9891 12.5 23.8968 13.2902 25.3033 14.6967C26.7098 16.1032 27.5 18.0109 27.5 20ZM27.5 20C27.5 22.7617 29.1783 25 31.25 25C33.3217 25 35 22.7617 35 20C35 16.5297 33.7967 13.1667 31.5951 10.4841C29.3935 7.80155 26.3299 5.96533 22.9262 5.28833C19.5226 4.61133 15.9895 5.13544 12.929 6.77137C9.86841 8.40729 7.46978 11.0538 6.14177 14.26C4.81376 17.4662 4.63852 21.0336 5.64593 24.3545C6.65334 27.6754 8.78105 30.5442 11.6665 32.4722C14.552 34.4002 18.0167 35.2681 21.4704 34.9279C24.924 34.5877 28.1528 33.0606 30.6067 30.6067M27.5 20V13.75" stroke="#D7D7D7" stroke-width="2" stroke-linecap="round"/>
<path d="M8.02 69.24C6.59333 69.24 5.32667 68.9333 4.22 68.32C3.12667 67.6933 2.26667 66.84 1.64 65.76C1.01333 64.6667 0.7 63.4133 0.7 62C0.7 60.5867 1.01333 59.34 1.64 58.26C2.26667 57.1667 3.12667 56.3133 4.22 55.7C5.32667 55.0733 6.59333 54.76 8.02 54.76C8.87333 54.76 9.66 54.8867 10.38 55.14C11.1 55.3933 11.7333 55.7467 12.28 56.2C12.84 56.64 13.3067 57.1467 13.68 57.72L11.44 59.12C11.2133 58.76 10.9133 58.44 10.54 58.16C10.18 57.88 9.78 57.66 9.34 57.5C8.9 57.34 8.46 57.26 8.02 57.26C7.14 57.26 6.36 57.4667 5.68 57.88C5 58.28 4.46667 58.8333 4.08 59.54C3.69333 60.2467 3.5 61.0667 3.5 62C3.5 62.92 3.68667 63.74 4.06 64.46C4.44667 65.18 4.98667 65.7467 5.68 66.16C6.37333 66.56 7.17333 66.76 8.08 66.76C8.78667 66.76 9.41333 66.62 9.96 66.34C10.52 66.06 10.96 65.6667 11.28 65.16C11.6 64.6533 11.76 64.0667 11.76 63.4L14.36 63C14.36 64.32 14.0867 65.4467 13.54 66.38C13.0067 67.3133 12.26 68.0267 11.3 68.52C10.3533 69 9.26 69.24 8.02 69.24ZM8.48 63.64V61.5H14.36V63.2L12.88 63.64H8.48ZM20.5233 69.24C19.5366 69.24 18.6633 69.02 17.9033 68.58C17.1433 68.1267 16.5433 67.5067 16.1033 66.72C15.6766 65.9333 15.4633 65.0267 15.4633 64C15.4633 62.9733 15.6833 62.0667 16.1233 61.28C16.5766 60.4933 17.1899 59.88 17.9633 59.44C18.7499 58.9867 19.6499 58.76 20.6633 58.76C21.5433 58.76 22.3499 58.9933 23.0833 59.46C23.8299 59.9133 24.4233 60.5867 24.8633 61.48C25.3166 62.36 25.5433 63.4333 25.5433 64.7H17.9633L18.2033 64.46C18.2033 64.9533 18.3233 65.3867 18.5633 65.76C18.8166 66.12 19.1366 66.4 19.5233 66.6C19.9233 66.7867 20.3499 66.88 20.8033 66.88C21.3499 66.88 21.7966 66.7667 22.1433 66.54C22.4899 66.3 22.7566 65.9933 22.9433 65.62L25.3033 66.54C25.0233 67.1 24.6566 67.5867 24.2033 68C23.7633 68.4 23.2366 68.7067 22.6233 68.92C22.0099 69.1333 21.3099 69.24 20.5233 69.24ZM18.3433 62.98L18.1033 62.74H22.9233L22.7033 62.98C22.7033 62.5 22.5899 62.12 22.3633 61.84C22.1366 61.5467 21.8566 61.3333 21.5233 61.2C21.2033 61.0667 20.8899 61 20.5833 61C20.2766 61 19.9499 61.0667 19.6033 61.2C19.2566 61.3333 18.9566 61.5467 18.7033 61.84C18.4633 62.12 18.3433 62.5 18.3433 62.98ZM31.1975 69.24C30.0908 69.24 29.2508 68.9667 28.6775 68.42C28.1175 67.8733 27.8375 67.0933 27.8375 66.08V55.88H30.4775V65.5C30.4775 65.9267 30.5708 66.2533 30.7575 66.48C30.9442 66.6933 31.2175 66.8 31.5775 66.8C31.7108 66.8 31.8575 66.7733 32.0175 66.72C32.1775 66.6533 32.3442 66.56 32.5175 66.44L33.4375 68.42C33.1175 68.66 32.7575 68.8533 32.3575 69C31.9708 69.16 31.5842 69.24 31.1975 69.24ZM26.2175 61.24V59H32.9775V61.24H26.2175ZM44.39 73.26C43.63 73.26 42.9567 73.2067 42.37 73.1C41.7833 72.9933 41.29 72.8533 40.89 72.68C40.49 72.5067 40.1633 72.3333 39.91 72.16L40.95 70.04C41.1367 70.1467 41.3833 70.2667 41.69 70.4C41.9967 70.5467 42.3633 70.6667 42.79 70.76C43.2167 70.8667 43.71 70.92 44.27 70.92C44.8033 70.92 45.27 70.8133 45.67 70.6C46.0833 70.4 46.4033 70.08 46.63 69.64C46.87 69.2133 46.99 68.6667 46.99 68V59H49.63V67.92C49.63 69.04 49.4167 70 48.99 70.8C48.5633 71.6133 47.9567 72.2267 47.17 72.64C46.3967 73.0533 45.47 73.26 44.39 73.26ZM43.87 68.72C42.95 68.72 42.15 68.52 41.47 68.12C40.8033 67.72 40.2833 67.16 39.91 66.44C39.5367 65.72 39.35 64.8667 39.35 63.88C39.35 62.84 39.5367 61.94 39.91 61.18C40.2833 60.4067 40.8033 59.8133 41.47 59.4C42.15 58.9733 42.95 58.76 43.87 58.76C44.67 58.76 45.3633 58.9733 45.95 59.4C46.5367 59.8133 46.99 60.4067 47.31 61.18C47.63 61.9533 47.79 62.8733 47.79 63.94C47.79 64.9 47.63 65.74 47.31 66.46C46.99 67.18 46.5367 67.74 45.95 68.14C45.3633 68.5267 44.67 68.72 43.87 68.72ZM44.63 66.5C45.0833 66.5 45.4767 66.3867 45.81 66.16C46.1567 65.92 46.4233 65.6 46.61 65.2C46.7967 64.7867 46.89 64.32 46.89 63.8C46.89 63.2667 46.79 62.8 46.59 62.4C46.4033 62 46.1367 61.6867 45.79 61.46C45.4567 61.2333 45.0633 61.12 44.61 61.12C44.1433 61.12 43.73 61.2333 43.37 61.46C43.01 61.6867 42.73 62 42.53 62.4C42.33 62.8 42.2233 63.2667 42.21 63.8C42.2233 64.32 42.33 64.7867 42.53 65.2C42.73 65.6 43.01 65.92 43.37 66.16C43.7433 66.3867 44.1633 66.5 44.63 66.5ZM56.6017 69.24C55.5884 69.24 54.6817 69.02 53.8817 68.58C53.0951 68.1267 52.4751 67.5067 52.0217 66.72C51.5817 65.9333 51.3617 65.0267 51.3617 64C51.3617 62.9733 51.5817 62.0667 52.0217 61.28C52.4617 60.4933 53.0751 59.88 53.8617 59.44C54.6484 58.9867 55.5484 58.76 56.5617 58.76C57.5884 58.76 58.4951 58.9867 59.2817 59.44C60.0684 59.88 60.6817 60.4933 61.1217 61.28C61.5617 62.0667 61.7817 62.9733 61.7817 64C61.7817 65.0267 61.5617 65.9333 61.1217 66.72C60.6817 67.5067 60.0684 68.1267 59.2817 68.58C58.5084 69.02 57.6151 69.24 56.6017 69.24ZM56.6017 66.8C57.0951 66.8 57.5284 66.68 57.9017 66.44C58.2751 66.2 58.5617 65.8733 58.7617 65.46C58.9751 65.0333 59.0817 64.5467 59.0817 64C59.0817 63.4533 58.9751 62.9733 58.7617 62.56C58.5484 62.1333 58.2484 61.8 57.8617 61.56C57.4884 61.32 57.0551 61.2 56.5617 61.2C56.0817 61.2 55.6484 61.32 55.2617 61.56C54.8884 61.8 54.5951 62.1333 54.3817 62.56C54.1684 62.9733 54.0617 63.4533 54.0617 64C54.0617 64.5467 54.1684 65.0333 54.3817 65.46C54.5951 65.8733 54.8951 66.2 55.2817 66.44C55.6684 66.68 56.1084 66.8 56.6017 66.8ZM63.6828 69V59H66.3228V69H63.6828ZM65.0028 57.38C64.6028 57.38 64.2495 57.2333 63.9428 56.94C63.6361 56.6333 63.4828 56.2733 63.4828 55.86C63.4828 55.4467 63.6361 55.0933 63.9428 54.8C64.2495 54.4933 64.6028 54.34 65.0028 54.34C65.4161 54.34 65.7695 54.4933 66.0628 54.8C66.3695 55.0933 66.5228 55.4467 66.5228 55.86C66.5228 56.2733 66.3695 56.6333 66.0628 56.94C65.7695 57.2333 65.4161 57.38 65.0028 57.38ZM68.7572 69V59H71.2372L71.3972 60.84V69H68.7572ZM75.3772 69V63.88H78.0172V69H75.3772ZM75.3772 63.88C75.3772 63.2 75.2972 62.6733 75.1372 62.3C74.9905 61.9267 74.7772 61.66 74.4972 61.5C74.2172 61.3267 73.8905 61.24 73.5172 61.24C72.8372 61.2267 72.3105 61.4333 71.9372 61.86C71.5772 62.2867 71.3972 62.92 71.3972 63.76H70.5172C70.5172 62.6933 70.6705 61.7933 70.9772 61.06C71.2972 60.3133 71.7372 59.7467 72.2972 59.36C72.8705 58.96 73.5372 58.76 74.2972 58.76C75.0839 58.76 75.7572 58.92 76.3172 59.24C76.8772 59.56 77.3039 60.06 77.5972 60.74C77.8905 61.4067 78.0305 62.2733 78.0172 63.34V63.88H75.3772ZM84.6244 73.26C83.8644 73.26 83.191 73.2067 82.6044 73.1C82.0177 72.9933 81.5244 72.8533 81.1244 72.68C80.7244 72.5067 80.3977 72.3333 80.1444 72.16L81.1844 70.04C81.371 70.1467 81.6177 70.2667 81.9244 70.4C82.231 70.5467 82.5977 70.6667 83.0244 70.76C83.451 70.8667 83.9444 70.92 84.5044 70.92C85.0377 70.92 85.5044 70.8133 85.9044 70.6C86.3177 70.4 86.6377 70.08 86.8644 69.64C87.1044 69.2133 87.2244 68.6667 87.2244 68V59H89.8644V67.92C89.8644 69.04 89.651 70 89.2244 70.8C88.7977 71.6133 88.191 72.2267 87.4044 72.64C86.631 73.0533 85.7044 73.26 84.6244 73.26ZM84.1044 68.72C83.1844 68.72 82.3844 68.52 81.7044 68.12C81.0377 67.72 80.5177 67.16 80.1444 66.44C79.771 65.72 79.5844 64.8667 79.5844 63.88C79.5844 62.84 79.771 61.94 80.1444 61.18C80.5177 60.4067 81.0377 59.8133 81.7044 59.4C82.3844 58.9733 83.1844 58.76 84.1044 58.76C84.9044 58.76 85.5977 58.9733 86.1844 59.4C86.771 59.8133 87.2244 60.4067 87.5444 61.18C87.8644 61.9533 88.0244 62.8733 88.0244 63.94C88.0244 64.9 87.8644 65.74 87.5444 66.46C87.2244 67.18 86.771 67.74 86.1844 68.14C85.5977 68.5267 84.9044 68.72 84.1044 68.72ZM84.8644 66.5C85.3177 66.5 85.711 66.3867 86.0444 66.16C86.391 65.92 86.6577 65.6 86.8444 65.2C87.031 64.7867 87.1244 64.32 87.1244 63.8C87.1244 63.2667 87.0244 62.8 86.8244 62.4C86.6377 62 86.371 61.6867 86.0244 61.46C85.691 61.2333 85.2977 61.12 84.8444 61.12C84.3777 61.12 83.9644 61.2333 83.6044 61.46C83.2444 61.6867 82.9644 62 82.7644 62.4C82.5644 62.8 82.4577 63.2667 82.4444 63.8C82.4577 64.32 82.5644 64.7867 82.7644 65.2C82.9644 65.6 83.2444 65.92 83.6044 66.16C83.9777 66.3867 84.3977 66.5 84.8644 66.5ZM106.262 69L109.582 59H112.262L108.862 69H106.262ZM99.6217 69L102.822 59H105.122L101.962 69H99.6217ZM99.3617 69L95.9617 59H98.6417L101.822 69H99.3617ZM106.262 69L103.142 59H105.422L108.602 69H106.262ZM113.761 69V59H116.401V69H113.761ZM115.081 57.38C114.681 57.38 114.328 57.2333 114.021 56.94C113.714 56.6333 113.561 56.2733 113.561 55.86C113.561 55.4467 113.714 55.0933 114.021 54.8C114.328 54.4933 114.681 54.34 115.081 54.34C115.494 54.34 115.848 54.4933 116.141 54.8C116.448 55.0933 116.601 55.4467 116.601 55.86C116.601 56.2733 116.448 56.6333 116.141 56.94C115.848 57.2333 115.494 57.38 115.081 57.38ZM122.955 69.24C121.849 69.24 121.009 68.9667 120.435 68.42C119.875 67.8733 119.595 67.0933 119.595 66.08V55.88H122.235V65.5C122.235 65.9267 122.329 66.2533 122.515 66.48C122.702 66.6933 122.975 66.8 123.335 66.8C123.469 66.8 123.615 66.7733 123.775 66.72C123.935 66.6533 124.102 66.56 124.275 66.44L125.195 68.42C124.875 68.66 124.515 68.8533 124.115 69C123.729 69.16 123.342 69.24 122.955 69.24ZM117.975 61.24V59H124.735V61.24H117.975ZM126.902 69V55H129.542V69H126.902ZM133.542 69V63.88H136.182V69H133.542ZM133.542 63.88C133.542 63.2 133.462 62.6733 133.302 62.3C133.142 61.9267 132.922 61.66 132.642 61.5C132.362 61.3267 132.036 61.24 131.662 61.24C130.982 61.2267 130.456 61.4333 130.082 61.86C129.722 62.2867 129.542 62.92 129.542 63.76H128.662C128.662 62.6933 128.816 61.7933 129.122 61.06C129.442 60.3133 129.882 59.7467 130.442 59.36C131.016 58.96 131.682 58.76 132.442 58.76C133.242 58.76 133.916 58.92 134.462 59.24C135.022 59.56 135.449 60.06 135.742 60.74C136.036 61.4067 136.182 62.2733 136.182 63.34V63.88H133.542ZM147.574 69.24C146.587 69.24 145.714 69.02 144.954 68.58C144.194 68.1267 143.594 67.5067 143.154 66.72C142.727 65.9333 142.514 65.0267 142.514 64C142.514 62.9733 142.734 62.0667 143.174 61.28C143.627 60.4933 144.241 59.88 145.014 59.44C145.801 58.9867 146.701 58.76 147.714 58.76C148.594 58.76 149.401 58.9933 150.134 59.46C150.881 59.9133 151.474 60.5867 151.914 61.48C152.367 62.36 152.594 63.4333 152.594 64.7H145.014L145.254 64.46C145.254 64.9533 145.374 65.3867 145.614 65.76C145.867 66.12 146.187 66.4 146.574 66.6C146.974 66.7867 147.401 66.88 147.854 66.88C148.401 66.88 148.847 66.7667 149.194 66.54C149.541 66.3 149.807 65.9933 149.994 65.62L152.354 66.54C152.074 67.1 151.707 67.5867 151.254 68C150.814 68.4 150.287 68.7067 149.674 68.92C149.061 69.1333 148.361 69.24 147.574 69.24ZM145.394 62.98L145.154 62.74H149.974L149.754 62.98C149.754 62.5 149.641 62.12 149.414 61.84C149.187 61.5467 148.907 61.3333 148.574 61.2C148.254 61.0667 147.941 61 147.634 61C147.327 61 147.001 61.0667 146.654 61.2C146.307 61.3333 146.007 61.5467 145.754 61.84C145.514 62.12 145.394 62.5 145.394 62.98ZM154.128 69V59H156.608L156.728 60.3C157.035 59.7933 157.428 59.4133 157.908 59.16C158.388 58.8933 158.922 58.76 159.508 58.76C160.322 58.76 161.002 58.9333 161.548 59.28C162.108 59.6267 162.515 60.16 162.768 60.88C163.062 60.2 163.475 59.68 164.008 59.32C164.542 58.9467 165.162 58.76 165.868 58.76C167.042 58.76 167.935 59.1333 168.548 59.88C169.162 60.6133 169.468 61.7467 169.468 63.28V69H166.828V63.88C166.828 63.2 166.755 62.6733 166.608 62.3C166.462 61.9267 166.262 61.66 166.008 61.5C165.755 61.3267 165.455 61.24 165.108 61.24C164.468 61.2267 163.975 61.4333 163.628 61.86C163.282 62.2867 163.108 62.92 163.108 63.76V69H160.468V63.88C160.468 63.2 160.395 62.6733 160.248 62.3C160.115 61.9267 159.915 61.66 159.648 61.5C159.395 61.3267 159.095 61.24 158.748 61.24C158.108 61.2267 157.615 61.4333 157.268 61.86C156.935 62.2867 156.768 62.92 156.768 63.76V69H154.128ZM177.61 69L177.53 66.98V63.94C177.53 63.34 177.463 62.8267 177.33 62.4C177.21 61.9733 177.01 61.6467 176.73 61.42C176.463 61.18 176.096 61.06 175.63 61.06C175.203 61.06 174.816 61.1533 174.47 61.34C174.123 61.5267 173.83 61.8133 173.59 62.2L171.27 61.4C171.456 60.9733 171.73 60.56 172.09 60.16C172.45 59.7467 172.916 59.4133 173.49 59.16C174.076 58.8933 174.79 58.76 175.63 58.76C176.643 58.76 177.483 58.9533 178.15 59.34C178.83 59.7267 179.33 60.2733 179.65 60.98C179.983 61.6733 180.143 62.5 180.13 63.46L180.07 69H177.61ZM174.81 69.24C173.61 69.24 172.676 68.9733 172.01 68.44C171.356 67.9067 171.03 67.1533 171.03 66.18C171.03 65.1133 171.383 64.3133 172.09 63.78C172.81 63.2333 173.816 62.96 175.11 62.96H177.65V64.92H176.03C175.163 64.92 174.563 65.0267 174.23 65.24C173.896 65.44 173.73 65.7267 173.73 66.1C173.73 66.3933 173.863 66.6267 174.13 66.8C174.396 66.96 174.77 67.04 175.25 67.04C175.69 67.04 176.076 66.94 176.41 66.74C176.756 66.5267 177.03 66.26 177.23 65.94C177.43 65.6067 177.53 65.2667 177.53 64.92H178.17C178.17 66.28 177.91 67.34 177.39 68.1C176.883 68.86 176.023 69.24 174.81 69.24ZM182.394 69V59H185.034V69H182.394ZM183.714 57.38C183.314 57.38 182.96 57.2333 182.654 56.94C182.347 56.6333 182.194 56.2733 182.194 55.86C182.194 55.4467 182.347 55.0933 182.654 54.8C182.96 54.4933 183.314 54.34 183.714 54.34C184.127 54.34 184.48 54.4933 184.774 54.8C185.08 55.0933 185.234 55.4467 185.234 55.86C185.234 56.2733 185.08 56.6333 184.774 56.94C184.48 57.2333 184.127 57.38 183.714 57.38ZM187.468 69V55H190.108V69H187.468Z" fill="#1A1C29"/>
</svg>
