<svg width="40" height="40" viewBox="0 0 40 40" fill="none" xmlns="http://www.w3.org/2000/svg">
<g id="Frame">
<path id="Vector" d="M25 15H31.25M25 20H31.25M25 25H31.25M7.5 32.5H32.5C33.4946 32.5 34.4484 32.1049 35.1516 31.4016C35.8549 30.6984 36.25 29.7446 36.25 28.75V11.25C36.25 10.2554 35.8549 9.30161 35.1516 8.59835C34.4484 7.89509 33.4946 7.5 32.5 7.5H7.5C6.50544 7.5 5.55161 7.89509 4.84835 8.59835C4.14509 9.30161 3.75 10.2554 3.75 11.25V28.75C3.75 29.7446 4.14509 30.6984 4.84835 31.4016C5.55161 32.1049 6.50544 32.5 7.5 32.5ZM17.5 15.625C17.5 16.0354 17.4192 16.4417 17.2621 16.8209C17.1051 17.2 16.8749 17.5445 16.5847 17.8347C16.2945 18.1249 15.95 18.3551 15.5709 18.5121C15.1917 18.6692 14.7854 18.75 14.375 18.75C13.9646 18.75 13.5583 18.6692 13.1791 18.5121C12.8 18.3551 12.4555 18.1249 12.1653 17.8347C11.8751 17.5445 11.6449 17.2 11.4879 16.8209C11.3308 16.4417 11.25 16.0354 11.25 15.625C11.25 14.7962 11.5792 14.0013 12.1653 13.4153C12.7513 12.8292 13.5462 12.5 14.375 12.5C15.2038 12.5 15.9987 12.8292 16.5847 13.4153C17.1708 14.0013 17.5 14.7962 17.5 15.625ZM19.6567 26.185C18.0305 27.0512 16.2158 27.5028 14.3733 27.5C12.532 27.5023 10.7185 27.0506 9.09333 26.185C9.49048 25.1037 10.2099 24.1704 11.1544 23.5111C12.099 22.8518 13.2231 22.4983 14.375 22.4983C15.5269 22.4983 16.651 22.8518 17.5956 23.5111C18.5401 24.1704 19.2595 25.1037 19.6567 26.185Z" stroke="#D7D7D7" stroke-width="2" stroke-linecap="round" stroke-linejoin="round"/>
</g>
</svg>
