<svg width="26" height="26" viewBox="0 0 26 26" fill="none" xmlns="http://www.w3.org/2000/svg">
<g clip-path="url(#clip0_209_345)">
<path d="M12.9147 25.8465C20.0127 25.8465 25.7668 20.0932 25.7668 12.9961C25.7668 5.89906 20.0127 0.145752 12.9147 0.145752C5.81661 0.145752 0.0625 5.89906 0.0625 12.9961C0.0625 20.0932 5.81661 25.8465 12.9147 25.8465Z" fill="#0B69C7"/>
<path d="M10.038 8.32493C10.0384 8.6722 9.93564 9.01176 9.74289 9.30065C9.55014 9.58953 9.27601 9.81474 8.9552 9.94779C8.63438 10.0808 8.28131 10.1157 7.94065 10.0481C7.59999 9.98041 7.28706 9.81322 7.04147 9.56766C6.79588 9.3221 6.62867 9.00922 6.56099 8.66861C6.49331 8.328 6.52822 7.97497 6.66129 7.6542C6.79435 7.33343 7.0196 7.05934 7.30852 6.86662C7.59745 6.67389 7.93705 6.5712 8.28437 6.57153C8.74933 6.57198 9.19512 6.75686 9.52389 7.08559C9.85267 7.41432 10.0376 7.86004 10.038 8.32493Z" fill="white"/>
<path d="M9.20802 10.8176H7.36136C7.12134 10.8176 6.92676 11.0122 6.92676 11.2522V18.9945C6.92676 19.2345 7.12134 19.4291 7.36136 19.4291H9.20802C9.44804 19.4291 9.64262 19.2345 9.64262 18.9945V11.2522C9.64262 11.0122 9.44804 10.8176 9.20802 10.8176Z" fill="white"/>
<path d="M19.2969 15.2654V19.014C19.2969 19.1199 19.2549 19.2214 19.18 19.2962C19.1052 19.371 19.0037 19.4131 18.8978 19.4131H16.9159C16.8101 19.4131 16.7085 19.371 16.6337 19.2962C16.5589 19.2214 16.5168 19.1199 16.5168 19.014V15.3821C16.5168 14.8393 16.6741 13.0149 15.0997 13.0149C13.8787 13.0149 13.6301 14.2695 13.5777 14.8326V19.0225C13.5755 19.1263 13.533 19.2251 13.4591 19.298C13.3852 19.3709 13.2858 19.4122 13.182 19.4131H11.2643C11.2119 19.4133 11.1599 19.4031 11.1113 19.3831C11.0628 19.3632 11.0187 19.3338 10.9816 19.2967C10.9445 19.2596 10.9151 19.2155 10.8952 19.167C10.8752 19.1185 10.865 19.0665 10.8652 19.014V11.2023C10.865 11.1498 10.8752 11.0977 10.8951 11.0491C10.9151 11.0005 10.9444 10.9563 10.9815 10.9191C11.0186 10.8819 11.0627 10.8523 11.1112 10.8322C11.1597 10.812 11.2118 10.8016 11.2643 10.8016H13.182C13.2352 10.8007 13.2881 10.8104 13.3375 10.8302C13.3869 10.8499 13.4319 10.8793 13.4698 10.9166C13.5077 10.9539 13.5379 10.9984 13.5584 11.0474C13.579 11.0965 13.5896 11.1491 13.5896 11.2023V11.8787C14.0428 11.2023 14.7158 10.6748 16.1482 10.6748C19.3155 10.6731 19.2969 13.6372 19.2969 15.2654Z" fill="white"/>
</g>
<defs>
<clipPath id="clip0_209_345">
<rect width="25.7043" height="25.7007" fill="white" transform="translate(0.0595703 0.149414)"/>
</clipPath>
</defs>
</svg>
