<svg width="27" height="26" viewBox="0 0 27 26" fill="none" xmlns="http://www.w3.org/2000/svg">
<path d="M13.4368 25.6994C20.4517 25.6994 26.1383 20.0133 26.1383 12.9992C26.1383 5.98513 20.4517 0.299072 13.4368 0.299072C6.422 0.299072 0.735352 5.98513 0.735352 12.9992C0.735352 20.0133 6.422 25.6994 13.4368 25.6994Z" fill="#3968B1"/>
<path d="M26.0289 10.4096C25.86 9.58455 25.608 8.77302 25.2798 7.99749C24.9579 7.23593 24.5591 6.50161 24.0949 5.81467C23.6354 5.13428 23.1075 4.49435 22.5259 3.91301C21.9445 3.33166 21.3045 2.8038 20.6242 2.3441C19.937 1.87996 19.2026 1.48141 18.4412 1.15932C17.6656 0.831212 16.8538 0.579378 16.0286 0.410563C15.1821 0.237308 14.3107 0.149414 13.4389 0.149414C12.567 0.149414 11.6958 0.237308 10.8491 0.410563C10.0239 0.579378 9.21233 0.831212 8.43673 1.15932C7.67509 1.48138 6.94066 1.87996 6.25369 2.3441C5.57323 2.80383 4.93322 3.33169 4.35182 3.91301C3.77042 4.49435 3.24228 5.13428 2.78276 5.81467C2.31858 6.50158 1.91995 7.23593 1.59788 7.99749C1.26975 8.77299 1.01788 9.58455 0.849041 10.4096C0.675792 11.2562 0.587891 12.1273 0.587891 12.9991C0.587891 13.8709 0.675792 14.7422 0.849041 15.5886C1.01788 16.4137 1.26975 17.2254 1.59788 18.0009C1.91998 18.7623 2.31858 19.4966 2.78276 20.1838C3.24228 20.8642 3.77042 21.5039 4.35182 22.0852C4.93322 22.6667 5.57323 23.1946 6.25369 23.6543C6.94066 24.1182 7.67509 24.517 8.43673 24.8391C9.2123 25.167 10.0239 25.4191 10.8491 25.5879C10.9416 25.6067 11.0344 25.6246 11.1277 25.6416C11.8863 25.7793 12.6623 25.8488 13.4389 25.8488C13.4965 25.8488 13.554 25.8483 13.6116 25.8476C14.2126 25.8397 14.8126 25.7902 15.4035 25.6995C15.613 25.6674 15.8216 25.6302 16.0286 25.5879C16.8537 25.4191 17.6656 25.167 18.4412 24.8391C19.2026 24.517 19.937 24.1183 20.6242 23.6543C21.3045 23.1946 21.9444 22.6667 22.5258 22.0852C23.1075 21.5038 23.6354 20.8641 24.0949 20.1838C24.5591 19.4966 24.9579 18.7623 25.2798 18.0009C25.6079 17.2254 25.86 16.4137 26.0289 15.5886C26.2021 14.7422 26.2898 13.8709 26.2898 12.9991C26.2898 12.1273 26.2021 11.2562 26.0289 10.4096ZM15.4035 25.3963C14.7633 25.4972 14.107 25.5497 13.4389 25.5497C12.6503 25.5497 11.8786 25.4767 11.13 25.3369C5.30767 24.2501 0.88697 19.1311 0.88697 12.9991C0.88697 6.07862 6.51767 0.448452 13.4389 0.448452C20.36 0.448452 25.9907 6.07859 25.9907 12.9991C25.9907 19.2515 21.3947 24.4505 15.4035 25.3963Z" fill="#3968B1"/>
<path d="M18.9799 5.6122V8.87095H18.9796C18.4871 8.87211 17.9945 8.8698 17.502 8.87655C17.321 8.87886 17.1403 8.90283 16.9594 8.917C16.1243 8.93631 15.5736 9.37159 15.4343 10.1557C15.3896 10.4078 15.4138 10.672 15.4064 10.9306C15.4066 11.5 15.4066 12.0693 15.4066 12.6387V13.1947H18.7845C18.7122 13.7096 18.6429 14.2021 18.5739 14.6944L18.5748 14.6953C18.5625 14.7455 18.5502 14.796 18.5378 14.8464C18.4543 15.3657 18.3706 15.8849 18.2871 16.4042C18.2613 16.5325 18.2357 16.6607 18.2055 16.8109H15.4067V19.2195C15.4069 19.722 15.4071 20.2243 15.4074 20.7268C15.4074 21.5806 15.4071 22.4347 15.4069 23.2886V25.7593C14.8736 25.8276 14.3299 25.8628 13.7781 25.8628C13.7237 25.8628 13.6692 25.8625 13.615 25.8616C12.765 25.8511 11.9353 25.7568 11.1334 25.587V16.7984H7.93774C7.93029 16.6346 7.92426 16.4954 7.91797 16.3561V13.1836H11.1336V12.6385C11.1333 12.0525 11.1333 11.4666 11.1333 10.8803C11.1608 10.3241 11.1882 9.76788 11.2154 9.21144C11.2391 9.14098 11.2712 9.07216 11.2849 8.99959C11.4161 8.30083 11.7159 7.67228 12.1182 7.09677C12.2945 6.84448 12.5389 6.64008 12.7524 6.41406C13.7238 5.6674 14.8382 5.3523 16.0461 5.35975C16.6613 5.36346 17.2769 5.41346 17.8906 5.46276C18.2513 5.4915 18.609 5.55986 18.9799 5.6122Z" fill="white" stroke="white" stroke-width="0.0306212" stroke-miterlimit="10"/>
<path d="M13.7789 25.7065C13.7247 25.7065 13.6705 25.7062 13.6163 25.7053C12.766 25.6946 11.9361 25.5988 11.1342 25.4263C11.1339 25.4497 11.1337 25.4735 11.1335 25.497C11.1328 25.5477 11.1323 25.5984 11.1318 25.6488C11.8904 25.7865 12.6665 25.856 13.443 25.856C13.5007 25.856 13.5581 25.8556 13.6158 25.8549C13.67 25.8558 13.7244 25.856 13.7788 25.856C14.3307 25.856 14.8744 25.8209 15.4077 25.7525V25.6014C14.8744 25.6707 14.3307 25.7065 13.7789 25.7065Z" fill="white" stroke="white" stroke-width="0.0306212" stroke-miterlimit="10"/>
</svg>
