<svg width="26" height="26" viewBox="0 0 26 26" fill="none" xmlns="http://www.w3.org/2000/svg">
<path d="M13.086 25.7008C20.1012 25.7008 25.7881 20.0144 25.7881 12.9999C25.7881 5.98543 20.1012 0.299072 13.086 0.299072C6.07074 0.299072 0.383789 5.98543 0.383789 12.9999C0.383789 20.0144 6.07074 25.7008 13.086 25.7008Z" fill="url(#paint0_linear_209_335)"/>
<path d="M25.6777 10.4101C25.5089 9.58507 25.2568 8.77348 24.9286 7.99791C24.6067 7.23631 24.2079 6.50195 23.7437 5.81498C23.2841 5.13454 22.7562 4.49459 22.1745 3.91321C21.5931 3.33183 20.953 2.80394 20.2728 2.34422C19.5855 1.88005 18.8511 1.48148 18.0896 1.15938C17.314 0.831249 16.5021 0.579398 15.6769 0.410574C14.8304 0.23734 13.9589 0.149414 13.087 0.149414C12.2151 0.149414 11.3439 0.237309 10.4971 0.410574C9.67192 0.579398 8.86026 0.831249 8.08461 1.15938C7.32293 1.48145 6.58847 1.88005 5.90146 2.34422C5.22096 2.80397 4.58091 3.33186 3.99948 3.91321C3.41805 4.49459 2.88988 5.13454 2.43034 5.81498C1.96614 6.50192 1.56748 7.23631 1.24539 7.99791C0.91725 8.77345 0.665363 9.58507 0.496516 10.4101C0.323258 11.2569 0.235352 12.128 0.235352 12.9998C0.235352 13.8716 0.323258 14.743 0.496516 15.5895C0.665363 16.4145 0.91725 17.2264 1.24539 18.0019C1.56752 18.7633 1.96614 19.4977 2.43034 20.1848C2.88988 20.8653 3.41805 21.505 3.99948 22.0864C4.58091 22.668 5.22096 23.1958 5.90146 23.6556C6.58847 24.1195 7.32293 24.5184 8.08461 24.8404C8.86023 25.1683 9.67192 25.4204 10.4971 25.5892C10.5896 25.6081 10.6824 25.626 10.7757 25.6429C11.5343 25.7806 12.3105 25.8502 13.087 25.8502C13.1447 25.8502 13.2021 25.8497 13.2598 25.849C13.8608 25.8411 14.4608 25.7916 15.0518 25.7009C15.2613 25.6688 15.4699 25.6316 15.6769 25.5893C16.5021 25.4204 17.314 25.1684 18.0896 24.8405C18.851 24.5184 19.5855 24.1196 20.2727 23.6556C20.953 23.1959 21.593 22.668 22.1745 22.0864C22.7561 21.505 23.2841 20.8653 23.7436 20.1849C24.2078 19.4977 24.6067 18.7633 24.9286 18.0019C25.2567 17.2264 25.5088 16.4146 25.6777 15.5895C25.8509 14.743 25.9386 13.8717 25.9386 12.9998C25.9387 12.128 25.851 11.2569 25.6777 10.4101ZM15.0518 25.3976C14.4115 25.4986 13.7552 25.5511 13.087 25.5511C12.2984 25.5511 11.5267 25.4781 10.7781 25.3383C4.95538 24.2514 0.534447 19.1321 0.534447 12.9998C0.534447 6.07893 6.16545 0.448468 13.087 0.448468C20.0086 0.448468 25.6396 6.0789 25.6396 12.9998C25.6396 19.2525 21.0433 24.4518 15.0518 25.3976Z" fill="url(#paint1_linear_209_335)"/>
<path d="M13.0884 6.86274C15.0886 6.86274 15.3255 6.87038 16.1154 6.90639C16.8457 6.93972 17.2423 7.0617 17.5063 7.16429C17.8559 7.30017 18.1054 7.46249 18.3676 7.72456C18.6297 7.98666 18.792 8.23617 18.9279 8.58577C19.0305 8.8497 19.1525 9.24632 19.1859 9.97654C19.2219 10.7663 19.2295 11.0032 19.2295 13.0031C19.2295 15.0031 19.2219 15.2399 19.1859 16.0297C19.1525 16.76 19.0305 17.1566 18.9279 17.4205C18.792 17.7701 18.6297 18.0197 18.3676 18.2818C18.1054 18.5439 17.8559 18.7062 17.5063 18.842C17.2423 18.9446 16.8457 19.0666 16.1154 19.0999C15.3256 19.136 15.0887 19.1436 13.0884 19.1436C11.0882 19.1436 10.8513 19.1359 10.0615 19.0999C9.33119 19.0666 8.93458 18.9446 8.67061 18.842C8.32099 18.7061 8.07145 18.5439 7.80931 18.2818C7.5472 18.0197 7.38486 17.7701 7.24896 17.4205C7.14639 17.1566 7.02436 16.76 6.99102 16.0298C6.95501 15.24 6.94737 15.0031 6.94737 13.0032C6.94737 11.0033 6.95501 10.7664 6.99102 9.97657C7.02436 9.24632 7.14636 8.8497 7.24896 8.58577C7.38486 8.23617 7.54717 7.98666 7.80931 7.72456C8.07142 7.46246 8.32096 7.30014 8.67061 7.16429C8.93458 7.0617 9.33122 6.93972 10.0615 6.90639C10.8514 6.87038 11.0883 6.86274 13.0884 6.86274ZM13.0884 5.51318C11.0541 5.51318 10.799 5.52179 10 5.55826C9.20267 5.59463 8.6582 5.72124 8.18168 5.9064C7.6891 6.09782 7.27138 6.3539 6.85493 6.77032C6.43849 7.18674 6.18237 7.60443 5.99092 8.09694C5.80574 8.57339 5.67911 9.11782 5.64273 9.91507C5.60629 10.714 5.59766 10.969 5.59766 13.0032C5.59766 15.0374 5.60626 15.2924 5.64273 16.0913C5.67911 16.8886 5.80574 17.433 5.99092 17.9095C6.18234 18.402 6.43849 18.8197 6.85493 19.2361C7.27138 19.6525 7.68913 19.9086 8.18168 20.1C8.65817 20.2852 9.20267 20.4118 10 20.4482C10.799 20.4846 11.0541 20.4932 13.0884 20.4932C15.1228 20.4932 15.3779 20.4846 16.1769 20.4482C16.9742 20.4118 17.5187 20.2852 17.9952 20.1C18.4878 19.9086 18.9055 19.6525 19.322 19.2361C19.7384 18.8197 19.9946 18.402 20.186 17.9095C20.3712 17.433 20.4978 16.8886 20.5342 16.0913C20.5706 15.2924 20.5792 15.0374 20.5792 13.0032C20.5792 10.969 20.5706 10.714 20.5342 9.91507C20.4978 9.11785 20.3712 8.57339 20.186 8.09694C19.9946 7.6044 19.7384 7.18674 19.322 6.77032C18.9055 6.35393 18.4878 6.09782 17.9952 5.9064C17.5187 5.72124 16.9742 5.59463 16.1769 5.55826C15.3779 5.52182 15.1228 5.51318 13.0884 5.51318Z" fill="white"/>
<path d="M13.0898 9.15137C10.9653 9.15137 9.24316 10.8734 9.24316 12.9976C9.24316 15.1218 10.9653 16.8438 13.0898 16.8438C15.2142 16.8438 16.9364 15.1218 16.9364 12.9976C16.9364 10.8734 15.2142 9.15137 13.0898 9.15137ZM13.0898 15.4942C11.7108 15.4942 10.5928 14.3764 10.5928 12.9976C10.5928 11.6187 11.7108 10.5009 13.0898 10.5009C14.4688 10.5009 15.5867 11.6187 15.5867 12.9976C15.5867 14.3764 14.4688 15.4942 13.0898 15.4942Z" fill="white"/>
<path d="M17.0893 9.90033C17.5858 9.90033 17.9882 9.49793 17.9882 9.00156C17.9882 8.50518 17.5858 8.10278 17.0893 8.10278C16.5929 8.10278 16.1904 8.50518 16.1904 9.00156C16.1904 9.49793 16.5929 9.90033 17.0893 9.90033Z" fill="white"/>
<defs>
<linearGradient id="paint0_linear_209_335" x1="2.08362" y1="19.3512" x2="24.0867" y2="6.64596" gradientUnits="userSpaceOnUse">
<stop stop-color="#F9CE34"/>
<stop offset="0.4897" stop-color="#EE2A7B"/>
<stop offset="0.5341" stop-color="#E62A81"/>
<stop offset="1" stop-color="#6228D7"/>
</linearGradient>
<linearGradient id="paint1_linear_209_335" x1="1.95535" y1="19.4258" x2="24.2172" y2="6.57117" gradientUnits="userSpaceOnUse">
<stop stop-color="#F9CE34"/>
<stop offset="0.4897" stop-color="#EE2A7B"/>
<stop offset="0.5341" stop-color="#E62A81"/>
<stop offset="1" stop-color="#6228D7"/>
</linearGradient>
</defs>
</svg>
