<svg width="40" height="40" viewBox="0 0 40 40" fill="none" xmlns="http://www.w3.org/2000/svg">
<g id="Frame">
<path id="Vector" d="M27.5 17.5V11.25C27.5 9.26088 26.7098 7.35322 25.3033 5.9467C23.8968 4.54018 21.9891 3.75 20 3.75C18.0109 3.75 16.1032 4.54018 14.6967 5.9467C13.2902 7.35322 12.5 9.26088 12.5 11.25V17.5M11.25 36.25H28.75C29.7446 36.25 30.6984 35.8549 31.4016 35.1516C32.1049 34.4484 32.5 33.4946 32.5 32.5V21.25C32.5 20.2554 32.1049 19.3016 31.4016 18.5983C30.6984 17.8951 29.7446 17.5 28.75 17.5H11.25C10.2554 17.5 9.30161 17.8951 8.59835 18.5983C7.89509 19.3016 7.5 20.2554 7.5 21.25V32.5C7.5 33.4946 7.89509 34.4484 8.59835 35.1516C9.30161 35.8549 10.2554 36.25 11.25 36.25Z" stroke="#D7D7D7" stroke-width="2" stroke-linecap="round" stroke-linejoin="round"/>
</g>
</svg>
