<svg width="360" height="271" viewBox="0 0 360 271" fill="none" xmlns="http://www.w3.org/2000/svg">
<path d="M0 0H360V190L346.198 196.211C240.504 243.773 119.496 243.773 13.8023 196.211L0 190V0Z" fill="url(#paint0_linear_536_2866)"/>
<g opacity="0.09">
<g clip-path="url(#clip0_536_2866)">
<path d="M230.926 168.328C230.926 170.797 229.04 171.846 226.718 170.587C224.397 169.328 224.41 167.303 226.718 166.056C229.026 164.81 230.926 165.822 230.926 168.328Z" fill="white"/>
<path d="M245.276 165.477C248.125 167.02 248.125 169.538 245.276 171.068C242.427 172.599 240.093 171.352 240.093 168.279C240.093 165.205 242.427 163.983 245.276 165.477Z" fill="white"/>
<path d="M255.01 155.823C255.01 159.168 252.477 160.526 249.391 158.859C246.304 157.193 246.291 154.452 249.391 152.786C252.491 151.12 255.01 152.477 255.01 155.823Z" fill="white"/>
<path d="M244.962 141.022C247.297 142.256 247.297 144.354 244.962 145.613C242.627 146.873 240.715 145.848 240.715 143.317C240.715 140.787 242.627 139.762 244.962 141.022Z" fill="white"/>
<path d="M230.201 143.317C230.201 145.169 228.803 145.922 227.088 144.996C225.374 144.07 225.374 142.527 227.088 141.639C228.803 140.75 230.201 141.466 230.201 143.317Z" fill="white"/>
<path d="M221.604 153.885C223.583 154.947 223.583 156.688 221.604 157.761C219.626 158.835 218.03 157.947 218.03 155.823C218.03 153.7 219.639 152.824 221.604 153.885Z" fill="white"/>
<path d="M221.801 178.66C224.004 179.894 224.004 181.795 221.801 182.993C219.598 184.19 217.844 183.203 217.844 180.82C217.844 178.438 219.546 177.463 221.801 178.66Z" fill="white"/>
<path d="M255.037 180.82C255.037 184.189 252.491 185.572 249.365 183.893C246.239 182.214 246.253 179.437 249.365 177.721C252.478 176.006 255.037 177.45 255.037 180.82Z" fill="white"/>
<path d="M269.004 152.058C272.829 154.132 272.829 157.514 269.004 159.588C265.179 161.662 262.04 159.958 262.04 155.823C262.04 151.688 265.179 149.984 269.004 152.058Z" fill="white"/>
<path d="M253.931 130.814C253.931 133.196 252.124 134.171 249.974 132.986C247.824 131.801 247.771 129.851 249.974 128.654C252.176 127.456 253.931 128.444 253.931 130.814Z" fill="white"/>
<path d="M220.994 129.877C221.205 129.942 221.389 130.068 221.519 130.236C221.65 130.404 221.72 130.607 221.72 130.815C221.72 131.023 221.65 131.226 221.519 131.394C221.389 131.563 221.205 131.688 220.994 131.753C220.031 132.272 219.253 131.852 219.253 130.815C219.253 129.778 220.031 129.371 220.994 129.877Z" fill="white"/>
<path d="M207.042 155.821C207.042 157.648 205.657 158.401 203.969 157.488C202.28 156.574 202.267 155.019 203.969 154.155C205.67 153.291 207.042 153.995 207.042 155.821Z" fill="white"/>
<path d="M230.952 193.324C230.952 195.792 229.04 196.879 226.705 195.62C224.37 194.36 224.37 192.287 226.705 191.028C229.04 189.769 230.952 190.805 230.952 193.324Z" fill="white"/>
<path d="M245.174 190.682C247.812 192.138 247.812 194.508 245.174 195.965C242.536 197.421 240.294 196.224 240.294 193.323C240.294 190.422 242.496 189.237 245.174 190.682Z" fill="white"/>
<path d="M268.968 177.116C272.74 179.153 272.74 182.485 268.968 184.522C265.195 186.559 262.109 184.892 262.109 180.819C262.109 176.746 265.195 175.079 268.968 177.116Z" fill="white"/>
<path d="M279.544 168.326C279.544 172.918 276.062 174.794 271.815 172.499C267.568 170.203 267.568 166.438 271.815 164.142C276.062 161.846 279.544 163.734 279.544 168.326Z" fill="white"/>
<path d="M279.111 143.319C279.111 147.516 275.933 149.244 272.042 147.133C268.151 145.022 268.164 141.603 272.042 139.504C275.919 137.406 279.111 139.122 279.111 143.319Z" fill="white"/>
<path d="M268.468 127.926C271.409 129.518 271.409 132.123 268.468 133.703C265.526 135.283 263.126 133.999 263.126 130.814C263.126 127.629 265.526 126.346 268.468 127.926Z" fill="white"/>
<path d="M244.329 117.049C244.613 117.137 244.86 117.307 245.035 117.534C245.21 117.761 245.305 118.034 245.305 118.314C245.305 118.594 245.21 118.867 245.035 119.094C244.86 119.322 244.613 119.491 244.329 119.58C243.01 120.283 241.981 119.715 241.981 118.345C241.981 116.975 243.036 116.345 244.329 117.049Z" fill="white"/>
<path d="M228.975 118.323C228.975 119.076 228.394 119.385 227.656 119.002C227.505 118.951 227.375 118.858 227.283 118.735C227.191 118.613 227.141 118.467 227.141 118.317C227.141 118.167 227.191 118.021 227.283 117.898C227.375 117.776 227.505 117.683 227.656 117.632C228.394 117.261 228.975 117.57 228.975 118.323Z" fill="white"/>
<path d="M205.829 130.814C205.829 131.567 205.262 131.875 204.576 131.505C204.425 131.454 204.295 131.361 204.203 131.238C204.111 131.116 204.062 130.97 204.062 130.82C204.062 130.67 204.111 130.524 204.203 130.401C204.295 130.279 204.425 130.186 204.576 130.135C205.262 129.764 205.829 130.061 205.829 130.814Z" fill="white"/>
<path d="M197.991 142.17C198.237 142.261 198.448 142.419 198.597 142.624C198.746 142.829 198.825 143.071 198.825 143.318C198.825 143.566 198.746 143.808 198.597 144.012C198.448 144.217 198.237 144.375 197.991 144.466C196.817 145.108 195.854 144.59 195.854 143.318C195.854 142.047 196.817 141.541 197.991 142.17Z" fill="white"/>
<path d="M198.295 166.71C198.663 166.827 198.983 167.049 199.209 167.344C199.435 167.64 199.557 167.994 199.557 168.358C199.557 168.722 199.435 169.076 199.209 169.371C198.983 169.667 198.663 169.889 198.295 170.006C196.62 170.919 195.235 170.179 195.235 168.364C195.235 166.55 196.62 165.76 198.295 166.71Z" fill="white"/>
<path d="M207.29 180.82C207.29 182.894 205.72 183.746 203.795 182.709C201.869 181.672 201.882 179.981 203.795 178.944C205.707 177.907 207.29 178.759 207.29 180.82Z" fill="white"/>
<path d="M206.854 205.828C206.854 207.482 205.535 208.16 204.058 207.333C203.718 207.228 203.422 207.026 203.213 206.754C203.003 206.483 202.89 206.156 202.89 205.821C202.89 205.486 203.003 205.16 203.213 204.888C203.422 204.617 203.718 204.414 204.058 204.309C205.588 203.482 206.854 204.161 206.854 205.828Z" fill="white"/>
<path d="M221.548 203.989C223.421 205.002 223.421 206.656 221.548 207.693C219.675 208.729 218.145 207.878 218.145 205.853C218.145 203.829 219.675 202.977 221.548 203.989Z" fill="white"/>
<path d="M254.219 205.826C254.219 208.456 252.214 209.53 249.787 208.221C247.36 206.913 247.347 204.74 249.787 203.432C252.227 202.123 254.219 203.185 254.219 205.826Z" fill="white"/>
<path d="M268.481 202.914C271.449 204.519 271.449 207.136 268.481 208.741C265.514 210.345 263.1 209.025 263.1 205.828C263.1 202.63 265.514 201.273 268.481 202.914Z" fill="white"/>
<path d="M279.005 193.324C279.005 197.422 275.892 199.101 272.093 197.027C268.295 194.954 268.295 191.621 272.093 189.621C275.892 187.621 279.005 189.226 279.005 193.324Z" fill="white"/>
<path d="M292.722 163.612C297.524 166.204 297.524 170.438 292.722 173.031C287.921 175.623 284.004 173.5 284.004 168.328C284.004 163.155 287.934 161.02 292.722 163.612Z" fill="white"/>
<path d="M303.512 155.824C303.512 161.144 299.476 163.329 294.543 160.663C289.61 157.997 289.623 153.639 294.543 150.985C299.462 148.332 303.512 150.492 303.512 155.824Z" fill="white"/>
<path d="M292.524 138.951C296.982 141.419 296.982 145.295 292.524 147.702C288.065 150.109 284.412 148.134 284.412 143.32C284.412 138.506 288.065 136.531 292.524 138.951Z" fill="white"/>
<path d="M277.502 118.323C277.502 121.089 275.405 122.212 272.846 120.792C270.287 119.373 270.287 117.089 272.846 115.768C275.405 114.447 277.502 115.558 277.502 118.323Z" fill="white"/>
<path d="M267.608 104.324C267.94 104.432 268.228 104.633 268.432 104.901C268.636 105.169 268.745 105.489 268.745 105.818C268.745 106.147 268.636 106.467 268.432 106.735C268.228 107.003 267.94 107.204 267.608 107.312C266.091 108.126 264.851 107.46 264.851 105.818C264.851 104.176 266.091 103.51 267.608 104.324Z" fill="white"/>
<path d="M252.492 105.817C252.492 106.915 251.661 107.372 250.646 106.816C250.419 106.749 250.221 106.616 250.081 106.436C249.94 106.256 249.864 106.039 249.864 105.817C249.864 105.594 249.94 105.377 250.081 105.197C250.221 105.018 250.419 104.884 250.646 104.817C251.661 104.261 252.492 104.718 252.492 105.817Z" fill="white"/>
<path d="M220.481 105.694C220.613 105.694 220.613 105.879 220.481 105.953C220.349 106.027 220.244 105.953 220.244 105.818C220.244 105.682 220.362 105.62 220.481 105.694Z" fill="white"/>
<path d="M197.384 118.138C197.426 118.148 197.464 118.171 197.49 118.204C197.517 118.236 197.531 118.276 197.531 118.317C197.531 118.358 197.517 118.397 197.49 118.43C197.464 118.462 197.426 118.485 197.384 118.496C197.199 118.595 197.054 118.496 197.054 118.323C197.054 118.15 197.199 118.051 197.384 118.138Z" fill="white"/>
<path d="M183.112 143.32C183.112 144.443 182.268 144.9 181.226 144.344C181 144.269 180.803 144.131 180.664 143.947C180.526 143.764 180.451 143.544 180.451 143.32C180.451 143.095 180.526 142.875 180.664 142.692C180.803 142.508 181 142.37 181.226 142.295C182.229 141.739 183.112 142.196 183.112 143.32Z" fill="white"/>
<path d="M174.909 154.577C175.182 154.667 175.419 154.834 175.586 155.055C175.754 155.276 175.844 155.54 175.844 155.811C175.844 156.082 175.754 156.346 175.586 156.567C175.419 156.789 175.182 156.956 174.909 157.045C173.59 157.737 172.614 157.181 172.614 155.811C172.614 154.441 173.643 153.898 174.909 154.577Z" fill="white"/>
<path d="M183.471 168.328C183.471 169.76 182.376 170.353 181.044 169.637C180.754 169.541 180.502 169.362 180.325 169.127C180.147 168.892 180.052 168.61 180.052 168.322C180.052 168.034 180.147 167.753 180.325 167.518C180.502 167.282 180.754 167.104 181.044 167.008C182.376 166.292 183.471 166.884 183.471 168.328Z" fill="white"/>
<path d="M198.231 191.782C198.575 191.892 198.874 192.099 199.086 192.376C199.298 192.653 199.412 192.985 199.412 193.325C199.412 193.666 199.298 193.998 199.086 194.274C198.874 194.551 198.575 194.759 198.231 194.868C196.661 195.72 195.381 195.016 195.381 193.325C195.381 191.634 196.661 190.931 198.231 191.782Z" fill="white"/>
<path d="M292.486 189.003C296.878 191.386 296.878 195.262 292.486 197.644C288.094 200.026 284.493 198.076 284.493 193.324C284.493 188.571 288.094 186.633 292.486 189.003Z" fill="white"/>
<path d="M303.484 180.819C303.484 186.139 299.461 188.312 294.555 185.646C289.648 182.979 289.635 178.647 294.555 175.993C299.475 173.339 303.484 175.511 303.484 180.819Z" fill="white"/>
<path d="M316.053 150.787C321.171 153.565 321.171 158.082 316.053 160.847C310.936 163.612 306.754 161.354 306.754 155.823C306.754 150.293 310.936 148.022 316.053 150.787Z" fill="white"/>
<path d="M302.258 130.814C302.258 135.085 299.026 136.825 295.083 134.69C291.139 132.554 291.126 129.073 295.083 126.95C299.039 124.827 302.258 126.555 302.258 130.814Z" fill="white"/>
<path d="M291.614 115.396C294.595 117.001 294.595 119.63 291.614 121.235C288.633 122.839 286.219 121.531 286.219 118.322C286.219 115.112 288.646 113.791 291.614 115.396Z" fill="white"/>
<path d="M275.602 93.313C275.602 94.3869 274.784 94.819 273.795 94.2882C273.579 94.2189 273.392 94.0882 273.259 93.9145C273.127 93.7408 273.055 93.5326 273.055 93.3192C273.055 93.1057 273.127 92.8976 273.259 92.7239C273.392 92.5502 273.579 92.4195 273.795 92.3502C274.784 91.8071 275.602 92.2514 275.602 93.313Z" fill="white"/>
<path d="M243.812 92.894C243.91 92.9213 243.996 92.9775 244.057 93.0542C244.118 93.131 244.151 93.2241 244.151 93.3198C244.151 93.4155 244.118 93.5087 244.057 93.5854C243.996 93.6621 243.91 93.7184 243.812 93.7457C243.377 93.9802 243.021 93.7457 243.021 93.3136C243.021 92.8816 243.377 92.6471 243.812 92.894Z" fill="white"/>
<path d="M228.301 93.3149C228.301 93.4754 228.182 93.5371 228.037 93.4631C227.892 93.389 227.892 93.2532 228.037 93.1792C228.182 93.1051 228.301 93.1668 228.301 93.3149Z" fill="white"/>
<path d="M182.006 118.323C182.006 118.459 181.9 118.508 181.782 118.446C181.663 118.385 181.65 118.261 181.782 118.2C181.914 118.138 182.006 118.187 182.006 118.323Z" fill="white"/>
<path d="M174.461 130.31C174.574 130.347 174.673 130.417 174.742 130.509C174.811 130.6 174.849 130.71 174.849 130.822C174.849 130.935 174.811 131.044 174.742 131.136C174.673 131.228 174.574 131.297 174.461 131.335C173.933 131.619 173.511 131.335 173.511 130.816C173.511 130.298 173.933 130.026 174.461 130.31Z" fill="white"/>
<path d="M160.007 155.823C160.007 156.971 159.136 157.44 158.081 156.86C157.847 156.788 157.643 156.648 157.498 156.461C157.354 156.273 157.276 156.048 157.276 155.817C157.276 155.586 157.354 155.361 157.498 155.174C157.643 154.986 157.847 154.847 158.081 154.774C159.136 154.206 160.007 154.675 160.007 155.823Z" fill="white"/>
<path d="M174.74 179.844C174.961 179.911 175.153 180.041 175.289 180.216C175.426 180.392 175.499 180.603 175.499 180.82C175.499 181.036 175.426 181.248 175.289 181.423C175.153 181.598 174.961 181.728 174.74 181.795C173.751 182.338 172.946 181.894 172.946 180.82C172.946 179.746 173.751 179.314 174.74 179.844Z" fill="white"/>
<path d="M183.009 193.323C183.009 194.36 182.231 194.78 181.268 194.261C181.057 194.197 180.873 194.071 180.743 193.902C180.612 193.734 180.542 193.531 180.542 193.323C180.542 193.115 180.612 192.913 180.743 192.744C180.873 192.576 181.057 192.45 181.268 192.385C182.231 191.867 183.009 192.286 183.009 193.323Z" fill="white"/>
<path d="M302.824 205.83C302.824 210.533 299.25 212.47 294.91 210.113C290.571 207.755 290.558 203.941 294.91 201.546C299.263 199.151 302.824 201.114 302.824 205.83Z" fill="white"/>
<path d="M316.094 175.733C321.264 178.535 321.264 183.139 316.094 185.904C310.923 188.669 306.689 186.41 306.689 180.819C306.689 175.227 310.923 172.943 316.094 175.733Z" fill="white"/>
<path d="M327.016 168.327C327.016 173.98 322.729 176.288 317.493 173.462C312.256 170.635 312.217 166.055 317.493 163.179C322.768 160.303 327.016 162.661 327.016 168.327Z" fill="white"/>
<path d="M326.725 143.318C326.725 148.725 322.636 150.935 317.637 148.256C312.638 145.577 312.638 141.133 317.637 138.381C322.636 135.628 326.725 137.924 326.725 143.318Z" fill="white"/>
<path d="M315.449 126.691C319.656 128.963 319.656 132.678 315.449 134.95C311.241 137.221 307.799 135.369 307.799 130.814C307.799 126.259 311.294 124.408 315.449 126.691Z" fill="white"/>
<path d="M300.122 105.818C300.122 108.126 298.368 109.064 296.244 107.916C294.121 106.768 294.107 104.88 296.244 103.719C298.381 102.559 300.122 103.509 300.122 105.818Z" fill="white"/>
<path d="M290.534 92.1785C290.776 92.2715 290.983 92.4297 291.128 92.633C291.274 92.8363 291.352 93.0755 291.352 93.3203C291.352 93.565 291.274 93.8043 291.128 94.0076C290.983 94.2109 290.776 94.3691 290.534 94.462C289.36 95.0916 288.41 94.5732 288.41 93.3141C288.41 92.055 289.36 91.5489 290.534 92.1785Z" fill="white"/>
<path d="M266.989 80.3031C267.096 80.3394 267.189 80.4056 267.254 80.4928C267.319 80.5801 267.354 80.6841 267.354 80.7907C267.354 80.8973 267.319 81.0013 267.254 81.0886C267.189 81.1758 267.096 81.242 266.989 81.2783C266.488 81.5375 266.092 81.2783 266.092 80.7969C266.092 80.3155 266.488 80.0686 266.989 80.3031Z" fill="white"/>
<path d="M251.647 80.8209C251.647 81.1665 251.384 81.3023 251.067 81.1295C250.751 80.9567 250.737 80.6728 251.067 80.5C251.397 80.3272 251.647 80.4629 251.647 80.8209Z" fill="white"/>
<path d="M159.266 130.816C159.266 131.31 158.896 131.508 158.448 131.261C157.999 131.014 157.999 130.619 158.448 130.384C158.896 130.15 159.266 130.335 159.266 130.816Z" fill="white"/>
<path d="M151.485 142.553C152.276 142.972 152.276 143.664 151.485 144.096C150.693 144.528 150.047 144.17 150.047 143.318C150.047 142.466 150.693 142.121 151.485 142.553Z" fill="white"/>
<path d="M151.483 167.551C151.656 167.606 151.805 167.71 151.911 167.848C152.017 167.986 152.074 168.152 152.074 168.323C152.074 168.493 152.017 168.659 151.911 168.797C151.805 168.936 151.656 169.039 151.483 169.094C150.692 169.526 150.046 169.181 150.046 168.329C150.046 167.477 150.692 167.119 151.483 167.551Z" fill="white"/>
<path d="M159.504 180.819C159.504 181.522 158.976 181.819 158.317 181.461C158.191 181.407 158.084 181.32 158.009 181.21C157.934 181.101 157.894 180.974 157.894 180.844C157.894 180.714 157.934 180.586 158.009 180.477C158.084 180.367 158.191 180.281 158.317 180.226C158.976 179.831 159.504 180.115 159.504 180.819Z" fill="white"/>
<path d="M174.316 205.446C174.401 205.471 174.476 205.521 174.529 205.589C174.582 205.657 174.61 205.738 174.61 205.822C174.61 205.906 174.582 205.988 174.529 206.055C174.476 206.123 174.401 206.173 174.316 206.199C173.933 206.396 173.63 206.199 173.63 205.828C173.63 205.458 173.986 205.248 174.316 205.446Z" fill="white"/>
<path d="M315.961 200.94C320.934 203.631 320.934 208.025 315.961 210.704C310.988 213.383 306.939 211.185 306.939 205.828C306.939 200.471 311.002 198.261 315.961 200.94Z" fill="white"/>
<path d="M326.962 193.324C326.962 198.94 322.715 201.236 317.518 198.434C312.321 195.632 312.321 191.028 317.518 188.213C322.715 185.399 326.962 187.695 326.962 193.324Z" fill="white"/>
<path d="M339.281 163.156C344.557 165.995 344.557 170.649 339.281 173.488C334.005 176.327 329.719 174.007 329.719 168.328C329.719 162.65 334.019 160.317 339.281 163.156Z" fill="white"/>
<path d="M350.242 155.823C350.242 161.563 345.89 163.908 340.587 161.044C335.285 158.181 335.311 153.478 340.587 150.602C345.863 147.725 350.242 150.083 350.242 155.823Z" fill="white"/>
<path d="M339.189 138.318C344.307 141.083 344.307 145.613 339.189 148.366C334.071 151.119 329.89 148.872 329.89 143.342C329.89 137.812 334.071 135.529 339.189 138.318Z" fill="white"/>
<path d="M324.997 118.323C324.997 122.174 322.069 123.754 318.508 121.829C314.946 119.903 314.933 116.743 318.508 114.817C322.082 112.892 324.997 114.459 324.997 118.323Z" fill="white"/>
<path d="M314.431 103.422C316.871 104.743 316.871 106.891 314.431 108.212C311.991 109.533 309.999 108.446 309.999 105.817C309.999 103.188 311.991 102.102 314.431 103.422Z" fill="white"/>
<path d="M298.616 80.8208C298.616 81.7836 297.878 82.1787 296.994 81.6973C296.8 81.6318 296.632 81.512 296.513 81.354C296.395 81.1961 296.331 81.0077 296.331 80.8146C296.331 80.6216 296.395 80.4333 296.513 80.2754C296.632 80.1174 296.8 79.9975 296.994 79.9321C297.878 79.4507 298.616 79.8457 298.616 80.8208Z" fill="white"/>
<path d="M290.268 67.5901C290.433 67.6398 290.577 67.7371 290.678 67.8679C290.78 67.9988 290.835 68.1565 290.835 68.3183C290.835 68.4802 290.78 68.6379 290.678 68.7688C290.577 68.8997 290.433 68.9969 290.268 69.0467C289.53 69.454 288.95 69.1207 288.95 68.3183C288.95 67.516 289.53 67.1827 290.268 67.5901Z" fill="white"/>
<path d="M274.928 68.3174C274.928 68.7865 274.572 68.9716 274.136 68.7371C274.038 68.7098 273.952 68.6535 273.891 68.5768C273.83 68.5001 273.797 68.4069 273.797 68.3112C273.797 68.2155 273.83 68.1224 273.891 68.0456C273.952 67.9689 274.038 67.9127 274.136 67.8854C274.558 67.6508 274.928 67.8483 274.928 68.3174Z" fill="white"/>
<path d="M243.618 68.2059C243.64 68.216 243.659 68.2318 243.672 68.2514C243.685 68.2711 243.692 68.2938 243.692 68.317C243.692 68.3401 243.685 68.3628 243.672 68.3825C243.659 68.4021 243.64 68.418 243.618 68.4281C243.598 68.4372 243.576 68.4413 243.553 68.4402C243.531 68.4391 243.509 68.4327 243.49 68.4216C243.472 68.4105 243.456 68.3951 243.445 68.3768C243.434 68.3585 243.429 68.3379 243.429 68.317C243.429 68.296 243.434 68.2755 243.445 68.2572C243.456 68.2389 243.472 68.2235 243.49 68.2124C243.509 68.2013 243.531 68.1948 243.553 68.1937C243.576 68.1926 243.598 68.1968 243.618 68.2059Z" fill="white"/>
<path d="M197.345 68.1936C197.477 68.2676 197.477 68.3664 197.345 68.4405C197.214 68.5145 197.134 68.4404 197.134 68.317C197.134 68.1935 197.227 68.1318 197.345 68.1936Z" fill="white"/>
<path d="M181.979 68.3168C181.979 68.4279 181.9 68.4773 181.795 68.4156C181.689 68.3539 181.676 68.2675 181.795 68.2058C181.914 68.144 181.979 68.2057 181.979 68.3168Z" fill="white"/>
<path d="M151.129 193.113C151.34 193.224 151.34 193.409 151.129 193.532C150.918 193.656 150.76 193.532 150.76 193.322C150.76 193.112 150.931 193.001 151.129 193.113Z" fill="white"/>
<path d="M339.321 188.101C344.597 190.965 344.597 195.681 339.321 198.544C334.045 201.408 329.64 199.075 329.64 193.323C329.64 187.571 333.993 185.225 339.321 188.101Z" fill="white"/>
<path d="M350.269 180.819C350.269 186.584 345.903 188.954 340.574 186.065C335.245 183.177 335.232 178.461 340.574 175.573C345.916 172.685 350.269 175.055 350.269 180.819Z" fill="white"/>
<path d="M362.496 150.516C367.891 153.442 367.891 158.206 362.496 161.119C357.101 164.033 352.683 161.65 352.683 155.824C352.683 149.998 357.101 147.603 362.496 150.516Z" fill="white"/>
<path d="M349.478 130.815C349.478 135.876 345.652 137.949 340.97 135.419C336.288 132.888 336.288 128.753 340.97 126.223C345.652 123.692 349.478 125.766 349.478 130.815Z" fill="white"/>
<path d="M338.436 114.509C342.314 116.607 342.314 120.039 338.436 122.125C334.559 124.211 331.393 122.508 331.393 118.323C331.393 114.138 334.559 112.398 338.436 114.509Z" fill="white"/>
<path d="M322.715 93.3135C322.715 95.1528 321.396 95.8934 319.642 94.98C319.271 94.8625 318.948 94.6391 318.72 94.3412C318.492 94.0434 318.369 93.6862 318.369 93.3197C318.369 92.9532 318.492 92.596 318.72 92.2981C318.948 92.0003 319.271 91.777 319.642 91.6595C321.33 90.7337 322.715 91.4866 322.715 93.3135Z" fill="white"/>
<path d="M313.655 79.6986C313.882 79.7983 314.073 79.9563 314.208 80.1542C314.342 80.352 314.413 80.5814 314.413 80.8157C314.413 81.05 314.342 81.2795 314.208 81.4774C314.073 81.6752 313.882 81.8332 313.655 81.9329C312.508 82.5501 311.571 82.0439 311.571 80.8219C311.571 79.5999 312.508 79.0691 313.655 79.6986Z" fill="white"/>
<path d="M350.479 205.828C350.479 211.777 345.969 214.209 340.468 211.234C334.968 208.259 334.955 203.383 340.468 200.409C345.982 197.434 350.479 199.865 350.479 205.828Z" fill="white"/>
<path d="M362.444 175.597C367.72 178.474 367.72 183.177 362.444 186.04C357.168 188.904 352.789 186.559 352.789 180.819C352.789 175.079 357.129 172.734 362.444 175.597Z" fill="white"/>
<path d="M373.481 168.329C373.481 174.106 369.102 176.476 363.747 173.575C358.392 170.674 358.392 165.959 363.747 163.07C369.102 160.182 373.481 162.539 373.481 168.329Z" fill="white"/>
<path d="M373.481 143.32C373.481 149.183 369.05 151.59 363.615 148.652C358.181 145.715 358.194 140.925 363.615 137.987C369.036 135.049 373.481 137.456 373.481 143.32Z" fill="white"/>
<path d="M362.205 125.976C367.111 128.63 367.111 132.963 362.205 135.617C357.298 138.271 353.275 136.098 353.275 130.79C353.275 125.482 357.298 123.347 362.205 125.976Z" fill="white"/>
<path d="M347.765 105.819C347.765 109.349 345.127 110.756 341.829 109.028C338.532 107.3 338.558 104.375 341.829 102.609C345.1 100.844 347.765 102.288 347.765 105.819Z" fill="white"/>
<path d="M337.371 91.2405C339.495 92.3885 339.495 94.2524 337.371 95.4004C335.248 96.5484 333.533 95.6103 333.533 93.3143C333.533 91.0183 335.234 90.0926 337.371 91.2405Z" fill="white"/>
<path d="M322.332 68.3177C322.332 69.799 321.211 70.4162 319.839 69.6632C319.538 69.5685 319.276 69.3877 319.091 69.1463C318.906 68.9049 318.806 68.615 318.806 68.3177C318.806 68.0204 318.906 67.7307 319.091 67.4893C319.276 67.2479 319.538 67.0671 319.839 66.9723C321.211 66.2193 322.332 66.8365 322.332 68.3177Z" fill="white"/>
<path d="M362.523 200.483C367.957 203.421 367.957 208.235 362.523 211.173C357.089 214.111 352.631 211.704 352.631 205.828C352.631 199.952 357.089 197.57 362.523 200.483Z" fill="white"/>
<path d="M373.311 193.323C373.311 199.001 369.011 201.322 363.748 198.483C358.485 195.644 358.472 191.002 363.748 188.163C369.024 185.324 373.311 187.694 373.311 193.323Z" fill="white"/>
<path d="M361.403 102.3C364.978 104.238 364.978 107.398 361.403 109.336C357.829 111.274 354.887 109.682 354.887 105.818C354.887 101.954 357.816 100.374 361.403 102.3Z" fill="white"/>
<path d="M345.931 80.8214C345.931 82.71 344.493 83.4877 342.739 82.5372C340.984 81.5867 340.984 80.0684 342.739 79.0933C344.493 78.1181 345.931 78.9204 345.931 80.8214Z" fill="white"/>
<path d="M337.038 66.7248C337.383 66.8342 337.682 67.0419 337.894 67.3187C338.106 67.5954 338.22 67.9273 338.22 68.2678C338.22 68.6083 338.106 68.9402 337.894 69.217C337.682 69.4937 337.383 69.7014 337.038 69.8108C335.469 70.6625 334.189 69.9713 334.189 68.2678C334.189 66.5644 335.469 65.9225 337.038 66.7248Z" fill="white"/>
<path d="M360.373 78.9581C362.26 79.9827 362.26 81.6491 360.373 82.6613C358.487 83.6735 356.944 82.8465 356.944 80.8097C356.944 78.773 358.487 77.9459 360.373 78.9581Z" fill="white"/>
</g>
</g>
<defs>
<linearGradient id="paint0_linear_536_2866" x1="360" y1="97.56" x2="9.45895" y2="115.215" gradientUnits="userSpaceOnUse">
<stop stop-color="#E0055F"/>
<stop offset="1" stop-color="#2020ED"/>
</linearGradient>
<clipPath id="clip0_536_2866">
<path d="M359.521 26.7617C359.521 21.9227 355.598 18 350.759 18H117.902C113.063 18 109.141 21.9227 109.141 26.7617V208H359.521V26.7617Z" fill="white"/>
</clipPath>
</defs>
</svg>
