<svg width="140" height="16" viewBox="0 0 140 16" fill="none" xmlns="http://www.w3.org/2000/svg">
<path d="M10.02 15V0.999999H12.34V15H10.02ZM0.66 15V0.999999H2.98V15H0.66ZM2.48 8.88V6.76H10.96V8.88H2.48ZM21.94 15L21.82 13.16V5H24.04V15H21.94ZM15.02 10.12V5H17.26V10.12H15.02ZM17.26 10.12C17.26 10.9067 17.3533 11.52 17.54 11.96C17.7267 12.4 17.98 12.7067 18.3 12.88C18.6333 13.0533 19.0133 13.14 19.44 13.14C20.2 13.1533 20.7867 12.9067 21.2 12.4C21.6133 11.8933 21.82 11.1667 21.82 10.22H22.66C22.66 11.2733 22.5 12.18 22.18 12.94C21.8733 13.6867 21.4333 14.26 20.86 14.66C20.3 15.0467 19.62 15.24 18.82 15.24C18.0333 15.24 17.3533 15.08 16.78 14.76C16.22 14.44 15.7867 13.94 15.48 13.26C15.1733 12.58 15.02 11.7067 15.02 10.64V10.12H17.26ZM30.1691 15.24C29.5024 15.24 28.8891 15.14 28.3291 14.94C27.7691 14.74 27.2891 14.46 26.8891 14.1C26.4891 13.7267 26.1824 13.2933 25.9691 12.8L27.9091 11.94C28.1091 12.3133 28.4024 12.6267 28.7891 12.88C29.1891 13.1333 29.6291 13.26 30.1091 13.26C30.6291 13.26 31.0424 13.1733 31.3491 13C31.6691 12.8133 31.8291 12.56 31.8291 12.24C31.8291 11.9333 31.7091 11.7 31.4691 11.54C31.2291 11.3667 30.8891 11.2267 30.4491 11.12L29.5091 10.86C28.5624 10.62 27.8224 10.24 27.2891 9.72C26.7557 9.18667 26.4891 8.58 26.4891 7.9C26.4891 6.9 26.8091 6.12667 27.4491 5.58C28.1024 5.03333 29.0357 4.76 30.2491 4.76C30.8624 4.76 31.4224 4.85333 31.9291 5.04C32.4491 5.21333 32.8957 5.46667 33.2691 5.8C33.6424 6.12 33.9024 6.5 34.0491 6.94L32.1891 7.78C32.0557 7.44667 31.8024 7.19333 31.4291 7.02C31.0557 6.83333 30.6424 6.74 30.1891 6.74C29.7357 6.74 29.3824 6.84 29.1291 7.04C28.8757 7.22667 28.7491 7.49333 28.7491 7.84C28.7491 8.04 28.8624 8.22667 29.0891 8.4C29.3157 8.56 29.6424 8.69333 30.0691 8.8L31.2491 9.08C31.9024 9.24 32.4357 9.49333 32.8491 9.84C33.2624 10.1733 33.5691 10.5533 33.7691 10.98C33.9691 11.3933 34.0691 11.8133 34.0691 12.24C34.0691 12.84 33.8957 13.3667 33.5491 13.82C33.2157 14.2733 32.7557 14.6267 32.1691 14.88C31.5824 15.12 30.9157 15.24 30.1691 15.24ZM35.8655 15V0.999999H38.1055V15H35.8655ZM42.6455 15V9.88H44.8855V15H42.6455ZM42.6455 9.88C42.6455 9.08 42.5521 8.46667 42.3655 8.04C42.1788 7.6 41.9188 7.29333 41.5855 7.12C41.2655 6.94667 40.8921 6.86 40.4655 6.86C39.7055 6.84667 39.1188 7.09333 38.7055 7.6C38.3055 8.10667 38.1055 8.83333 38.1055 9.78H37.2455C37.2455 8.72667 37.3988 7.82667 37.7055 7.08C38.0255 6.32 38.4721 5.74667 39.0455 5.36C39.6188 4.96 40.2988 4.76 41.0855 4.76C41.8721 4.76 42.5521 4.92 43.1255 5.24C43.6988 5.56 44.1321 6.06 44.4255 6.74C44.7321 7.40667 44.8855 8.28 44.8855 9.36V9.88H42.6455ZM47.1741 15V0.999999H49.4141V15H47.1741ZM53.9541 15V9.88H56.1941V15H53.9541ZM53.9541 9.88C53.9541 9.08 53.8607 8.46667 53.6741 8.04C53.4874 7.6 53.2274 7.29333 52.8941 7.12C52.5741 6.94667 52.2007 6.86 51.7741 6.86C51.0141 6.84667 50.4274 7.09333 50.0141 7.6C49.6141 8.10667 49.4141 8.83333 49.4141 9.78H48.5541C48.5541 8.72667 48.7074 7.82667 49.0141 7.08C49.3341 6.32 49.7807 5.74667 50.3541 5.36C50.9274 4.96 51.6074 4.76 52.3941 4.76C53.1807 4.76 53.8607 4.92 54.4341 5.24C55.0074 5.56 55.4407 6.06 55.7341 6.74C56.0407 7.40667 56.1941 8.28 56.1941 9.36V9.88H53.9541ZM69.7669 15.24C68.4202 15.24 67.2202 14.9333 66.1669 14.32C65.1269 13.6933 64.3069 12.84 63.7069 11.76C63.1202 10.6667 62.8269 9.41333 62.8269 8C62.8269 6.58667 63.1202 5.34 63.7069 4.26C64.3069 3.16667 65.1269 2.31333 66.1669 1.7C67.2069 1.07333 68.4002 0.76 69.7469 0.76C70.6535 0.76 71.5069 0.926666 72.3069 1.26C73.1069 1.58 73.8135 2.02667 74.4269 2.6C75.0535 3.17333 75.5335 3.84 75.8669 4.6L73.7469 5.46C73.5069 4.95333 73.1802 4.50667 72.7669 4.12C72.3669 3.72 71.9069 3.41333 71.3869 3.2C70.8669 2.98667 70.3202 2.88 69.7469 2.88C68.8669 2.88 68.0802 3.1 67.3869 3.54C66.7069 3.98 66.1669 4.58667 65.7669 5.36C65.3802 6.12 65.1869 7 65.1869 8C65.1869 9 65.3802 9.88667 65.7669 10.66C66.1669 11.4333 66.7135 12.04 67.4069 12.48C68.1135 12.92 68.9135 13.14 69.8069 13.14C70.3935 13.14 70.9402 13.0267 71.4469 12.8C71.9669 12.56 72.4269 12.2333 72.8269 11.82C73.2402 11.4067 73.5669 10.9267 73.8069 10.38L75.9269 11.24C75.5935 12.0267 75.1202 12.7267 74.5069 13.34C73.8935 13.94 73.1802 14.4067 72.3669 14.74C71.5535 15.0733 70.6869 15.24 69.7669 15.24ZM82.34 15.24C81.34 15.24 80.4467 15.02 79.66 14.58C78.8867 14.1267 78.28 13.5067 77.84 12.72C77.4 11.9333 77.18 11.0267 77.18 10C77.18 8.97333 77.3933 8.06667 77.82 7.28C78.26 6.49333 78.8667 5.88 79.64 5.44C80.4133 4.98667 81.3 4.76 82.3 4.76C83.3 4.76 84.1867 4.98667 84.96 5.44C85.7333 5.88 86.3333 6.49333 86.76 7.28C87.2 8.06667 87.42 8.97333 87.42 10C87.42 11.0267 87.2067 11.9333 86.78 12.72C86.3533 13.5067 85.7533 14.1267 84.98 14.58C84.2067 15.02 83.3267 15.24 82.34 15.24ZM82.34 13.18C82.8867 13.18 83.3733 13.0467 83.8 12.78C84.2267 12.5 84.56 12.1267 84.8 11.66C85.04 11.18 85.16 10.6267 85.16 10C85.16 9.37333 85.0333 8.82667 84.78 8.36C84.54 7.88 84.2067 7.50667 83.78 7.24C83.3533 6.96 82.86 6.82 82.3 6.82C81.74 6.82 81.2467 6.95333 80.82 7.22C80.3933 7.48667 80.06 7.86 79.82 8.34C79.58 8.82 79.46 9.37333 79.46 10C79.46 10.6267 79.58 11.18 79.82 11.66C80.0733 12.1267 80.4133 12.5 80.84 12.78C81.28 13.0467 81.78 13.18 82.34 13.18ZM89.3611 15V5H91.4611L91.6011 6.84V15H89.3611ZM96.1411 15V9.88H98.3811V15H96.1411ZM96.1411 9.88C96.1411 9.08 96.0478 8.46667 95.8611 8.04C95.6878 7.6 95.4344 7.29333 95.1011 7.12C94.7811 6.94667 94.4011 6.86 93.9611 6.86C93.2144 6.84667 92.6344 7.09333 92.2211 7.6C91.8078 8.10667 91.6011 8.83333 91.6011 9.78H90.7611C90.7611 8.72667 90.9144 7.82667 91.2211 7.08C91.5278 6.32 91.9678 5.74667 92.5411 5.36C93.1144 4.96 93.7944 4.76 94.5811 4.76C95.3811 4.76 96.0611 4.92 96.6211 5.24C97.1944 5.56 97.6278 6.06 97.9211 6.74C98.2278 7.40667 98.3811 8.28 98.3811 9.36V9.88H96.1411ZM100.65 15V5H102.75L102.89 6.84V15H100.65ZM107.43 15V9.88H109.67V15H107.43ZM107.43 9.88C107.43 9.08 107.337 8.46667 107.15 8.04C106.977 7.6 106.723 7.29333 106.39 7.12C106.07 6.94667 105.69 6.86 105.25 6.86C104.503 6.84667 103.923 7.09333 103.51 7.6C103.097 8.10667 102.89 8.83333 102.89 9.78H102.05C102.05 8.72667 102.203 7.82667 102.51 7.08C102.817 6.32 103.257 5.74667 103.83 5.36C104.403 4.96 105.083 4.76 105.87 4.76C106.67 4.76 107.35 4.92 107.91 5.24C108.483 5.56 108.917 6.06 109.21 6.74C109.517 7.40667 109.67 8.28 109.67 9.36V9.88H107.43ZM116.399 15.24C115.426 15.24 114.559 15.02 113.799 14.58C113.053 14.1267 112.459 13.5067 112.019 12.72C111.593 11.9333 111.379 11.0267 111.379 10C111.379 8.97333 111.599 8.06667 112.039 7.28C112.479 6.49333 113.079 5.88 113.839 5.44C114.613 4.98667 115.493 4.76 116.479 4.76C117.373 4.76 118.179 4.99333 118.899 5.46C119.619 5.91333 120.186 6.57333 120.599 7.44C121.026 8.30667 121.239 9.34 121.239 10.54H113.379L113.679 10.26C113.679 10.8733 113.813 11.4067 114.079 11.86C114.346 12.3 114.699 12.64 115.139 12.88C115.579 13.12 116.066 13.24 116.599 13.24C117.213 13.24 117.719 13.1067 118.119 12.84C118.519 12.56 118.833 12.2 119.059 11.76L121.039 12.6C120.759 13.1333 120.399 13.6 119.959 14C119.533 14.4 119.019 14.7067 118.419 14.92C117.833 15.1333 117.159 15.24 116.399 15.24ZM113.819 9.1L113.499 8.82H119.139L118.839 9.1C118.839 8.55333 118.719 8.10667 118.479 7.76C118.239 7.4 117.933 7.13333 117.559 6.96C117.199 6.77333 116.819 6.68 116.419 6.68C116.019 6.68 115.619 6.77333 115.219 6.96C114.819 7.13333 114.486 7.4 114.219 7.76C113.953 8.10667 113.819 8.55333 113.819 9.1ZM127.635 15.24C126.608 15.24 125.702 15.02 124.915 14.58C124.128 14.1267 123.508 13.5067 123.055 12.72C122.615 11.9333 122.395 11.0267 122.395 10C122.395 8.97333 122.615 8.06667 123.055 7.28C123.508 6.49333 124.122 5.88 124.895 5.44C125.682 4.98667 126.582 4.76 127.595 4.76C128.582 4.76 129.475 5 130.275 5.48C131.075 5.94667 131.668 6.62 132.055 7.5L129.975 8.3C129.762 7.86 129.435 7.50667 128.995 7.24C128.555 6.97333 128.055 6.84 127.495 6.84C126.948 6.84 126.462 6.98 126.035 7.26C125.608 7.52667 125.275 7.9 125.035 8.38C124.795 8.84667 124.675 9.38667 124.675 10C124.675 10.6133 124.795 11.16 125.035 11.64C125.288 12.1067 125.628 12.48 126.055 12.76C126.495 13.0267 126.988 13.16 127.535 13.16C128.095 13.16 128.595 13.02 129.035 12.74C129.475 12.4467 129.802 12.0533 130.015 11.56L132.095 12.36C131.708 13.2667 131.115 13.9733 130.315 14.48C129.528 14.9867 128.635 15.24 127.635 15.24ZM137.814 15.24C136.76 15.24 135.954 14.98 135.394 14.46C134.847 13.9267 134.574 13.1667 134.574 12.18V1.88H136.794V11.76C136.794 12.2267 136.9 12.58 137.114 12.82C137.34 13.06 137.667 13.18 138.094 13.18C138.227 13.18 138.374 13.1533 138.534 13.1C138.694 13.0467 138.874 12.9467 139.074 12.8L139.894 14.5C139.547 14.74 139.2 14.92 138.854 15.04C138.507 15.1733 138.16 15.24 137.814 15.24ZM132.914 6.92V5H139.494V6.92H132.914Z" fill="url(#paint0_linear_209_298)"/>
<defs>
<linearGradient id="paint0_linear_209_298" x1="141" y1="4.64" x2="9.02137" y2="34.2454" gradientUnits="userSpaceOnUse">
<stop stop-color="#E0055F"/>
<stop offset="1" stop-color="#2020ED"/>
</linearGradient>
</defs>
</svg>
