<svg width="27" height="26" viewBox="0 0 27 26" fill="none" xmlns="http://www.w3.org/2000/svg">
<path d="M13.2608 25.7008C20.276 25.7008 25.9629 20.0144 25.9629 12.9999C25.9629 5.98543 20.276 0.299072 13.2608 0.299072C6.24555 0.299072 0.558594 5.98543 0.558594 12.9999C0.558594 20.0144 6.24555 25.7008 13.2608 25.7008Z" fill="#151515"/>
<path d="M13.2628 25.8502C12.3909 25.8502 11.5195 25.7623 10.6729 25.5891C9.84768 25.4202 9.03595 25.1683 8.26031 24.8403C7.49878 24.5182 6.76425 24.1195 6.07721 23.6554C5.39671 23.1957 4.75682 22.6678 4.1753 22.0863C3.59378 21.5049 3.06582 20.8651 2.60609 20.1846C2.14192 19.4977 1.74324 18.7632 1.42115 18.0018C1.09306 17.2262 0.841084 16.4146 0.672236 15.5894C0.498978 14.7429 0.411133 13.8716 0.411133 12.9998C0.411133 12.128 0.498978 11.2567 0.672236 10.4101C0.841084 9.58501 1.09306 8.77337 1.42115 7.9978C1.74324 7.23635 2.14192 6.5019 2.60609 5.81492C3.06582 5.13449 3.59378 4.49469 4.1753 3.91322C4.75682 3.33175 5.39671 2.80383 6.07721 2.34416C6.76428 1.88005 7.49878 1.4814 8.26031 1.15932C9.03599 0.831281 9.84768 0.579336 10.6729 0.410481C11.5196 0.237247 12.3909 0.149414 13.2628 0.149414C14.1347 0.149414 15.0061 0.237247 15.8527 0.410481C16.6779 0.579336 17.4896 0.831281 18.2653 1.15932C19.0268 1.4814 19.7613 1.88002 20.4484 2.34416C21.1289 2.80386 21.7688 3.33178 22.3503 3.91322C22.9319 4.49469 23.4598 5.13452 23.9195 5.81492C24.3837 6.5019 24.7824 7.23635 25.1045 7.9978C25.4325 8.77337 25.6845 9.58501 25.8534 10.4101C26.0266 11.2567 26.1145 12.128 26.1145 12.9998C26.1145 13.8716 26.0266 14.7429 25.8534 15.5894C25.6845 16.4146 25.4325 17.2262 25.1045 18.0018C24.7824 18.7633 24.3837 19.4977 23.9195 20.1846C23.4598 20.8651 22.9318 21.5049 22.3503 22.0863C21.7688 22.6678 21.1289 23.1957 20.4484 23.6554C19.7613 24.1195 19.0268 24.5181 18.2653 24.8403C17.4896 25.1683 16.6779 25.4202 15.8527 25.5891C15.006 25.7623 14.1347 25.8502 13.2628 25.8502ZM13.2628 0.448438C6.34127 0.448438 0.710198 6.07893 0.710198 12.9997C0.710198 19.9206 6.34127 25.5511 13.2628 25.5511C20.1843 25.5511 25.8154 19.9206 25.8154 12.9997C25.8154 6.07893 20.1843 0.448438 13.2628 0.448438Z" fill="#151515"/>
<path d="M7.71094 20.0039C11.4333 15.3424 15.1556 10.681 18.8779 6.01953Z" fill="#151515"/>
<path d="M8.03365 20.2534L7.38965 19.7393L16.6834 8.10065L18.5566 5.75488L19.2006 6.26903L17.3274 8.6148L8.03365 20.2534Z" fill="white"/>
<path d="M5.9209 6.11987C7.00507 6.11987 8.08924 6.11987 9.17341 6.11987C12.9861 10.691 16.7987 15.2621 20.6114 19.8332C19.4731 19.8513 18.3347 19.8694 17.1963 19.8874C13.4378 15.2983 9.67938 10.7091 5.9209 6.11987Z" fill="#151515"/>
<path d="M17.0036 20.2998L5.05078 5.70508H9.36617L21.48 20.2287L17.0036 20.2998ZM6.79075 6.52906L17.3888 19.4695L19.7426 19.4322L8.98039 6.52906H6.79075Z" fill="white"/>
</svg>
