<svg width="58" height="58" viewBox="0 0 58 58" fill="none" xmlns="http://www.w3.org/2000/svg">
<rect x="10.2712" y="19.9374" width="37.4583" height="37.4583" rx="18.7292" fill="white"/>
<rect x="10.2712" y="19.9374" width="37.4583" height="37.4583" rx="18.7292" stroke="#E9E9F2" stroke-width="1.20833"/>
<path fill-rule="evenodd" clip-rule="evenodd" d="M34.9299 32.7366C33.9877 31.7943 32.9599 31.9992 32.5782 32.1189L32.5733 32.1204C32.5712 32.1211 32.5691 32.122 32.5672 32.1232V32.1232V32.1232C32.5657 32.1241 32.5643 32.1252 32.5631 32.1264C32.5618 32.1276 32.5603 32.1291 32.5586 32.1307L32.5307 32.1585V32.1585C32.1368 32.5524 31.9399 32.7494 31.848 32.9686C31.7228 33.2674 31.7228 33.6039 31.848 33.9026C31.9399 34.1219 32.1368 34.3189 32.5307 34.7128L32.9537 35.1358C33.3476 35.5297 33.5446 35.7267 33.7639 35.8186C34.0626 35.9437 34.3991 35.9437 34.6979 35.8186C34.9172 35.7267 35.1141 35.5297 35.5081 35.1358V35.1358L35.5358 35.1079C35.5375 35.1062 35.5389 35.1047 35.5402 35.1035C35.5414 35.1022 35.5424 35.1009 35.5433 35.0994V35.0994V35.0994C35.5445 35.0974 35.5454 35.0954 35.5461 35.0932L35.5476 35.0884C35.6674 34.7067 35.8722 33.6788 34.9299 32.7366ZM31.8714 38.7725C32.3499 38.2939 32.5892 38.0547 32.6788 37.7788C32.7577 37.5361 32.7577 37.2747 32.6788 37.032C32.5892 36.7561 32.3499 36.5168 31.8714 36.0383L31.6282 35.7952C31.1497 35.3166 30.9104 35.0774 30.6345 34.9877C30.3918 34.9089 30.1304 34.9089 29.8877 34.9877C29.6118 35.0774 29.3726 35.3166 28.8941 35.7952L22.8442 41.845C22.7896 41.8996 22.7627 41.9267 22.7438 41.9471V41.9471C22.7429 41.9481 22.7423 41.9493 22.7421 41.9506V41.9506C22.7377 41.9781 22.733 42.016 22.7238 42.0926L22.399 44.7993C22.3685 45.054 22.3517 45.1994 22.3484 45.3044V45.3044C22.3482 45.3121 22.3544 45.3184 22.3622 45.3181V45.3181C22.4672 45.3149 22.6125 45.2981 22.8673 45.2675L25.5739 44.9427C25.6506 44.9335 25.6885 44.9288 25.7159 44.9244V44.9244C25.7172 44.9242 25.7184 44.9236 25.7194 44.9227V44.9227C25.7398 44.9039 25.7669 44.8769 25.8215 44.8224L31.8714 38.7725ZM32.1581 30.7797C32.7574 30.5917 34.4406 30.2624 35.9224 31.7441C37.4042 33.2259 37.0748 34.9091 36.8868 35.5084C36.8698 35.5628 36.8518 35.6189 36.8088 35.7082C36.7748 35.7791 36.716 35.8761 36.669 35.9391C36.6078 36.0212 36.552 36.0768 36.5081 36.1206C36.5055 36.1232 36.503 36.1257 36.5005 36.1282L26.8139 45.8148C26.807 45.8217 26.8 45.8288 26.7928 45.836C26.7137 45.9155 26.6141 46.0155 26.4942 46.095C26.3902 46.164 26.2775 46.2188 26.159 46.258C26.0225 46.3031 25.8822 46.3196 25.7709 46.3327C25.7607 46.3339 25.7508 46.3351 25.7411 46.3362L23.0088 46.6641C22.789 46.6905 22.5808 46.7155 22.4061 46.721C22.2192 46.7268 21.9896 46.7151 21.7585 46.6109C21.4463 46.4702 21.1963 46.2202 21.0557 45.9081C20.9515 45.6769 20.9397 45.4473 20.9456 45.2604C20.951 45.0857 20.976 44.8775 21.0024 44.6577L21.3303 41.9254C21.3315 41.9157 21.3326 41.9058 21.3338 41.8956C21.347 41.7843 21.3635 41.6441 21.4086 41.5076C21.4477 41.3891 21.5026 41.2763 21.5715 41.1723C21.651 41.0525 21.7511 40.9528 21.8305 40.8738C21.8378 40.8665 21.8449 40.8595 21.8517 40.8526L31.5383 31.166C31.5408 31.1635 31.5433 31.161 31.5459 31.1584C31.5898 31.1145 31.6454 31.0588 31.7275 30.9975C31.7905 30.9505 31.8875 30.8918 31.9583 30.8577C32.0476 30.8147 32.1037 30.7968 32.1581 30.7797Z" fill="#040509"/>
<rect x="10.2712" y="10.2709" width="37.4583" height="37.4583" rx="18.7292" fill="white"/>
<rect x="10.2712" y="10.2709" width="37.4583" height="37.4583" rx="18.7292" stroke="#E9E9F2" stroke-width="1.20833"/>
<path fill-rule="evenodd" clip-rule="evenodd" d="M31.9817 23.9264C30.8264 23.9264 29.8898 24.863 29.8898 26.0183C29.8898 27.1737 30.8264 28.1103 31.9817 28.1103C33.137 28.1103 34.0736 27.1737 34.0736 26.0183C34.0736 24.863 33.137 23.9264 31.9817 23.9264ZM31.0918 26.0183C31.0918 25.5269 31.4902 25.1284 31.9817 25.1284C32.4732 25.1284 32.8716 25.5269 32.8716 26.0183C32.8716 26.5098 32.4732 26.9082 31.9817 26.9082C31.4902 26.9082 31.0918 26.5098 31.0918 26.0183Z" fill="#040509"/>
<path fill-rule="evenodd" clip-rule="evenodd" d="M28.975 20.9446H29.0248C30.2377 20.9446 31.1819 20.9446 31.9412 21.0015C32.712 21.0594 33.3406 21.1784 33.9124 21.4421C35.0808 21.9812 36.0188 22.9192 36.5579 24.0877C36.8217 24.6594 36.9407 25.2881 36.9985 26.0588C37.0555 26.8181 37.0555 27.7623 37.0554 28.9752V29.0251C37.0555 30.238 37.0555 31.1821 36.9985 31.9415C36.9407 32.7122 36.8217 33.3409 36.5579 33.9126C36.0787 34.9513 35.2843 35.8078 34.293 36.3639C34.2857 36.3721 34.2781 36.38 34.2703 36.3879C34.1686 36.4896 34.0394 36.5473 33.9066 36.5608C33.3364 36.8227 32.7094 36.9411 31.9412 36.9987C31.1819 37.0557 30.2378 37.0557 29.0248 37.0557H28.975C27.762 37.0557 26.8179 37.0557 26.0585 36.9987C25.2878 36.9409 24.6591 36.8219 24.0874 36.5581C22.919 36.019 21.981 35.0811 21.4419 33.9126C21.1781 33.3409 21.0591 32.7122 21.0013 31.9415C20.9443 31.1821 20.9443 30.238 20.9443 29.025V28.9752C20.9443 27.7623 20.9443 26.8181 21.0013 26.0588C21.0591 25.2881 21.1781 24.6594 21.4419 24.0877C21.981 22.9192 22.919 21.9812 24.0874 21.4421C24.6591 21.1784 25.2878 21.0594 26.0585 21.0015C26.8179 20.9446 27.762 20.9446 28.975 20.9446ZM35.4455 33.4537C35.1069 34.1656 34.5767 34.7647 33.9192 35.1868L31.7032 32.9707L31.9443 32.7295C32.2688 32.4051 32.4869 32.1877 32.6683 32.0336C32.8443 31.8842 32.9459 31.8301 33.0233 31.805C33.2245 31.7396 33.4412 31.7396 33.6424 31.805C33.7199 31.8301 33.8214 31.8842 33.9974 32.0336C34.1787 32.1876 34.3968 32.4049 34.7211 32.7293L35.4455 33.4537ZM35.7998 31.8515C35.7937 31.9333 35.7869 32.0119 35.7793 32.0876L35.5539 31.8621C35.2512 31.5594 34.9986 31.3068 34.7753 31.1172C34.5425 30.9196 34.3023 30.7555 34.0138 30.6618C33.5712 30.5179 33.0945 30.5179 32.6518 30.6618C32.3633 30.7555 32.1232 30.9196 31.8903 31.1173C31.667 31.3069 31.4143 31.5596 31.1116 31.8623L30.8469 32.127L28.9777 30.3122C28.6748 30.018 28.4217 29.7723 28.1985 29.5882C27.9654 29.3961 27.7258 29.2371 27.4394 29.1473C26.9996 29.0094 26.5276 29.0129 26.0899 29.1573C25.8048 29.2513 25.5676 29.4138 25.3375 29.6093C25.1169 29.7967 24.8675 30.0461 24.569 30.3447L22.2938 32.6199C22.2526 32.3973 22.222 32.1449 22.2 31.8515C22.1468 31.1424 22.1464 30.2432 22.1464 29.0001C22.1464 27.757 22.1468 26.8579 22.2 26.1487C22.2527 25.4458 22.3549 24.9781 22.5334 24.5912C22.9527 23.6825 23.6822 22.9529 24.591 22.5336C24.9779 22.3551 25.4455 22.253 26.1485 22.2002C26.8576 22.147 27.7568 22.1466 28.9999 22.1466C30.243 22.1466 31.1422 22.147 31.8513 22.2002C32.5543 22.253 33.0219 22.3551 33.4088 22.5336C34.3176 22.9529 35.0471 23.6825 35.4664 24.5912C35.6449 24.9781 35.7471 25.4458 35.7998 26.1487C35.853 26.8579 35.8534 27.757 35.8534 29.0001C35.8534 30.2432 35.853 31.1424 35.7998 31.8515ZM24.591 35.4667C23.8331 35.117 23.1999 34.5516 22.7673 33.8463L25.4018 31.2118C25.7219 30.8917 25.937 30.6773 26.1158 30.5253C26.2893 30.3779 26.3896 30.3241 26.4664 30.2988C26.6654 30.2332 26.8799 30.2316 27.0798 30.2943C27.157 30.3185 27.258 30.3707 27.4337 30.5156C27.6148 30.6649 27.833 30.8761 28.1578 31.1915L30.4313 33.3988L32.7192 35.6867C32.4729 35.7379 32.1893 35.7747 31.8513 35.8C31.1422 35.8533 30.243 35.8536 28.9999 35.8536C27.7568 35.8536 26.8576 35.8533 26.1485 35.8C25.4455 35.7473 24.9779 35.6452 24.591 35.4667Z" fill="#040509"/>
<rect x="0.604167" y="10.2709" width="37.4583" height="37.4583" rx="18.7292" fill="white"/>
<rect x="0.604167" y="10.2709" width="37.4583" height="37.4583" rx="18.7292" stroke="#E9E9F2" stroke-width="1.20833"/>
<path fill-rule="evenodd" clip-rule="evenodd" d="M19.4886 20.9446C17.0857 20.9446 15.1377 22.8926 15.1377 25.2955L15.1377 28.2929C15.1377 30.6959 17.0857 32.6439 19.4886 32.6439C21.8916 32.6439 23.8396 30.6959 23.8396 28.2929V25.2955C23.8396 22.8926 21.8916 20.9446 19.4886 20.9446ZM16.346 25.2955C16.346 23.5599 17.753 22.1529 19.4886 22.1529C21.2243 22.1529 22.6313 23.5599 22.6313 25.2955V28.2929C22.6313 30.0285 21.2243 31.4355 19.4886 31.4355C17.753 31.4355 16.346 30.0285 16.346 28.2929V25.2955Z" fill="#040509"/>
<path d="M14.098 28.2929C14.098 27.9593 13.8275 27.6888 13.4938 27.6888C13.1601 27.6888 12.8896 27.9593 12.8896 28.2929C12.8896 30.3658 13.8415 32.0227 15.1299 33.1501C16.2315 34.114 17.6014 34.7112 18.8845 34.857V36.5358C18.8845 36.8695 19.155 37.14 19.4886 37.14C19.8223 37.14 20.0928 36.8695 20.0928 36.5358V34.857C21.3759 34.7112 22.7457 34.114 23.8474 33.1501C25.1358 32.0227 26.0876 30.3658 26.0876 28.2929C26.0876 27.9593 25.8172 27.6888 25.4835 27.6888C25.1498 27.6888 24.8793 27.9593 24.8793 28.2929C24.8793 29.9669 24.1184 31.3073 23.0517 32.2407C21.9734 33.1842 20.6131 33.6836 19.4886 33.6836C18.3642 33.6836 17.0039 33.1842 15.9256 32.2407C14.8589 31.3073 14.098 29.9669 14.098 28.2929Z" fill="#040509"/>
<rect x="1" y="1" width="56" height="56" rx="28" fill="url(#paint0_linear_293_873)"/>
<rect x="1" y="1" width="56" height="56" rx="28" stroke="white" stroke-width="2"/>
<path fill-rule="evenodd" clip-rule="evenodd" d="M29 19.9375C29.5005 19.9375 29.9063 20.3432 29.9063 20.8438V28.0938H37.1563C37.6568 28.0938 38.0625 28.4995 38.0625 29C38.0625 29.5005 37.6568 29.9063 37.1563 29.9063H29.9063V37.1563C29.9063 37.6568 29.5005 38.0625 29 38.0625C28.4995 38.0625 28.0938 37.6568 28.0938 37.1563V29.9063H20.8438C20.3432 29.9063 19.9375 29.5005 19.9375 29C19.9375 28.4995 20.3432 28.0938 20.8438 28.0938H28.0938V20.8438C28.0938 20.3432 28.4995 19.9375 29 19.9375Z" fill="white"/>
<defs>
<linearGradient id="paint0_linear_293_873" x1="58" y1="36.5076" x2="0.134355" y2="33.7193" gradientUnits="userSpaceOnUse">
<stop stop-color="#E54D60"/>
<stop offset="1" stop-color="#A342FF"/>
</linearGradient>
</defs>
</svg>
