<svg width="25" height="24" viewBox="0 0 25 24" fill="none" xmlns="http://www.w3.org/2000/svg">
<path d="M9.67391 10.6704C9.57574 10.6605 9.45794 10.6605 9.34996 10.6704C7.01357 10.5918 5.1582 8.67755 5.1582 6.32153C5.1582 3.91642 7.10192 1.96289 9.51684 1.96289C11.9219 1.96289 13.8755 3.91642 13.8755 6.32153C13.8657 8.67755 12.0103 10.5918 9.67391 10.6704Z" stroke="#8F9BB3" stroke-width="1.47251" stroke-linecap="round" stroke-linejoin="round"/>
<path d="M16.7907 3.92578C18.6952 3.92578 20.2266 5.46701 20.2266 7.36164C20.2266 9.21701 18.7541 10.7288 16.9183 10.7975C16.8398 10.7877 16.7514 10.7877 16.6631 10.7975" stroke="#8F9BB3" stroke-width="1.47251" stroke-linecap="round" stroke-linejoin="round"/>
<path d="M4.76514 14.2934C2.38948 15.8837 2.38948 18.4753 4.76514 20.0558C7.46475 21.8621 11.8921 21.8621 14.5917 20.0558C16.9674 18.4655 16.9674 15.8739 14.5917 14.2934C11.9019 12.4969 7.47456 12.4969 4.76514 14.2934Z" stroke="#8F9BB3" stroke-width="1.47251" stroke-linecap="round" stroke-linejoin="round"/>
<path d="M18.6855 19.6327C19.3924 19.4855 20.0599 19.2008 20.6096 18.7787C22.141 17.6301 22.141 15.7355 20.6096 14.5869C20.0697 14.1746 19.412 13.8997 18.715 13.7427" stroke="#8F9BB3" stroke-width="1.47251" stroke-linecap="round" stroke-linejoin="round"/>
</svg>
