<svg width="83" height="83" viewBox="0 0 83 83" fill="none" xmlns="http://www.w3.org/2000/svg">
<rect x="21.3603" y="47.8476" width="37.4583" height="37.4583" rx="18.7292" transform="rotate(-45 21.3603 47.8476)" fill="white"/>
<rect x="21.3603" y="47.8476" width="37.4583" height="37.4583" rx="18.7292" transform="rotate(-45 21.3603 47.8476)" stroke="#E9E9F2" stroke-width="1.20833"/>
<path fill-rule="evenodd" clip-rule="evenodd" d="M47.8474 39.4612C46.5148 39.4612 45.9329 40.3328 45.7476 40.6874L45.7453 40.6918C45.7442 40.6939 45.7434 40.696 45.7429 40.6982V40.6982V40.6982C45.7425 40.6999 45.7423 40.7016 45.7422 40.7033C45.7422 40.7051 45.7422 40.7072 45.7422 40.7096L45.7421 40.7489V40.7489C45.7421 41.306 45.7421 41.5845 45.8322 41.8045C45.9549 42.1043 46.1928 42.3422 46.4926 42.465C46.7126 42.5551 46.9912 42.5551 47.5483 42.5551L48.1465 42.5551C48.7035 42.5551 48.9821 42.5551 49.2021 42.465C49.5019 42.3422 49.7398 42.1043 49.8625 41.8046C49.9526 41.5845 49.9526 41.306 49.9526 40.7489V40.7489L49.9525 40.7096C49.9525 40.7072 49.9525 40.7051 49.9525 40.7033C49.9525 40.7016 49.9522 40.6999 49.9518 40.6982V40.6982V40.6982C49.9513 40.696 49.9505 40.6939 49.9494 40.6919L49.9471 40.6874C49.7618 40.3328 49.1799 39.4612 47.8474 39.4612ZM49.9526 45.8919C49.9526 45.2152 49.9526 44.8768 49.8209 44.6183C49.7051 44.391 49.5202 44.2061 49.2929 44.0903C49.0344 43.9586 48.696 43.9586 48.0193 43.9586L47.6754 43.9586C46.9987 43.9586 46.6603 43.9586 46.4018 44.0903C46.1745 44.2061 45.9896 44.391 45.8738 44.6183C45.7421 44.8768 45.7421 45.2152 45.7421 45.8919L45.7421 54.4478C45.7421 54.5249 45.7422 54.5631 45.7433 54.5909V54.5909C45.7433 54.5922 45.7438 54.5935 45.7445 54.5946V54.5946C45.7609 54.6171 45.7844 54.6472 45.832 54.7079L47.5163 56.8515C47.6748 57.0532 47.7657 57.1679 47.8376 57.2444V57.2444C47.8429 57.2501 47.8518 57.2501 47.8571 57.2444V57.2444C47.929 57.1679 48.0199 57.0532 48.1784 56.8515L49.8627 54.7079C49.9104 54.6472 49.9339 54.6171 49.9502 54.5946V54.5946C49.9509 54.5935 49.9514 54.5922 49.9514 54.5909V54.5909C49.9525 54.5631 49.9526 54.5249 49.9526 54.4478L49.9526 45.8919ZM44.5037 40.0374C44.7945 39.4808 45.7518 38.0576 47.8474 38.0576C49.9429 38.0576 50.9002 39.4808 51.1911 40.0374C51.2175 40.088 51.2444 40.1403 51.2772 40.2339C51.3032 40.3081 51.3302 40.4182 51.3415 40.496C51.3563 40.5973 51.3562 40.676 51.3562 40.7381C51.3562 40.7418 51.3562 40.7454 51.3562 40.7489L51.3562 54.4478C51.3562 54.4575 51.3562 54.4675 51.3562 54.4777C51.3565 54.5898 51.3568 54.731 51.3282 54.8719C51.3035 54.9943 51.2625 55.1127 51.2064 55.2242C51.1418 55.3527 51.0543 55.4635 50.9848 55.5515C50.9785 55.5595 50.9723 55.5674 50.9663 55.575L49.2661 57.7389C49.1293 57.913 48.9998 58.0779 48.8801 58.2053C48.7521 58.3416 48.5814 58.4957 48.3443 58.5854C48.0241 58.7067 47.6706 58.7067 47.3504 58.5854C47.1133 58.4957 46.9426 58.3416 46.8146 58.2053C46.6949 58.0779 46.5654 57.913 46.4286 57.7389L44.7284 55.575C44.7224 55.5674 44.7162 55.5595 44.7099 55.5515C44.6404 55.4635 44.5529 55.3527 44.4883 55.2242C44.4322 55.1127 44.3912 54.9943 44.3665 54.8719C44.3379 54.731 44.3383 54.5898 44.3385 54.4777C44.3385 54.4675 44.3386 54.4575 44.3386 54.4478L44.3386 40.7489C44.3386 40.7454 44.3386 40.7418 44.3385 40.7381C44.3385 40.676 44.3384 40.5973 44.3532 40.496C44.3645 40.4182 44.3915 40.3081 44.4175 40.2339C44.4503 40.1403 44.4773 40.088 44.5037 40.0374Z" fill="#040509"/>
<rect x="14.5253" y="41.0122" width="37.4583" height="37.4583" rx="18.7292" transform="rotate(-45 14.5253 41.0122)" fill="white"/>
<rect x="14.5253" y="41.0122" width="37.4583" height="37.4583" rx="18.7292" transform="rotate(-45 14.5253 41.0122)" stroke="#E9E9F2" stroke-width="1.20833"/>
<path fill-rule="evenodd" clip-rule="evenodd" d="M39.5337 35.3163C38.7167 36.1332 38.7167 37.4577 39.5337 38.2747C40.3506 39.0916 41.6752 39.0916 42.4921 38.2747C43.309 37.4577 43.309 36.1332 42.4921 35.3163C41.6752 34.4993 40.3506 34.4993 39.5337 35.3163ZM40.3836 37.4247C40.0361 37.0772 40.0361 36.5137 40.3836 36.1662C40.7312 35.8187 41.2946 35.8187 41.6421 36.1662C41.9896 36.5137 41.9896 37.0772 41.6421 37.4247C41.2946 37.7722 40.7312 37.7722 40.3836 37.4247Z" fill="#040509"/>
<path fill-rule="evenodd" clip-rule="evenodd" d="M35.2991 35.3339L35.3343 35.2987C36.192 34.441 36.8596 33.7733 37.4369 33.2767C38.0227 32.7726 38.5514 32.4122 39.1422 32.1944C40.3496 31.7494 41.6761 31.7494 42.8836 32.1944C43.4743 32.4122 44.003 32.7726 44.5889 33.2767C45.1661 33.7733 45.8337 34.4409 46.6914 35.2986L46.7266 35.3339C47.5843 36.1916 48.2519 36.8592 48.7486 37.4364C49.2527 38.0223 49.6131 38.5509 49.8308 39.1417C50.2264 40.215 50.2704 41.3824 49.9627 42.4766C49.9633 42.4875 49.9636 42.4985 49.9636 42.5095C49.9636 42.6534 49.913 42.7855 49.8286 42.889C49.6107 43.4774 49.251 44.0045 48.7486 44.5884C48.2519 45.1656 47.5843 45.8332 46.7266 46.6909L46.6914 46.7262C45.8337 47.5838 45.1661 48.2514 44.5889 48.7481C44.003 49.2522 43.4743 49.6126 42.8836 49.8303C41.6761 50.2754 40.3496 50.2754 39.1422 49.8303C38.5514 49.6126 38.0227 49.2522 37.4369 48.7481C36.8596 48.2514 36.192 47.5838 35.3343 46.7261L35.2991 46.6909C34.4414 45.8332 33.7738 45.1656 33.2772 44.5884C32.7731 44.0025 32.4127 43.4739 32.1949 42.8831C31.7499 41.6756 31.7499 40.3491 32.1949 39.1417C32.4127 38.5509 32.7731 38.0223 33.2772 37.4364C33.7738 36.8592 34.4414 36.1915 35.2991 35.3339ZM48.7197 39.6038C48.9837 40.3466 49.0324 41.1451 48.866 41.9085H45.732L45.732 41.5675C45.732 41.1086 45.7325 40.8006 45.7518 40.5635C45.7706 40.3333 45.8042 40.2233 45.8412 40.1507C45.9372 39.9622 46.0905 39.809 46.2789 39.713C46.3515 39.676 46.4615 39.6424 46.6916 39.6236C46.9287 39.6042 47.2366 39.6038 47.6953 39.6038L48.7197 39.6038ZM47.8374 38.2204C47.8909 38.2825 47.9417 38.3429 47.9898 38.4017H47.6709C47.2429 38.4017 46.8856 38.4017 46.5937 38.4256C46.2893 38.4504 46.0035 38.5042 45.7332 38.6419C45.3186 38.8532 44.9814 39.1903 44.7701 39.605C44.6324 39.8753 44.5787 40.1611 44.5538 40.4656C44.5299 40.7575 44.5299 41.1149 44.53 41.5431V41.9173L41.925 41.9558C41.5027 41.962 41.1501 41.9672 40.862 41.9949C40.5614 42.0238 40.2795 42.0808 40.0135 42.2199C39.605 42.4334 39.2737 42.7696 39.0663 43.1812C38.9312 43.4492 38.8784 43.7319 38.8539 44.0329C38.8305 44.3213 38.8305 44.674 38.8305 45.0963L38.8305 48.3139C38.644 48.1856 38.4439 48.0288 38.2209 47.8369C37.6818 47.3731 37.0457 46.7376 36.1667 45.8586C35.2877 44.9796 34.6522 44.3435 34.1884 43.8044C33.7286 43.27 33.4702 42.8671 33.3228 42.4674C32.9767 41.5283 32.9767 40.4965 33.3228 39.5574C33.4702 39.1576 33.7286 38.7547 34.1884 38.2204C34.6522 37.6813 35.2877 37.0452 36.1667 36.1662C37.0457 35.2872 37.6818 34.6517 38.2209 34.1879C38.7552 33.7281 39.1581 33.4697 39.5579 33.3223C40.497 32.9762 41.5288 32.9762 42.4678 33.3223C42.8676 33.4697 43.2705 33.7281 43.8049 34.1879C44.344 34.6517 44.98 35.2872 45.859 36.1662C46.7381 37.0452 47.3736 37.6813 47.8374 38.2204ZM42.4678 48.7025C41.6847 48.9911 40.8371 49.039 40.0326 48.8463L40.0326 45.1205C40.0326 44.6678 40.033 44.3642 40.052 44.1302C40.0704 43.9033 40.1033 43.7944 40.1397 43.7222C40.234 43.5351 40.3846 43.3822 40.5703 43.2852C40.642 43.2477 40.7504 43.2132 40.977 43.1915C41.2107 43.169 41.5143 43.1641 41.9669 43.1574L45.1354 43.1106H48.371C48.233 43.321 48.0585 43.5475 47.8374 43.8044C47.3736 44.3435 46.7381 44.9796 45.859 45.8586C44.98 46.7376 44.344 47.3731 43.8049 47.8369C43.2705 48.2967 42.8676 48.5551 42.4678 48.7025Z" fill="#040509"/>
<rect x="7.68987" y="47.8476" width="37.4583" height="37.4583" rx="18.7292" transform="rotate(-45 7.68987 47.8476)" fill="white"/>
<rect x="7.68987" y="47.8476" width="37.4583" height="37.4583" rx="18.7292" transform="rotate(-45 7.68987 47.8476)" stroke="#E9E9F2" stroke-width="1.20833"/>
<path fill-rule="evenodd" clip-rule="evenodd" d="M28.59 42.0423C26.8909 43.7414 26.8909 46.4963 28.59 48.1955L30.7095 50.3149C32.4087 52.0141 35.1635 52.0141 36.8627 50.3149C38.5618 48.6158 38.5618 45.8609 36.8627 44.1618L34.7432 42.0423C33.044 40.3432 30.2892 40.3432 28.59 42.0423ZM29.4444 47.341C28.2172 46.1138 28.2172 44.124 29.4444 42.8967C30.6717 41.6695 32.6615 41.6695 33.8888 42.8967L36.0083 45.0162C37.2355 46.2435 37.2355 48.2333 36.0083 49.4605C34.781 50.6878 32.7912 50.6878 31.5639 49.4605L29.4444 47.341Z" fill="#040509"/>
<path d="M29.9743 51.0501C29.7384 50.8142 29.3558 50.8142 29.1199 51.0501C28.884 51.2861 28.884 51.6686 29.1199 51.9046C30.5856 53.3703 32.4303 53.8688 34.1385 53.755C35.5991 53.6576 36.99 53.1113 38.0004 52.3071L39.1875 53.4942C39.4234 53.7301 39.806 53.7301 40.0419 53.4942C40.2779 53.2582 40.2779 52.8757 40.0419 52.6398L38.8548 51.4527C39.659 50.4423 40.2053 49.0514 40.3027 47.5908C40.4166 45.8826 39.918 44.0379 38.4523 42.5722C38.2164 42.3362 37.8338 42.3362 37.5979 42.5722C37.3619 42.8081 37.3619 43.1907 37.5979 43.4266C38.7815 44.6103 39.1913 46.0962 39.097 47.5104C39.0017 48.9401 38.393 50.2551 37.5979 51.0501C36.8028 51.8452 35.4878 52.454 34.0582 52.5493C32.6439 52.6436 31.158 52.2338 29.9743 51.0501Z" fill="#040509"/>
<rect x="1.41421" y="41.0122" width="56" height="56" rx="28" transform="rotate(-45 1.41421 41.0122)" fill="url(#paint0_linear_470_2850)"/>
<rect x="1.41421" y="41.0122" width="56" height="56" rx="28" transform="rotate(-45 1.41421 41.0122)" stroke="white" stroke-width="2"/>
<path fill-rule="evenodd" clip-rule="evenodd" d="M34.6035 34.6041C34.9574 34.2501 35.5312 34.2501 35.8851 34.6041L41.0116 39.7306L46.1381 34.6041C46.4921 34.2501 47.0659 34.2501 47.4198 34.6041C47.7737 34.958 47.7737 35.5318 47.4198 35.8857L42.2933 41.0122L47.4198 46.1387C47.7737 46.4926 47.7737 47.0665 47.4198 47.4204C47.0659 47.7743 46.4921 47.7743 46.1381 47.4204L41.0116 42.2938L35.8851 47.4204C35.5312 47.7743 34.9574 47.7743 34.6035 47.4204C34.2496 47.0665 34.2496 46.4926 34.6035 46.1387L39.73 41.0122L34.6035 35.8857C34.2496 35.5318 34.2496 34.958 34.6035 34.6041Z" fill="white"/>
<defs>
<linearGradient id="paint0_linear_470_2850" x1="58" y1="77.5198" x2="0.134355" y2="74.7315" gradientUnits="userSpaceOnUse">
<stop stop-color="#E54D60"/>
<stop offset="1" stop-color="#A342FF"/>
</linearGradient>
</defs>
</svg>
