<svg width="139" height="39" viewBox="0 0 139 39" fill="none" xmlns="http://www.w3.org/2000/svg">
<g clip-path="url(#clip0_291_2575)">
<rect x="0.518066" width="136.912" height="38.1558" rx="5.61114" fill="black"/>
<path d="M39.5435 16.5048H14.5688V12.5884C14.5688 10.4623 16.4019 8.67188 18.5785 8.67188H35.5339C37.7105 8.67188 39.5435 10.4623 39.5435 12.5884V16.5048Z" fill="#34A853"/>
<path d="M39.5435 20.1185H14.5688V15.956C14.5688 13.6964 16.4019 11.7936 18.5785 11.7936H35.5339C37.7105 11.7936 39.5435 13.6964 39.5435 15.956V20.1185Z" fill="#FBBC04"/>
<path d="M39.5435 23.5872H14.5688V19.4247C14.5688 17.1651 16.4019 15.2623 18.5785 15.2623H35.5339C37.7105 15.2623 39.5435 17.1651 39.5435 19.4247V23.5872Z" fill="#EA4335"/>
<path d="M14.5688 17.5107L30.4204 21.0915C32.245 21.5391 34.2977 21.0915 35.7802 19.9725L39.5435 17.2869V25.6793C39.5435 27.8054 37.7189 29.484 35.5522 29.484H18.5602C16.3935 29.484 14.5688 27.8054 14.5688 25.6793V17.5107Z" fill="url(#paint0_linear_291_2575)"/>
<path d="M48.0029 14.9154L50.438 8.45807H51.5653L54.0093 14.9154H52.9181L52.3229 13.256H49.6894L49.0942 14.9154H48.0029ZM50.7356 10.361L50.0231 12.3361H51.9892L51.2767 10.361L51.0332 9.62147H50.9791L50.7356 10.361ZM56.5493 15.0597C56.1345 15.0597 55.7588 14.9575 55.422 14.7531C55.0914 14.5427 54.8268 14.2541 54.6284 13.8873C54.436 13.5145 54.3398 13.0907 54.3398 12.6157C54.3398 12.1407 54.436 11.7198 54.6284 11.3531C54.8268 10.9863 55.0914 10.6977 55.422 10.4873C55.7588 10.2768 56.1345 10.1716 56.5493 10.1716C56.9041 10.1716 57.2077 10.2498 57.4602 10.4061C57.7188 10.5624 57.9082 10.7398 58.0284 10.9382H58.0825L58.0284 10.2979V8.45807H58.9934V14.9154H58.0825V14.3021H58.0284C57.9082 14.5006 57.7188 14.6779 57.4602 14.8342C57.2077 14.9846 56.9041 15.0597 56.5493 15.0597ZM56.6936 14.1669C56.9342 14.1669 57.1596 14.1037 57.37 13.9775C57.5865 13.8512 57.7578 13.6738 57.8841 13.4454C58.0164 13.2109 58.0825 12.9343 58.0825 12.6157C58.0825 12.297 58.0164 12.0234 57.8841 11.795C57.7578 11.5605 57.5865 11.3801 57.37 11.2538C57.1596 11.1276 56.9342 11.0645 56.6936 11.0645C56.4532 11.0645 56.2277 11.1276 56.0172 11.2538C55.8068 11.3801 55.6355 11.5605 55.5032 11.795C55.371 12.0234 55.3048 12.297 55.3048 12.6157C55.3048 12.9343 55.371 13.2109 55.5032 13.4454C55.6355 13.6738 55.8068 13.8512 56.0172 13.9775C56.2277 14.1037 56.4532 14.1669 56.6936 14.1669ZM62.0627 15.0597C61.6479 15.0597 61.2721 14.9575 60.9354 14.7531C60.6047 14.5427 60.3401 14.2541 60.1417 13.8873C59.9494 13.5145 59.8531 13.0907 59.8531 12.6157C59.8531 12.1407 59.9494 11.7198 60.1417 11.3531C60.3401 10.9863 60.6047 10.6977 60.9354 10.4873C61.2721 10.2768 61.6479 10.1716 62.0627 10.1716C62.4174 10.1716 62.7211 10.2498 62.9736 10.4061C63.2322 10.5624 63.4215 10.7398 63.5418 10.9382H63.5959L63.5418 10.2979V8.45807H64.5068V14.9154H63.5959V14.3021H63.5418C63.4215 14.5006 63.2322 14.6779 62.9736 14.8342C62.7211 14.9846 62.4174 15.0597 62.0627 15.0597ZM62.207 14.1669C62.4475 14.1669 62.673 14.1037 62.8834 13.9775C63.0999 13.8512 63.2712 13.6738 63.3975 13.4454C63.5298 13.2109 63.5959 12.9343 63.5959 12.6157C63.5959 12.297 63.5298 12.0234 63.3975 11.795C63.2712 11.5605 63.0999 11.3801 62.8834 11.2538C62.673 11.1276 62.4475 11.0645 62.207 11.0645C61.9665 11.0645 61.741 11.1276 61.5306 11.2538C61.3202 11.3801 61.1488 11.5605 61.0165 11.795C60.8843 12.0234 60.8181 12.297 60.8181 12.6157C60.8181 12.9343 60.8843 13.2109 61.0165 13.4454C61.1488 13.6738 61.3202 13.8512 61.5306 13.9775C61.741 14.1037 61.9665 14.1669 62.207 14.1669ZM68.246 13.5807V11.1637H67.4433V10.3159H68.246V9.01722H69.22V10.3159H70.3477V11.1637H69.22V13.3732C69.22 13.6017 69.2651 13.7761 69.3553 13.8963C69.4513 14.0165 69.6109 14.0767 69.8336 14.0767C69.9474 14.0767 70.0438 14.0616 70.1222 14.0316C70.2061 14.0015 70.2901 13.9594 70.3747 13.9053V14.8523C70.272 14.8944 70.1638 14.9274 70.05 14.9515C69.9356 14.9756 69.8003 14.9876 69.6442 14.9876C69.217 14.9876 68.8773 14.8643 68.6247 14.6178C68.3722 14.3653 68.246 14.0196 68.246 13.5807ZM73.2704 15.0597C72.7952 15.0597 72.3775 14.9515 72.0168 14.735C71.656 14.5186 71.373 14.227 71.169 13.8602C70.9644 13.4935 70.8624 13.0786 70.8624 12.6157C70.8624 12.1587 70.9644 11.7469 71.169 11.3801C71.373 11.0074 71.656 10.7127 72.0168 10.4963C72.3775 10.2798 72.7952 10.1716 73.2704 10.1716C73.7394 10.1716 74.1542 10.2798 74.515 10.4963C74.8757 10.7127 75.1581 11.0074 75.3627 11.3801C75.5667 11.7469 75.6693 12.1587 75.6693 12.6157C75.6693 13.0786 75.5667 13.4935 75.3627 13.8602C75.1581 14.227 74.8757 14.5186 74.515 14.735C74.1542 14.9515 73.7394 15.0597 73.2704 15.0597ZM73.2704 14.1669C73.5229 14.1669 73.7574 14.1067 73.9738 13.9865C74.1903 13.8602 74.3644 13.6828 74.4969 13.4544C74.635 13.2199 74.7043 12.9403 74.7043 12.6157C74.7043 12.291 74.635 12.0144 74.4969 11.7859C74.3644 11.5515 74.1903 11.3741 73.9738 11.2538C73.7574 11.1276 73.5229 11.0645 73.2704 11.0645C73.0179 11.0645 72.7799 11.1276 72.5579 11.2538C72.3415 11.3741 72.1639 11.5515 72.0258 11.7859C71.8933 12.0144 71.8274 12.291 71.8274 12.6157C71.8274 12.9403 71.8933 13.2199 72.0258 13.4544C72.1639 13.6828 72.3415 13.8602 72.5579 13.9865C72.7799 14.1067 73.0179 14.1669 73.2704 14.1669Z" fill="white"/>
<path d="M52.821 28.979C52.2156 28.979 51.6456 28.8689 51.111 28.6487C50.5842 28.4286 50.1164 28.122 49.7075 27.7288C49.2987 27.3279 48.9763 26.8601 48.7405 26.3254C48.5124 25.7829 48.3984 25.1972 48.3984 24.5682C48.3984 23.9391 48.5124 23.3574 48.7405 22.8227C48.9763 22.2802 49.2948 21.8124 49.6957 21.4193C50.1046 21.0183 50.5763 20.7077 51.111 20.4876C51.6456 20.2674 52.2156 20.1573 52.821 20.1573C53.4657 20.1573 54.0594 20.2713 54.6019 20.4994C55.1522 20.7274 55.6122 21.0458 55.9817 21.4546L55.0854 22.3392C54.8102 22.0325 54.48 21.7967 54.0948 21.6315C53.7174 21.4664 53.2928 21.3839 52.821 21.3839C52.2628 21.3839 51.7478 21.5176 51.2761 21.7849C50.8043 22.0443 50.423 22.4139 50.1321 22.8935C49.8491 23.3652 49.7075 23.9235 49.7075 24.5682C49.7075 25.2129 49.853 25.7751 50.1439 26.2546C50.4348 26.7264 50.8161 27.0959 51.2879 27.3632C51.7596 27.6227 52.2746 27.7524 52.8328 27.7524C53.3439 27.7524 53.8078 27.6581 54.2245 27.4694C54.6412 27.2728 54.9753 26.9976 55.2269 26.6438C55.4864 26.29 55.6437 25.8655 55.6987 25.3701H52.8092V24.2261H56.9134C56.9606 24.4384 56.9842 24.6625 56.9842 24.8984V24.9102C56.9842 25.7279 56.8033 26.4433 56.4417 27.0566C56.0879 27.662 55.5965 28.1338 54.9675 28.4718C54.3385 28.8099 53.623 28.979 52.821 28.979ZM60.7817 28.979C60.1605 28.979 59.6141 28.8374 59.1423 28.5544C58.6706 28.2713 58.301 27.89 58.0337 27.4104C57.7664 26.9308 57.6328 26.3883 57.6328 25.7829C57.6328 25.1854 57.7664 24.6468 58.0337 24.1672C58.301 23.6797 58.6706 23.2944 59.1423 23.0114C59.6141 22.7284 60.1605 22.5868 60.7817 22.5868C61.3949 22.5868 61.9374 22.7284 62.4092 23.0114C62.8809 23.2944 63.2504 23.6797 63.5178 24.1672C63.7851 24.6468 63.9188 25.1854 63.9188 25.7829C63.9188 26.3883 63.7851 26.9308 63.5178 27.4104C63.2504 27.89 62.8809 28.2713 62.4092 28.5544C61.9374 28.8374 61.3949 28.979 60.7817 28.979ZM60.7817 27.8114C61.1119 27.8114 61.4185 27.7328 61.7016 27.5755C61.9846 27.4104 62.2126 27.1785 62.3856 26.8797C62.5664 26.5731 62.6568 26.2075 62.6568 25.7829C62.6568 25.3583 62.5664 24.9967 62.3856 24.6979C62.2126 24.3913 61.9846 24.1593 61.7016 24.0021C61.4185 23.837 61.1119 23.7544 60.7817 23.7544C60.4514 23.7544 60.1408 23.837 59.85 24.0021C59.5669 24.1593 59.3349 24.3913 59.1541 24.6979C58.9811 24.9967 58.8947 25.3583 58.8947 25.7829C58.8947 26.2075 58.9811 26.5731 59.1541 26.8797C59.3349 27.1785 59.5669 27.4104 59.85 27.5755C60.1408 27.7328 60.4514 27.8114 60.7817 27.8114ZM67.9223 28.979C67.3012 28.979 66.7547 28.8374 66.283 28.5544C65.8112 28.2713 65.4417 27.89 65.1744 27.4104C64.9071 26.9308 64.7734 26.3883 64.7734 25.7829C64.7734 25.1854 64.9071 24.6468 65.1744 24.1672C65.4417 23.6797 65.8112 23.2944 66.283 23.0114C66.7547 22.7284 67.3012 22.5868 67.9223 22.5868C68.5355 22.5868 69.078 22.7284 69.5499 23.0114C70.0217 23.2944 70.3914 23.6797 70.6585 24.1672C70.9256 24.6468 71.0595 25.1854 71.0595 25.7829C71.0595 26.3883 70.9256 26.9308 70.6585 27.4104C70.3914 27.89 70.0217 28.2713 69.5499 28.5544C69.078 28.8374 68.5355 28.979 67.9223 28.979ZM67.9223 27.8114C68.2525 27.8114 68.5591 27.7328 68.8422 27.5755C69.1252 27.4104 69.3533 27.1785 69.5263 26.8797C69.7074 26.5731 69.7976 26.2075 69.7976 25.7829C69.7976 25.3583 69.7074 24.9967 69.5263 24.6979C69.3533 24.3913 69.1252 24.1593 68.8422 24.0021C68.5591 23.837 68.2525 23.7544 67.9223 23.7544C67.5921 23.7544 67.2815 23.837 66.9906 24.0021C66.7075 24.1593 66.4756 24.3913 66.2948 24.6979C66.1218 24.9967 66.0353 25.3583 66.0353 25.7829C66.0353 26.2075 66.1218 26.5731 66.2948 26.8797C66.4756 27.1785 66.7075 27.4104 66.9906 27.5755C67.2815 27.7328 67.5921 27.8114 67.9223 27.8114ZM74.9452 31.5264C74.4179 31.5264 73.9621 31.4399 73.5771 31.2669C73.1997 31.1018 72.8931 30.8856 72.6572 30.6183C72.4213 30.3588 72.2521 30.0915 72.1501 29.8163L73.3294 29.321C73.455 29.6355 73.6555 29.891 73.9309 30.0876C74.214 30.292 74.5518 30.3942 74.9452 30.3942C75.4953 30.3942 75.9275 30.2291 76.2425 29.8989C76.5644 29.5686 76.726 29.1009 76.726 28.4954V27.9175H76.6552C76.4665 28.2006 76.2029 28.4286 75.8651 28.6016C75.5348 28.7667 75.1574 28.8492 74.7329 28.8492C74.2216 28.8492 73.754 28.7195 73.3294 28.46C72.9049 28.2006 72.5629 27.8389 72.3034 27.375C72.0439 26.9033 71.9142 26.3529 71.9142 25.7239C71.9142 25.0871 72.0439 24.5367 72.3034 24.0728C72.5629 23.6011 72.9049 23.2355 73.3294 22.976C73.754 22.7166 74.2216 22.5868 74.7329 22.5868C75.1574 22.5868 75.5348 22.6733 75.8651 22.8463C76.2029 23.0192 76.4665 23.2473 76.6552 23.5303H76.726V22.7755H77.9407V28.4718C77.9407 29.1244 77.811 29.6787 77.5516 30.1347C77.2997 30.5907 76.9501 30.9367 76.5019 31.1726C76.0538 31.4084 75.5348 31.5264 74.9452 31.5264ZM74.957 27.6935C75.2712 27.6935 75.5619 27.6187 75.8297 27.4694C76.0968 27.3121 76.3132 27.088 76.4783 26.7971C76.6434 26.4984 76.726 26.1407 76.726 25.7239C76.726 25.2915 76.6434 24.9298 76.4783 24.6389C76.3132 24.3401 76.0968 24.116 75.8297 23.9667C75.5619 23.8173 75.2712 23.7426 74.957 23.7426C74.642 23.7426 74.3472 23.8212 74.0724 23.9785C73.8047 24.1278 73.5889 24.348 73.4238 24.6389C73.2587 24.9298 73.1761 25.2915 73.1761 25.7239C73.1761 26.1485 73.2587 26.5101 73.4238 26.8089C73.5889 27.0998 73.8047 27.32 74.0724 27.4694C74.3472 27.6187 74.642 27.6935 74.957 27.6935ZM79.4427 28.7903V20.346H80.7164V28.7903H79.4427ZM84.908 28.979C84.3183 28.979 83.7918 28.8414 83.3276 28.5662C82.8642 28.291 82.4986 27.9136 82.2308 27.434C81.9714 26.9544 81.8417 26.408 81.8417 25.7947C81.8417 25.2208 81.9679 24.69 82.219 24.2026C82.4709 23.7151 82.8205 23.3259 83.2687 23.035C83.7252 22.7362 84.2475 22.5868 84.8372 22.5868C85.4588 22.5868 85.9854 22.7205 86.4176 22.9878C86.8581 23.2551 87.1925 23.6207 87.42 24.0846C87.6483 24.5485 87.762 25.0713 87.762 25.6532C87.762 25.7397 87.7586 25.8183 87.7503 25.889C87.7503 25.9598 87.7468 26.0148 87.7385 26.0542H83.0918C83.1549 26.6517 83.363 27.0998 83.7168 27.3986C84.079 27.6974 84.4876 27.8468 84.9434 27.8468C85.3527 27.8468 85.6905 27.7564 85.9576 27.5755C86.2254 27.3868 86.4377 27.1549 86.5945 26.8797L87.6441 27.3868C87.3846 27.8586 87.0308 28.2438 86.5827 28.5426C86.1345 28.8335 85.5768 28.979 84.908 28.979ZM84.849 23.6718C84.4245 23.6718 84.063 23.8016 83.764 24.061C83.4657 24.3205 83.2652 24.6665 83.1625 25.0989H86.5001C86.4849 24.8944 86.4176 24.6821 86.2996 24.462C86.1817 24.2419 86.0013 24.0571 85.7571 23.9077C85.5213 23.7504 85.2188 23.6718 84.849 23.6718ZM92.9464 28.7903L90.682 20.346H92.1208L93.4653 25.8301L93.6068 26.5613H93.6776L93.8545 25.8301L95.5528 20.346H96.8501L98.4776 25.8301L98.6545 26.5495H98.7253L98.8668 25.8301L100.211 20.346H101.638L99.4093 28.7903H98.0412L96.4255 23.1883L96.2368 22.3981H96.166L95.9655 23.1883L94.2791 28.7903H92.9464ZM104.007 28.979C103.575 28.979 103.189 28.8964 102.851 28.7313C102.513 28.5583 102.249 28.3185 102.061 28.0119C101.872 27.7053 101.778 27.3554 101.778 26.9623C101.778 26.5377 101.888 26.176 102.108 25.8772C102.336 25.5706 102.639 25.3387 103.016 25.1814C103.393 25.0242 103.81 24.9456 104.266 24.9456C104.644 24.9456 104.974 24.9809 105.257 25.0517C105.548 25.1225 105.768 25.1972 105.917 25.2758V24.9573C105.917 24.5642 105.776 24.2497 105.493 24.0139C105.21 23.778 104.844 23.66 104.396 23.66C104.089 23.66 103.799 23.7308 103.523 23.8723C103.248 24.006 103.028 24.1908 102.863 24.4266L101.99 23.7544C102.249 23.3928 102.591 23.1097 103.016 22.9053C103.448 22.693 103.92 22.5868 104.431 22.5868C105.304 22.5868 105.976 22.8031 106.448 23.2355C106.92 23.66 107.156 24.2576 107.156 25.0281V28.7903H105.917V28.0473H105.847C105.689 28.291 105.453 28.5072 105.139 28.6959C104.825 28.8846 104.447 28.979 104.007 28.979ZM104.231 27.9411C104.561 27.9411 104.852 27.8625 105.104 27.7053C105.355 27.548 105.552 27.3436 105.693 27.092C105.842 26.8325 105.917 26.5534 105.917 26.2546C105.736 26.1525 105.524 26.0699 105.28 26.007C105.037 25.9362 104.777 25.9008 104.502 25.9008C103.983 25.9008 103.613 26.007 103.393 26.2193C103.174 26.4237 103.063 26.6753 103.063 26.9741C103.063 27.2571 103.169 27.489 103.382 27.6699C103.594 27.8507 103.877 27.9411 104.231 27.9411ZM108.569 28.7903V20.346H109.843V28.7903H108.569ZM111.357 28.7903V20.346H112.631V28.7903H111.357ZM116.822 28.979C116.233 28.979 115.706 28.8414 115.242 28.5662C114.778 28.291 114.413 27.9136 114.145 27.434C113.886 26.9544 113.756 26.408 113.756 25.7947C113.756 25.2208 113.882 24.69 114.133 24.2026C114.385 23.7151 114.735 23.3259 115.183 23.035C115.639 22.7362 116.162 22.5868 116.751 22.5868C117.373 22.5868 117.9 22.7205 118.332 22.9878C118.772 23.2551 119.107 23.6207 119.334 24.0846C119.562 24.5485 119.676 25.0713 119.676 25.6532C119.676 25.7397 119.673 25.8183 119.664 25.889C119.664 25.9598 119.661 26.0148 119.653 26.0542H115.006C115.069 26.6517 115.277 27.0998 115.631 27.3986C115.993 27.6974 116.402 27.8468 116.858 27.8468C117.267 27.8468 117.605 27.7564 117.872 27.5755C118.14 27.3868 118.352 27.1549 118.509 26.8797L119.558 27.3868C119.299 27.8586 118.945 28.2438 118.497 28.5426C118.049 28.8335 117.491 28.979 116.822 28.979ZM116.763 23.6718C116.339 23.6718 115.977 23.8016 115.678 24.061C115.38 24.3205 115.179 24.6665 115.077 25.0989H118.414C118.399 24.8944 118.332 24.6821 118.214 24.462C118.096 24.2419 117.916 24.0571 117.671 23.9077C117.435 23.7504 117.133 23.6718 116.763 23.6718ZM121.323 27.0448V23.8841H120.273V22.7755H121.323V21.0772H122.596V22.7755H124.07V23.8841H122.596V26.7736C122.596 27.0724 122.655 27.3003 122.773 27.4576C122.899 27.6149 123.107 27.6935 123.398 27.6935C123.547 27.6935 123.673 27.6738 123.776 27.6345C123.885 27.5952 123.995 27.5401 124.106 27.4694V28.7077C123.972 28.7627 123.83 28.806 123.681 28.8374C123.531 28.8689 123.354 28.8846 123.151 28.8846C122.592 28.8846 122.148 28.7235 121.818 28.4011C121.488 28.0709 121.323 27.6187 121.323 27.0448Z" fill="white"/>
</g>
<defs>
<linearGradient id="paint0_linear_291_2575" x1="25.8659" y1="23.6183" x2="13.0303" y2="38.6572" gradientUnits="userSpaceOnUse">
<stop stop-color="#4285F4"/>
<stop offset="1" stop-color="#1B74E8"/>
</linearGradient>
<clipPath id="clip0_291_2575">
<rect width="138.055" height="38.1558" fill="white"/>
</clipPath>
</defs>
</svg>
