<svg width="27" height="26" viewBox="0 0 27 26" fill="none" xmlns="http://www.w3.org/2000/svg">
<path d="M13.6133 25.6985C20.6285 25.6985 26.3154 20.0122 26.3154 12.9977C26.3154 5.98323 20.6285 0.296875 13.6133 0.296875C6.59808 0.296875 0.911133 5.98323 0.911133 12.9977C0.911133 20.0122 6.59808 25.6985 13.6133 25.6985Z" fill="#FE0303"/>
<path d="M26.206 10.4101C26.0372 9.58502 25.7851 8.77344 25.4569 7.99788C25.135 7.23627 24.7361 6.50191 24.2719 5.81494C23.8124 5.1345 23.2844 4.49455 22.7028 3.91317C22.1214 3.33179 21.4813 2.80391 20.8011 2.34418C20.1138 1.88002 19.3794 1.48145 18.6179 1.15934C17.8423 0.831216 17.0304 0.579366 16.2052 0.410542C15.3587 0.237308 14.4872 0.149414 13.6153 0.149414C12.7434 0.149414 11.8722 0.237307 11.0254 0.410572C10.2002 0.579395 9.38857 0.831248 8.61292 1.15938C7.85124 1.48145 7.11678 1.88005 6.42977 2.34421C5.74927 2.80397 5.10923 3.33185 4.5278 3.9132C3.94637 4.49458 3.4182 5.13453 2.95865 5.81497C2.49445 6.50191 2.0958 7.2363 1.77371 7.99791C1.44557 8.77344 1.19368 9.58505 1.02484 10.4101C0.851578 11.2568 0.763672 12.128 0.763672 12.9998C0.763672 13.8716 0.851578 14.743 1.02484 15.5894C1.19368 16.4145 1.44557 17.2263 1.77371 18.0019C2.09583 18.7632 2.49445 19.4976 2.95865 20.1848C3.4182 20.8652 3.94637 21.505 4.5278 22.0864C5.10923 22.668 5.74927 23.1958 6.42977 23.6556C7.11678 24.1195 7.85124 24.5184 8.61292 24.8404C9.38854 25.1683 10.2002 25.4204 11.0254 25.5892C11.118 25.6081 11.2108 25.626 11.304 25.643C12.0627 25.7806 12.8388 25.8502 13.6153 25.8502C13.673 25.8502 13.7304 25.8497 13.7881 25.849C14.3891 25.8411 14.9891 25.7915 15.5801 25.7009C15.7896 25.6688 15.9982 25.6315 16.2052 25.5892C17.0304 25.4204 17.8423 25.1683 18.6179 24.8404C19.3793 24.5184 20.1138 24.1196 20.801 23.6556C21.4813 23.1958 22.1213 22.668 22.7028 22.0864C23.2844 21.505 23.8124 20.8652 24.2719 20.1848C24.7361 19.4976 25.135 18.7632 25.4569 18.0019C25.785 17.2263 26.0371 16.4145 26.206 15.5894C26.3792 14.743 26.4669 13.8716 26.4669 12.9998C26.467 12.1279 26.3793 11.2568 26.206 10.4101ZM15.5801 25.3975C14.9398 25.4985 14.2835 25.551 13.6153 25.551C12.8267 25.551 12.055 25.478 11.3064 25.3382C5.4837 24.2513 1.06277 19.132 1.06277 12.9998C1.06277 6.07893 6.69376 0.448467 13.6153 0.448467C20.5369 0.448467 26.1679 6.0789 26.1679 12.9998C26.1679 19.2525 21.5716 24.4518 15.5801 25.3975Z" fill="#FE0303"/>
<path d="M21.5608 9.02042C21.3701 8.30711 20.8083 7.74538 20.095 7.55469C18.802 7.20825 13.6172 7.20825 13.6172 7.20825C13.6172 7.20825 8.43243 7.20825 7.13945 7.55469C6.42607 7.74535 5.86426 8.30711 5.6736 9.02042C5.32715 10.3133 5.32715 13.0107 5.32715 13.0107C5.32715 13.0107 5.32715 15.7082 5.6736 17.0011C5.86426 17.7144 6.4261 18.2761 7.13945 18.4668C8.43243 18.8132 13.6172 18.8132 13.6172 18.8132C13.6172 18.8132 18.802 18.8132 20.095 18.4668C20.8083 18.2761 21.3702 17.7144 21.5608 17.0011C21.9073 15.7082 21.9073 13.0107 21.9073 13.0107C21.9073 13.0107 21.9073 10.3133 21.5608 9.02042ZM11.9592 15.4975V10.5239L16.2667 13.0108L11.9592 15.4975Z" fill="white"/>
</svg>
