<svg width="369" height="226" viewBox="0 0 369 226" fill="none" xmlns="http://www.w3.org/2000/svg">
<g filter="url(#filter0_d_238_468)">
<path d="M24.7618 200.571L343.687 200.571C348.526 200.571 352.449 196.649 352.449 191.81V15.7616C352.449 10.9227 348.526 6.99992 343.687 6.99992L24.7618 6.99992C19.9229 6.99992 16.0001 10.9227 16.0001 15.7616V191.81C16.0001 196.649 19.9229 200.571 24.7618 200.571Z" fill="url(#paint0_radial_238_468)"/>
<path d="M343.687 200.352L24.7618 200.352C20.0439 200.352 16.2192 196.528 16.2192 191.81V15.7616C16.2192 11.0436 20.0438 7.21896 24.7618 7.21896L343.687 7.21896C348.405 7.21896 352.23 11.0436 352.23 15.7616V191.81C352.23 196.528 348.405 200.352 343.687 200.352Z" stroke="url(#paint1_linear_238_468)" stroke-width="0.438084"/>
</g>
<defs>
<filter id="filter0_d_238_468" x="0.3" y="0.3" width="367.849" height="224.971" filterUnits="userSpaceOnUse" color-interpolation-filters="sRGB">
<feFlood flood-opacity="0" result="BackgroundImageFix"/>
<feColorMatrix in="SourceAlpha" type="matrix" values="0 0 0 0 0 0 0 0 0 0 0 0 0 0 0 0 0 0 127 0" result="hardAlpha"/>
<feOffset dy="9"/>
<feGaussianBlur stdDeviation="7.85"/>
<feComposite in2="hardAlpha" operator="out"/>
<feColorMatrix type="matrix" values="0 0 0 0 0 0 0 0 0 0 0 0 0 0 0 0 0 0 0.35 0"/>
<feBlend mode="normal" in2="BackgroundImageFix" result="effect1_dropShadow_238_468"/>
<feBlend mode="normal" in="SourceGraphic" in2="effect1_dropShadow_238_468" result="shape"/>
</filter>
<radialGradient id="paint0_radial_238_468" cx="0" cy="0" r="1" gradientUnits="userSpaceOnUse" gradientTransform="translate(184.224 16.3554) rotate(90) scale(184.216 320.188)">
<stop stop-color="#1A73E9"/>
<stop offset="0.517981" stop-color="#0D318C"/>
<stop offset="1" stop-color="#0038FD"/>
</radialGradient>
<linearGradient id="paint1_linear_238_468" x1="16.0001" y1="52.0488" x2="352.449" y2="200.559" gradientUnits="userSpaceOnUse">
<stop stop-color="#AAAAAA"/>
<stop offset="1" stop-color="#3A3A3A"/>
</linearGradient>
</defs>
</svg>
