<svg width="369" height="226" viewBox="0 0 369 226" fill="none" xmlns="http://www.w3.org/2000/svg">
<g filter="url(#filter0_d_238_467)">
<path d="M24.7618 200.571L343.687 200.571C348.526 200.571 352.449 196.649 352.449 191.81V15.7616C352.449 10.9227 348.526 6.99992 343.687 6.99992L24.7618 6.99992C19.9229 6.99992 16.0001 10.9227 16.0001 15.7616V191.81C16.0001 196.649 19.9229 200.571 24.7618 200.571Z" fill="url(#paint0_radial_238_467)"/>
<path d="M343.687 200.352L24.7618 200.352C20.0439 200.352 16.2192 196.528 16.2192 191.81V15.7616C16.2192 11.0436 20.0438 7.21896 24.7618 7.21896L343.687 7.21896C348.405 7.21896 352.23 11.0436 352.23 15.7616V191.81C352.23 196.528 348.405 200.352 343.687 200.352Z" stroke="url(#paint1_linear_238_467)" stroke-width="0.438084"/>
</g>
<g opacity="0.09">
<g clip-path="url(#clip0_238_467)">
<path d="M231.818 160.683C231.818 163.152 230.055 164.201 227.886 162.942C225.716 161.683 225.728 159.659 227.886 158.412C230.043 157.165 231.818 158.178 231.818 160.683Z" fill="white"/>
<path d="M245.23 157.832C247.893 159.375 247.893 161.893 245.23 163.424C242.567 164.955 240.386 163.708 240.386 160.634C240.386 157.561 242.567 156.339 245.23 157.832Z" fill="white"/>
<path d="M254.327 148.178C254.327 151.523 251.96 152.881 249.075 151.215C246.191 149.548 246.179 146.808 249.075 145.141C251.972 143.475 254.327 144.833 254.327 148.178Z" fill="white"/>
<path d="M244.936 133.377C247.118 134.611 247.118 136.71 244.936 137.969C242.754 139.228 240.967 138.204 240.967 135.673C240.967 133.143 242.754 132.118 244.936 133.377Z" fill="white"/>
<path d="M231.141 135.673C231.141 137.524 229.834 138.277 228.232 137.352C226.629 136.426 226.629 134.883 228.232 133.994C229.834 133.105 231.141 133.821 231.141 135.673Z" fill="white"/>
<path d="M223.106 146.241C224.955 147.302 224.955 149.043 223.106 150.117C221.257 151.191 219.765 150.302 219.765 148.179C219.765 146.056 221.269 145.179 223.106 146.241Z" fill="white"/>
<path d="M223.291 171.016C225.349 172.25 225.349 174.151 223.291 175.348C221.232 176.546 219.592 175.558 219.592 173.176C219.592 170.793 221.183 169.818 223.291 171.016Z" fill="white"/>
<path d="M254.352 173.175C254.352 176.545 251.973 177.927 249.051 176.249C246.13 174.57 246.142 171.792 249.051 170.077C251.961 168.361 254.352 169.805 254.352 173.175Z" fill="white"/>
<path d="M267.406 144.414C270.981 146.488 270.981 149.87 267.406 151.944C263.831 154.017 260.897 152.314 260.897 148.179C260.897 144.043 263.831 142.34 267.406 144.414Z" fill="white"/>
<path d="M253.318 123.169C253.318 125.552 251.629 126.527 249.62 125.342C247.61 124.157 247.561 122.206 249.62 121.009C251.678 119.812 253.318 120.799 253.318 123.169Z" fill="white"/>
<path d="M222.536 122.232C222.733 122.297 222.905 122.423 223.027 122.591C223.149 122.76 223.214 122.963 223.214 123.171C223.214 123.379 223.149 123.581 223.027 123.75C222.905 123.918 222.733 124.044 222.536 124.109C221.636 124.627 220.909 124.207 220.909 123.171C220.909 122.134 221.636 121.726 222.536 122.232Z" fill="white"/>
<path d="M209.497 148.177C209.497 150.004 208.203 150.757 206.625 149.843C205.047 148.93 205.035 147.374 206.625 146.51C208.215 145.646 209.497 146.35 209.497 148.177Z" fill="white"/>
<path d="M231.843 185.679C231.843 188.148 230.055 189.234 227.873 187.975C225.692 186.716 225.692 184.642 227.873 183.383C230.055 182.124 231.843 183.161 231.843 185.679Z" fill="white"/>
<path d="M245.133 183.037C247.599 184.494 247.599 186.864 245.133 188.32C242.668 189.777 240.572 188.579 240.572 185.679C240.572 182.778 242.631 181.593 245.133 183.037Z" fill="white"/>
<path d="M267.371 169.471C270.896 171.508 270.896 174.841 267.371 176.878C263.845 178.914 260.96 177.248 260.96 173.174C260.96 169.101 263.845 167.435 267.371 169.471Z" fill="white"/>
<path d="M277.255 160.682C277.255 165.274 274.001 167.15 270.032 164.854C266.062 162.558 266.062 158.793 270.032 156.497C274.001 154.201 277.255 156.09 277.255 160.682Z" fill="white"/>
<path d="M276.852 135.674C276.852 139.871 273.881 141.599 270.244 139.488C266.608 137.378 266.62 133.958 270.244 131.86C273.868 129.761 276.852 131.477 276.852 135.674Z" fill="white"/>
<path d="M266.904 120.281C269.653 121.873 269.653 124.478 266.904 126.058C264.155 127.638 261.911 126.354 261.911 123.169C261.911 119.985 264.155 118.701 266.904 120.281Z" fill="white"/>
<path d="M244.344 109.405C244.61 109.493 244.841 109.662 245.005 109.89C245.168 110.117 245.256 110.39 245.256 110.67C245.256 110.95 245.168 111.223 245.005 111.45C244.841 111.677 244.61 111.847 244.344 111.935C243.112 112.639 242.15 112.071 242.15 110.701C242.15 109.33 243.136 108.701 244.344 109.405Z" fill="white"/>
<path d="M229.994 110.678C229.994 111.431 229.452 111.74 228.761 111.357C228.621 111.307 228.499 111.213 228.413 111.091C228.327 110.968 228.281 110.822 228.281 110.672C228.281 110.522 228.327 110.376 228.413 110.254C228.499 110.131 228.621 110.038 228.761 109.987C229.452 109.617 229.994 109.925 229.994 110.678Z" fill="white"/>
<path d="M208.363 123.169C208.363 123.922 207.833 124.231 207.192 123.86C207.051 123.809 206.929 123.716 206.843 123.594C206.757 123.471 206.711 123.325 206.711 123.175C206.711 123.025 206.757 122.879 206.843 122.757C206.929 122.634 207.051 122.541 207.192 122.49C207.833 122.12 208.363 122.416 208.363 123.169Z" fill="white"/>
<path d="M201.038 134.526C201.268 134.617 201.466 134.775 201.605 134.979C201.744 135.184 201.818 135.426 201.818 135.674C201.818 135.921 201.744 136.163 201.605 136.368C201.466 136.572 201.268 136.731 201.038 136.822C199.941 137.463 199.041 136.945 199.041 135.674C199.041 134.402 199.941 133.896 201.038 134.526Z" fill="white"/>
<path d="M201.322 159.065C201.666 159.182 201.964 159.404 202.176 159.7C202.387 159.995 202.501 160.35 202.501 160.713C202.501 161.077 202.387 161.431 202.176 161.727C201.964 162.022 201.666 162.244 201.322 162.361C199.757 163.275 198.462 162.534 198.462 160.72C198.462 158.905 199.757 158.115 201.322 159.065Z" fill="white"/>
<path d="M209.729 173.176C209.729 175.25 208.262 176.101 206.462 175.065C204.663 174.028 204.675 172.336 206.462 171.3C208.25 170.263 209.729 171.114 209.729 173.176Z" fill="white"/>
<path d="M209.322 198.183C209.322 199.837 208.089 200.516 206.708 199.689C206.391 199.584 206.114 199.381 205.918 199.11C205.722 198.838 205.617 198.512 205.617 198.177C205.617 197.842 205.722 197.515 205.918 197.244C206.114 196.972 206.391 196.77 206.708 196.665C208.138 195.838 209.322 196.517 209.322 198.183Z" fill="white"/>
<path d="M223.054 196.345C224.805 197.357 224.805 199.011 223.054 200.048C221.304 201.085 219.874 200.233 219.874 198.209C219.874 196.184 221.304 195.333 223.054 196.345Z" fill="white"/>
<path d="M253.587 198.182C253.587 200.811 251.714 201.885 249.446 200.577C247.177 199.268 247.165 197.096 249.446 195.787C251.726 194.479 253.587 195.54 253.587 198.182Z" fill="white"/>
<path d="M266.916 195.27C269.69 196.875 269.69 199.491 266.916 201.096C264.143 202.701 261.887 201.38 261.887 198.183C261.887 194.986 264.143 193.628 266.916 195.27Z" fill="white"/>
<path d="M276.751 185.68C276.751 189.778 273.842 191.457 270.292 189.383C266.742 187.309 266.742 183.976 270.292 181.977C273.842 179.977 276.751 181.582 276.751 185.68Z" fill="white"/>
<path d="M289.572 155.968C294.059 158.56 294.059 162.794 289.572 165.386C285.085 167.978 281.424 165.855 281.424 160.683C281.424 155.511 285.097 153.375 289.572 155.968Z" fill="white"/>
<path d="M299.655 148.18C299.655 153.5 295.883 155.685 291.272 153.018C286.662 150.352 286.674 145.995 291.272 143.341C295.87 140.687 299.655 142.847 299.655 148.18Z" fill="white"/>
<path d="M289.386 131.306C293.553 133.775 293.553 137.651 289.386 140.058C285.22 142.465 281.805 140.49 281.805 135.676C281.805 130.862 285.22 128.887 289.386 131.306Z" fill="white"/>
<path d="M275.348 110.679C275.348 113.444 273.388 114.567 270.996 113.148C268.605 111.728 268.605 109.445 270.996 108.124C273.388 106.803 275.348 107.914 275.348 110.679Z" fill="white"/>
<path d="M266.1 96.6799C266.411 96.7872 266.68 96.9886 266.871 97.2564C267.061 97.5241 267.164 97.8447 267.164 98.1735C267.164 98.5023 267.061 98.8229 266.871 99.0906C266.68 99.3584 266.411 99.5599 266.1 99.6671C264.683 100.482 263.524 99.8152 263.524 98.1735C263.524 96.5318 264.683 95.8652 266.1 96.6799Z" fill="white"/>
<path d="M251.974 98.1721C251.974 99.2707 251.198 99.7274 250.248 99.1719C250.036 99.1044 249.851 98.9712 249.72 98.7914C249.589 98.6117 249.518 98.3947 249.518 98.1721C249.518 97.9494 249.589 97.7325 249.72 97.5528C249.851 97.373 250.036 97.2397 250.248 97.1722C251.198 96.6167 251.974 97.0735 251.974 98.1721Z" fill="white"/>
<path d="M222.056 98.0495C222.18 98.0495 222.18 98.2347 222.056 98.3088C221.933 98.3828 221.835 98.3087 221.835 98.1729C221.835 98.0371 221.946 97.9754 222.056 98.0495Z" fill="white"/>
<path d="M200.471 110.493C200.51 110.504 200.545 110.527 200.57 110.559C200.595 110.592 200.608 110.631 200.608 110.672C200.608 110.713 200.595 110.753 200.57 110.785C200.545 110.818 200.51 110.841 200.471 110.851C200.298 110.95 200.163 110.851 200.163 110.678C200.163 110.506 200.298 110.407 200.471 110.493Z" fill="white"/>
<path d="M187.132 135.675C187.132 136.798 186.343 137.255 185.37 136.7C185.158 136.625 184.974 136.486 184.845 136.303C184.715 136.119 184.645 135.9 184.645 135.675C184.645 135.45 184.715 135.231 184.845 135.047C184.974 134.864 185.158 134.725 185.37 134.65C186.306 134.095 187.132 134.552 187.132 135.675Z" fill="white"/>
<path d="M179.467 146.932C179.722 147.022 179.943 147.189 180.099 147.41C180.256 147.631 180.34 147.896 180.34 148.166C180.34 148.437 180.256 148.702 180.099 148.923C179.943 149.144 179.722 149.311 179.467 149.401C178.234 150.092 177.322 149.537 177.322 148.166C177.322 146.796 178.283 146.253 179.467 146.932Z" fill="white"/>
<path d="M187.468 160.684C187.468 162.116 186.445 162.708 185.2 161.992C184.928 161.896 184.694 161.718 184.527 161.483C184.361 161.247 184.272 160.966 184.272 160.678C184.272 160.39 184.361 160.109 184.527 159.873C184.694 159.638 184.928 159.46 185.2 159.363C186.445 158.647 187.468 159.24 187.468 160.684Z" fill="white"/>
<path d="M201.261 184.138C201.583 184.247 201.863 184.455 202.061 184.732C202.259 185.008 202.366 185.34 202.366 185.681C202.366 186.021 202.259 186.353 202.061 186.63C201.863 186.907 201.583 187.114 201.261 187.224C199.795 188.076 198.599 187.372 198.599 185.681C198.599 183.99 199.795 183.286 201.261 184.138Z" fill="white"/>
<path d="M289.351 181.359C293.456 183.741 293.456 187.617 289.351 190C285.246 192.382 281.881 190.432 281.881 185.679C281.881 180.927 285.246 178.989 289.351 181.359Z" fill="white"/>
<path d="M299.63 173.175C299.63 178.495 295.87 180.667 291.285 178.001C286.699 175.335 286.687 171.002 291.285 168.348C295.882 165.694 299.63 167.867 299.63 173.175Z" fill="white"/>
<path d="M311.377 143.143C316.16 145.92 316.16 150.438 311.377 153.203C306.594 155.968 302.686 153.709 302.686 148.179C302.686 142.649 306.594 140.378 311.377 143.143Z" fill="white"/>
<path d="M298.483 123.169C298.483 127.44 295.463 129.181 291.777 127.045C288.091 124.91 288.079 121.429 291.777 119.306C295.475 117.183 298.483 118.911 298.483 123.169Z" fill="white"/>
<path d="M288.536 107.752C291.321 109.356 291.321 111.986 288.536 113.59C285.75 115.195 283.494 113.887 283.494 110.677C283.494 107.468 285.762 106.147 288.536 107.752Z" fill="white"/>
<path d="M273.571 85.6683C273.571 86.7423 272.807 87.1743 271.882 86.6436C271.681 86.5742 271.506 86.4436 271.382 86.2699C271.258 86.0961 271.192 85.888 271.192 85.6745C271.192 85.4611 271.258 85.253 271.382 85.0793C271.506 84.9055 271.681 84.7749 271.882 84.7056C272.807 84.1624 273.571 84.6068 273.571 85.6683Z" fill="white"/>
<path d="M243.862 85.2496C243.953 85.2769 244.034 85.3331 244.091 85.4098C244.148 85.4865 244.179 85.5797 244.179 85.6754C244.179 85.7711 244.148 85.8642 244.091 85.941C244.034 86.0177 243.953 86.074 243.862 86.1013C243.455 86.3358 243.122 86.1012 243.122 85.6692C243.122 85.2372 243.455 85.0027 243.862 85.2496Z" fill="white"/>
<path d="M229.365 85.6703C229.365 85.8308 229.254 85.8925 229.118 85.8184C228.983 85.7444 228.983 85.6086 229.118 85.5346C229.254 85.4605 229.365 85.5222 229.365 85.6703Z" fill="white"/>
<path d="M186.099 110.678C186.099 110.814 186 110.864 185.889 110.802C185.778 110.74 185.766 110.617 185.889 110.555C186.012 110.493 186.099 110.543 186.099 110.678Z" fill="white"/>
<path d="M179.047 122.666C179.153 122.703 179.245 122.772 179.309 122.864C179.374 122.956 179.409 123.065 179.409 123.178C179.409 123.29 179.374 123.4 179.309 123.492C179.245 123.584 179.153 123.653 179.047 123.69C178.554 123.974 178.159 123.69 178.159 123.172C178.159 122.653 178.554 122.382 179.047 122.666Z" fill="white"/>
<path d="M165.539 148.179C165.539 149.327 164.725 149.796 163.739 149.216C163.52 149.143 163.329 149.003 163.194 148.816C163.059 148.629 162.986 148.404 162.986 148.173C162.986 147.942 163.059 147.716 163.194 147.529C163.329 147.342 163.52 147.202 163.739 147.13C164.725 146.562 165.539 147.031 165.539 148.179Z" fill="white"/>
<path d="M179.308 172.2C179.514 172.266 179.693 172.397 179.821 172.572C179.948 172.747 180.017 172.958 180.017 173.175C180.017 173.392 179.948 173.603 179.821 173.778C179.693 173.953 179.514 174.084 179.308 174.15C178.383 174.693 177.631 174.249 177.631 173.175C177.631 172.101 178.383 171.669 179.308 172.2Z" fill="white"/>
<path d="M187.035 185.679C187.035 186.716 186.308 187.135 185.408 186.617C185.211 186.552 185.039 186.426 184.917 186.258C184.795 186.089 184.73 185.887 184.73 185.679C184.73 185.471 184.795 185.268 184.917 185.1C185.039 184.931 185.211 184.806 185.408 184.741C186.308 184.222 187.035 184.642 187.035 185.679Z" fill="white"/>
<path d="M299.013 198.185C299.013 202.888 295.672 204.826 291.617 202.468C287.561 200.111 287.549 196.296 291.617 193.902C295.684 191.507 299.013 193.47 299.013 198.185Z" fill="white"/>
<path d="M311.414 168.088C316.247 170.89 316.247 175.495 311.414 178.26C306.582 181.025 302.625 178.766 302.625 173.174C302.625 167.582 306.582 165.299 311.414 168.088Z" fill="white"/>
<path d="M321.622 160.682C321.622 166.336 317.615 168.644 312.722 165.817C307.828 162.991 307.791 158.411 312.722 155.535C317.652 152.659 321.622 155.016 321.622 160.682Z" fill="white"/>
<path d="M321.349 135.674C321.349 141.08 317.528 143.29 312.856 140.611C308.184 137.933 308.184 133.489 312.856 130.736C317.528 127.984 321.349 130.28 321.349 135.674Z" fill="white"/>
<path d="M310.811 119.047C314.743 121.318 314.743 125.034 310.811 127.305C306.879 129.576 303.661 127.725 303.661 123.17C303.661 118.615 306.928 116.763 310.811 119.047Z" fill="white"/>
<path d="M296.487 98.1731C296.487 100.481 294.848 101.42 292.863 100.272C290.879 99.1236 290.866 97.235 292.863 96.0746C294.86 94.9143 296.487 95.8648 296.487 98.1731Z" fill="white"/>
<path d="M287.526 84.5339C287.752 84.6269 287.946 84.7852 288.082 84.9885C288.218 85.1918 288.291 85.431 288.291 85.6757C288.291 85.9205 288.218 86.1598 288.082 86.3631C287.946 86.5664 287.752 86.7245 287.526 86.8175C286.429 87.4471 285.542 86.9286 285.542 85.6696C285.542 84.4105 286.429 83.9044 287.526 84.5339Z" fill="white"/>
<path d="M265.522 72.6585C265.622 72.6947 265.708 72.7609 265.769 72.8482C265.83 72.9354 265.863 73.0395 265.863 73.1461C265.863 73.2527 265.83 73.3567 265.769 73.4439C265.708 73.5312 265.622 73.5974 265.522 73.6336C265.053 73.8928 264.683 73.6337 264.683 73.1523C264.683 72.6709 265.053 72.424 265.522 72.6585Z" fill="white"/>
<path d="M251.184 73.1763C251.184 73.5219 250.938 73.6577 250.642 73.4849C250.346 73.3121 250.334 73.0282 250.642 72.8554C250.95 72.6825 251.184 72.8183 251.184 73.1763Z" fill="white"/>
<path d="M164.846 123.172C164.846 123.665 164.501 123.863 164.082 123.616C163.663 123.369 163.663 122.974 164.082 122.74C164.501 122.505 164.846 122.69 164.846 123.172Z" fill="white"/>
<path d="M157.574 134.908C158.313 135.328 158.313 136.019 157.574 136.451C156.834 136.883 156.23 136.525 156.23 135.673C156.23 134.822 156.834 134.476 157.574 134.908Z" fill="white"/>
<path d="M157.573 159.907C157.734 159.961 157.874 160.065 157.973 160.204C158.072 160.342 158.125 160.508 158.125 160.678C158.125 160.848 158.072 161.014 157.973 161.153C157.874 161.291 157.734 161.395 157.573 161.45C156.833 161.882 156.229 161.536 156.229 160.684C156.229 159.833 156.833 159.475 157.573 159.907Z" fill="white"/>
<path d="M165.068 173.174C165.068 173.878 164.575 174.174 163.959 173.816C163.841 173.762 163.741 173.675 163.671 173.566C163.601 173.456 163.563 173.329 163.563 173.199C163.563 173.069 163.601 172.942 163.671 172.832C163.741 172.723 163.841 172.636 163.959 172.582C164.575 172.187 165.068 172.471 165.068 173.174Z" fill="white"/>
<path d="M178.911 197.801C178.991 197.827 179.061 197.877 179.11 197.944C179.16 198.012 179.187 198.094 179.187 198.178C179.187 198.261 179.16 198.343 179.11 198.411C179.061 198.479 178.991 198.529 178.911 198.554C178.554 198.752 178.27 198.554 178.27 198.184C178.27 197.813 178.603 197.604 178.911 197.801Z" fill="white"/>
<path d="M311.29 193.295C315.937 195.986 315.937 200.381 311.29 203.059C306.643 205.738 302.858 203.541 302.858 198.184C302.858 192.826 306.655 190.617 311.29 193.295Z" fill="white"/>
<path d="M321.572 185.679C321.572 191.296 317.603 193.592 312.746 190.79C307.889 187.987 307.889 183.383 312.746 180.569C317.603 177.754 321.572 180.05 321.572 185.679Z" fill="white"/>
<path d="M333.085 155.512C338.016 158.351 338.016 163.005 333.085 165.844C328.154 168.683 324.148 166.362 324.148 160.684C324.148 155.006 328.167 152.673 333.085 155.512Z" fill="white"/>
<path d="M343.328 148.179C343.328 153.918 339.26 156.264 334.305 153.4C329.349 150.536 329.374 145.833 334.305 142.957C339.236 140.081 343.328 142.439 343.328 148.179Z" fill="white"/>
<path d="M332.999 130.674C337.782 133.439 337.782 137.969 332.999 140.722C328.216 143.474 324.308 141.228 324.308 135.698C324.308 130.168 328.216 127.884 332.999 130.674Z" fill="white"/>
<path d="M319.735 110.678C319.735 114.53 316.999 116.11 313.67 114.184C310.342 112.258 310.33 109.098 313.67 107.173C317.011 105.247 319.735 106.815 319.735 110.678Z" fill="white"/>
<path d="M309.86 95.778C312.14 97.0987 312.14 99.2466 309.86 100.567C307.579 101.888 305.718 100.802 305.718 98.1727C305.718 95.5434 307.579 94.4572 309.86 95.778Z" fill="white"/>
<path d="M295.08 73.1762C295.08 74.139 294.39 74.534 293.564 74.0526C293.382 73.9872 293.226 73.8673 293.115 73.7094C293.004 73.5514 292.945 73.363 292.945 73.17C292.945 72.977 293.004 72.7887 293.115 72.6307C293.226 72.4728 293.382 72.3529 293.564 72.2875C294.39 71.8061 295.08 72.201 295.08 73.1762Z" fill="white"/>
<path d="M287.279 59.9456C287.433 59.9954 287.567 60.0926 287.662 60.2235C287.757 60.3544 287.808 60.512 287.808 60.6739C287.808 60.8357 287.757 60.9935 287.662 61.1244C287.567 61.2552 287.433 61.3525 287.279 61.4022C286.588 61.8096 286.046 61.4762 286.046 60.6739C286.046 59.8715 286.588 59.5383 287.279 59.9456Z" fill="white"/>
<path d="M272.941 60.6728C272.941 61.1419 272.609 61.3271 272.202 61.0925C272.11 61.0652 272.03 61.009 271.973 60.9322C271.916 60.8555 271.885 60.7623 271.885 60.6666C271.885 60.5709 271.916 60.4778 271.973 60.4011C272.03 60.3243 272.11 60.2682 272.202 60.2408C272.596 60.0063 272.941 60.2038 272.941 60.6728Z" fill="white"/>
<path d="M243.68 60.5615C243.7 60.5716 243.718 60.5873 243.73 60.607C243.743 60.6266 243.749 60.6493 243.749 60.6725C243.749 60.6957 243.743 60.7184 243.73 60.7381C243.718 60.7577 243.7 60.7735 243.68 60.7836C243.661 60.7928 243.64 60.7969 243.619 60.7958C243.598 60.7946 243.578 60.7883 243.56 60.7772C243.543 60.7661 243.528 60.7506 243.518 60.7323C243.508 60.714 243.503 60.6934 243.503 60.6725C243.503 60.6516 243.508 60.6311 243.518 60.6128C243.528 60.5945 243.543 60.579 243.56 60.5679C243.578 60.5568 243.598 60.5504 243.619 60.5493C243.64 60.5481 243.661 60.5523 243.68 60.5615Z" fill="white"/>
<path d="M200.434 60.5491C200.558 60.6232 200.558 60.7219 200.434 60.796C200.311 60.8701 200.237 60.796 200.237 60.6725C200.237 60.5491 200.323 60.4874 200.434 60.5491Z" fill="white"/>
<path d="M186.074 60.6724C186.074 60.7835 186 60.8329 185.901 60.7712C185.803 60.7094 185.79 60.623 185.901 60.5613C186.012 60.4996 186.074 60.5613 186.074 60.6724Z" fill="white"/>
<path d="M157.241 185.468C157.438 185.579 157.438 185.764 157.241 185.888C157.044 186.011 156.896 185.888 156.896 185.678C156.896 185.468 157.056 185.357 157.241 185.468Z" fill="white"/>
<path d="M333.123 180.457C338.053 183.321 338.053 188.036 333.123 190.9C328.192 193.764 324.075 191.431 324.075 185.678C324.075 179.926 328.143 177.581 333.123 180.457Z" fill="white"/>
<path d="M343.354 173.175C343.354 178.939 339.273 181.309 334.293 178.421C329.313 175.532 329.301 170.817 334.293 167.928C339.286 165.04 343.354 167.41 343.354 173.175Z" fill="white"/>
<path d="M354.781 142.872C359.822 145.797 359.822 150.562 354.781 153.475C349.739 156.388 345.609 154.006 345.609 148.18C345.609 142.353 349.739 139.959 354.781 142.872Z" fill="white"/>
<path d="M342.614 123.17C342.614 128.231 339.039 130.305 334.663 127.774C330.287 125.244 330.287 121.109 334.663 118.578C339.039 116.048 342.614 118.121 342.614 123.17Z" fill="white"/>
<path d="M332.295 106.864C335.919 108.963 335.919 112.394 332.295 114.48C328.67 116.566 325.712 114.863 325.712 110.678C325.712 106.494 328.67 104.753 332.295 106.864Z" fill="white"/>
<path d="M317.602 85.6691C317.602 87.5083 316.369 88.249 314.73 87.3356C314.383 87.218 314.082 86.9946 313.869 86.6968C313.655 86.399 313.541 86.0417 313.541 85.6753C313.541 85.3088 313.655 84.9515 313.869 84.6537C314.082 84.3559 314.383 84.1326 314.73 84.0151C316.308 83.0893 317.602 83.8422 317.602 85.6691Z" fill="white"/>
<path d="M309.135 72.054C309.347 72.1537 309.526 72.3117 309.652 72.5095C309.777 72.7073 309.844 72.9368 309.844 73.1711C309.844 73.4054 309.777 73.6349 309.652 73.8327C309.526 74.0306 309.347 74.1886 309.135 74.2882C308.063 74.9054 307.188 74.3993 307.188 73.1773C307.188 71.9552 308.063 71.4245 309.135 72.054Z" fill="white"/>
<path d="M343.551 198.183C343.551 204.133 339.335 206.564 334.195 203.59C329.054 200.615 329.042 195.739 334.195 192.764C339.347 189.789 343.551 192.221 343.551 198.183Z" fill="white"/>
<path d="M354.733 167.953C359.663 170.829 359.663 175.532 354.733 178.396C349.802 181.26 345.709 178.914 345.709 173.174C345.709 167.434 349.765 165.089 354.733 167.953Z" fill="white"/>
<path d="M365.048 160.684C365.048 166.461 360.955 168.831 355.951 165.93C350.946 163.03 350.946 158.314 355.951 155.426C360.955 152.537 365.048 154.895 365.048 160.684Z" fill="white"/>
<path d="M365.048 135.675C365.048 141.539 360.906 143.946 355.827 141.008C350.749 138.07 350.761 133.281 355.827 130.343C360.894 127.405 365.048 129.812 365.048 135.675Z" fill="white"/>
<path d="M354.509 118.332C359.094 120.986 359.094 125.318 354.509 127.972C349.923 130.626 346.163 128.454 346.163 123.146C346.163 117.838 349.923 115.702 354.509 118.332Z" fill="white"/>
<path d="M341.013 98.1742C341.013 101.705 338.548 103.112 335.466 101.384C332.384 99.6555 332.409 96.73 335.466 94.9648C338.523 93.1996 341.013 94.6438 341.013 98.1742Z" fill="white"/>
<path d="M331.3 83.596C333.285 84.744 333.285 86.6079 331.3 87.7558C329.315 88.9038 327.713 87.9657 327.713 85.6697C327.713 83.3738 329.303 82.448 331.3 83.596Z" fill="white"/>
<path d="M317.245 60.6733C317.245 62.1546 316.197 62.7718 314.915 62.0188C314.633 61.924 314.389 61.7432 314.216 61.5018C314.042 61.2604 313.949 60.9706 313.949 60.6733C313.949 60.376 314.042 60.0862 314.216 59.8448C314.389 59.6034 314.633 59.4226 314.915 59.3279C316.197 58.5749 317.245 59.192 317.245 60.6733Z" fill="white"/>
<path d="M354.806 192.838C359.885 195.776 359.885 200.59 354.806 203.528C349.727 206.466 345.561 204.059 345.561 198.183C345.561 192.308 349.727 189.925 354.806 192.838Z" fill="white"/>
<path d="M364.888 185.679C364.888 191.357 360.869 193.677 355.951 190.838C351.032 187.999 351.02 183.358 355.951 180.519C360.881 177.68 364.888 180.05 364.888 185.679Z" fill="white"/>
<path d="M353.76 94.6556C357.1 96.5936 357.1 99.7536 353.76 101.692C350.419 103.63 347.67 102.037 347.67 98.1736C347.67 94.31 350.407 92.73 353.76 94.6556Z" fill="white"/>
<path d="M339.299 73.1768C339.299 75.0654 337.955 75.8431 336.316 74.8926C334.676 73.9422 334.676 72.4239 336.316 71.4487C337.955 70.4736 339.299 71.2759 339.299 73.1768Z" fill="white"/>
<path d="M330.988 59.0803C331.31 59.1897 331.59 59.3974 331.788 59.6741C331.986 59.9509 332.093 60.2828 332.093 60.6233C332.093 60.9638 331.986 61.2957 331.788 61.5724C331.59 61.8492 331.31 62.0569 330.988 62.1663C329.522 63.018 328.326 62.3267 328.326 60.6233C328.326 58.9198 329.522 58.278 330.988 59.0803Z" fill="white"/>
<path d="M352.797 71.3135C354.56 72.3381 354.56 74.0045 352.797 75.0167C351.034 76.0289 349.592 75.2018 349.592 73.1651C349.592 71.1284 351.034 70.3013 352.797 71.3135Z" fill="white"/>
</g>
</g>
<mask id="mask0_238_467" style="mask-type:alpha" maskUnits="userSpaceOnUse" x="249" y="159" width="85" height="27">
<path d="M269.824 176.68V168.718C269.824 168.317 269.499 167.993 269.099 167.993H267.486C267.085 167.993 266.76 168.317 266.76 168.718V176.68C266.76 181.929 269.483 185.361 273.795 185.361C275.21 185.361 276.493 184.808 277.417 183.917C277.877 183.472 278.644 183.796 278.644 184.436C278.644 184.837 278.969 185.161 279.37 185.161H280.983C281.383 185.161 281.708 184.837 281.708 184.436V168.718C281.708 168.317 281.383 167.993 280.983 167.993H279.37C278.969 167.993 278.644 168.317 278.644 168.718V176.654C278.644 179.944 276.829 182.296 274.306 182.296C271.583 182.296 269.824 180.114 269.824 176.68ZM330.741 176.786V184.756C330.741 185.102 331.022 185.384 331.369 185.384H333.169C333.516 185.384 333.797 185.102 333.797 184.756V176.786C333.797 171.503 331.084 168.046 326.714 168.046C325.212 168.046 323.859 168.663 322.921 169.645C322.524 170.06 321.83 169.796 321.83 169.222V159.984C321.83 159.637 321.548 159.355 321.201 159.355H319.402C319.055 159.355 318.774 159.637 318.774 159.984V184.756C318.774 185.102 319.055 185.384 319.402 185.384H321.201C321.548 185.384 321.83 185.102 321.83 184.756V176.815C321.83 173.502 323.686 171.103 326.2 171.103C328.97 171.103 330.741 173.33 330.741 176.786ZM312.891 176.786V184.756C312.891 185.102 313.172 185.384 313.519 185.384H315.319C315.666 185.384 315.947 185.102 315.947 184.756V176.786C315.947 171.503 313.233 168.046 308.863 168.046C307.362 168.046 306.008 168.663 305.07 169.645C304.674 170.06 303.979 169.796 303.979 169.222V159.984C303.979 159.637 303.698 159.355 303.351 159.355H301.551C301.204 159.355 300.923 159.637 300.923 159.984V184.756C300.923 185.102 301.204 185.384 301.551 185.384H303.351C303.698 185.384 303.979 185.102 303.979 184.756V176.815C303.979 173.502 305.836 171.103 308.349 171.103C311.12 171.103 312.891 173.33 312.891 176.786ZM260.968 176.786V184.756C260.968 185.102 261.249 185.384 261.596 185.384H263.396C263.743 185.384 264.024 185.102 264.024 184.756V176.786C264.024 171.503 261.311 168.046 256.941 168.046C255.439 168.046 254.085 168.663 253.147 169.645C252.751 170.06 252.056 169.796 252.056 169.222V159.984C252.056 159.637 251.775 159.355 251.428 159.355H249.628C249.281 159.355 249 159.637 249 159.984V184.756C249 185.102 249.281 185.384 249.628 185.384H251.428C251.775 185.384 252.056 185.102 252.056 184.756V176.815C252.056 173.502 253.913 171.103 256.426 171.103C259.197 171.103 260.968 173.33 260.968 176.786ZM287.955 173.138L287.962 173.088C287.967 173.054 287.973 173.017 287.974 173.01C288.14 171.664 289.549 170.648 291.251 170.648L291.319 170.649C292.813 170.649 293.876 171.269 294.569 172.544C294.643 172.68 294.815 172.731 294.951 172.656C295.088 172.582 295.138 172.411 295.064 172.274C294.274 170.822 293.014 170.086 291.321 170.086L291.253 170.085C289.233 170.085 287.619 171.286 287.415 172.939L287.405 173.002C287.401 173.034 287.396 173.063 287.395 173.067C287.377 173.22 287.486 173.358 287.639 173.379C287.651 173.38 287.663 173.381 287.675 173.381C287.814 173.381 287.934 173.279 287.955 173.138ZM295.709 180.005C295.709 177.427 293.977 176.791 291.529 176.174L291.238 176.098C290.557 175.917 289.419 175.615 288.683 174.92C288.57 174.814 288.391 174.819 288.285 174.932C288.178 175.045 288.183 175.224 288.296 175.33C289.136 176.123 290.361 176.448 291.093 176.642L291.392 176.72C293.943 177.364 295.145 177.897 295.145 180.005C295.145 181.641 293.572 182.783 291.319 182.783C289.645 182.783 288.206 181.95 287.564 180.608C287.497 180.468 287.328 180.408 287.188 180.475C287.048 180.543 286.989 180.711 287.056 180.851C287.792 182.39 289.426 183.346 291.319 183.346C293.903 183.346 295.709 181.972 295.709 180.005ZM293.554 172.634C293.67 172.53 293.679 172.352 293.575 172.236C293.069 171.674 292.451 171.388 291.631 171.335C291.478 171.325 291.342 171.442 291.332 171.597C291.322 171.753 291.439 171.887 291.595 171.897C292.258 171.94 292.755 172.167 293.157 172.614C293.212 172.675 293.289 172.707 293.366 172.707C293.433 172.707 293.5 172.683 293.554 172.634ZM296.405 182.02C296.775 181.409 296.962 180.734 296.962 180.013C296.962 176.418 293.977 175.665 291.797 175.115L291.575 175.057C290.351 174.731 289.253 174.349 289.252 173.275C289.257 173.072 289.304 172.886 289.392 172.72C289.466 172.583 289.414 172.413 289.276 172.339C289.139 172.266 288.969 172.318 288.895 172.456C288.765 172.699 288.696 172.97 288.689 173.268C288.689 174.871 290.405 175.328 291.43 175.602L291.659 175.661C293.881 176.222 296.399 176.857 296.399 180.013C296.399 180.63 296.239 181.207 295.923 181.728C295.843 181.861 295.885 182.034 296.018 182.115C296.064 182.142 296.114 182.156 296.164 182.156C296.259 182.156 296.352 182.107 296.405 182.02ZM294.606 183.673C294.744 183.6 294.795 183.429 294.722 183.292C294.648 183.155 294.478 183.103 294.341 183.177C293.487 183.633 292.442 183.875 291.319 183.875C289.13 183.875 287.143 182.705 286.375 180.965C286.337 180.879 286.312 180.788 286.301 180.697C286.283 180.542 286.142 180.431 285.988 180.45C285.834 180.468 285.723 180.608 285.742 180.762C285.759 180.91 285.799 181.055 285.86 181.193C286.716 183.134 288.91 184.438 291.319 184.438C292.535 184.438 293.672 184.174 294.606 183.673ZM294.037 181.315C294.401 180.957 294.593 180.516 294.593 180.04C294.593 179.648 294.501 179.29 294.319 178.977C294.222 178.81 294.098 178.652 293.949 178.506C293.837 178.398 293.659 178.4 293.55 178.511C293.442 178.622 293.444 178.8 293.555 178.909C293.667 179.019 293.76 179.137 293.832 179.259C293.965 179.489 294.03 179.744 294.03 180.04C294.03 180.366 293.899 180.66 293.642 180.913C293.17 181.378 292.328 181.648 291.396 181.633C290.842 181.625 290.314 181.494 289.868 181.254C289.544 181.079 289.335 180.832 289.196 180.669C289.169 180.637 289.146 180.609 289.124 180.585C289.021 180.469 288.843 180.459 288.726 180.562C288.61 180.665 288.6 180.843 288.703 180.96C288.722 180.981 288.743 181.006 288.766 181.033C288.922 181.217 289.183 181.525 289.601 181.75C290.126 182.032 290.744 182.187 291.387 182.196C291.414 182.196 291.44 182.197 291.466 182.197C292.517 182.197 293.474 181.87 294.037 181.315ZM291.623 177.671C291.662 177.52 291.57 177.367 291.419 177.329C291.215 177.278 290.995 177.227 290.767 177.179C287.929 176.581 286.663 175.388 286.663 173.311C286.663 171.031 288.544 169.498 291.343 169.498C293.018 169.498 295.131 170.436 295.809 172.495C295.858 172.643 296.018 172.723 296.165 172.675C296.313 172.626 296.393 172.467 296.344 172.319C295.578 169.994 293.214 168.935 291.343 168.935C288.207 168.935 286.1 170.694 286.1 173.311C286.1 176.412 288.697 177.318 290.651 177.73C290.872 177.777 291.084 177.825 291.281 177.875C291.305 177.881 291.328 177.884 291.351 177.884C291.477 177.884 291.591 177.799 291.623 177.671ZM298.054 180.013C298.054 178.295 297.655 177.167 296.761 176.356C296.646 176.252 296.468 176.261 296.363 176.375C296.259 176.491 296.268 176.669 296.383 176.773C297.159 177.478 297.491 178.447 297.491 180.013C297.491 182.883 294.895 184.967 291.319 184.967C288.887 184.967 286.544 183.636 285.488 181.656L285.458 181.601C285.377 181.453 285.207 181.145 285.07 180.691C285.025 180.542 284.868 180.457 284.72 180.503C284.57 180.548 284.486 180.705 284.531 180.854C284.685 181.364 284.873 181.708 284.964 181.872L284.99 181.921C286.142 184.08 288.685 185.53 291.319 185.53C295.221 185.53 298.054 183.21 298.054 180.013ZM290.673 178.701C290.715 178.551 290.627 178.396 290.477 178.354C289.137 177.979 286.346 177.199 285.604 174.675C285.56 174.526 285.403 174.44 285.254 174.484C285.105 174.528 285.02 174.685 285.064 174.834C285.894 177.658 289 178.526 290.326 178.897C290.351 178.904 290.377 178.907 290.402 178.907C290.525 178.907 290.638 178.826 290.673 178.701ZM285.473 172.528C285.862 170.05 288.157 168.406 291.206 168.406C291.25 168.406 291.294 168.406 291.339 168.407C291.499 168.405 291.622 168.285 291.625 168.129C291.627 167.974 291.503 167.846 291.347 167.844C287.941 167.786 285.356 169.638 284.916 172.44C284.892 172.594 284.997 172.738 285.151 172.762C285.166 172.765 285.181 172.766 285.195 172.766C285.332 172.766 285.451 172.667 285.473 172.528ZM297.3 172.639C297.152 172.639 297.027 172.522 297.019 172.372C296.977 172.004 296.188 169.765 293.723 168.833C293.578 168.778 293.505 168.615 293.56 168.47C293.615 168.325 293.777 168.251 293.923 168.306C296.783 169.387 297.563 171.987 297.582 172.342C297.59 172.497 297.471 172.63 297.315 172.638C297.31 172.639 297.305 172.639 297.3 172.639Z" fill="white"/>
</mask>
<g mask="url(#mask0_238_467)">
<path fill-rule="evenodd" clip-rule="evenodd" d="M269.823 176.68V168.718C269.823 168.317 269.499 167.993 269.098 167.993H267.485C267.084 167.993 266.76 168.317 266.76 168.718V176.68C266.76 181.929 269.483 185.361 273.794 185.361C275.21 185.361 276.493 184.808 277.416 183.917C277.877 183.472 278.644 183.796 278.644 184.436C278.644 184.837 278.969 185.161 279.369 185.161H280.982C281.383 185.161 281.707 184.837 281.707 184.436V168.718C281.707 168.317 281.383 167.993 280.982 167.993H279.369C278.969 167.993 278.644 168.317 278.644 168.718V176.654C278.644 179.944 276.829 182.296 274.305 182.296C271.582 182.296 269.823 180.114 269.823 176.68ZM330.741 176.786V184.756C330.741 185.102 331.022 185.384 331.369 185.384H333.169C333.515 185.384 333.797 185.102 333.797 184.756V176.786C333.797 171.503 331.083 168.046 326.713 168.046C325.212 168.046 323.858 168.663 322.92 169.645C322.524 170.06 321.829 169.796 321.829 169.222V159.984C321.829 159.637 321.548 159.355 321.201 159.355H319.401C319.054 159.355 318.773 159.637 318.773 159.984V184.756C318.773 185.102 319.054 185.384 319.401 185.384H321.201C321.548 185.384 321.829 185.102 321.829 184.756V176.815C321.829 173.502 323.686 171.103 326.199 171.103C328.97 171.103 330.741 173.33 330.741 176.786ZM312.89 176.786V184.756C312.89 185.102 313.171 185.384 313.518 185.384H315.318C315.665 185.384 315.946 185.102 315.946 184.756V176.786C315.946 171.503 313.233 168.046 308.863 168.046C307.361 168.046 306.008 168.663 305.07 169.645C304.674 170.06 303.979 169.796 303.979 169.222V159.984C303.979 159.637 303.698 159.355 303.35 159.355H301.551C301.204 159.355 300.923 159.637 300.923 159.984V184.756C300.923 185.102 301.204 185.384 301.551 185.384H303.35C303.698 185.384 303.979 185.102 303.979 184.756V176.815C303.979 173.502 305.835 171.103 308.349 171.103C311.119 171.103 312.89 173.33 312.89 176.786ZM260.967 176.786V184.756C260.967 185.102 261.248 185.384 261.595 185.384H263.395C263.742 185.384 264.023 185.102 264.023 184.756V176.786C264.023 171.503 261.31 168.046 256.94 168.046C255.438 168.046 254.085 168.663 253.147 169.645C252.751 170.06 252.056 169.796 252.056 169.222V159.984C252.056 159.637 251.774 159.355 251.428 159.355H249.628C249.281 159.355 249 159.637 249 159.984V184.756C249 185.102 249.281 185.384 249.628 185.384H251.428C251.774 185.384 252.056 185.102 252.056 184.756V176.815C252.056 173.502 253.912 171.103 256.426 171.103C259.196 171.103 260.967 173.33 260.967 176.786ZM287.954 173.138L287.962 173.088C287.967 173.054 287.972 173.017 287.974 173.01C288.139 171.664 289.549 170.648 291.25 170.648L291.318 170.649C292.812 170.649 293.876 171.269 294.569 172.544C294.643 172.68 294.814 172.731 294.951 172.656C295.087 172.582 295.138 172.411 295.064 172.274C294.274 170.822 293.014 170.086 291.321 170.086L291.253 170.085C289.232 170.085 287.618 171.286 287.415 172.939L287.405 173.002C287.4 173.034 287.396 173.063 287.395 173.067C287.377 173.22 287.485 173.358 287.638 173.379C287.651 173.38 287.663 173.381 287.675 173.381C287.813 173.381 287.934 173.279 287.954 173.138ZM295.708 180.005C295.708 177.427 293.976 176.791 291.529 176.174L291.237 176.098C290.557 175.917 289.418 175.615 288.682 174.92C288.569 174.814 288.391 174.819 288.284 174.932C288.178 175.045 288.183 175.224 288.296 175.33C289.136 176.123 290.361 176.448 291.092 176.642L291.391 176.72C293.943 177.364 295.145 177.897 295.145 180.005C295.145 181.641 293.571 182.783 291.318 182.783C289.644 182.783 288.205 181.95 287.563 180.608C287.496 180.468 287.328 180.408 287.188 180.475C287.047 180.543 286.988 180.711 287.055 180.851C287.792 182.39 289.425 183.346 291.318 183.346C293.903 183.346 295.708 181.972 295.708 180.005ZM293.554 172.634C293.669 172.53 293.679 172.352 293.575 172.236C293.068 171.674 292.45 171.388 291.631 171.335C291.477 171.325 291.341 171.442 291.331 171.597C291.321 171.753 291.439 171.887 291.594 171.897C292.258 171.94 292.754 172.167 293.156 172.614C293.212 172.675 293.288 172.707 293.366 172.707C293.433 172.707 293.5 172.683 293.554 172.634ZM296.405 182.02C296.774 181.409 296.961 180.734 296.961 180.013C296.961 176.418 293.976 175.665 291.797 175.115L291.574 175.057C290.351 174.731 289.252 174.349 289.252 173.275C289.257 173.072 289.304 172.886 289.392 172.72C289.465 172.583 289.413 172.413 289.276 172.339C289.138 172.266 288.968 172.318 288.895 172.456C288.765 172.699 288.695 172.97 288.689 173.268C288.689 174.871 290.404 175.328 291.429 175.602L291.659 175.661C293.88 176.222 296.398 176.857 296.398 180.013C296.398 180.63 296.238 181.207 295.923 181.728C295.842 181.861 295.885 182.034 296.018 182.115C296.063 182.142 296.114 182.156 296.164 182.156C296.259 182.156 296.352 182.107 296.405 182.02ZM294.606 183.673C294.743 183.6 294.795 183.429 294.721 183.292C294.648 183.155 294.477 183.103 294.34 183.177C293.487 183.633 292.442 183.875 291.318 183.875C289.129 183.875 287.143 182.705 286.374 180.965C286.336 180.879 286.311 180.788 286.301 180.697C286.282 180.542 286.142 180.431 285.988 180.45C285.833 180.468 285.723 180.608 285.741 180.762C285.758 180.91 285.798 181.055 285.859 181.193C286.716 183.134 288.91 184.438 291.318 184.438C292.534 184.438 293.671 184.174 294.606 183.673ZM294.037 181.315C294.4 180.957 294.592 180.516 294.592 180.04C294.592 179.648 294.5 179.29 294.318 178.977C294.222 178.81 294.097 178.652 293.948 178.506C293.837 178.398 293.659 178.4 293.55 178.511C293.441 178.622 293.443 178.8 293.554 178.909C293.667 179.019 293.76 179.137 293.831 179.259C293.964 179.489 294.029 179.744 294.029 180.04C294.029 180.366 293.899 180.66 293.642 180.913C293.169 181.378 292.328 181.648 291.395 181.633C290.842 181.625 290.314 181.494 289.867 181.254C289.543 181.079 289.334 180.832 289.196 180.669C289.169 180.637 289.145 180.609 289.124 180.585C289.02 180.469 288.842 180.459 288.726 180.562C288.61 180.665 288.599 180.843 288.703 180.96C288.721 180.981 288.743 181.006 288.766 181.033C288.922 181.217 289.183 181.525 289.6 181.75C290.126 182.032 290.744 182.187 291.387 182.196C291.413 182.196 291.44 182.197 291.466 182.197C292.517 182.197 293.473 181.87 294.037 181.315ZM291.623 177.671C291.661 177.52 291.57 177.367 291.419 177.329C291.214 177.278 290.995 177.227 290.767 177.179C287.928 176.581 286.663 175.388 286.663 173.311C286.663 171.031 288.543 169.498 291.342 169.498C293.018 169.498 295.13 170.436 295.809 172.495C295.857 172.643 296.017 172.723 296.165 172.675C296.312 172.626 296.393 172.467 296.344 172.319C295.577 169.994 293.214 168.935 291.342 168.935C288.206 168.935 286.099 170.694 286.099 173.311C286.099 176.412 288.697 177.318 290.651 177.73C290.871 177.777 291.083 177.825 291.281 177.875C291.304 177.881 291.327 177.884 291.35 177.884C291.476 177.884 291.591 177.799 291.623 177.671ZM298.053 180.013C298.053 178.295 297.655 177.167 296.761 176.356C296.646 176.252 296.467 176.261 296.363 176.375C296.258 176.491 296.267 176.669 296.382 176.773C297.159 177.478 297.49 178.447 297.49 180.013C297.49 182.883 294.894 184.967 291.318 184.967C288.887 184.967 286.544 183.636 285.487 181.656L285.457 181.601C285.376 181.453 285.207 181.145 285.07 180.691C285.025 180.542 284.868 180.457 284.719 180.503C284.57 180.548 284.486 180.705 284.531 180.854C284.685 181.364 284.873 181.708 284.964 181.872L284.99 181.921C286.142 184.08 288.685 185.53 291.318 185.53C295.221 185.53 298.053 183.21 298.053 180.013ZM290.673 178.701C290.714 178.551 290.627 178.396 290.477 178.354C289.136 177.979 286.346 177.199 285.603 174.675C285.56 174.526 285.403 174.44 285.254 174.484C285.104 174.528 285.019 174.685 285.063 174.834C285.894 177.658 288.999 178.526 290.325 178.897C290.351 178.904 290.376 178.907 290.401 178.907C290.524 178.907 290.638 178.826 290.673 178.701ZM285.473 172.528C285.861 170.05 288.157 168.406 291.205 168.406C291.249 168.406 291.294 168.406 291.338 168.407C291.498 168.405 291.622 168.285 291.624 168.129C291.627 167.974 291.502 167.846 291.347 167.844C287.941 167.786 285.356 169.638 284.916 172.44C284.892 172.594 284.997 172.738 285.151 172.762C285.166 172.765 285.18 172.766 285.195 172.766C285.331 172.766 285.451 172.667 285.473 172.528ZM297.3 172.639C297.151 172.639 297.027 172.522 297.019 172.372C296.976 172.004 296.187 169.765 293.723 168.833C293.578 168.778 293.504 168.615 293.559 168.47C293.614 168.325 293.777 168.251 293.922 168.306C296.782 169.387 297.562 171.987 297.581 172.342C297.59 172.497 297.47 172.63 297.315 172.638C297.31 172.639 297.305 172.639 297.3 172.639Z" fill="white"/>
</g>
<defs>
<filter id="filter0_d_238_467" x="0.3" y="0.3" width="367.849" height="224.971" filterUnits="userSpaceOnUse" color-interpolation-filters="sRGB">
<feFlood flood-opacity="0" result="BackgroundImageFix"/>
<feColorMatrix in="SourceAlpha" type="matrix" values="0 0 0 0 0 0 0 0 0 0 0 0 0 0 0 0 0 0 127 0" result="hardAlpha"/>
<feOffset dy="9"/>
<feGaussianBlur stdDeviation="7.85"/>
<feComposite in2="hardAlpha" operator="out"/>
<feColorMatrix type="matrix" values="0 0 0 0 0 0 0 0 0 0 0 0 0 0 0 0 0 0 0.35 0"/>
<feBlend mode="normal" in2="BackgroundImageFix" result="effect1_dropShadow_238_467"/>
<feBlend mode="normal" in="SourceGraphic" in2="effect1_dropShadow_238_467" result="shape"/>
</filter>
<radialGradient id="paint0_radial_238_467" cx="0" cy="0" r="1" gradientUnits="userSpaceOnUse" gradientTransform="translate(184.224 16.3554) rotate(90) scale(184.216 320.188)">
<stop stop-color="#1A73E9"/>
<stop offset="0.517981" stop-color="#0D318C"/>
<stop offset="1" stop-color="#0038FD"/>
</radialGradient>
<linearGradient id="paint1_linear_238_467" x1="16.0001" y1="52.0488" x2="352.449" y2="200.559" gradientUnits="userSpaceOnUse">
<stop stop-color="#AAAAAA"/>
<stop offset="1" stop-color="#3A3A3A"/>
</linearGradient>
<clipPath id="clip0_238_467">
<rect width="234" height="190" rx="8.76168" transform="matrix(-1 0 0 1 352 10.3555)" fill="white"/>
</clipPath>
</defs>
</svg>
