<svg width="19" height="18" viewBox="0 0 19 18" fill="none" xmlns="http://www.w3.org/2000/svg">
<g opacity="0.51" clip-path="url(#clip0_235_902)">
<path d="M13.117 14.0785C13.117 16.1146 11.4646 17.767 9.42852 17.767H4.26465C2.22861 17.767 0.576172 16.1146 0.576172 14.0785V8.91465C0.576172 6.87861 2.22861 5.22618 4.26465 5.22618H5.00235C5.40808 5.22618 5.74004 5.55814 5.74004 5.96387C5.74004 6.3696 5.40808 6.70157 5.00235 6.70157H4.26465C3.04745 6.70157 2.05156 7.69746 2.05156 8.91465V14.0785C2.05156 15.2957 3.04745 16.2916 4.26465 16.2916H9.42852C10.6457 16.2916 11.6416 15.2957 11.6416 14.0785C11.6416 13.6728 11.9736 13.3408 12.3793 13.3408C12.785 13.3408 13.117 13.6728 13.117 14.0785ZM17.6391 4.40733L13.6481 0.283615C13.3678 -0.011463 12.8957 -0.0188399 12.608 0.268861C12.3203 0.556563 12.3055 1.02131 12.5932 1.30901L16.385 5.2188H10.1662C8.13017 5.2188 6.47774 6.87124 6.47774 8.90728V12.5958C6.47774 13.0015 6.8097 13.3335 7.21543 13.3335C7.62116 13.3335 7.95313 13.0015 7.95313 12.5958V8.90728C7.95313 7.69008 8.94902 6.69419 10.1662 6.69419H16.3776L12.5859 10.604C12.3055 10.8991 12.3055 11.3638 12.6006 11.6441C12.7408 11.7843 12.9326 11.8507 13.117 11.8507C13.3014 11.8507 13.5006 11.7769 13.6481 11.6294L17.6317 7.52041C18.4948 6.65731 18.4948 5.25568 17.6391 4.39996V4.40733Z" fill="white"/>
</g>
<defs>
<clipPath id="clip0_235_902">
<rect width="17.7047" height="17.7047" fill="white" transform="translate(0.576172 0.0615234)"/>
</clipPath>
</defs>
</svg>
