<svg width="336" height="195" viewBox="0 0 336 195" fill="none" xmlns="http://www.w3.org/2000/svg">
<path d="M327.25 194.345L8.75 194.345C4.03833 194.345 0.21875 190.526 0.21875 185.814V10.0007C0.21875 5.28902 4.03833 1.46944 8.75 1.46944L327.25 1.46944C331.962 1.46944 335.781 5.28902 335.781 10.0007V185.814C335.781 190.526 331.962 194.345 327.25 194.345Z" fill="url(#paint0_radial_400_3304)" stroke="url(#paint1_linear_400_3304)" stroke-width="0.4375"/>
<g opacity="0.09">
<g clip-path="url(#clip0_400_3304)">
<path d="M215.529 154.729C215.529 157.194 213.769 158.242 211.602 156.985C209.436 155.727 209.448 153.705 211.602 152.46C213.757 151.215 215.529 152.226 215.529 154.729Z" fill="white"/>
<path d="M228.925 151.882C231.584 153.423 231.584 155.937 228.925 157.466C226.266 158.995 224.087 157.749 224.087 154.68C224.087 151.61 226.266 150.39 228.925 151.882Z" fill="white"/>
<path d="M238.009 142.24C238.009 145.581 235.645 146.937 232.765 145.273C229.884 143.609 229.872 140.872 232.765 139.208C235.658 137.543 238.009 138.9 238.009 142.24Z" fill="white"/>
<path d="M228.63 127.459C230.809 128.692 230.809 130.787 228.63 132.045C226.451 133.302 224.666 132.279 224.666 129.752C224.666 127.225 226.451 126.201 228.63 127.459Z" fill="white"/>
<path d="M214.854 129.752C214.854 131.601 213.55 132.353 211.949 131.429C210.349 130.504 210.349 128.963 211.949 128.076C213.55 127.188 214.854 127.903 214.854 129.752Z" fill="white"/>
<path d="M206.83 140.306C208.676 141.366 208.676 143.104 206.83 144.177C204.983 145.249 203.494 144.362 203.494 142.241C203.494 140.121 204.996 139.246 206.83 140.306Z" fill="white"/>
<path d="M207.015 165.047C209.071 166.28 209.071 168.178 207.015 169.374C204.959 170.57 203.322 169.584 203.322 167.204C203.322 164.825 204.91 163.851 207.015 165.047Z" fill="white"/>
<path d="M238.034 167.204C238.034 170.569 235.658 171.95 232.741 170.274C229.823 168.597 229.835 165.823 232.741 164.11C235.646 162.396 238.034 163.839 238.034 167.204Z" fill="white"/>
<path d="M251.071 138.481C254.641 140.552 254.641 143.93 251.071 146.001C247.5 148.072 244.571 146.371 244.571 142.241C244.571 138.111 247.5 136.41 251.071 138.481Z" fill="white"/>
<path d="M237.001 117.265C237.001 119.644 235.314 120.618 233.308 119.434C231.301 118.251 231.252 116.303 233.308 115.107C235.364 113.912 237.001 114.898 237.001 117.265Z" fill="white"/>
<path d="M206.261 116.329C206.458 116.394 206.63 116.52 206.751 116.688C206.873 116.856 206.938 117.058 206.938 117.266C206.938 117.474 206.873 117.676 206.751 117.844C206.63 118.013 206.458 118.138 206.261 118.203C205.363 118.721 204.636 118.302 204.636 117.266C204.636 116.231 205.363 115.824 206.261 116.329Z" fill="white"/>
<path d="M193.239 142.239C193.239 144.064 191.947 144.816 190.371 143.904C188.795 142.991 188.783 141.438 190.371 140.575C191.959 139.712 193.239 140.415 193.239 142.239Z" fill="white"/>
<path d="M215.555 179.691C215.555 182.157 213.77 183.242 211.591 181.984C209.412 180.727 209.412 178.656 211.591 177.399C213.77 176.141 215.555 177.177 215.555 179.691Z" fill="white"/>
<path d="M228.827 177.053C231.289 178.508 231.289 180.875 228.827 182.329C226.365 183.784 224.272 182.588 224.272 179.691C224.272 176.794 226.328 175.611 228.827 177.053Z" fill="white"/>
<path d="M251.035 163.505C254.556 165.539 254.556 168.868 251.035 170.902C247.514 172.936 244.634 171.272 244.634 167.204C244.634 163.135 247.514 161.471 251.035 163.505Z" fill="white"/>
<path d="M260.907 154.727C260.907 159.313 257.657 161.187 253.693 158.894C249.729 156.601 249.729 152.841 253.693 150.548C257.657 148.255 260.907 150.142 260.907 154.727Z" fill="white"/>
<path d="M260.503 129.753C260.503 133.944 257.536 135.67 253.904 133.562C250.273 131.454 250.285 128.04 253.904 125.944C257.524 123.848 260.503 125.562 260.503 129.753Z" fill="white"/>
<path d="M250.569 114.381C253.314 115.971 253.314 118.572 250.569 120.15C247.824 121.728 245.583 120.446 245.583 117.265C245.583 114.085 247.824 112.803 250.569 114.381Z" fill="white"/>
<path d="M228.04 103.519C228.305 103.607 228.535 103.776 228.699 104.003C228.862 104.23 228.95 104.502 228.95 104.782C228.95 105.062 228.862 105.334 228.699 105.561C228.535 105.788 228.305 105.958 228.04 106.046C226.808 106.748 225.848 106.181 225.848 104.813C225.848 103.445 226.833 102.816 228.04 103.519Z" fill="white"/>
<path d="M213.709 104.791C213.709 105.543 213.167 105.851 212.478 105.469C212.337 105.418 212.216 105.325 212.13 105.202C212.044 105.08 211.998 104.934 211.998 104.784C211.998 104.635 212.044 104.489 212.13 104.366C212.216 104.244 212.337 104.151 212.478 104.1C213.167 103.73 213.709 104.039 213.709 104.791Z" fill="white"/>
<path d="M192.105 117.265C192.105 118.017 191.576 118.325 190.936 117.955C190.795 117.904 190.674 117.811 190.588 117.689C190.502 117.566 190.456 117.42 190.456 117.271C190.456 117.121 190.502 116.975 190.588 116.853C190.674 116.73 190.795 116.637 190.936 116.587C191.576 116.217 192.105 116.513 192.105 117.265Z" fill="white"/>
<path d="M184.791 128.606C185.02 128.697 185.217 128.855 185.356 129.06C185.495 129.264 185.569 129.505 185.569 129.753C185.569 130 185.495 130.241 185.356 130.446C185.217 130.65 185.02 130.808 184.791 130.899C183.695 131.54 182.796 131.022 182.796 129.753C182.796 128.483 183.695 127.978 184.791 128.606Z" fill="white"/>
<path d="M185.076 153.113C185.419 153.23 185.717 153.452 185.928 153.747C186.139 154.042 186.253 154.396 186.253 154.759C186.253 155.122 186.139 155.476 185.928 155.771C185.717 156.066 185.419 156.288 185.076 156.405C183.512 157.317 182.22 156.577 182.22 154.765C182.22 152.953 183.512 152.164 185.076 153.113Z" fill="white"/>
<path d="M193.471 167.205C193.471 169.276 192.006 170.127 190.208 169.091C188.411 168.056 188.423 166.367 190.208 165.331C191.993 164.296 193.471 165.146 193.471 167.205Z" fill="white"/>
<path d="M193.064 192.179C193.064 193.83 191.833 194.508 190.455 193.682C190.137 193.578 189.861 193.375 189.665 193.104C189.47 192.833 189.364 192.507 189.364 192.172C189.364 191.838 189.47 191.512 189.665 191.241C189.861 190.97 190.137 190.767 190.455 190.662C191.883 189.836 193.064 190.514 193.064 192.179Z" fill="white"/>
<path d="M206.778 190.343C208.526 191.354 208.526 193.006 206.778 194.041C205.03 195.077 203.602 194.226 203.602 192.205C203.602 190.183 205.03 189.332 206.778 190.343Z" fill="white"/>
<path d="M237.271 192.177C237.271 194.803 235.399 195.876 233.134 194.569C230.869 193.262 230.857 191.093 233.134 189.786C235.412 188.479 237.271 189.539 237.271 192.177Z" fill="white"/>
<path d="M250.582 189.269C253.352 190.872 253.352 193.485 250.582 195.088C247.812 196.69 245.559 195.371 245.559 192.178C245.559 188.986 247.812 187.63 250.582 189.269Z" fill="white"/>
<path d="M260.402 179.692C260.402 183.785 257.497 185.461 253.952 183.39C250.406 181.319 250.406 177.991 253.952 175.994C257.497 173.997 260.402 175.6 260.402 179.692Z" fill="white"/>
<path d="M273.208 150.02C277.689 152.608 277.689 156.837 273.208 159.426C268.727 162.014 265.07 159.894 265.07 154.729C265.07 149.564 268.739 147.431 273.208 150.02Z" fill="white"/>
<path d="M283.277 142.242C283.277 147.555 279.51 149.737 274.906 147.074C270.302 144.412 270.314 140.06 274.906 137.41C279.498 134.759 283.277 136.917 283.277 142.242Z" fill="white"/>
<path d="M273.022 125.391C277.183 127.856 277.183 131.727 273.022 134.131C268.861 136.535 265.451 134.562 265.451 129.755C265.451 124.947 268.861 122.974 273.022 125.391Z" fill="white"/>
<path d="M259.002 104.791C259.002 107.553 257.045 108.674 254.656 107.257C252.268 105.839 252.268 103.559 254.656 102.24C257.045 100.921 259.002 102.03 259.002 104.791Z" fill="white"/>
<path d="M249.766 90.8108C250.076 90.9179 250.345 91.1191 250.536 91.3865C250.726 91.6539 250.828 91.974 250.828 92.3024C250.828 92.6307 250.726 92.9509 250.536 93.2183C250.345 93.4857 250.076 93.6869 249.766 93.794C248.351 94.6076 247.193 93.9419 247.193 92.3024C247.193 90.6628 248.351 89.9972 249.766 90.8108Z" fill="white"/>
<path d="M235.659 92.301C235.659 93.3982 234.884 93.8543 233.936 93.2996C233.724 93.2321 233.539 93.0991 233.408 92.9196C233.277 92.7401 233.207 92.5234 233.207 92.301C233.207 92.0787 233.277 91.8621 233.408 91.6826C233.539 91.5031 233.724 91.3699 233.936 91.3025C234.884 90.7478 235.659 91.2039 235.659 92.301Z" fill="white"/>
<path d="M205.782 92.1786C205.905 92.1786 205.905 92.3636 205.782 92.4375C205.659 92.5115 205.56 92.4375 205.56 92.3019C205.56 92.1663 205.671 92.1047 205.782 92.1786Z" fill="white"/>
<path d="M184.225 104.606C184.264 104.616 184.299 104.64 184.324 104.672C184.349 104.704 184.362 104.744 184.362 104.785C184.362 104.826 184.349 104.865 184.324 104.897C184.299 104.93 184.264 104.953 184.225 104.963C184.053 105.062 183.917 104.963 183.917 104.791C183.917 104.618 184.053 104.52 184.225 104.606Z" fill="white"/>
<path d="M170.903 129.754C170.903 130.876 170.115 131.332 169.143 130.777C168.931 130.702 168.748 130.564 168.619 130.381C168.489 130.197 168.42 129.978 168.42 129.754C168.42 129.529 168.489 129.31 168.619 129.127C168.748 128.944 168.931 128.805 169.143 128.731C170.078 128.176 170.903 128.632 170.903 129.754Z" fill="white"/>
<path d="M163.248 140.996C163.503 141.086 163.724 141.253 163.88 141.474C164.036 141.694 164.12 141.958 164.12 142.229C164.12 142.5 164.036 142.764 163.88 142.984C163.724 143.205 163.503 143.372 163.248 143.462C162.017 144.152 161.106 143.597 161.106 142.229C161.106 140.861 162.066 140.318 163.248 140.996Z" fill="white"/>
<path d="M171.24 154.729C171.24 156.159 170.218 156.751 168.975 156.036C168.704 155.94 168.47 155.762 168.304 155.527C168.138 155.292 168.049 155.011 168.049 154.723C168.049 154.435 168.138 154.155 168.304 153.92C168.47 153.685 168.704 153.507 168.975 153.41C170.218 152.695 171.24 153.287 171.24 154.729Z" fill="white"/>
<path d="M185.014 178.152C185.336 178.261 185.615 178.469 185.813 178.745C186.011 179.021 186.117 179.353 186.117 179.693C186.117 180.033 186.011 180.364 185.813 180.641C185.615 180.917 185.336 181.125 185.014 181.234C183.549 182.084 182.355 181.382 182.355 179.693C182.355 178.004 183.549 177.301 185.014 178.152Z" fill="white"/>
<path d="M272.987 175.377C277.086 177.756 277.086 181.627 272.987 184.006C268.888 186.385 265.527 184.437 265.527 179.691C265.527 174.945 268.888 173.01 272.987 175.377Z" fill="white"/>
<path d="M283.251 167.204C283.251 172.517 279.496 174.687 274.917 172.024C270.337 169.361 270.325 165.034 274.917 162.384C279.509 159.733 283.251 161.903 283.251 167.204Z" fill="white"/>
<path d="M294.983 137.212C299.76 139.986 299.76 144.497 294.983 147.259C290.207 150.02 286.304 147.764 286.304 142.241C286.304 136.719 290.207 134.451 294.983 137.212Z" fill="white"/>
<path d="M282.106 117.265C282.106 121.53 279.09 123.268 275.41 121.136C271.729 119.003 271.716 115.527 275.41 113.406C279.103 111.286 282.106 113.012 282.106 117.265Z" fill="white"/>
<path d="M272.172 101.868C274.954 103.47 274.954 106.096 272.172 107.699C269.39 109.301 267.137 107.995 267.137 104.79C267.137 101.584 269.402 100.265 272.172 101.868Z" fill="white"/>
<path d="M257.228 79.8142C257.228 80.8867 256.464 81.3182 255.541 80.7881C255.34 80.7189 255.165 80.5884 255.041 80.4149C254.918 80.2414 254.851 80.0335 254.851 79.8204C254.851 79.6072 254.918 79.3994 255.041 79.2259C255.165 79.0524 255.34 78.9219 255.541 78.8527C256.464 78.3103 257.228 78.7541 257.228 79.8142Z" fill="white"/>
<path d="M227.556 79.3957C227.648 79.423 227.728 79.4791 227.785 79.5557C227.842 79.6323 227.873 79.7254 227.873 79.8209C227.873 79.9165 227.842 80.0095 227.785 80.0861C227.728 80.1628 227.648 80.219 227.556 80.2463C227.15 80.4805 226.818 80.2462 226.818 79.8148C226.818 79.3833 227.15 79.1491 227.556 79.3957Z" fill="white"/>
<path d="M213.08 79.8159C213.08 79.9761 212.969 80.0377 212.834 79.9638C212.698 79.8898 212.698 79.7542 212.834 79.6803C212.969 79.6063 213.08 79.6679 213.08 79.8159Z" fill="white"/>
<path d="M169.871 104.791C169.871 104.926 169.773 104.976 169.662 104.914C169.551 104.852 169.539 104.729 169.662 104.667C169.785 104.606 169.871 104.655 169.871 104.791Z" fill="white"/>
<path d="M162.829 116.762C162.934 116.799 163.026 116.868 163.091 116.96C163.156 117.052 163.19 117.161 163.19 117.273C163.19 117.386 163.156 117.495 163.091 117.587C163.026 117.679 162.934 117.748 162.829 117.785C162.336 118.069 161.942 117.785 161.942 117.267C161.942 116.75 162.336 116.478 162.829 116.762Z" fill="white"/>
<path d="M149.34 142.241C149.34 143.388 148.527 143.856 147.543 143.277C147.324 143.204 147.133 143.065 146.998 142.878C146.864 142.691 146.791 142.466 146.791 142.235C146.791 142.004 146.864 141.78 146.998 141.593C147.133 141.406 147.324 141.266 147.543 141.193C148.527 140.626 149.34 141.095 149.34 142.241Z" fill="white"/>
<path d="M163.089 166.23C163.295 166.297 163.475 166.427 163.602 166.602C163.729 166.777 163.798 166.988 163.798 167.204C163.798 167.421 163.729 167.632 163.602 167.807C163.475 167.982 163.295 168.112 163.089 168.178C162.166 168.72 161.415 168.277 161.415 167.204C161.415 166.132 162.166 165.7 163.089 166.23Z" fill="white"/>
<path d="M170.807 179.691C170.807 180.727 170.08 181.146 169.182 180.628C168.985 180.563 168.813 180.438 168.691 180.269C168.57 180.101 168.504 179.899 168.504 179.691C168.504 179.483 168.57 179.281 168.691 179.113C168.813 178.944 168.985 178.819 169.182 178.754C170.08 178.236 170.807 178.656 170.807 179.691Z" fill="white"/>
<path d="M282.635 192.181C282.635 196.878 279.299 198.813 275.248 196.458C271.198 194.104 271.186 190.295 275.248 187.903C279.311 185.512 282.635 187.472 282.635 192.181Z" fill="white"/>
<path d="M295.02 162.124C299.846 164.922 299.846 169.521 295.02 172.282C290.195 175.043 286.243 172.787 286.243 167.203C286.243 161.619 290.195 159.338 295.02 162.124Z" fill="white"/>
<path d="M305.214 154.728C305.214 160.374 301.213 162.679 296.326 159.856C291.438 157.033 291.401 152.46 296.326 149.587C301.25 146.715 305.214 149.07 305.214 154.728Z" fill="white"/>
<path d="M304.942 129.753C304.942 135.152 301.126 137.359 296.46 134.684C291.795 132.009 291.795 127.571 296.46 124.822C301.126 122.073 304.942 124.366 304.942 129.753Z" fill="white"/>
<path d="M294.418 113.148C298.345 115.416 298.345 119.127 294.418 121.395C290.491 123.663 287.278 121.814 287.278 117.265C287.278 112.716 290.54 110.867 294.418 113.148Z" fill="white"/>
<path d="M280.114 92.3022C280.114 94.6074 278.477 95.5443 276.495 94.3979C274.513 93.2514 274.501 91.3653 276.495 90.2065C278.489 89.0478 280.114 89.997 280.114 92.3022Z" fill="white"/>
<path d="M271.163 78.6813C271.389 78.7742 271.582 78.9322 271.718 79.1352C271.854 79.3383 271.927 79.5771 271.927 79.8216C271.927 80.066 271.854 80.3049 271.718 80.508C271.582 80.711 271.389 80.869 271.163 80.9618C270.068 81.5905 269.181 81.0728 269.181 79.8154C269.181 78.558 270.068 78.0526 271.163 78.6813Z" fill="white"/>
<path d="M249.189 66.8215C249.289 66.8576 249.375 66.9238 249.436 67.0109C249.498 67.098 249.53 67.202 249.53 67.3084C249.53 67.4149 249.498 67.5187 249.436 67.6058C249.375 67.693 249.289 67.7591 249.189 67.7953C248.721 68.0542 248.352 67.7954 248.352 67.3146C248.352 66.8338 248.721 66.5872 249.189 66.8215Z" fill="white"/>
<path d="M234.871 67.3389C234.871 67.684 234.625 67.8196 234.329 67.6471C234.034 67.4745 234.022 67.1909 234.329 67.0183C234.637 66.8458 234.871 66.9814 234.871 67.3389Z" fill="white"/>
<path d="M148.647 117.267C148.647 117.76 148.303 117.958 147.884 117.711C147.466 117.465 147.466 117.07 147.884 116.836C148.303 116.602 148.647 116.787 148.647 117.267Z" fill="white"/>
<path d="M141.385 128.988C142.124 129.407 142.124 130.097 141.385 130.529C140.647 130.96 140.044 130.603 140.044 129.752C140.044 128.902 140.647 128.556 141.385 128.988Z" fill="white"/>
<path d="M141.384 153.953C141.545 154.008 141.685 154.111 141.783 154.25C141.882 154.388 141.936 154.554 141.936 154.724C141.936 154.894 141.882 155.059 141.783 155.197C141.685 155.336 141.545 155.439 141.384 155.494C140.645 155.925 140.042 155.58 140.042 154.73C140.042 153.879 140.645 153.522 141.384 153.953Z" fill="white"/>
<path d="M148.869 167.203C148.869 167.906 148.377 168.202 147.761 167.844C147.643 167.79 147.543 167.704 147.473 167.594C147.403 167.485 147.366 167.358 147.366 167.228C147.366 167.098 147.403 166.971 147.473 166.862C147.543 166.753 147.643 166.666 147.761 166.612C148.377 166.217 148.869 166.501 148.869 167.203Z" fill="white"/>
<path d="M162.694 191.797C162.774 191.823 162.843 191.873 162.893 191.94C162.942 192.008 162.969 192.09 162.969 192.173C162.969 192.257 162.942 192.339 162.893 192.406C162.843 192.474 162.774 192.524 162.694 192.549C162.337 192.747 162.054 192.549 162.054 192.18C162.054 191.81 162.386 191.6 162.694 191.797Z" fill="white"/>
<path d="M294.896 187.298C299.537 189.985 299.537 194.374 294.896 197.049C290.255 199.724 286.476 197.53 286.476 192.179C286.476 186.829 290.267 184.623 294.896 187.298Z" fill="white"/>
<path d="M305.164 179.692C305.164 185.301 301.2 187.594 296.35 184.795C291.499 181.997 291.499 177.399 296.35 174.588C301.2 171.777 305.164 174.07 305.164 179.692Z" fill="white"/>
<path d="M316.661 149.564C321.586 152.4 321.586 157.047 316.661 159.883C311.737 162.718 307.736 160.4 307.736 154.73C307.736 149.059 311.749 146.729 316.661 149.564Z" fill="white"/>
<path d="M326.892 142.241C326.892 147.973 322.829 150.315 317.88 147.455C312.931 144.595 312.956 139.898 317.88 137.026C322.804 134.154 326.892 136.508 326.892 142.241Z" fill="white"/>
<path d="M316.576 124.759C321.352 127.521 321.352 132.045 316.576 134.794C311.799 137.543 307.897 135.299 307.897 129.777C307.897 124.254 311.799 121.973 316.576 124.759Z" fill="white"/>
<path d="M303.331 104.791C303.331 108.637 300.598 110.215 297.274 108.292C293.95 106.369 293.938 103.213 297.274 101.29C300.61 99.3668 303.331 100.932 303.331 104.791Z" fill="white"/>
<path d="M293.468 89.9103C295.745 91.2293 295.745 93.3743 293.468 94.6933C291.19 96.0123 289.331 94.9275 289.331 92.3018C289.331 89.676 291.19 88.5912 293.468 89.9103Z" fill="white"/>
<path d="M278.708 67.3388C278.708 68.3003 278.019 68.6948 277.194 68.2141C277.013 68.1487 276.856 68.029 276.745 67.8713C276.635 67.7135 276.575 67.5254 276.575 67.3326C276.575 67.1398 276.635 66.9518 276.745 66.794C276.856 66.6363 277.013 66.5166 277.194 66.4513C278.019 65.9705 278.708 66.3649 278.708 67.3388Z" fill="white"/>
<path d="M270.918 54.1256C271.071 54.1753 271.205 54.2724 271.3 54.4031C271.395 54.5338 271.446 54.6912 271.446 54.8529C271.446 55.0145 271.395 55.172 271.3 55.3027C271.205 55.4334 271.071 55.5305 270.918 55.5802C270.228 55.987 269.687 55.6541 269.687 54.8529C269.687 54.0516 270.228 53.7188 270.918 54.1256Z" fill="white"/>
<path d="M256.599 54.852C256.599 55.3205 256.266 55.5054 255.86 55.2712C255.769 55.2439 255.688 55.1877 255.631 55.1111C255.574 55.0345 255.543 54.9415 255.543 54.8459C255.543 54.7503 255.574 54.6573 255.631 54.5807C255.688 54.504 255.769 54.4479 255.86 54.4206C256.254 54.1864 256.599 54.3836 256.599 54.852Z" fill="white"/>
<path d="M227.376 54.7404C227.397 54.7505 227.414 54.7662 227.427 54.7858C227.439 54.8055 227.445 54.8281 227.445 54.8513C227.445 54.8745 227.439 54.8971 227.427 54.9168C227.414 54.9364 227.397 54.9522 227.376 54.9623C227.357 54.9714 227.336 54.9755 227.316 54.9744C227.295 54.9733 227.274 54.9669 227.257 54.9558C227.239 54.9447 227.225 54.9293 227.214 54.911C227.204 54.8928 227.199 54.8722 227.199 54.8513C227.199 54.8304 227.204 54.8099 227.214 54.7916C227.225 54.7734 227.239 54.758 227.257 54.7469C227.274 54.7358 227.295 54.7293 227.316 54.7282C227.336 54.7271 227.357 54.7313 227.376 54.7404Z" fill="white"/>
<path d="M184.188 54.7283C184.311 54.8023 184.311 54.9009 184.188 54.9749C184.065 55.0488 183.991 54.9748 183.991 54.8515C183.991 54.7283 184.077 54.6667 184.188 54.7283Z" fill="white"/>
<path d="M169.848 54.8512C169.848 54.9621 169.774 55.0114 169.675 54.9498C169.577 54.8882 169.565 54.8019 169.675 54.7403C169.786 54.6786 169.848 54.7402 169.848 54.8512Z" fill="white"/>
<path d="M141.052 179.481C141.249 179.592 141.249 179.777 141.052 179.9C140.856 180.023 140.708 179.9 140.708 179.69C140.708 179.481 140.868 179.37 141.052 179.481Z" fill="white"/>
<path d="M316.7 174.476C321.625 177.336 321.625 182.045 316.7 184.905C311.776 187.765 307.664 185.435 307.664 179.69C307.664 173.946 311.727 171.604 316.7 174.476Z" fill="white"/>
<path d="M326.918 167.204C326.918 172.96 322.843 175.327 317.87 172.443C312.896 169.558 312.884 164.849 317.87 161.964C322.856 159.08 326.918 161.447 326.918 167.204Z" fill="white"/>
<path d="M338.329 136.941C343.364 139.863 343.364 144.621 338.329 147.53C333.294 150.44 329.17 148.06 329.17 142.242C329.17 136.423 333.294 134.032 338.329 136.941Z" fill="white"/>
<path d="M326.178 117.266C326.178 122.32 322.608 124.391 318.237 121.864C313.867 119.337 313.867 115.207 318.237 112.68C322.608 110.153 326.178 112.224 326.178 117.266Z" fill="white"/>
<path d="M315.872 100.981C319.492 103.077 319.492 106.504 315.872 108.587C312.253 110.671 309.299 108.969 309.299 104.79C309.299 100.611 312.253 98.8734 315.872 100.981Z" fill="white"/>
<path d="M301.199 79.8146C301.199 81.6513 299.968 82.391 298.331 81.4788C297.985 81.3614 297.684 81.1383 297.471 80.8409C297.258 80.5435 297.143 80.1867 297.143 79.8207C297.143 79.4547 297.258 79.0979 297.471 78.8005C297.684 78.5031 297.985 78.2801 298.331 78.1627C299.907 77.2382 301.199 77.9901 301.199 79.8146Z" fill="white"/>
<path d="M292.745 66.2182C292.956 66.3178 293.135 66.4755 293.26 66.6731C293.386 66.8707 293.452 67.0998 293.452 67.3338C293.452 67.5678 293.386 67.797 293.26 67.9946C293.135 68.1921 292.956 68.3499 292.745 68.4495C291.674 69.0658 290.8 68.5604 290.8 67.34C290.8 66.1195 291.674 65.5895 292.745 66.2182Z" fill="white"/>
<path d="M327.114 192.179C327.114 198.121 322.904 200.549 317.771 197.578C312.637 194.607 312.625 189.738 317.771 186.767C322.916 183.796 327.114 186.225 327.114 192.179Z" fill="white"/>
<path d="M338.28 161.989C343.205 164.861 343.205 169.558 338.28 172.418C333.356 175.278 329.269 172.936 329.269 167.203C329.269 161.471 333.319 159.129 338.28 161.989Z" fill="white"/>
<path d="M348.582 154.73C348.582 160.499 344.495 162.866 339.497 159.969C334.499 157.072 334.499 152.363 339.497 149.479C344.495 146.594 348.582 148.948 348.582 154.73Z" fill="white"/>
<path d="M348.582 129.754C348.582 135.61 344.446 138.014 339.374 135.08C334.302 132.146 334.314 127.363 339.374 124.429C344.433 121.495 348.582 123.899 348.582 129.754Z" fill="white"/>
<path d="M338.057 112.434C342.636 115.084 342.636 119.411 338.057 122.061C333.477 124.712 329.722 122.542 329.722 117.241C329.722 111.941 333.477 109.808 338.057 112.434Z" fill="white"/>
<path d="M324.579 92.3032C324.579 95.8288 322.117 97.2342 319.039 95.5083C315.962 93.7825 315.986 90.8609 319.039 89.0981C322.092 87.3352 324.579 88.7775 324.579 92.3032Z" fill="white"/>
<path d="M314.88 77.7445C316.862 78.8909 316.862 80.7524 314.88 81.8988C312.898 83.0453 311.297 82.1084 311.297 79.8155C311.297 77.5226 312.885 76.598 314.88 77.7445Z" fill="white"/>
<path d="M300.842 54.852C300.842 56.3313 299.795 56.9477 298.515 56.1957C298.234 56.1011 297.99 55.9205 297.817 55.6794C297.644 55.4383 297.551 55.1489 297.551 54.852C297.551 54.5551 297.644 54.2657 297.817 54.0246C297.99 53.7835 298.234 53.603 298.515 53.5083C299.795 52.7564 300.842 53.3727 300.842 54.852Z" fill="white"/>
<path d="M338.354 186.841C343.426 189.775 343.426 194.583 338.354 197.517C333.282 200.451 329.121 198.047 329.121 192.179C329.121 186.311 333.282 183.932 338.354 186.841Z" fill="white"/>
<path d="M348.422 179.691C348.422 185.361 344.409 187.679 339.497 184.843C334.585 182.008 334.573 177.373 339.497 174.538C344.421 171.702 348.422 174.069 348.422 179.691Z" fill="white"/>
<path d="M337.309 88.7893C340.646 90.7247 340.646 93.8805 337.309 95.8159C333.973 97.7513 331.228 96.161 331.228 92.3026C331.228 88.4441 333.961 86.8662 337.309 88.7893Z" fill="white"/>
<path d="M322.867 67.339C322.867 69.2251 321.525 70.0017 319.888 69.0525C318.251 68.1033 318.251 66.5871 319.888 65.6132C321.525 64.6393 322.867 65.4406 322.867 67.339Z" fill="white"/>
<path d="M314.568 53.2615C314.89 53.3708 315.169 53.5782 315.367 53.8545C315.565 54.1309 315.671 54.4624 315.671 54.8024C315.671 55.1424 315.565 55.4739 315.367 55.7503C315.169 56.0267 314.89 56.2341 314.568 56.3433C313.103 57.1939 311.909 56.5036 311.909 54.8024C311.909 53.1012 313.103 52.4602 314.568 53.2615Z" fill="white"/>
<path d="M336.348 65.4782C338.108 66.5014 338.108 68.1656 336.348 69.1764C334.587 70.1873 333.147 69.3614 333.147 67.3273C333.147 65.2933 334.587 64.4674 336.348 65.4782Z" fill="white"/>
</g>
</g>
<mask id="mask0_400_3304" style="mask-type:alpha" maskUnits="userSpaceOnUse" x="232" y="153" width="86" height="27">
<path d="M253.485 170.704V162.753C253.485 162.353 253.161 162.028 252.761 162.028H251.15C250.75 162.028 250.426 162.353 250.426 162.753V170.704C250.426 175.947 253.145 179.373 257.451 179.373C258.865 179.373 260.146 178.821 261.068 177.931C261.528 177.487 262.294 177.811 262.294 178.45C262.294 178.85 262.619 179.174 263.018 179.174H264.629C265.029 179.174 265.354 178.85 265.354 178.45V162.753C265.354 162.353 265.029 162.028 264.629 162.028H263.018C262.619 162.028 262.294 162.353 262.294 162.753V170.678C262.294 173.964 260.482 176.313 257.961 176.313C255.242 176.313 253.485 174.134 253.485 170.704ZM314.322 170.811V178.769C314.322 179.115 314.603 179.396 314.949 179.396H316.746C317.093 179.396 317.374 179.115 317.374 178.769V170.811C317.374 165.534 314.664 162.082 310.3 162.082C308.8 162.082 307.448 162.698 306.512 163.679C306.116 164.093 305.422 163.829 305.422 163.257V154.03C305.422 153.684 305.141 153.403 304.795 153.403H302.997C302.651 153.403 302.37 153.684 302.37 154.03V178.769C302.37 179.115 302.651 179.396 302.997 179.396H304.795C305.141 179.396 305.422 179.115 305.422 178.769V170.839C305.422 167.53 307.276 165.134 309.786 165.134C312.553 165.134 314.322 167.359 314.322 170.811ZM296.495 170.811V178.769C296.495 179.115 296.776 179.396 297.122 179.396H298.92C299.266 179.396 299.547 179.115 299.547 178.769V170.811C299.547 165.534 296.837 162.082 292.473 162.082C290.974 162.082 289.622 162.698 288.685 163.679C288.289 164.093 287.595 163.829 287.595 163.257V154.03C287.595 153.684 287.315 153.403 286.968 153.403H285.171C284.824 153.403 284.543 153.684 284.543 154.03V178.769C284.543 179.115 284.824 179.396 285.171 179.396H286.968C287.315 179.396 287.595 179.115 287.595 178.769V170.839C287.595 167.53 289.449 165.134 291.96 165.134C294.726 165.134 296.495 167.359 296.495 170.811ZM244.641 170.811V178.769C244.641 179.115 244.922 179.396 245.268 179.396H247.066C247.412 179.396 247.693 179.115 247.693 178.769V170.811C247.693 165.534 244.984 162.082 240.619 162.082C239.12 162.082 237.768 162.698 236.831 163.679C236.436 164.093 235.741 163.829 235.741 163.257V154.03C235.741 153.684 235.461 153.403 235.114 153.403H233.317C232.97 153.403 232.689 153.684 232.689 154.03V178.769C232.689 179.115 232.97 179.396 233.317 179.396H235.114C235.461 179.396 235.741 179.115 235.741 178.769V170.839C235.741 167.53 237.596 165.134 240.106 165.134C242.873 165.134 244.641 167.359 244.641 170.811ZM271.592 167.167L271.6 167.118C271.605 167.083 271.61 167.047 271.611 167.039C271.777 165.695 273.185 164.681 274.884 164.681L274.952 164.681C276.444 164.681 277.506 165.3 278.198 166.573C278.272 166.709 278.443 166.761 278.579 166.686C278.716 166.612 278.766 166.441 278.692 166.305C277.903 164.854 276.645 164.119 274.954 164.119L274.886 164.118C272.869 164.118 271.257 165.318 271.053 166.968L271.044 167.031C271.039 167.063 271.034 167.092 271.034 167.096C271.016 167.249 271.124 167.387 271.277 167.407C271.289 167.409 271.301 167.41 271.313 167.41C271.451 167.41 271.572 167.307 271.592 167.167ZM279.336 174.025C279.336 171.45 277.606 170.815 275.162 170.199L274.871 170.123C274.191 169.942 273.055 169.64 272.32 168.947C272.206 168.841 272.028 168.846 271.922 168.959C271.815 169.072 271.821 169.25 271.933 169.357C272.772 170.148 273.996 170.472 274.726 170.666L275.025 170.744C277.573 171.387 278.773 171.92 278.773 174.025C278.773 175.658 277.202 176.799 274.952 176.799C273.28 176.799 271.843 175.967 271.202 174.627C271.135 174.487 270.967 174.427 270.827 174.495C270.686 174.562 270.627 174.73 270.694 174.87C271.43 176.407 273.061 177.362 274.952 177.362C277.533 177.362 279.336 175.99 279.336 174.025ZM277.185 166.664C277.3 166.56 277.309 166.382 277.205 166.267C276.699 165.705 276.082 165.419 275.264 165.366C275.11 165.357 274.975 165.473 274.965 165.628C274.955 165.783 275.072 165.917 275.227 165.927C275.89 165.97 276.386 166.198 276.787 166.643C276.843 166.705 276.919 166.736 276.996 166.736C277.063 166.736 277.131 166.713 277.185 166.664ZM280.031 176.037C280.4 175.427 280.587 174.753 280.587 174.033C280.587 170.443 277.606 169.69 275.43 169.141L275.208 169.084C273.985 168.758 272.888 168.376 272.888 167.303C272.893 167.101 272.94 166.915 273.028 166.75C273.101 166.613 273.049 166.443 272.912 166.369C272.775 166.297 272.605 166.348 272.532 166.485C272.402 166.729 272.332 167 272.326 167.297C272.326 168.898 274.039 169.355 275.063 169.627L275.292 169.687C277.51 170.247 280.025 170.881 280.025 174.033C280.025 174.649 279.865 175.225 279.55 175.746C279.47 175.879 279.512 176.051 279.645 176.132C279.691 176.159 279.741 176.173 279.791 176.173C279.886 176.173 279.979 176.124 280.031 176.037ZM278.235 177.688C278.372 177.615 278.424 177.444 278.35 177.308C278.277 177.171 278.107 177.119 277.97 177.192C277.117 177.648 276.074 177.89 274.952 177.89C272.766 177.89 270.782 176.722 270.014 174.984C269.976 174.897 269.951 174.807 269.941 174.716C269.922 174.561 269.782 174.45 269.629 174.469C269.474 174.487 269.364 174.627 269.382 174.781C269.399 174.928 269.439 175.073 269.5 175.211C270.356 177.15 272.547 178.452 274.952 178.452C276.166 178.452 277.301 178.188 278.235 177.688ZM277.667 175.333C278.03 174.976 278.222 174.535 278.222 174.059C278.222 173.668 278.13 173.311 277.948 172.998C277.851 172.832 277.727 172.673 277.578 172.528C277.467 172.42 277.289 172.421 277.18 172.533C277.072 172.644 277.074 172.822 277.185 172.93C277.297 173.04 277.39 173.158 277.461 173.28C277.594 173.51 277.659 173.765 277.659 174.059C277.659 174.386 277.529 174.679 277.272 174.932C276.8 175.396 275.96 175.666 275.029 175.65C274.476 175.642 273.949 175.511 273.503 175.272C273.179 175.098 272.97 174.851 272.832 174.688C272.805 174.656 272.781 174.628 272.76 174.604C272.657 174.488 272.479 174.478 272.363 174.581C272.247 174.684 272.236 174.862 272.34 174.978C272.358 174.999 272.379 175.024 272.403 175.052C272.558 175.235 272.819 175.543 273.236 175.767C273.761 176.049 274.378 176.204 275.02 176.213C275.047 176.213 275.073 176.214 275.099 176.214C276.149 176.214 277.104 175.887 277.667 175.333ZM275.256 171.694C275.294 171.543 275.203 171.39 275.052 171.352C274.848 171.301 274.629 171.25 274.401 171.202C271.567 170.605 270.303 169.414 270.303 167.339C270.303 165.062 272.181 163.532 274.976 163.532C276.649 163.532 278.759 164.469 279.436 166.525C279.485 166.672 279.644 166.753 279.792 166.704C279.939 166.655 280.019 166.497 279.971 166.349C279.205 164.027 276.845 162.97 274.976 162.97C271.844 162.97 269.74 164.726 269.74 167.339C269.74 170.437 272.334 171.342 274.285 171.753C274.505 171.799 274.717 171.848 274.914 171.898C274.938 171.904 274.961 171.907 274.984 171.907C275.109 171.907 275.224 171.822 275.256 171.694ZM281.678 174.033C281.678 172.317 281.28 171.191 280.387 170.381C280.272 170.276 280.094 170.285 279.99 170.4C279.885 170.515 279.894 170.693 280.009 170.798C280.784 171.501 281.115 172.469 281.115 174.033C281.115 176.899 278.523 178.98 274.952 178.98C272.524 178.98 270.183 177.651 269.128 175.674L269.099 175.619C269.018 175.471 268.849 175.163 268.712 174.71C268.667 174.561 268.51 174.477 268.361 174.522C268.212 174.567 268.128 174.724 268.173 174.872C268.327 175.382 268.515 175.725 268.606 175.89L268.632 175.938C269.782 178.094 272.322 179.543 274.952 179.543C278.849 179.543 281.678 177.226 281.678 174.033ZM274.307 172.723C274.349 172.573 274.261 172.418 274.112 172.376C272.773 172.002 269.986 171.223 269.245 168.702C269.201 168.553 269.044 168.467 268.895 168.512C268.746 168.555 268.661 168.712 268.705 168.861C269.535 171.681 272.636 172.548 273.96 172.918C273.985 172.925 274.011 172.929 274.036 172.929C274.159 172.929 274.272 172.847 274.307 172.723ZM269.114 166.557C269.502 164.083 271.795 162.441 274.839 162.441C274.883 162.441 274.927 162.441 274.972 162.442C275.132 162.44 275.255 162.32 275.257 162.165C275.26 162.01 275.136 161.882 274.98 161.88C271.579 161.822 268.997 163.671 268.558 166.47C268.534 166.624 268.639 166.768 268.792 166.792C268.807 166.794 268.822 166.795 268.836 166.795C268.973 166.795 269.092 166.696 269.114 166.557ZM280.925 166.668C280.777 166.668 280.653 166.552 280.645 166.402C280.602 166.034 279.815 163.798 277.353 162.868C277.208 162.813 277.135 162.65 277.19 162.505C277.244 162.36 277.407 162.287 277.552 162.341C280.409 163.421 281.188 166.017 281.207 166.372C281.215 166.527 281.096 166.659 280.941 166.668C280.935 166.668 280.93 166.668 280.925 166.668Z" fill="white"/>
</mask>
<g mask="url(#mask0_400_3304)">
<path fill-rule="evenodd" clip-rule="evenodd" d="M253.484 170.704V162.753C253.484 162.353 253.16 162.028 252.76 162.028H251.149C250.749 162.028 250.425 162.353 250.425 162.753V170.704C250.425 175.947 253.144 179.373 257.45 179.373C258.864 179.373 260.145 178.821 261.067 177.931C261.527 177.487 262.293 177.811 262.293 178.45C262.293 178.85 262.618 179.174 263.017 179.174H264.628C265.028 179.174 265.353 178.85 265.353 178.45V162.753C265.353 162.353 265.028 162.028 264.628 162.028H263.017C262.618 162.028 262.293 162.353 262.293 162.753V170.678C262.293 173.964 260.481 176.313 257.96 176.313C255.241 176.313 253.484 174.134 253.484 170.704ZM314.321 170.811V178.769C314.321 179.115 314.602 179.396 314.948 179.396H316.745C317.092 179.396 317.373 179.115 317.373 178.769V170.811C317.373 165.534 314.663 162.082 310.299 162.082C308.799 162.082 307.447 162.698 306.511 163.679C306.115 164.093 305.421 163.829 305.421 163.257V154.03C305.421 153.684 305.14 153.403 304.794 153.403H302.996C302.65 153.403 302.369 153.684 302.369 154.03V178.769C302.369 179.115 302.65 179.396 302.996 179.396H304.794C305.14 179.396 305.421 179.115 305.421 178.769V170.839C305.421 167.53 307.275 165.134 309.785 165.134C312.552 165.134 314.321 167.359 314.321 170.811ZM296.494 170.811V178.769C296.494 179.115 296.775 179.396 297.121 179.396H298.919C299.265 179.396 299.546 179.115 299.546 178.769V170.811C299.546 165.534 296.836 162.082 292.472 162.082C290.973 162.082 289.621 162.698 288.684 163.679C288.288 164.093 287.594 163.829 287.594 163.257V154.03C287.594 153.684 287.314 153.403 286.967 153.403H285.17C284.823 153.403 284.542 153.684 284.542 154.03V178.769C284.542 179.115 284.823 179.396 285.17 179.396H286.967C287.314 179.396 287.594 179.115 287.594 178.769V170.839C287.594 167.53 289.448 165.134 291.959 165.134C294.726 165.134 296.494 167.359 296.494 170.811ZM244.64 170.811V178.769C244.64 179.115 244.921 179.396 245.267 179.396H247.065C247.411 179.396 247.692 179.115 247.692 178.769V170.811C247.692 165.534 244.983 162.082 240.618 162.082C239.119 162.082 237.767 162.698 236.83 163.679C236.435 164.093 235.74 163.829 235.74 163.257V154.03C235.74 153.684 235.46 153.403 235.113 153.403H233.316C232.969 153.403 232.688 153.684 232.688 154.03V178.769C232.688 179.115 232.969 179.396 233.316 179.396H235.113C235.46 179.396 235.74 179.115 235.74 178.769V170.839C235.74 167.53 237.595 165.134 240.105 165.134C242.872 165.134 244.64 167.359 244.64 170.811ZM271.591 167.167L271.599 167.118C271.604 167.083 271.609 167.047 271.611 167.039C271.776 165.695 273.184 164.681 274.883 164.681L274.951 164.681C276.443 164.681 277.505 165.3 278.197 166.573C278.271 166.709 278.442 166.761 278.578 166.686C278.715 166.612 278.765 166.441 278.691 166.305C277.902 164.854 276.644 164.119 274.953 164.119L274.885 164.118C272.868 164.118 271.256 165.318 271.052 166.968L271.043 167.031C271.038 167.063 271.033 167.092 271.033 167.096C271.015 167.249 271.123 167.387 271.276 167.407C271.288 167.409 271.3 167.41 271.312 167.41C271.45 167.41 271.571 167.307 271.591 167.167ZM279.335 174.025C279.335 171.45 277.605 170.815 275.161 170.199L274.87 170.123C274.19 169.942 273.054 169.64 272.319 168.947C272.206 168.841 272.027 168.846 271.921 168.959C271.814 169.072 271.82 169.25 271.932 169.357C272.771 170.148 273.995 170.472 274.725 170.666L275.024 170.744C277.572 171.387 278.772 171.92 278.772 174.025C278.772 175.658 277.201 176.799 274.951 176.799C273.279 176.799 271.842 175.967 271.201 174.627C271.134 174.487 270.966 174.427 270.826 174.495C270.685 174.562 270.626 174.73 270.693 174.87C271.429 176.407 273.06 177.362 274.951 177.362C277.532 177.362 279.335 175.99 279.335 174.025ZM277.184 166.664C277.299 166.56 277.308 166.382 277.204 166.267C276.698 165.705 276.081 165.419 275.263 165.366C275.109 165.357 274.974 165.473 274.964 165.628C274.954 165.783 275.071 165.917 275.226 165.927C275.889 165.97 276.385 166.198 276.786 166.643C276.842 166.705 276.918 166.736 276.995 166.736C277.062 166.736 277.13 166.713 277.184 166.664ZM280.031 176.037C280.399 175.427 280.586 174.753 280.586 174.033C280.586 170.443 277.605 169.69 275.429 169.141L275.207 169.084C273.984 168.758 272.887 168.376 272.887 167.303C272.892 167.101 272.939 166.915 273.027 166.75C273.1 166.613 273.048 166.443 272.911 166.369C272.774 166.297 272.604 166.348 272.531 166.485C272.401 166.729 272.332 167 272.325 167.297C272.325 168.898 274.038 169.354 275.062 169.627L275.291 169.687C277.509 170.247 280.024 170.881 280.024 174.033C280.024 174.649 279.864 175.225 279.549 175.746C279.469 175.879 279.511 176.051 279.644 176.132C279.69 176.159 279.74 176.173 279.79 176.173C279.885 176.173 279.978 176.124 280.031 176.037ZM278.234 177.688C278.371 177.615 278.423 177.444 278.349 177.308C278.276 177.171 278.106 177.119 277.969 177.192C277.116 177.648 276.073 177.89 274.951 177.89C272.765 177.89 270.781 176.722 270.013 174.984C269.975 174.897 269.95 174.807 269.94 174.716C269.922 174.561 269.781 174.45 269.628 174.469C269.473 174.487 269.363 174.627 269.381 174.781C269.398 174.928 269.438 175.073 269.499 175.211C270.355 177.15 272.546 178.452 274.951 178.452C276.165 178.452 277.3 178.188 278.234 177.688ZM277.666 175.333C278.029 174.976 278.221 174.535 278.221 174.059C278.221 173.668 278.129 173.311 277.947 172.998C277.85 172.832 277.726 172.673 277.577 172.528C277.466 172.42 277.288 172.421 277.179 172.533C277.071 172.644 277.073 172.822 277.184 172.93C277.296 173.04 277.389 173.158 277.46 173.28C277.593 173.51 277.658 173.765 277.658 174.059C277.658 174.386 277.528 174.679 277.271 174.932C276.799 175.396 275.959 175.666 275.028 175.65C274.475 175.642 273.948 175.511 273.502 175.272C273.178 175.098 272.969 174.851 272.831 174.688C272.804 174.656 272.78 174.628 272.759 174.604C272.656 174.488 272.478 174.478 272.362 174.581C272.246 174.684 272.235 174.862 272.339 174.978C272.357 174.999 272.379 175.024 272.402 175.052C272.557 175.235 272.818 175.543 273.235 175.767C273.76 176.049 274.377 176.204 275.019 176.213C275.046 176.213 275.072 176.214 275.098 176.214C276.148 176.214 277.103 175.887 277.666 175.333ZM275.255 171.694C275.293 171.543 275.202 171.39 275.051 171.352C274.847 171.301 274.628 171.25 274.4 171.202C271.566 170.605 270.302 169.414 270.302 167.339C270.302 165.062 272.18 163.532 274.975 163.532C276.648 163.532 278.758 164.469 279.436 166.525C279.484 166.672 279.643 166.753 279.791 166.704C279.938 166.655 280.018 166.497 279.97 166.349C279.204 164.027 276.844 162.97 274.975 162.97C271.843 162.97 269.739 164.726 269.739 167.339C269.739 170.437 272.333 171.342 274.284 171.753C274.504 171.799 274.716 171.848 274.914 171.898C274.937 171.904 274.96 171.907 274.983 171.907C275.108 171.907 275.223 171.822 275.255 171.694ZM281.677 174.033C281.677 172.317 281.279 171.191 280.386 170.381C280.271 170.276 280.093 170.285 279.989 170.4C279.884 170.515 279.893 170.693 280.008 170.798C280.783 171.501 281.114 172.469 281.114 174.033C281.114 176.899 278.522 178.98 274.951 178.98C272.523 178.98 270.182 177.651 269.127 175.674L269.098 175.619C269.017 175.471 268.848 175.163 268.711 174.71C268.666 174.561 268.509 174.477 268.36 174.522C268.211 174.567 268.127 174.724 268.172 174.872C268.326 175.382 268.514 175.725 268.605 175.89L268.631 175.938C269.781 178.094 272.321 179.543 274.951 179.543C278.848 179.543 281.677 177.226 281.677 174.033ZM274.306 172.723C274.348 172.573 274.26 172.418 274.111 172.376C272.772 172.002 269.985 171.223 269.244 168.702C269.2 168.553 269.043 168.467 268.894 168.512C268.745 168.555 268.66 168.712 268.704 168.861C269.534 171.681 272.635 172.548 273.959 172.918C273.984 172.925 274.01 172.929 274.035 172.929C274.158 172.929 274.271 172.847 274.306 172.723ZM269.113 166.557C269.501 164.083 271.794 162.441 274.838 162.441C274.882 162.441 274.926 162.441 274.971 162.442C275.131 162.44 275.254 162.32 275.256 162.165C275.259 162.01 275.135 161.882 274.979 161.88C271.578 161.822 268.996 163.671 268.557 166.47C268.533 166.624 268.638 166.768 268.791 166.792C268.806 166.794 268.821 166.795 268.835 166.795C268.972 166.795 269.091 166.696 269.113 166.557ZM280.924 166.668C280.776 166.668 280.652 166.552 280.644 166.402C280.601 166.034 279.814 163.798 277.352 162.868C277.207 162.813 277.134 162.65 277.189 162.505C277.243 162.36 277.406 162.287 277.551 162.341C280.408 163.421 281.187 166.017 281.206 166.372C281.214 166.527 281.095 166.659 280.94 166.668C280.934 166.668 280.929 166.668 280.924 166.668Z" fill="white"/>
</g>
<defs>
<radialGradient id="paint0_radial_400_3304" cx="0" cy="0" r="1" gradientUnits="userSpaceOnUse" gradientTransform="translate(168 10.5937) rotate(90) scale(183.97 319.761)">
<stop stop-color="#1A73E9"/>
<stop offset="0.517981" stop-color="#0D318C"/>
<stop offset="1" stop-color="#0038FD"/>
</radialGradient>
<linearGradient id="paint1_linear_400_3304" x1="1.60467e-05" y1="46.2395" x2="336" y2="194.552" gradientUnits="userSpaceOnUse">
<stop stop-color="#AAAAAA"/>
<stop offset="1" stop-color="#3A3A3A"/>
</linearGradient>
<clipPath id="clip0_400_3304">
<rect width="233.688" height="189.747" rx="8.75" transform="matrix(-1 0 0 1 335.551 4.60156)" fill="white"/>
</clipPath>
</defs>
</svg>
