<svg width="24" height="24" viewBox="0 0 24 24" fill="none" xmlns="http://www.w3.org/2000/svg">
<path d="M12.7062 1.41174C6.48317 1.41174 1.41211 6.4828 1.41211 12.7059C1.41211 18.9289 6.48317 24 12.7062 24C18.9293 24 24.0003 18.9289 24.0003 12.7059C24.0003 6.4828 18.9293 1.41174 12.7062 1.41174ZM17.2239 13.5529H13.5533V17.2235C13.5533 17.6866 13.1693 18.0706 12.7062 18.0706C12.2432 18.0706 11.8592 17.6866 11.8592 17.2235V13.5529H8.18858C7.72552 13.5529 7.34152 13.1689 7.34152 12.7059C7.34152 12.2428 7.72552 11.8588 8.18858 11.8588H11.8592V8.18821C11.8592 7.72516 12.2432 7.34116 12.7062 7.34116C13.1693 7.34116 13.5533 7.72516 13.5533 8.18821V11.8588H17.2239C17.6869 11.8588 18.0709 12.2428 18.0709 12.7059C18.0709 13.1689 17.6869 13.5529 17.2239 13.5529Z" fill="#1A73E9"/>
</svg>
