<svg width="24" height="24" viewBox="0 0 24 24" fill="none" xmlns="http://www.w3.org/2000/svg">
<path d="M8.83444 9.81769C9.91877 9.81769 10.7978 8.93867 10.7978 7.85434C10.7978 6.77001 9.91877 5.89099 8.83444 5.89099C7.75012 5.89099 6.87109 6.77001 6.87109 7.85434C6.87109 8.93867 7.75012 9.81769 8.83444 9.81769Z" stroke="#8F9BB3" stroke-width="1.47251" stroke-linecap="round" stroke-linejoin="round"/>
<path d="M12.7613 1.96289H8.83462C3.92624 1.96289 1.96289 3.92624 1.96289 8.83462V14.7247C1.96289 19.633 3.92624 21.5964 8.83462 21.5964H14.7247C19.633 21.5964 21.5964 19.633 21.5964 14.7247V9.81629" stroke="#8F9BB3" stroke-width="1.47251" stroke-linecap="round" stroke-linejoin="round"/>
<path d="M15.4619 4.90845H20.8611" stroke="#8F9BB3" stroke-width="1.47251" stroke-linecap="round"/>
<path d="M18.1611 7.60722V2.20801" stroke="#8F9BB3" stroke-width="1.47251" stroke-linecap="round"/>
<path d="M2.62207 18.6027L7.46173 15.3533C8.23725 14.8331 9.35636 14.892 10.0534 15.4908L10.3773 15.7755C11.143 16.4332 12.3799 16.4332 13.1456 15.7755L17.2294 12.2709C17.9951 11.6132 19.232 11.6132 19.9977 12.2709L21.5979 13.6452" stroke="#8F9BB3" stroke-width="1.47251" stroke-linecap="round" stroke-linejoin="round"/>
</svg>
