<svg width="24" height="24" viewBox="0 0 24 24" fill="none" xmlns="http://www.w3.org/2000/svg">
<path d="M3.8285 18.6007C2.81312 18.6007 1.83932 18.1761 1.12134 17.4203C0.403359 16.6645 0 15.6394 0 14.5706V4.03016C0 2.96129 0.403359 1.93621 1.12134 1.18041C1.83932 0.424605 2.81312 0 3.8285 0H19.7315C20.2343 0 20.7321 0.104243 21.1966 0.306778C21.6611 0.509312 22.0831 0.806171 22.4387 1.18041C22.7942 1.55464 23.0762 1.99892 23.2686 2.48788C23.461 2.97685 23.56 3.50091 23.56 4.03016V14.5706C23.56 15.0998 23.461 15.6239 23.2686 16.1128C23.0762 16.6018 22.7942 17.0461 22.4387 17.4203C22.0831 17.7946 21.6611 18.0914 21.1966 18.294C20.7321 18.4965 20.2343 18.6007 19.7315 18.6007H12.9721L7.068 23.2509C6.84923 23.4233 6.58921 23.5282 6.31704 23.5538C6.04487 23.5795 5.77128 23.5249 5.52689 23.3962C5.2825 23.2675 5.07696 23.0698 4.93325 22.8251C4.78954 22.5805 4.71334 22.2985 4.71318 22.0109V18.6007H3.82968H3.8285ZM12.3855 16.7407H19.7315C20.2782 16.7407 20.8026 16.512 21.1892 16.1051C21.5758 15.6981 21.793 15.1461 21.793 14.5706V4.03016C21.793 3.45462 21.5758 2.90265 21.1892 2.49568C20.8026 2.08871 20.2782 1.86007 19.7315 1.86007H3.8285C3.28176 1.86007 2.75741 2.08871 2.3708 2.49568C1.98419 2.90265 1.767 3.45462 1.767 4.03016V14.5706C1.767 15.7685 2.69055 16.7407 3.8285 16.7407H6.47782V21.3908L12.3855 16.7407Z" fill="#8F9BB3"/>
</svg>
