<svg width="24" height="24" viewBox="0 0 24 24" fill="none" xmlns="http://www.w3.org/2000/svg">
<circle cx="12" cy="12" r="12" fill="url(#paint0_linear_339_1267)"/>
<path d="M16.3333 16.6709C16.3333 18.5109 14.84 20.0042 13 20.0042H8.33333C6.49333 20.0042 5 18.5109 5 16.6709V12.0042C5 10.1642 6.49333 8.6709 8.33333 8.6709H9C9.36667 8.6709 9.66667 8.9709 9.66667 9.33757C9.66667 9.70424 9.36667 10.0042 9 10.0042H8.33333C7.23333 10.0042 6.33333 10.9042 6.33333 12.0042V16.6709C6.33333 17.7709 7.23333 18.6709 8.33333 18.6709H13C14.1 18.6709 15 17.7709 15 16.6709C15 16.3042 15.3 16.0042 15.6667 16.0042C16.0333 16.0042 16.3333 16.3042 16.3333 16.6709ZM20.42 7.9309L16.8133 4.20424C16.56 3.93757 16.1333 3.9309 15.8733 4.1909C15.6133 4.4509 15.6 4.8709 15.86 5.1309L19.2867 8.66424H13.6667C11.8267 8.66424 10.3333 10.1576 10.3333 11.9976V15.3309C10.3333 15.6976 10.6333 15.9976 11 15.9976C11.3667 15.9976 11.6667 15.6976 11.6667 15.3309V11.9976C11.6667 10.8976 12.5667 9.99757 13.6667 9.99757H19.28L15.8533 13.5309C15.6 13.7976 15.6 14.2176 15.8667 14.4709C15.9933 14.5976 16.1667 14.6576 16.3333 14.6576C16.5 14.6576 16.68 14.5909 16.8133 14.4576L20.4133 10.7442C21.1933 9.96424 21.1933 8.69757 20.42 7.92424V7.9309Z" fill="white"/>
<defs>
<linearGradient id="paint0_linear_339_1267" x1="12" y1="0" x2="12" y2="24" gradientUnits="userSpaceOnUse">
<stop stop-color="#E0055F"/>
<stop offset="1" stop-color="#2020ED"/>
</linearGradient>
</defs>
</svg>
