<svg width="24" height="24" viewBox="0 0 24 24" fill="none" xmlns="http://www.w3.org/2000/svg">
<path d="M20.7638 11.1357L15.9144 6.28623C15.7039 6.07576 15.3627 6.07576 15.1526 6.28623C14.9425 6.49671 14.9421 6.83785 15.1526 7.048L19.0833 10.9774H9.60676C9.3104 10.9774 9.06793 11.2198 9.06793 11.5162C9.06793 11.8126 9.30892 12.055 9.60676 12.055H19.0833L15.1533 15.9851C14.9428 16.1956 14.9428 16.5367 15.1533 16.7468C15.3638 16.957 15.7049 16.9573 15.915 16.7468L20.7645 11.8974C20.8682 11.7923 20.9221 11.6543 20.9221 11.5162C20.9221 11.3781 20.8682 11.24 20.7638 11.1357ZM9.60676 17.9821H6.37381C5.48239 17.9821 4.75734 17.258 4.75734 16.3656V6.66678C4.75734 5.77536 5.48239 5.05031 6.37381 5.05031H9.60676C9.90311 5.05031 10.1456 4.80918 10.1456 4.51148C10.1456 4.21378 9.90311 3.97266 9.60676 3.97266H6.37381C4.888 3.97266 3.67969 5.18097 3.67969 6.66678V16.3656C3.67969 17.8508 4.888 19.0597 6.37381 19.0597H9.60676C9.90311 19.0597 10.1456 18.8173 10.1456 18.5209C10.1456 18.2246 9.90311 17.9821 9.60676 17.9821Z" fill="#0A0A2F"/>
</svg>
