<svg width="21" height="21" viewBox="0 0 21 21" fill="none" xmlns="http://www.w3.org/2000/svg">
<path d="M12.1006 9.84635C12.4256 8.47968 11.234 7.28797 9.86729 7.61297C9.22562 7.7713 8.70063 8.29633 8.54229 8.93799C8.21729 10.3047 9.40895 11.4963 10.7756 11.1713C11.4256 11.013 11.9506 10.488 12.1006 9.84635Z" stroke="black" stroke-width="1.25" stroke-linecap="round" stroke-linejoin="round"/>
<path d="M15.3343 14.7213C16.7593 13.388 17.651 11.4963 17.651 9.38797C17.651 5.33797 14.3676 2.06299 10.326 2.06299C6.2843 2.06299 3.00098 5.3463 3.00098 9.38797C3.00098 11.5046 3.90097 13.413 5.34264 14.7463" stroke="black" stroke-width="1.25" stroke-linecap="round" stroke-linejoin="round"/>
<path d="M6.99265 12.5213C6.22598 11.7047 5.75098 10.6046 5.75098 9.38798C5.75098 6.86298 7.80098 4.81299 10.326 4.81299C12.851 4.81299 14.901 6.86298 14.901 9.38798C14.901 10.6046 14.426 11.6963 13.6593 12.5213" stroke="black" stroke-width="1.25" stroke-linecap="round" stroke-linejoin="round"/>
<path d="M8.90912 14.2796L7.70912 15.7713C6.75912 16.963 7.60078 18.7213 9.12578 18.7213H11.5174C13.0424 18.7213 13.8925 16.9547 12.9341 15.7713L11.7341 14.2796C11.0175 13.3713 9.63412 13.3713 8.90912 14.2796Z" stroke="black" stroke-width="1.25" stroke-linecap="round" stroke-linejoin="round"/>
</svg>
