<svg width="24" height="24" viewBox="0 0 24 24" fill="none" xmlns="http://www.w3.org/2000/svg">
<g clip-path="url(#clip0_301_1982)">
<path d="M8.31903 12.0106C8.31903 12.4888 7.95869 12.8188 7.51079 12.8188C7.06289 12.8188 6.70255 12.4888 6.70255 12.0106C6.70255 11.593 7.06289 11.2023 7.51079 11.2023C7.95869 11.2023 8.31903 11.593 8.31903 12.0106ZM7.7802 8.77761C7.7802 8.36002 8.14054 7.96938 8.58844 7.96938C9.03634 7.96938 9.39668 8.36002 9.39668 8.77761C9.39668 9.25582 9.03634 9.58585 8.58844 9.58585C8.14054 9.58585 7.7802 9.25582 7.7802 8.77761ZM12.6296 7.69996C12.6296 8.17817 12.2693 8.5082 11.8214 8.5082C11.3735 8.5082 11.0131 8.17817 11.0131 7.69996C11.0131 7.28237 11.3735 6.89173 11.8214 6.89173C12.2693 6.89173 12.6296 7.28237 12.6296 7.69996ZM14.2461 8.77761C14.2461 8.36002 14.6064 7.96938 15.0543 7.96938C15.5022 7.96938 15.8626 8.36002 15.8626 8.77761C15.8626 9.25582 15.5022 9.58585 15.0543 9.58585C14.6064 9.58585 14.2461 9.25582 14.2461 8.77761ZM18.0819 14.1659H14.7849C13.8925 14.1659 13.1684 14.9202 13.1684 15.8126C13.1684 15.9271 13.1819 16.0383 13.2021 16.146C13.2762 16.4895 13.421 16.7926 13.5692 17.153C13.7713 17.6177 13.9767 18.0791 13.9767 18.5674C13.9767 19.6417 13.2493 20.6115 12.1784 20.6553C12.0605 20.6587 11.9393 20.6621 11.8214 20.6621C7.05953 20.6621 3.2002 16.8027 3.2002 12.0409C3.2002 7.27901 7.05953 3.41968 11.8214 3.41968C16.5832 3.41968 20.4426 7.27901 20.4426 12.0409C20.4426 12.0712 20.4123 12.1015 20.4123 12.1318C20.4291 13.361 19.311 14.1962 18.0819 14.1962V14.1659ZM19.3346 12.1183C19.3346 12.0947 19.3649 12.0678 19.3649 12.0106C19.3649 7.87508 15.9872 4.46702 11.8214 4.46702C7.6556 4.46702 4.27784 7.87508 4.27784 12.0106C4.27784 16.2067 7.6556 19.5844 11.8214 19.5844C11.9258 19.5844 12.0302 19.581 12.1346 19.5777C12.4848 19.5642 12.899 19.2173 12.899 18.5674C12.899 18.3923 12.835 18.17 12.6667 17.7793C12.6431 17.7288 12.6195 17.675 12.5656 17.6177C12.4478 17.291 12.2457 16.833 12.148 16.3717C12.111 16.1898 12.0908 16.0012 12.0908 15.8126C12.0908 14.3241 13.2964 13.1185 14.7849 13.1185H18.0819C18.9002 13.1185 19.3582 12.5932 19.3346 12.1183Z" fill="black"/>
</g>
<defs>
<clipPath id="clip0_301_1982">
<rect width="17.2424" height="17.2424" fill="white" transform="translate(3.2002 3.41968)"/>
</clipPath>
</defs>
</svg>
