<svg width="24" height="24" viewBox="0 0 24 24" fill="none" xmlns="http://www.w3.org/2000/svg">
<path d="M12.3009 3.54016C7.53902 3.54016 3.67969 7.39949 3.67969 12.1614C3.67969 16.9232 7.53902 20.7825 12.3009 20.7825C17.0627 20.7825 20.9221 16.9232 20.9221 12.1614C20.9221 7.39949 17.0627 3.54016 12.3009 3.54016ZM12.3009 19.7049C8.14183 19.7049 4.75734 16.3204 4.75734 12.1614C4.75734 8.0023 8.14183 4.61781 12.3009 4.61781C16.4599 4.61781 19.8444 8.0023 19.8444 12.1614C19.8444 16.3204 16.4599 19.7049 12.3009 19.7049ZM11.7621 15.1249C11.3158 15.1249 10.9538 15.4869 10.9538 15.9331C10.9538 16.3793 11.3158 16.7414 11.7621 16.7414C12.2083 16.7414 12.5703 16.3793 12.5703 15.9331C12.5703 15.4869 12.21 15.1249 11.7621 15.1249ZM13.2977 7.85076H11.3041C10.0715 7.85076 9.06793 8.85432 9.06793 10.0869V10.4102C9.06793 10.708 9.30892 10.949 9.60676 10.949C9.90459 10.949 10.1456 10.7065 10.1456 10.4102V10.0869C10.1456 9.44702 10.6642 8.9284 11.3041 8.9284H13.2994C13.9376 8.9284 14.4562 9.44702 14.4562 10.0869C14.4562 10.5072 14.2278 10.8951 13.8817 11.0877L11.8462 12.1041C11.4623 12.3196 11.2232 12.7237 11.2232 13.1649V13.7778C11.2232 14.0742 11.4657 14.3166 11.7621 14.3166C12.0584 14.3166 12.3009 14.0742 12.3009 13.7778V13.1649C12.3009 13.116 12.3272 13.0707 12.3493 13.0581L14.3837 12.0404C15.0927 11.6461 15.5338 10.8985 15.5338 10.0869C15.5338 8.85432 14.5303 7.85076 13.2977 7.85076Z" fill="#181941"/>
</svg>
