<svg width="24" height="24" viewBox="0 0 24 24" fill="none" xmlns="http://www.w3.org/2000/svg">
<path d="M11.1326 3.60145C11.1326 3.30388 11.4054 3.06262 11.6714 3.06262C11.9981 3.06262 12.2406 3.30388 12.2406 3.60145V4.16688C14.965 4.4373 17.09 6.73336 17.09 9.52851V10.5085C17.09 11.9802 17.676 13.3912 18.7166 14.4352L18.8075 14.5261C19.087 14.8056 19.2453 15.1559 19.2453 15.5802C19.2453 16.4053 18.5785 17.0721 17.7534 17.0721H5.6494C4.82601 17.0721 4.1582 16.4053 4.1582 15.5802C4.1582 15.1559 4.31534 14.8056 4.59499 14.5261L4.6876 14.4352C5.72854 13.3912 6.3135 11.9802 6.3135 10.5085V9.52851C6.3135 6.73336 8.43849 4.4373 11.1629 4.16688L11.1326 3.60145ZM11.6714 5.21792C9.32081 5.21792 7.36084 7.14758 7.36084 9.52851V10.5085C7.36084 12.2664 6.6927 13.9536 5.4497 15.1963L5.35709 15.2872C5.27929 15.3647 5.20554 15.4724 5.20554 15.5802C5.20554 15.8092 5.42107 15.9944 5.6494 15.9944H17.7534C17.9824 15.9944 18.1676 15.8092 18.1676 15.5802C18.1676 15.4724 18.1239 15.3647 18.0464 15.2872L17.9555 15.1963C16.7094 13.9536 16.0123 12.2664 16.0123 10.5085V9.52851C16.0123 7.14758 14.0827 5.21792 11.6714 5.21792ZM11.6714 19.2274C12.1698 19.2274 12.5706 18.9276 12.7188 18.51C12.8164 18.2272 13.1263 18.052 13.4058 18.18C13.6853 18.281 13.8335 18.5875 13.7358 18.867C13.4395 19.7056 12.6413 20.305 11.6714 20.305C10.7622 20.305 9.96404 19.7056 9.66768 18.867C9.57002 18.5875 9.7182 18.281 9.99771 18.18C10.2772 18.052 10.5871 18.2272 10.6847 18.51C10.8329 18.9276 11.2336 19.2274 11.6714 19.2274Z" fill="#181941"/>
</svg>
