<svg width="24" height="24" viewBox="0 0 24 24" fill="none" xmlns="http://www.w3.org/2000/svg">
<path d="M15.5332 11.0822C15.8295 11.0822 16.072 11.3247 16.072 11.621C16.072 11.9174 15.8295 12.1599 15.5332 12.1599C13.7503 12.1599 12.3002 13.61 12.3002 15.3928C12.3002 17.1757 13.7503 18.6258 15.5332 18.6258C17.316 18.6258 18.7661 17.1757 18.7661 15.3928V7.31045C18.7661 7.0141 19.0072 6.77163 19.3049 6.77163C19.6026 6.77163 19.8438 7.0141 19.8438 7.31045V15.3928C19.8438 17.7697 17.9104 19.7034 15.5332 19.7034C13.1559 19.7034 11.2226 17.7697 11.2226 15.3928C11.2226 13.0159 13.1556 11.0822 15.5332 11.0822ZM13.9167 4.61633C14.213 4.61633 14.4555 4.85746 14.4555 5.15516C14.4555 5.45286 14.213 5.69398 13.9167 5.69398C9.46128 5.69398 5.83432 9.32094 5.83432 13.7763C5.83432 14.0742 5.59333 14.3152 5.29549 14.3152C4.99766 14.3152 4.75667 14.0727 4.75667 13.7763C4.75667 8.72487 8.89551 4.61633 13.9167 4.61633ZM13.9167 7.84928C14.213 7.84928 14.4555 8.09175 14.4555 8.3881C14.4555 8.68446 14.213 8.92693 13.9167 8.92693C11.2428 8.92693 9.06726 11.1024 9.06726 13.7763C9.06726 14.0742 8.82627 14.3152 8.52844 14.3152C8.2306 14.3152 7.98961 14.0727 7.98961 13.7763C7.98961 10.4794 10.6501 7.84928 13.9167 7.84928Z" fill="black"/>
</svg>
