<svg width="24" height="24" viewBox="0 0 24 24" fill="none" xmlns="http://www.w3.org/2000/svg">
<g clip-path="url(#clip0_301_1974)">
<path d="M11.8209 12.3979C14.2018 12.3979 16.1315 10.4679 16.1315 8.08733C16.1315 5.70673 14.2018 3.77673 11.8209 3.77673C9.43995 3.77673 7.51029 5.70673 7.51029 8.08733C7.51029 10.4679 9.43995 12.3979 11.8209 12.3979ZM11.8209 4.85438C13.6037 4.85438 15.0538 6.30449 15.0538 8.08733C15.0538 9.86983 13.6037 11.3203 11.8209 11.3203C10.038 11.3203 8.58794 9.86882 8.58794 8.08733C8.58794 6.30449 10.0394 4.85438 11.8209 4.85438ZM13.5283 14.0144H10.1135C6.89098 14.0144 4.27734 16.6277 4.27734 19.8505C4.27734 20.4951 4.8 21.0181 5.44457 21.0181H18.1979C18.8424 21.0191 19.3644 20.4971 19.3644 19.8505C19.3644 16.6277 16.7511 14.0144 13.5283 14.0144ZM18.1959 19.9415H5.44457C5.3954 19.9415 5.35499 19.9011 5.35499 19.8505C5.35499 17.2271 7.49008 15.092 10.1135 15.092H13.5249C16.1517 15.092 18.2868 17.2271 18.2868 19.8505C18.2868 19.9011 18.2464 19.9415 18.1959 19.9415Z" fill="black"/>
</g>
<defs>
<clipPath id="clip0_301_1974">
<rect width="15.0871" height="17.2424" fill="white" transform="translate(4.27734 3.77673)"/>
</clipPath>
</defs>
</svg>
