<svg width="24" height="24" viewBox="0 0 24 24" fill="none" xmlns="http://www.w3.org/2000/svg">
<path d="M19.3056 4.02197C19.6019 4.02197 19.8444 4.2631 19.8444 4.5608C19.8444 4.8585 19.6019 5.09962 19.3056 5.09962H6.37381C5.48104 5.09962 4.75734 5.82333 4.75734 6.71609V16.4149C4.75734 17.3074 5.48104 18.0314 6.37381 18.0314H18.2279C19.1204 18.0314 19.8444 17.3074 19.8444 16.4149V8.87139C19.8444 7.97896 19.1204 7.25492 18.2279 7.25492H7.45146C7.1551 7.25492 6.91263 7.01245 6.91263 6.71609C6.91263 6.41974 7.1551 6.17727 7.45146 6.17727H18.2279C19.7164 6.17727 20.9221 7.38289 20.9221 8.87139V16.4149C20.9221 17.9034 19.7164 19.1091 18.2279 19.1091H6.37381C4.88598 19.1091 3.67969 17.9034 3.67969 16.4149V6.71609C3.67969 5.22827 4.88598 4.02197 6.37381 4.02197H19.3056ZM15.8032 12.6432C15.8032 12.1953 16.1636 11.8349 16.6115 11.8349C17.0594 11.8349 17.4197 12.1953 17.4197 12.6432C17.4197 13.0911 17.0594 13.4514 16.6115 13.4514C16.1636 13.4514 15.8032 13.0911 15.8032 12.6432Z" fill="#181941"/>
</svg>
