<svg width="58" height="58" viewBox="0 0 58 58" fill="none" xmlns="http://www.w3.org/2000/svg">
<rect x="10.2712" y="19.9377" width="37.4583" height="37.4583" rx="18.7292" fill="white"/>
<rect x="10.2712" y="19.9377" width="37.4583" height="37.4583" rx="18.7292" stroke="#E9E9F2" stroke-width="1.20833"/>
<path fill-rule="evenodd" clip-rule="evenodd" d="M34.9299 32.7368C33.9877 31.7946 32.9599 31.9994 32.5782 32.1191L32.5733 32.1207C32.5712 32.1213 32.5691 32.1223 32.5672 32.1234V32.1234V32.1234C32.5657 32.1243 32.5643 32.1254 32.5631 32.1266C32.5618 32.1278 32.5603 32.1293 32.5586 32.131L32.5307 32.1587V32.1587C32.1368 32.5526 31.9399 32.7496 31.848 32.9689C31.7228 33.2676 31.7228 33.6041 31.848 33.9029C31.9399 34.1222 32.1368 34.3191 32.5307 34.713L32.9537 35.136C33.3476 35.53 33.5446 35.7269 33.7639 35.8188C34.0626 35.944 34.3991 35.944 34.6979 35.8188C34.9172 35.7269 35.1141 35.53 35.5081 35.136V35.136L35.5358 35.1082C35.5375 35.1065 35.5389 35.105 35.5402 35.1037C35.5414 35.1025 35.5424 35.1011 35.5433 35.0996V35.0996V35.0996C35.5445 35.0977 35.5454 35.0956 35.5461 35.0934L35.5476 35.0886C35.6674 34.7069 35.8722 33.6791 34.9299 32.7368ZM31.8714 38.7727C32.3499 38.2942 32.5892 38.0549 32.6788 37.779C32.7577 37.5364 32.7577 37.2749 32.6788 37.0322C32.5892 36.7563 32.3499 36.5171 31.8714 36.0386L31.6282 35.7954C31.1497 35.3169 30.9104 35.0776 30.6345 34.988C30.3918 34.9091 30.1304 34.9091 29.8877 34.988C29.6118 35.0776 29.3726 35.3169 28.8941 35.7954L22.8442 41.8453C22.7896 41.8999 22.7627 41.927 22.7438 41.9474V41.9474C22.7429 41.9483 22.7423 41.9496 22.7421 41.9509V41.9509C22.7377 41.9783 22.733 42.0162 22.7238 42.0929L22.399 44.7995C22.3685 45.0543 22.3517 45.1996 22.3484 45.3046V45.3046C22.3482 45.3123 22.3544 45.3186 22.3622 45.3184V45.3184C22.4672 45.3151 22.6125 45.2983 22.8673 45.2677L25.5739 44.9429C25.6506 44.9337 25.6885 44.9291 25.7159 44.9247V44.9247C25.7172 44.9245 25.7184 44.9239 25.7194 44.923V44.923C25.7398 44.9041 25.7669 44.8772 25.8215 44.8226L31.8714 38.7727ZM32.1581 30.78C32.7574 30.592 34.4406 30.2626 35.9224 31.7444C37.4042 33.2262 37.0748 34.9094 36.8868 35.5087C36.8698 35.5631 36.8518 35.6191 36.8088 35.7085C36.7748 35.7793 36.716 35.8763 36.669 35.9393C36.6078 36.0214 36.552 36.077 36.5081 36.1209C36.5055 36.1235 36.503 36.126 36.5005 36.1285L26.8139 45.815C26.807 45.8219 26.8 45.829 26.7928 45.8363C26.7137 45.9157 26.6141 46.0158 26.4942 46.0952C26.3902 46.1642 26.2775 46.219 26.159 46.2582C26.0225 46.3033 25.8822 46.3198 25.7709 46.3329C25.7607 46.3341 25.7508 46.3353 25.7411 46.3365L23.0088 46.6643C22.789 46.6907 22.5808 46.7157 22.4061 46.7212C22.2192 46.7271 21.9896 46.7153 21.7585 46.6111C21.4463 46.4704 21.1963 46.2205 21.0557 45.9083C20.9515 45.6772 20.9397 45.4475 20.9456 45.2607C20.951 45.086 20.976 44.8778 21.0024 44.658L21.3303 41.9256C21.3315 41.916 21.3326 41.906 21.3338 41.8959C21.347 41.7846 21.3635 41.6443 21.4086 41.5078C21.4477 41.3893 21.5026 41.2765 21.5715 41.1725C21.651 41.0527 21.7511 40.9531 21.8305 40.874C21.8378 40.8668 21.8449 40.8597 21.8517 40.8529L31.5383 31.1663C31.5408 31.1638 31.5433 31.1613 31.5459 31.1587C31.5898 31.1147 31.6454 31.059 31.7275 30.9978C31.7905 30.9508 31.8875 30.892 31.9583 30.858C32.0476 30.815 32.1037 30.797 32.1581 30.78Z" fill="#040509"/>
<rect x="10.2712" y="10.2707" width="37.4583" height="37.4583" rx="18.7292" fill="white"/>
<rect x="10.2712" y="10.2707" width="37.4583" height="37.4583" rx="18.7292" stroke="#E9E9F2" stroke-width="1.20833"/>
<path fill-rule="evenodd" clip-rule="evenodd" d="M31.9817 23.9262C30.8264 23.9262 29.8898 24.8627 29.8898 26.0181C29.8898 27.1734 30.8264 28.11 31.9817 28.11C33.137 28.11 34.0736 27.1734 34.0736 26.0181C34.0736 24.8627 33.137 23.9262 31.9817 23.9262ZM31.0918 26.0181C31.0918 25.5266 31.4902 25.1282 31.9817 25.1282C32.4732 25.1282 32.8716 25.5266 32.8716 26.0181C32.8716 26.5095 32.4732 26.908 31.9817 26.908C31.4902 26.908 31.0918 26.5095 31.0918 26.0181Z" fill="#040509"/>
<path fill-rule="evenodd" clip-rule="evenodd" d="M28.975 20.9443H29.0248C30.2377 20.9443 31.1819 20.9443 31.9412 21.0013C32.712 21.0591 33.3406 21.1781 33.9124 21.4419C35.0808 21.981 36.0188 22.919 36.5579 24.0874C36.8217 24.6591 36.9407 25.2878 36.9985 26.0585C37.0555 26.8179 37.0555 27.762 37.0554 28.975V29.0248C37.0555 30.2378 37.0555 31.1819 36.9985 31.9412C36.9407 32.712 36.8217 33.3406 36.5579 33.9124C36.0787 34.951 35.2843 35.8076 34.293 36.3637C34.2857 36.3718 34.2781 36.3798 34.2703 36.3876C34.1686 36.4894 34.0394 36.547 33.9066 36.5605C33.3364 36.8225 32.7094 36.9408 31.9412 36.9985C31.1819 37.0555 30.2378 37.0555 29.0248 37.0554H28.975C27.762 37.0555 26.8179 37.0555 26.0585 36.9985C25.2878 36.9407 24.6591 36.8217 24.0874 36.5579C22.919 36.0188 21.981 35.0808 21.4419 33.9124C21.1781 33.3406 21.0591 32.712 21.0013 31.9412C20.9443 31.1819 20.9443 30.2377 20.9443 29.0248V28.975C20.9443 27.762 20.9443 26.8179 21.0013 26.0585C21.0591 25.2878 21.1781 24.6591 21.4419 24.0874C21.981 22.919 22.919 21.981 24.0874 21.4419C24.6591 21.1781 25.2878 21.0591 26.0585 21.0013C26.8179 20.9443 27.762 20.9443 28.975 20.9443ZM35.4455 33.4534C35.1069 34.1653 34.5767 34.7644 33.9192 35.1866L31.7032 32.9705L31.9443 32.7293C32.2688 32.4049 32.4869 32.1874 32.6683 32.0334C32.8443 31.8839 32.9459 31.8299 33.0233 31.8047C33.2245 31.7393 33.4412 31.7393 33.6424 31.8047C33.7199 31.8299 33.8214 31.8839 33.9974 32.0334C34.1787 32.1873 34.3968 32.4047 34.7211 32.7291L35.4455 33.4534ZM35.7998 31.8513C35.7937 31.9331 35.7869 32.0117 35.7793 32.0873L35.5539 31.8618C35.2512 31.5592 34.9986 31.3065 34.7753 31.117C34.5425 30.9193 34.3023 30.7552 34.0138 30.6615C33.5712 30.5177 33.0945 30.5177 32.6518 30.6615C32.3633 30.7552 32.1232 30.9193 31.8903 31.1171C31.667 31.3066 31.4143 31.5593 31.1116 31.8621L30.8469 32.1267L28.9777 30.3119C28.6748 30.0178 28.4217 29.7721 28.1985 29.588C27.9654 29.3958 27.7258 29.2368 27.4394 29.1471C26.9996 29.0092 26.5276 29.0126 26.0899 29.157C25.8048 29.251 25.5676 29.4135 25.3375 29.6091C25.1169 29.7965 24.8675 30.0459 24.569 30.3445L22.2938 32.6197C22.2526 32.397 22.222 32.1447 22.2 31.8513C22.1468 31.1422 22.1464 30.243 22.1464 28.9999C22.1464 27.7568 22.1468 26.8576 22.2 26.1485C22.2527 25.4455 22.3549 24.9779 22.5334 24.591C22.9527 23.6822 23.6822 22.9527 24.591 22.5334C24.9779 22.3549 25.4455 22.2527 26.1485 22.2C26.8576 22.1468 27.7568 22.1464 28.9999 22.1464C30.243 22.1464 31.1422 22.1468 31.8513 22.2C32.5543 22.2527 33.0219 22.3549 33.4088 22.5334C34.3176 22.9527 35.0471 23.6822 35.4664 24.591C35.6449 24.9779 35.7471 25.4455 35.7998 26.1485C35.853 26.8576 35.8534 27.7568 35.8534 28.9999C35.8534 30.243 35.853 31.1422 35.7998 31.8513ZM24.591 35.4664C23.8331 35.1167 23.1999 34.5513 22.7673 33.8461L25.4018 31.2116C25.7219 30.8915 25.937 30.6771 26.1158 30.5251C26.2893 30.3777 26.3896 30.3239 26.4664 30.2986C26.6654 30.2329 26.8799 30.2314 27.0798 30.294C27.157 30.3182 27.258 30.3705 27.4337 30.5153C27.6148 30.6647 27.833 30.8759 28.1578 31.1912L30.4313 33.3986L32.7192 35.6865C32.4729 35.7377 32.1893 35.7744 31.8513 35.7998C31.1422 35.853 30.243 35.8534 28.9999 35.8534C27.7568 35.8534 26.8576 35.853 26.1485 35.7998C25.4455 35.7471 24.9779 35.6449 24.591 35.4664Z" fill="#040509"/>
<rect x="0.604167" y="10.2707" width="37.4583" height="37.4583" rx="18.7292" fill="white"/>
<rect x="0.604167" y="10.2707" width="37.4583" height="37.4583" rx="18.7292" stroke="#E9E9F2" stroke-width="1.20833"/>
<path fill-rule="evenodd" clip-rule="evenodd" d="M19.4886 20.9443C17.0857 20.9443 15.1377 22.8923 15.1377 25.2953L15.1377 28.2927C15.1377 30.6956 17.0857 32.6436 19.4886 32.6436C21.8916 32.6436 23.8396 30.6956 23.8396 28.2927V25.2953C23.8396 22.8923 21.8916 20.9443 19.4886 20.9443ZM16.346 25.2953C16.346 23.5597 17.753 22.1527 19.4886 22.1527C21.2243 22.1527 22.6313 23.5597 22.6313 25.2953V28.2927C22.6313 30.0283 21.2243 31.4353 19.4886 31.4353C17.753 31.4353 16.346 30.0283 16.346 28.2927V25.2953Z" fill="#040509"/>
<path d="M14.098 28.2927C14.098 27.959 13.8275 27.6885 13.4938 27.6885C13.1601 27.6885 12.8896 27.959 12.8896 28.2927C12.8896 30.3655 13.8415 32.0225 15.1299 33.1498C16.2315 34.1137 17.6014 34.711 18.8845 34.8567V36.5356C18.8845 36.8693 19.155 37.1398 19.4886 37.1398C19.8223 37.1398 20.0928 36.8693 20.0928 36.5356V34.8567C21.3759 34.711 22.7457 34.1137 23.8474 33.1498C25.1358 32.0225 26.0876 30.3655 26.0876 28.2927C26.0876 27.959 25.8172 27.6885 25.4835 27.6885C25.1498 27.6885 24.8793 27.959 24.8793 28.2927C24.8793 29.9666 24.1184 31.3071 23.0517 32.2405C21.9734 33.184 20.6131 33.6834 19.4886 33.6834C18.3642 33.6834 17.0039 33.184 15.9256 32.2405C14.8589 31.3071 14.098 29.9666 14.098 28.2927Z" fill="#040509"/>
<rect x="1" y="1" width="56" height="56" rx="28" fill="url(#paint0_linear_399_3232)"/>
<rect x="1" y="1" width="56" height="56" rx="28" stroke="white" stroke-width="2"/>
<path d="M36.3961 26.249C38.942 26.249 41 24.1834 41 21.6451C41 19.0993 38.942 17.0337 36.3961 17.0337C33.8503 17.0337 31.7846 19.0993 31.7846 21.6451C31.7846 22.042 31.8508 22.4207 31.9458 22.7883L26.6375 25.4982C25.6357 24.318 24.1448 23.5668 22.4745 23.5668C19.4523 23.5668 17 26.019 17 29.0413C17 32.0545 19.4523 34.5067 22.4745 34.5067C24.0076 34.5067 25.3897 33.874 26.3815 32.8589L29.8724 34.9329C29.7238 35.3857 29.6232 35.8603 29.6232 36.3626C29.6232 38.9009 31.6889 40.9665 34.2347 40.9665C36.7806 40.9665 38.8386 38.9009 38.8386 36.3626C38.8386 33.8168 36.7806 31.7512 34.2347 31.7512C32.9121 31.7512 31.7274 32.3161 30.8863 33.2089L27.497 31.1954C27.7812 30.5339 27.9399 29.806 27.9399 29.0413C27.9399 28.4083 27.8273 27.8028 27.6301 27.2371L32.8612 24.5668C33.7073 25.5854 34.9681 26.249 36.3961 26.249Z" fill="white"/>
<defs>
<linearGradient id="paint0_linear_399_3232" x1="58" y1="36.5076" x2="0.134355" y2="33.7193" gradientUnits="userSpaceOnUse">
<stop stop-color="#E54D60"/>
<stop offset="1" stop-color="#A342FF"/>
</linearGradient>
</defs>
</svg>
