<svg width="10" height="10" viewBox="0 0 10 10" fill="none" xmlns="http://www.w3.org/2000/svg">
<g id="Group 1597881663">
<path id="Vector" d="M7.19355 2.17529H0.830485C0.481846 2.17529 0.199219 2.45792 0.199219 2.80656V9.16962C0.199219 9.51826 0.481846 9.80089 0.830485 9.80089H7.19355C7.54219 9.80089 7.82481 9.51826 7.82481 9.16962V2.80656C7.82481 2.45792 7.54219 2.17529 7.19355 2.17529Z" fill="#B5B5B5"/>
<path id="Vector_2" d="M9.16666 7.82747C9.24956 7.82747 9.33165 7.81114 9.40824 7.77942C9.48482 7.74769 9.55442 7.70119 9.61303 7.64257C9.67165 7.58396 9.71815 7.51437 9.74988 7.43778C9.7816 7.36119 9.79793 7.2791 9.79793 7.1962V0.830486C9.79758 0.663171 9.73096 0.502809 9.61265 0.3845C9.49434 0.26619 9.33398 0.199569 9.16666 0.199219H2.80094C2.63352 0.199219 2.47296 0.265727 2.35457 0.384113C2.23619 0.502498 2.16968 0.663063 2.16968 0.830486V1.66731H7.19329C7.49472 1.66731 7.7838 1.78705 7.99695 2.0002C8.21009 2.21334 8.32983 2.50243 8.32983 2.80386V7.82747H9.16666Z" fill="#B5B5B5"/>
</g>
</svg>
