<svg width="191" height="173" viewBox="0 0 191 173" fill="none" xmlns="http://www.w3.org/2000/svg">
<path d="M162.807 136.983C165.976 144.429 175.478 160.618 189.408 170.462C176.703 173.805 154.971 166.272 142.489 151.784C138.365 154.124 104.523 171.102 72.7234 168.13C40.9241 165.158 8.82735 148.515 2.58597 92.0482C-3.65481 35.582 41.2209 2 76.8841 2C101.848 2 136.136 7.34974 135.431 45.3898C134.539 62.3301 118.937 58.3428 116.262 54.4539C111.841 48.0269 115.827 39.1264 124.732 38.2574C130.824 37.6632 144.347 36.4742 154.302 48.3621C167.685 64.3409 165.552 104.964 148.804 121.322C136.025 133.804 113.809 135.994 108.684 125.037C104.375 115.825 103.928 97.5464 108.386 90.8598C110.912 86.4016 104.201 112.554 96.7093 121.322C89.2173 130.089 77.3503 136.191 76.8841 115.675C76.5867 102.599 78.0731 94.5747 73.764 90.7114C69.4549 86.8475 54.8921 96.2095 50.7313 114.041C46.5706 131.873 46.8674 128.306 46.719 134.844C46.5706 141.383 46.2732 128.009 48.6507 109.435C51.0282 90.8603 57.1205 46.7267 68.4143 32.9071C79.7074 19.0881 85.9918 21.6309 88.4752 23.1004C92.1156 25.255 99.7678 43.1602 80.45 66.6387C61.1329 90.1166 39.8834 90.1166 34.6827 90.7114" stroke="#F90240" stroke-width="2.91" stroke-linecap="round" stroke-linejoin="round"/>
</svg>
