<svg width="96" height="96" viewBox="0 0 96 96" fill="none" xmlns="http://www.w3.org/2000/svg">
<g id="Icon">
<g id="Vector">
<path fill-rule="evenodd" clip-rule="evenodd" d="M48 41.4999C51.5899 41.4999 54.5 38.5898 54.5 34.9999C54.5 31.4101 51.5899 28.4999 48 28.4999C44.4102 28.4999 41.5 31.4101 41.5 34.9999C41.5 38.5898 44.4102 41.4999 48 41.4999ZM48 52.3333C57.573 52.3333 65.3334 44.5729 65.3334 34.9999C65.3334 25.427 57.573 17.6666 48 17.6666C38.4271 17.6666 30.6667 25.427 30.6667 34.9999C30.6667 44.5729 38.4271 52.3333 48 52.3333Z" fill="#E1E0E0"/>
<path fill-rule="evenodd" clip-rule="evenodd" d="M23.085 78.3272L23.0834 78.3333H12.25C12.25 75.043 13.796 72.0028 15.6323 69.5966C17.5454 67.0897 20.1805 64.7254 23.2895 62.6943C29.5189 58.6248 38.1247 55.5833 48 55.5833C58.1136 55.5833 66.7636 59.3191 72.8648 63.6114C75.9182 65.7596 78.4507 68.1278 80.2801 70.3988C81.1925 71.5314 81.9973 72.7232 82.5979 73.9284C83.1541 75.0445 83.75 76.5952 83.75 78.3333H72.9167C72.9167 78.6635 72.9667 78.8771 72.9891 78.9534C72.9758 78.9187 72.949 78.855 72.9018 78.7603C72.7347 78.4251 72.4038 77.8903 71.8435 77.1948C70.7276 75.8095 68.9675 74.1153 66.6314 72.4717C61.9535 69.1808 55.4368 66.4166 48 66.4166C40.325 66.4166 33.7641 68.7917 29.2144 71.7639C26.934 73.2536 25.2764 74.8164 24.2443 76.1688C23.2265 77.5025 23.0991 78.2451 23.085 78.3272Z" fill="#E1E0E0"/>
<path fill-rule="evenodd" clip-rule="evenodd" d="M48 84.8333C68.3425 84.8333 84.8334 68.3424 84.8334 47.9999C84.8334 27.6574 68.3425 11.1666 48 11.1666C27.6576 11.1666 11.1667 27.6574 11.1667 47.9999C11.1667 68.3424 27.6576 84.8333 48 84.8333ZM48 95.6666C74.3256 95.6666 95.6667 74.3255 95.6667 47.9999C95.6667 21.6743 74.3256 0.333252 48 0.333252C21.6745 0.333252 0.333374 21.6743 0.333374 47.9999C0.333374 74.3255 21.6745 95.6666 48 95.6666Z" fill="#E1E0E0"/>
</g>
</g>
</svg>
