<svg width="13" height="9" viewBox="0 0 13 9" fill="none" xmlns="http://www.w3.org/2000/svg">
<path id="Vector" d="M8.18938 3.33209C8.12306 3.09139 7.87407 2.94986 7.63337 3.01633C7.39252 3.08265 7.25129 3.33164 7.31746 3.57234C7.52289 4.3178 7.31234 5.11918 6.76778 5.66358L5.24008 7.19113C4.8345 7.59687 4.29492 7.82024 3.72143 7.82024C3.14763 7.82024 2.60836 7.59687 2.20262 7.19113C1.79703 6.78554 1.57366 6.24612 1.57366 5.67247C1.57366 5.09883 1.79703 4.55956 2.20277 4.15382L3.73032 2.62612C4.27487 2.08157 5.0767 1.87071 5.82141 2.07629C6.06196 2.14261 6.31125 2.00153 6.37742 1.76053C6.44374 1.51983 6.30251 1.27084 6.06181 1.20452C5.0036 0.912579 3.86491 1.21236 3.09081 1.98676L1.56326 3.51431C0.986757 4.09082 0.66919 4.85723 0.66919 5.67247C0.669039 6.48772 0.986456 7.25413 1.56311 7.83049C2.13962 8.40699 2.90603 8.72456 3.72127 8.72456C4.53652 8.72456 5.30293 8.40714 5.87929 7.83049L7.40699 6.30294C8.18124 5.52899 8.48102 4.3906 8.18938 3.33209ZM11.9009 1.16971C11.3245 0.593202 10.5581 0.275635 9.74285 0.275635C8.9276 0.275635 8.16119 0.593051 7.58484 1.16971L6.05699 2.69741C5.28274 3.47136 4.98311 4.60975 5.27475 5.66825C5.34107 5.90896 5.59036 6.05078 5.83076 5.98401C6.07161 5.9177 6.21283 5.66871 6.14667 5.42801C5.94123 4.68254 6.15179 3.88116 6.69634 3.33676L8.22404 1.80906C8.62963 1.40332 9.16921 1.17996 9.7427 1.17996C10.3162 1.17996 10.8558 1.40332 11.2614 1.80906C11.6669 2.21465 11.8905 2.75408 11.8905 3.32772C11.8905 3.90151 11.6671 4.44079 11.2614 4.84653L9.73396 6.37423C9.18926 6.91878 8.38803 7.12964 7.64256 6.92391C7.40247 6.85774 7.15303 6.99881 7.08656 7.23966C7.02039 7.48036 7.16162 7.72935 7.40247 7.79567C7.67015 7.86952 7.94295 7.90555 8.21379 7.90555C9.01352 7.90555 9.79515 7.5919 10.3735 7.01373L11.901 5.48603C12.4775 4.90953 12.7951 4.14312 12.7951 3.32787C12.7949 2.51262 12.4774 1.74621 11.9009 1.16971Z" fill="#B5B5B5"/>
</svg>
