<svg width="96" height="110" viewBox="0 0 96 110" fill="none" xmlns="http://www.w3.org/2000/svg">
<path d="M89.2882 33.4796H89.1962L89.1499 33.3564L47.7191 33.4177L6.28722 33.3564L6.24194 33.4796H6.1495L0 43.8844H95.4373L89.2882 33.4796Z" fill="#C7A679"/>
<path d="M52.5522 33.4136H51.6893H43.7465H42.8839L41.0488 43.8843H54.3874L52.5522 33.4136Z" fill="#C6C7CC"/>
<path d="M95.4287 109.343H0.00976562V43.9004H95.4287V109.343Z" fill="#E2C089"/>
<path d="M54.3894 71.0329H41.0508V43.9004H54.3894V71.0329Z" fill="#F3F5F9"/>
<path d="M89.8472 106.104H67.6543V102.429H89.8472V106.104Z" fill="#C29F77"/>
<path d="M77.4645 89.8289L73.9036 86.7886L70.2871 89.8289H71.3933V101.378H76.3586V89.8289H77.4645Z" fill="#C29F77"/>
<path d="M87.214 92.6895L84.5353 90.4023L81.8145 92.6895H82.6468V101.378H86.3822V92.6895H87.214Z" fill="#C29F77"/>
<path d="M18.6344 51.5107H3.39062V49.0605H18.6344V51.5107Z" fill="#C29F77"/>
<path d="M32.9816 51.5107H21.3262V49.0605H32.9816V51.5107Z" fill="#C29F77"/>
<path d="M11.9098 56.6091H3.39062V54.1582H11.9098V56.6091Z" fill="#C29F77"/>
<path d="M32.9808 56.6091H24.4629V54.1582H32.9808V56.6091Z" fill="#C29F77"/>
<path d="M22.4456 56.6091H13.9277V54.1582H22.4456V56.6091Z" fill="#C29F77"/>
<path d="M71.1145 0.234494L71.0586 0.237065L71.0282 0.175226L45.9338 1.36183L20.8355 2.48583L20.8115 2.55017L20.755 2.55277L17.276 8.0633L75.0848 5.40209L71.1145 0.234494Z" fill="#C7A679"/>
<path d="M48.8611 1.22471L48.3392 1.24873L43.5284 1.4702L43.0056 1.49426L42.1419 6.91847L50.221 6.54655L48.8611 1.22471Z" fill="#C6C7CC"/>
<path d="M76.6251 38.9917L18.8271 41.6524L17.2812 8.07178L75.0792 5.41107L76.6251 38.9917Z" fill="#E2C089"/>
<path d="M50.8606 20.4778L42.7815 20.8497L42.1406 6.92725L50.2197 6.55533L50.8606 20.4778Z" fill="#F3F5F9"/>
<path d="M73.166 37.4853L59.7236 38.1041L59.6367 36.2178L73.0792 35.599L73.166 37.4853Z" fill="#C29F77"/>
<path d="M65.2825 29.4791L63.0532 28.0183L60.9351 29.6793L61.6046 29.6484L61.8775 35.5749L64.885 35.4365L64.6121 29.51L65.2825 29.4791Z" fill="#C29F77"/>
<path d="M71.2558 30.6754L69.5792 29.5765L67.9857 30.826L68.4895 30.8028L68.6947 35.2612L70.9574 35.157L70.7522 30.6986L71.2558 30.6754Z" fill="#C29F77"/>
<path d="M28.7425 11.4575L19.509 11.8826L19.4512 10.6255L28.6846 10.2004L28.7425 11.4575Z" fill="#C29F77"/>
<path d="M37.4337 11.0575L30.3723 11.3826L30.3145 10.1255L37.3759 9.80042L37.4337 11.0575Z" fill="#C29F77"/>
<path d="M24.789 14.261L19.6282 14.4986L19.5703 13.2412L24.7311 13.0036L24.789 14.261Z" fill="#C29F77"/>
<path d="M37.5542 13.6736L32.3938 13.9112L32.3359 12.6538L37.4963 12.4163L37.5542 13.6736Z" fill="#C29F77"/>
<path d="M31.171 13.9676L26.011 14.2051L25.9531 12.9478L31.1131 12.7102L31.171 13.9676Z" fill="#C29F77"/>
</svg>
